# Blender v3.1.2 OBJ File: 'Map.blend'
# www.blender.org
mtllib Map012.mtl
o Map.012_Plane.030
v 0.500000 -0.000000 0.500000
v 0.499999 0.000000 -0.500000
v 0.479999 0.109271 -0.500000
v 0.499999 0.089271 -0.500000
v 0.489999 0.106591 -0.500000
v 0.497320 0.099271 -0.500000
v 0.351977 0.109271 -0.500000
v 0.331977 0.089271 -0.500000
v 0.341977 0.106591 -0.500000
v 0.334657 0.099271 -0.500000
v 0.480000 0.109271 0.500000
v 0.500000 0.089271 0.500000
v 0.490000 0.106591 0.500000
v 0.497321 0.099271 0.500000
v 0.351978 0.109271 0.500000
v 0.331978 0.089271 0.500000
v 0.341978 0.106591 0.500000
v 0.334658 0.099271 0.500000
v -0.311979 0.000000 -0.500000
v 0.311977 0.000000 -0.500000
v 0.331977 0.020000 -0.500000
v 0.321977 0.002680 -0.500000
v 0.329298 0.010000 -0.500000
v 0.331978 0.020000 0.500000
v 0.311978 -0.000000 0.500000
v 0.329299 0.010000 0.500000
v 0.321978 0.002679 0.500000
v -0.500001 0.000000 -0.500000
v -0.500000 -0.000000 0.500000
v -0.500000 0.109271 0.500000
v -0.500000 0.089271 0.500000
v -0.500000 0.106591 0.500000
v -0.500000 0.099271 0.500000
v -0.351979 0.109271 -0.500000
v -0.331979 0.089271 -0.500000
v -0.341979 0.106591 -0.500000
v -0.334658 0.099271 -0.500000
v -0.500000 0.089271 -0.500000
v -0.500000 0.109271 -0.499999
v -0.500000 0.099271 -0.499999
v -0.500000 0.106591 -0.499999
v -0.351978 0.109271 0.500000
v -0.331978 0.089271 0.500000
v -0.341978 0.106591 0.500000
v -0.334657 0.099271 0.500000
v -0.331979 0.020000 -0.500000
v -0.329299 0.010000 -0.500000
v -0.321979 0.002680 -0.500000
v -0.311978 -0.000000 0.500000
v -0.331978 0.020000 0.500000
v -0.321978 0.002679 0.500000
v -0.329298 0.010000 0.500000
vt 0.182745 0.714557
vt 0.242641 0.043612
vt 0.242641 0.714557
vt 0.249351 0.714557
vt 0.249351 0.045410
vt 0.182745 0.043612
vt 0.263798 0.141001
vt 0.312777 0.858999
vt 0.263798 0.858999
vt 0.074631 0.148552
vt 0.166421 0.850939
vt 0.074631 0.851198
vt 0.186755 0.858999
vt 0.179385 0.142925
vt 0.186755 0.141001
vt 0.179385 0.858999
vt 0.173488 0.148181
vt 0.173488 0.850817
vt 0.166421 0.148293
vt 0.173488 0.141001
vt 0.067359 0.141301
vt 0.326272 0.858999
vt 0.320182 0.142925
vt 0.326272 0.148181
vt 0.320182 0.858999
vt 0.312777 0.141001
vt 0.250303 0.858999
vt 0.250303 0.141001
vt 0.256393 0.141001
vt 0.256393 0.858999
vt 0.250303 0.141001
vt 0.403087 0.141001
vt 0.410359 0.858069
vt 0.403087 0.857987
vt 0.511727 0.480291
vt 0.884902 0.642322
vt 0.884902 0.480291
vt 0.268671 0.043612
vt 0.314440 0.714557
vt 0.268671 0.714557
vt 0.077408 0.706530
vt 0.175858 0.051283
vt 0.175858 0.707389
vt 0.314440 0.043612
vt 0.321360 0.712759
vt 0.321360 0.043612
vt 0.327050 0.707848
vt 0.182745 0.707330
vt 0.182745 0.044529
vt 0.256060 0.714557
vt 0.254262 0.050322
vt 0.256060 0.057031
vt 0.254262 0.714557
vt 0.405719 0.713108
vt 0.398831 0.043671
vt 0.405719 0.043612
vt 0.256060 0.043612
vt 0.261751 0.714557
vt 0.256060 0.714557
vt 0.261751 0.043612
vt 0.173488 0.858999
vt 0.067359 0.851117
vt 0.250303 0.858999
vt 0.410359 0.141083
vt 0.511727 0.642322
vt 0.077407 0.050424
vt 0.327051 0.043612
vt 0.398831 0.713167
vn -1.0000 0.0000 0.0000
vn -0.7174 0.1940 0.6690
vn -0.9914 0.1305 0.0000
vn 0.0650 0.7298 0.6806
vn 0.1276 0.9881 -0.0859
vn -0.1292 0.9815 -0.1413
vn 0.9915 0.1305 -0.0000
vn 0.7228 0.1843 0.6661
vn 0.7280 0.0958 0.6789
vn 0.8660 0.5000 -0.0000
vn 0.5560 0.4979 0.6656
vn 0.3539 0.9349 -0.0282
vn 0.1090 0.8265 0.5523
vn -0.1532 0.7304 0.6656
vn -0.3825 0.9238 0.0185
vn -0.6228 0.4213 0.6593
vn -0.8660 0.5000 0.0000
vn -0.7279 0.0960 0.6789
vn 1.0000 0.0000 -0.0000
vn 0.7071 0.0004 0.7071
vn 0.0208 0.9779 0.2081
vn 0.5069 0.8365 0.2081
vn -0.5000 0.8660 0.0000
vn -0.1295 0.9767 0.1711
vn 0.1305 0.9914 0.0000
vn -0.1305 0.9914 0.0000
vn 0.9914 0.1305 -0.0000
vn -0.6958 0.6958 -0.1782
vn 0.1293 0.9815 0.1413
vn 0.8672 0.4970 0.0311
vn 0.5016 0.8491 0.1657
vn -0.9888 0.0088 0.1493
vn -0.7008 0.7051 0.1085
vn -0.9929 0.1176 0.0166
vn -0.9906 0.0000 0.1369
vn 0.5000 0.8660 -0.0000
usemtl Material.011
s off
f 28/1/1 31/2/1 38/3/1
f 40/4/1 31/2/1 33/5/1
f 28/1/1 29/6/1 31/2/1
f 40/4/1 38/3/1 31/2/1
s 1
f 24/7/2 8/8/3 21/9/3
f 15/10/4 3/11/5 7/12/6
f 4/13/7 14/14/8 12/15/9
f 6/16/10 13/17/11 14/14/8
f 5/18/12 11/19/13 13/20/11
f 7/12/6 17/21/14 15/10/4
f 9/22/15 18/23/16 17/24/14
f 10/25/17 16/26/18 18/23/16
f 2/27/19 12/15/9 1/28/20
f 21/9/3 26/29/21 24/7/2
f 23/30/17 27/31/22 26/29/21
f 22/32/23 25/33/24 27/34/22
f 49/35/25 20/36/26 19/37/25
f 46/38/27 43/39/27 50/40/27
f 39/41/28 42/42/29 34/43/5
f 35/44/27 45/45/30 43/39/27
f 37/46/10 44/47/31 45/45/30
f 36/48/12 42/42/29 44/49/31
f 39/50/28 32/51/32 30/52/33
f 41/53/34 33/5/35 32/51/32
f 19/54/25 51/55/36 49/56/25
f 48/57/36 52/58/10 51/59/36
f 47/60/10 50/40/27 52/58/10
f 24/7/2 16/26/18 8/8/3
f 15/10/4 11/19/13 3/11/5
f 4/13/7 6/16/10 14/14/8
f 6/16/10 5/61/12 13/17/11
f 5/18/12 3/11/5 11/19/13
f 7/12/6 9/62/15 17/21/14
f 9/22/15 10/25/17 18/23/16
f 10/25/17 8/8/3 16/26/18
f 2/27/19 4/13/7 12/15/9
f 21/9/3 23/30/17 26/29/21
f 23/30/17 22/63/23 27/31/22
f 22/32/23 20/64/26 25/33/24
f 49/35/25 25/65/24 20/36/26
f 46/38/27 35/44/27 43/39/27
f 39/41/28 30/66/33 42/42/29
f 35/44/27 37/46/10 45/45/30
f 37/46/10 36/67/12 44/47/31
f 36/48/12 34/43/5 42/42/29
f 39/50/28 41/53/34 32/51/32
f 41/53/34 40/4/1 33/5/35
f 19/54/25 48/68/36 51/55/36
f 48/57/36 47/60/10 52/58/10
f 47/60/10 46/38/27 50/40/27
