# Blender v3.0.0 OBJ File: ''
# www.blender.org
mtllib Map012.mtl
o Map.012_Plane.030
v -0.500000 0.000000 0.500001
v 0.500000 0.089271 0.500000
v -0.500000 0.089271 0.500000
v -0.499999 0.099271 0.500000
v 0.500000 0.099271 0.500000
v 0.500000 -0.000000 0.500000
v 0.500000 0.020000 -0.331978
v -0.500000 0.089271 -0.331977
v -0.500000 0.020000 -0.331977
v 0.500000 0.109271 -0.351978
v -0.500000 0.109271 -0.479999
v -0.500000 0.109271 -0.351977
v -0.500000 0.089271 -0.499999
v 0.500000 0.099271 -0.497321
v 0.500000 0.089271 -0.500000
v -0.500000 0.099271 -0.497320
v 0.500000 0.106591 -0.490000
v -0.500000 0.106591 -0.489999
v 0.500000 0.109271 -0.480000
v 0.500000 0.106591 -0.341978
v -0.500000 0.106591 -0.341977
v 0.500000 0.099271 -0.334658
v -0.500000 0.099271 -0.334657
v 0.500000 0.089271 -0.331978
v -0.500000 0.000000 -0.499999
v 0.500000 -0.000000 -0.500000
v 0.500000 0.010000 -0.329299
v -0.500000 0.010000 -0.329298
v 0.500000 0.002679 -0.321978
v -0.500000 0.002680 -0.321977
v 0.500000 -0.000000 -0.311978
v 0.500000 -0.000000 0.311978
v -0.500000 0.000000 -0.311977
v -0.500000 0.000000 0.311979
v -0.500000 0.020000 0.331979
v 0.500000 0.089271 0.331978
v 0.500000 0.020000 0.331978
v -0.499999 0.109271 0.500000
v 0.500000 0.109271 0.351978
v -0.500000 0.109271 0.351979
v -0.500000 0.089271 0.331979
v 0.500000 0.099271 0.334657
v -0.500000 0.099271 0.334658
v 0.500000 0.106591 0.341978
v -0.500000 0.106591 0.341979
v 0.500000 0.106591 0.500000
v 0.500000 0.109271 0.500000
v -0.499999 0.106591 0.500000
v 0.500000 0.002679 0.321978
v -0.500000 0.002680 0.321979
v 0.500000 0.010000 0.329298
v -0.500000 0.010000 0.329299
vt 0.182745 0.714557
vt 0.242641 0.043612
vt 0.242641 0.714557
vt 0.249351 0.714557
vt 0.249351 0.045410
vt 0.182745 0.043612
vt 0.263798 0.141001
vt 0.312777 0.858999
vt 0.263798 0.858999
vt 0.074631 0.148552
vt 0.166421 0.850939
vt 0.074631 0.851198
vt 0.186755 0.858999
vt 0.179385 0.142925
vt 0.186755 0.141001
vt 0.179385 0.858999
vt 0.173488 0.148181
vt 0.173488 0.850817
vt 0.166421 0.148293
vt 0.173488 0.141001
vt 0.067359 0.141301
vt 0.326272 0.858999
vt 0.320182 0.142925
vt 0.326272 0.148181
vt 0.320182 0.858999
vt 0.312777 0.141001
vt 0.250303 0.858999
vt 0.250303 0.141001
vt 0.256393 0.141001
vt 0.256393 0.858999
vt 0.250303 0.141001
vt 0.403087 0.141001
vt 0.410359 0.858069
vt 0.403087 0.857987
vt 0.511727 0.480291
vt 0.884902 0.642322
vt 0.884902 0.480291
vt 0.268671 0.043612
vt 0.314440 0.714557
vt 0.268671 0.714557
vt 0.077408 0.706530
vt 0.175858 0.051283
vt 0.175858 0.707389
vt 0.314440 0.043612
vt 0.321360 0.712759
vt 0.321360 0.043612
vt 0.327050 0.707848
vt 0.182745 0.707330
vt 0.182745 0.044529
vt 0.256060 0.714557
vt 0.254262 0.050322
vt 0.256060 0.057031
vt 0.254262 0.714557
vt 0.405719 0.713108
vt 0.398831 0.043671
vt 0.405719 0.043612
vt 0.256060 0.043612
vt 0.261751 0.714557
vt 0.256060 0.714557
vt 0.261751 0.043612
vt 0.173488 0.858999
vt 0.067359 0.851117
vt 0.250303 0.858999
vt 0.410359 0.141083
vt 0.511727 0.642322
vt 0.077407 0.050424
vt 0.327051 0.043612
vt 0.398831 0.713167
vn 0.0000 0.0000 1.0000
vn 0.6691 0.1940 0.7175
vn 0.0000 0.1305 0.9914
vn 0.6806 0.7298 -0.0650
vn -0.0859 0.9881 -0.1276
vn -0.1413 0.9815 0.1292
vn -0.0000 0.1305 -0.9914
vn 0.6661 0.1844 -0.7227
vn 0.6789 0.0958 -0.7280
vn -0.0000 0.5000 -0.8660
vn 0.6656 0.4979 -0.5560
vn -0.0282 0.9349 -0.3539
vn 0.5523 0.8265 -0.1090
vn 0.6656 0.7304 0.1532
vn 0.0185 0.9238 0.3825
vn 0.6593 0.4212 0.6229
vn 0.0000 0.5000 0.8660
vn 0.6789 0.0961 0.7279
vn -0.0000 0.0000 -1.0000
vn 0.7071 0.0004 -0.7071
vn 0.2080 0.9779 -0.0208
vn 0.2081 0.8365 -0.5069
vn 0.0000 0.8660 0.5000
vn 0.1711 0.9767 0.1295
vn 0.0000 0.9914 -0.1305
vn 0.0000 0.9914 0.1305
vn -0.1782 0.6958 0.6958
vn 0.1413 0.9815 -0.1293
vn 0.0311 0.4970 -0.8672
vn 0.1657 0.8491 -0.5016
vn 0.1493 0.0088 0.9888
vn 0.1085 0.7051 0.7008
vn 0.0166 0.1176 0.9929
vn 0.1369 0.0000 0.9906
vn -0.0000 0.8660 -0.5000
usemtl Material.011
s off
f 1/1/1 2/2/1 3/3/1
f 4/4/1 2/2/1 5/5/1
f 1/1/1 6/6/1 2/2/1
f 4/4/1 3/3/1 2/2/1
s 1
f 7/7/2 8/8/3 9/9/3
f 10/10/4 11/11/5 12/12/6
f 13/13/7 14/14/8 15/15/9
f 16/16/10 17/17/11 14/14/8
f 18/18/12 19/19/13 17/20/11
f 12/12/6 20/21/14 10/10/4
f 21/22/15 22/23/16 20/24/14
f 23/25/17 24/26/18 22/23/16
f 25/27/19 15/15/9 26/28/20
f 9/9/3 27/29/21 7/7/2
f 28/30/17 29/31/22 27/29/21
f 30/32/23 31/33/24 29/34/22
f 32/35/25 33/36/26 34/37/25
f 35/38/7 36/39/7 37/40/7
f 38/41/27 39/42/28 40/43/5
f 41/44/7 42/45/29 36/39/7
f 43/46/10 44/47/30 42/45/29
f 45/48/12 39/42/28 44/49/30
f 38/50/27 46/51/31 47/52/32
f 48/53/33 5/5/34 46/51/31
f 34/54/25 49/55/35 32/56/25
f 50/57/35 51/58/10 49/59/35
f 52/60/10 37/40/7 51/58/10
f 7/7/2 24/26/18 8/8/3
f 10/10/4 19/19/13 11/11/5
f 13/13/7 16/16/10 14/14/8
f 16/16/10 18/61/12 17/17/11
f 18/18/12 11/11/5 19/19/13
f 12/12/6 21/62/15 20/21/14
f 21/22/15 23/25/17 22/23/16
f 23/25/17 8/8/3 24/26/18
f 25/27/19 13/13/7 15/15/9
f 9/9/3 28/30/17 27/29/21
f 28/30/17 30/63/23 29/31/22
f 30/32/23 33/64/26 31/33/24
f 32/35/25 31/65/24 33/36/26
f 35/38/7 41/44/7 36/39/7
f 38/41/27 47/66/32 39/42/28
f 41/44/7 43/46/10 42/45/29
f 43/46/10 45/67/12 44/47/30
f 45/48/12 40/43/5 39/42/28
f 38/50/27 48/53/33 46/51/31
f 48/53/33 4/4/1 5/5/34
f 34/54/25 50/68/35 49/55/35
f 50/57/35 52/60/10 51/58/10
f 52/60/10 35/38/7 37/40/7
