# Blender v3.1.2 OBJ File: ''
# www.blender.org
mtllib up04.mtl
o up04_Plane.003
v 1.000000 1.109971 1.110000
v 1.000000 1.000000 1.110000
v 1.000000 1.000000 -1.110000
v 1.110000 1.000000 1.110000
v 1.000000 1.109971 -1.110000
v 1.110000 1.000000 -1.110000
v 1.110000 1.109971 -1.110000
v 1.110000 1.109971 1.110000
vt 0.000000 0.689441
vt 0.017081 1.000000
vt 0.000000 1.000000
vt 0.344721 0.361801
vt 0.361797 0.344720
vt 0.361797 0.361801
vt 0.689432 0.672360
vt 0.672356 0.361801
vt 0.689432 0.361801
vt 0.361797 0.327640
vt 0.344721 0.344720
vt 0.344721 0.327640
vt 0.017081 0.327640
vt 0.000000 0.017081
vt 0.017081 0.017081
vt 0.256180 1.000000
vt 0.239104 0.689441
vt 0.256180 0.689441
vt 0.017081 0.689441
vt 0.344721 0.344720
vt 0.672356 0.672360
vt 0.361797 0.344720
vt 0.000000 0.327640
vt 0.239104 1.000000
vn -0.5773 -0.5774 -0.5774
vn 0.5774 -0.5774 0.5773
vn -0.5774 -0.5774 0.5774
vn -0.5773 0.5774 -0.5774
vn 0.5773 -0.5774 -0.5774
vn 0.5774 0.5773 0.5774
vn -0.5773 0.5774 0.5774
vn 0.5774 0.5774 -0.5773
usemtl Material.001
s 1
f 3/1/1 4/2/2 2/3/3
f 5/4/4 6/5/5 3/6/1
f 6/7/5 8/8/6 4/9/2
f 2/10/3 8/11/6 1/12/7
f 1/13/7 7/14/8 5/15/4
f 2/16/3 5/17/4 3/18/1
f 3/1/1 6/19/5 4/2/2
f 5/4/4 7/20/8 6/5/5
f 6/7/5 7/21/8 8/8/6
f 2/10/3 4/22/2 8/11/6
f 1/13/7 8/23/6 7/14/8
f 2/16/3 1/24/7 5/17/4
