# Blender v3.1.2 OBJ File: ''
# www.blender.org
mtllib flameAll.mtl
o Plane.004
v -1.000000 -1.000000 1.000000
v 1.000000 -0.890029 1.000000
v 1.000000 -1.000000 1.000000
v -1.000000 -1.000000 -1.000000
v -1.000000 -0.890029 1.000000
v 1.000000 -1.000000 -1.110000
v 1.110000 -1.000000 -1.000000
v 1.000000 -1.000000 -1.000000
v 1.110000 -1.000000 1.000000
v 1.000000 -0.890029 -1.110000
v 1.110000 -1.000000 -1.110000
v -1.110000 -0.890029 -1.000000
v -1.110000 -1.000000 -1.110000
v -1.110000 -1.000000 -1.000000
v 1.000000 -1.000000 1.110000
v -1.000000 -0.890029 1.110000
v -1.000000 -1.000000 1.110000
v -1.000000 -0.890029 -1.000000
v -1.110000 1.000000 -1.000000
v 1.000000 -0.890029 1.110000
v -1.110000 -1.000000 1.000000
v -1.110000 -0.890029 1.110000
v -1.110000 -0.890029 1.000000
v -1.110000 -1.000000 1.110000
v -1.000000 -1.000000 -1.110000
v -1.110000 -0.890029 -1.110000
v -1.000000 -0.890029 -1.110000
v 1.000000 -0.890029 -1.000000
v 1.110000 -0.890029 -1.110000
v 1.110000 -0.890029 -1.000000
v 1.110000 -0.890029 1.000000
v 1.110000 -1.000000 1.110000
v -1.110000 1.000000 -1.110000
v 1.110000 -0.890029 1.110000
v -1.000000 1.000000 -1.110000
v -1.000000 1.000000 1.000000
v 1.000000 1.109971 1.000000
v 1.000000 1.000000 1.000000
v -1.000000 1.000000 -1.000000
v -1.000000 1.109971 1.000000
v 1.000000 1.000000 -1.110000
v 1.000000 1.000000 -1.000000
v 1.110000 1.000000 1.000000
v 1.000000 1.109971 -1.110000
v 1.110000 1.000000 -1.110000
v -1.110000 1.109971 -1.000000
v 1.000000 1.000000 1.110000
v -1.000000 1.109971 1.110000
v -1.000000 1.000000 1.110000
v -1.110000 1.109971 1.110000
v 1.000000 1.109971 1.110000
v -1.110000 1.000000 1.000000
v -1.110000 1.109971 1.000000
v -1.000000 1.109971 -1.000000
v -1.110000 1.000000 1.110000
v -1.110000 1.109971 -1.110000
v -1.000000 1.109971 -1.110000
v 1.000000 1.109971 -1.000000
v 1.110000 1.000000 -1.000000
v 1.110000 1.109971 -1.110000
v 1.110000 1.109971 -1.000000
v 1.110000 1.109971 1.000000
v 1.110000 1.000000 1.110000
v 1.110000 1.109971 1.110000
vt 0.125012 0.374971
vt 0.000000 0.499983
vt 0.000000 0.374971
vt 0.999967 0.625029
vt 0.874988 0.750041
vt 0.874988 0.625029
vt 0.750008 0.875054
vt 0.874988 0.750041
vt 0.874988 0.875054
vt 0.874988 0.625029
vt 0.750008 0.750041
vt 0.750008 0.625029
vt 0.499984 0.750041
vt 0.375004 0.875054
vt 0.375004 0.750041
vt 0.249992 0.125012
vt 0.375004 0.000000
vt 0.375004 0.125012
vt 0.875021 0.375004
vt 1.000000 0.249992
vt 1.000000 0.375004
vt 0.125012 0.249992
vt 0.250025 0.375004
vt 0.125012 0.375004
vt 0.000000 0.875021
vt 0.124979 0.750008
vt 0.124979 0.875021
vt 0.624963 0.750041
vt 0.499984 0.875054
vt 0.499984 0.750041
vt 0.874955 0.125012
vt 0.999934 0.000000
vt 0.999934 0.125012
vt 0.124979 0.124979
vt 0.249992 0.249992
vt 0.124979 0.249992
vt 0.625029 0.625029
vt 0.500049 0.750041
vt 0.500049 0.625029
vt 0.625062 0.500017
vt 0.750041 0.375004
vt 0.750041 0.500017
vt 0.500049 0.249992
vt 0.625062 0.375004
vt 0.500049 0.375004
vt 0.249959 0.624996
vt 0.124979 0.750008
vt 0.124979 0.624996
vt 0.749975 0.000000
vt 0.624996 0.125012
vt 0.624996 0.000000
vt 0.000000 0.750008
vt 0.124979 0.624996
vt 0.124979 0.750008
vt 0.500049 0.625029
vt 0.625062 0.500016
vt 0.625062 0.625029
vt 0.250025 0.750041
vt 0.375004 0.625029
vt 0.375004 0.750041
vt 0.750041 0.249992
vt 0.625062 0.375004
vt 0.625062 0.249992
vt 0.625062 0.500017
vt 0.500049 0.375004
vt 0.625062 0.375004
vt 0.375004 0.750041
vt 0.499984 0.625029
vt 0.499984 0.750041
vt 0.500049 0.625029
vt 0.375037 0.500016
vt 0.500049 0.500016
vt 0.125012 0.499983
vt 0.999967 0.750041
vt 0.750008 0.750041
vt 0.874988 0.750041
vt 0.499984 0.875054
vt 0.249992 0.000000
vt 0.875021 0.249992
vt 0.250025 0.249992
vt 0.000000 0.750008
vt 0.624963 0.875054
vt 0.874955 0.000000
vt 0.249992 0.124979
vt 0.625029 0.750041
vt 0.625062 0.375004
vt 0.625062 0.249992
vt 0.249959 0.750008
vt 0.749975 0.125012
vt 0.000000 0.624996
vt 0.500049 0.500016
vt 0.250025 0.625029
vt 0.750041 0.375004
vt 0.500049 0.500017
vt 0.375004 0.625029
vt 0.375037 0.625029
vt 0.750041 0.500017
vt 0.625062 0.625029
vt 0.625062 0.500017
vt 0.750008 0.750041
vt 0.625029 0.625029
vt 0.750008 0.625029
vt 0.000000 0.624996
vt 0.125012 0.499984
vt 0.125012 0.624996
vt 0.499983 0.125012
vt 0.624996 0.000000
vt 0.624996 0.125012
vt 0.249992 0.000000
vt 0.000000 0.249992
vt 0.000000 0.124979
vt 0.375037 0.375004
vt 0.500049 0.500017
vt 0.375037 0.500017
vt 0.000000 0.249992
vt 0.999967 0.750041
vt 0.874988 0.875053
vt 0.874988 0.750041
vt 0.875021 0.375004
vt 0.750041 0.249992
vt 0.875021 0.249992
vt 0.750041 0.500017
vt 0.875021 0.375004
vt 0.875021 0.500017
vt 0.125012 0.499984
vt 0.250025 0.624996
vt 0.125012 0.624996
vt 0.250025 0.875054
vt 0.375004 0.750041
vt 0.375004 0.875054
vt 0.875021 0.625029
vt 0.750041 0.500017
vt 0.875021 0.500017
vt 0.375037 0.625029
vt 0.250025 0.500016
vt 0.375037 0.500016
vt 0.375037 0.249992
vt 0.250025 0.375004
vt 0.250025 0.249992
vt 0.624963 0.875054
vt 0.749942 0.750041
vt 0.749942 0.875054
vt 0.125012 0.499983
vt 0.250025 0.499983
vt 0.375037 0.375004
vt 0.250025 0.500017
vt 0.250025 0.375004
vt 0.499983 0.000000
vt 0.499983 0.125012
vt 0.375004 0.249992
vt 0.749975 0.000000
vt 0.874955 0.125012
vt 0.749975 0.125012
vt 0.375037 0.249992
vt 0.500049 0.375004
vt 0.375037 0.375004
vt 0.249959 0.875021
vt 0.124979 0.750008
vt 0.249959 0.750008
vt 0.750041 0.625029
vt 0.625029 0.750041
vt 0.000000 0.499984
vt 0.499983 0.000000
vt 0.124979 0.000000
vt 0.500049 0.375004
vt 0.125012 0.249992
vt 0.999967 0.875053
vt 0.750041 0.375004
vt 0.750041 0.375004
vt 0.250025 0.499984
vt 0.250025 0.750041
vt 0.750041 0.625029
vt 0.250025 0.625029
vt 0.375037 0.375004
vt 0.624963 0.750041
vt 0.375037 0.500017
vt 0.249992 0.249992
vt 0.874955 0.000000
vt 0.500049 0.249992
vt 0.124979 0.875021
vn -0.5774 -0.5774 -0.5774
vn 0.5774 -0.5774 0.5774
vn -0.5774 -0.5774 0.5774
vn -0.5774 0.5774 -0.5774
vn 0.0000 0.0000 -1.0000
vn -0.5774 0.5774 0.5774
vn -1.0000 0.0000 0.0000
vn -0.5774 -0.5773 -0.5774
vn 0.5774 0.5774 0.5774
vn 0.0000 0.0000 1.0000
vn 0.5774 -0.5774 0.5773
vn 0.5774 -0.5773 -0.5774
vn 0.5774 -0.5774 -0.5774
vn 0.5774 0.5774 -0.5774
vn 1.0000 0.0000 0.0000
vn 0.0000 -1.0000 -0.0000
vn -0.5774 0.5773 0.5774
vn -0.5774 -0.5774 0.5773
vn 0.5774 0.5774 -0.5773
vn 0.0000 1.0000 0.0000
vn 0.5774 0.5773 0.5774
vn -0.5774 0.5774 -0.5773
usemtl Material.004
s 1
f 6/1/1 7/2/2 8/3/3
f 10/4/4 11/5/5 6/6/1
f 12/7/6 13/8/7 14/9/3
f 21/10/8 22/11/6 23/12/4
f 16/13/9 24/14/10 17/15/11
f 17/16/11 21/17/8 1/18/12
f 25/19/13 26/20/4 27/21/14
f 14/22/3 25/23/13 4/24/2
f 7/25/2 29/26/14 30/27/9
f 31/28/14 32/29/15 9/30/12
f 15/31/3 34/32/9 20/33/6
f 3/34/8 32/35/16 15/36/3
f 44/37/4 45/38/12 41/39/8
f 46/40/17 33/41/8 19/42/18
f 40/43/19 50/44/20 48/45/21
f 52/46/1 50/47/7 53/48/22
f 48/49/21 55/50/18 49/51/11
f 35/52/12 56/53/5 57/54/14
f 54/55/21 56/56/20 46/57/17
f 59/58/11 60/59/15 61/60/21
f 62/61/19 63/62/11 43/63/12
f 51/64/17 62/65/19 37/66/22
f 47/67/18 64/68/10 51/69/17
f 58/70/17 60/71/20 44/72/4
f 6/1/1 11/73/16 7/2/2
f 10/4/4 29/74/14 11/5/5
f 12/7/6 26/75/4 13/8/7
f 21/10/8 24/76/7 22/11/6
f 16/13/9 22/77/6 24/14/10
f 17/16/11 24/78/16 21/17/8
f 25/19/13 13/79/5 26/20/4
f 14/22/3 13/80/16 25/23/13
f 7/25/2 11/81/15 29/26/14
f 31/28/14 34/82/9 32/29/15
f 15/31/3 32/83/10 34/32/9
f 3/34/8 9/84/12 32/35/16
f 44/37/4 60/85/5 45/38/12
f 46/40/17 56/86/7 33/41/8
f 40/43/19 53/87/22 50/44/20
f 52/46/1 55/88/18 50/47/7
f 48/49/21 50/89/10 55/50/18
f 35/52/12 33/90/8 56/53/5
f 54/55/21 57/91/14 56/56/20
f 59/58/11 45/92/12 60/59/15
f 62/61/19 64/93/15 63/62/11
f 51/64/17 64/94/20 62/65/19
f 47/67/18 63/95/11 64/68/10
f 58/70/17 61/96/21 60/71/20
f 38/97/7 51/98/17 37/99/22
f 62/100/19 38/101/5 37/102/22
f 47/103/18 43/104/12 63/105/11
f 34/106/9 2/107/20 20/108/6
f 3/34/8 31/109/14 9/84/12
f 3/34/8 20/110/6 2/111/7
f 29/112/14 28/113/20 30/114/9
f 28/115/7 6/1/1 8/3/3
f 30/116/9 8/117/3 7/118/2
f 58/119/17 59/120/11 61/121/21
f 58/122/17 41/123/8 42/124/7
f 41/125/8 59/126/11 42/127/16
f 39/128/15 57/129/14 54/130/21
f 46/131/17 39/132/10 54/133/21
f 39/134/16 33/135/8 35/136/12
f 26/137/4 18/138/20 27/139/14
f 14/140/3 18/141/10 12/142/6
f 18/143/15 25/23/13 27/144/14
f 23/145/4 16/146/9 5/147/20
f 1/18/12 23/148/4 5/149/5
f 5/150/15 17/16/11 1/18/12
f 36/151/15 48/152/21 49/153/11
f 52/154/1 49/155/11 55/156/18
f 40/157/19 52/158/1 53/159/22
f 38/97/7 47/160/18 51/98/17
f 62/100/19 43/161/12 38/101/5
f 47/103/18 38/162/16 43/104/12
f 34/106/9 31/163/14 2/107/20
f 3/34/8 2/164/5 31/109/14
f 3/34/8 15/36/3 20/110/6
f 29/112/14 10/165/4 28/113/20
f 28/115/7 10/166/4 6/1/1
f 30/116/9 28/167/10 8/117/3
f 58/119/17 42/168/10 59/120/11
f 58/122/17 44/169/4 41/123/8
f 41/125/8 45/170/12 59/126/11
f 39/128/15 35/171/12 57/129/14
f 46/131/17 19/172/18 39/132/10
f 39/134/16 19/173/18 33/135/8
f 26/137/4 12/174/6 18/138/20
f 14/140/3 4/175/2 18/141/10
f 18/143/15 4/24/2 25/23/13
f 23/145/4 22/176/6 16/146/9
f 1/18/12 21/17/8 23/148/4
f 5/150/15 16/177/9 17/16/11
f 36/151/15 40/178/19 48/152/21
f 52/154/1 36/179/16 49/155/11
f 40/157/19 36/180/5 52/158/1
