# Blender v3.1.2 OBJ File: ''
# www.blender.org
mtllib Map020.mtl
o Map.022_Plane.001
v 0.499999 0.000000 -0.500000
v 0.500001 0.089271 0.500000
v 0.500001 -0.000000 0.500000
v 0.497321 0.099271 0.500000
v 0.499999 0.089271 -0.500000
v 0.497320 0.099271 -0.500000
v -0.331979 0.020000 -0.499999
v -0.331977 0.089271 0.500001
v -0.331977 0.020000 0.500001
v 0.331979 0.020000 0.500000
v 0.331977 0.089271 -0.500000
v 0.331977 0.020000 -0.500000
v -0.351979 0.109271 -0.499999
v -0.479999 0.109271 0.500001
v -0.351977 0.109271 0.500001
v 0.351979 0.109271 0.500000
v 0.479999 0.109271 -0.500000
v 0.351977 0.109271 -0.500000
v -0.499999 0.089271 0.500001
v -0.497321 0.099271 -0.499999
v -0.500001 0.089271 -0.499999
v -0.497320 0.099271 0.500001
v -0.490001 0.106591 -0.499999
v -0.489999 0.106591 0.500001
v -0.480001 0.109271 -0.499999
v -0.341979 0.106591 -0.499999
v -0.341977 0.106591 0.500001
v -0.334658 0.099271 -0.499999
v -0.334657 0.099271 0.500001
v -0.331979 0.089271 -0.499999
v 0.331979 0.089271 0.500000
v 0.334657 0.099271 -0.500000
v 0.334658 0.099271 0.500000
v 0.341977 0.106591 -0.500000
v 0.341979 0.106591 0.500000
v 0.480001 0.109271 0.500000
v 0.489999 0.106591 -0.500000
v 0.490001 0.106591 0.500000
v -0.500001 0.000000 -0.499999
v -0.329299 0.010000 -0.499999
v -0.329298 0.010000 0.500001
v -0.321979 0.002679 -0.499999
v -0.321977 0.002680 0.500001
v -0.311979 0.000000 -0.499999
v 0.311979 -0.000000 0.500000
v 0.321977 0.002679 -0.500000
v 0.311977 0.000000 -0.500000
v 0.321979 0.002680 0.500000
v 0.329298 0.010000 -0.500000
v 0.329299 0.010000 0.500000
v -0.311977 -0.000000 0.500001
v -0.499999 -0.000000 0.500001
v 0.499999 0.020000 -0.500000
v 0.499999 0.010000 -0.500000
v 0.499999 0.002679 -0.500000
v -0.500001 0.020000 -0.499999
v -0.500001 0.010000 -0.499999
v -0.500001 0.002679 -0.499999
v -0.499999 0.020000 0.500001
v -0.499999 0.010000 0.500001
v -0.499999 0.002680 0.500001
v 0.500001 0.020000 0.500000
v 0.500001 0.010000 0.500000
v 0.500001 0.002680 0.500000
vt 0.178348 0.133486
vt 0.185872 0.866514
vt 0.178348 0.866514
vt 0.236216 0.866514
vt 0.185872 0.133486
vt 0.248803 0.133486
vt 0.243483 0.866514
vt 0.243483 0.133486
vt 0.236216 0.133486
vt 0.248804 0.866514
vt 0.279137 0.044755
vt 0.261639 0.334065
vt 0.261639 0.049443
vt 0.248831 0.321257
vt 0.244141 0.079751
vt 0.248831 0.062253
vt 0.400345 0.338755
vt 0.279137 0.338755
vt 0.417842 0.044755
vt 0.417842 0.343442
vt 0.430652 0.044755
vt 0.430652 0.356253
vt 0.436089 0.044768
vt 0.436089 0.373770
vt 0.250751 0.133486
vt 0.250751 0.866514
vt 0.244141 0.303760
vt 0.400345 0.044755
vt 0.176978 0.158687
vt 0.178791 0.841313
vt 0.176978 0.841313
vt 0.309405 0.841313
vt 0.262839 0.158687
vt 0.309405 0.158687
vt 0.264528 0.133486
vt 0.314532 0.866514
vt 0.264528 0.866514
vt 0.170045 0.841313
vt 0.082846 0.158687
vt 0.170045 0.158687
vt 0.071506 0.133486
vt 0.165144 0.866514
vt 0.071506 0.866514
vt 0.237395 0.158687
vt 0.244402 0.841313
vt 0.237395 0.841313
vt 0.244402 0.158687
vt 0.250008 0.841313
vt 0.076156 0.158687
vt 0.082846 0.841313
vt 0.076156 0.841313
vt 0.176978 0.841313
vt 0.250009 0.158687
vt 0.255798 0.841313
vt 0.250008 0.841313
vt 0.255798 0.158687
vt 0.262839 0.841313
vt 0.314532 0.133486
vt 0.322092 0.866514
vt 0.322092 0.133486
vt 0.328310 0.866514
vt 0.064062 0.133486
vt 0.064062 0.866514
vt 0.165144 0.133486
vt 0.172328 0.866514
vt 0.172328 0.133486
vt 0.330274 0.263981
vt 0.328310 0.162807
vt 0.330274 0.155477
vt 0.316445 0.841313
vt 0.316445 0.158687
vt 0.322235 0.841313
vt 0.396826 0.158687
vt 0.403758 0.841313
vt 0.396826 0.841313
vt 0.408409 0.133486
vt 0.415853 0.866514
vt 0.408409 0.866514
vt 0.250751 0.133486
vt 0.256968 0.866514
vt 0.250751 0.866514
vt 0.256968 0.133486
vt 0.744554 0.353965
vt 0.589715 0.710575
vt 0.744554 0.710575
vt 0.394997 0.179166
vt 0.396826 0.273383
vt 0.394997 0.280210
vt 0.250008 0.158687
vt 0.176978 0.158687
vt 0.328310 0.133486
vt 0.396826 0.185992
vt 0.322235 0.158687
vt 0.403758 0.158687
vt 0.415853 0.133486
vt 0.589715 0.353965
vt 0.178792 0.158687
vt 0.183746 0.841313
vt 0.390000 0.174169
vt 0.383173 0.287036
vt 0.383173 0.172340
vt 0.328310 0.256651
vt 0.393748 0.271311
vt 0.342970 0.148147
vt 0.393748 0.148147
vt 0.401079 0.271311
vt 0.401078 0.146182
vt 0.406444 0.140816
vt 0.408409 0.271311
vt 0.406444 0.271311
vt 0.335640 0.269347
vt 0.335640 0.150111
vt 0.335887 0.287036
vt 0.324064 0.165513
vt 0.322235 0.287036
vt 0.322235 0.158687
vt 0.329061 0.170511
vt 0.324064 0.287036
vt 0.335887 0.172340
vt 0.329061 0.287036
vt 0.190514 0.158687
vt 0.190514 0.841313
vt 0.183746 0.158687
vt 0.390000 0.285207
vt 0.239351 0.321217
vt 0.226545 0.049444
vt 0.239351 0.062251
vt 0.244040 0.303721
vt 0.209050 0.338712
vt 0.209050 0.044755
vt 0.087859 0.044755
vt 0.087859 0.338712
vt 0.070364 0.044755
vt 0.070364 0.343401
vt 0.057555 0.044755
vt 0.057556 0.356207
vt 0.052119 0.044768
vt 0.342970 0.271311
vt 0.226545 0.334025
vt 0.244040 0.079746
vt 0.052068 0.376681
vn 0.9659 0.2588 -0.0000
vn 1.0000 0.0000 -0.0000
vn 0.9659 0.2589 -0.0000
vn 0.0000 0.0000 -1.0000
vn -0.0141 0.0252 -0.9996
vn -0.1533 -0.0027 -0.9882
vn 0.0133 0.0812 -0.9966
vn 0.1487 -0.0370 -0.9882
vn -0.0282 -0.0061 -0.9996
vn 0.0689 0.1369 -0.9882
vn -0.0176 0.1345 -0.9908
vn -0.0480 0.1456 -0.9882
vn -0.7071 0.0000 0.7071
vn -1.0000 0.0000 0.0000
vn 0.9880 0.1301 -0.0838
vn 0.7280 0.0959 0.6789
vn 0.6694 0.0881 0.7377
vn -0.6693 0.0881 0.7377
vn -0.9914 0.1305 0.0000
vn 0.1293 0.9815 -0.1413
vn 0.0018 0.7313 0.6820
vn 0.1088 0.8265 0.5523
vn 0.1276 0.9881 -0.0859
vn -0.1293 0.9815 -0.1413
vn -0.7280 0.0958 0.6789
vn -0.7658 0.6422 -0.0347
vn -0.6557 0.3786 0.6532
vn -0.4886 0.8463 -0.2123
vn -0.4291 0.7481 0.5062
vn -0.1292 0.9815 -0.1413
vn 0.4887 0.8463 -0.2123
vn 0.4551 0.7077 0.5404
vn 0.8651 0.4995 -0.0466
vn 0.6557 0.3786 0.6532
vn 0.9914 0.1305 -0.0000
vn -0.8672 0.4970 -0.0311
vn -0.5016 0.8491 -0.1657
vn 0.1110 0.8262 0.5524
vn 0.4846 0.8589 -0.1657
vn 0.4552 0.7076 0.5405
vn 0.7004 0.7005 -0.1369
vn 0.5523 0.3188 -0.7703
vn 0.5523 0.3189 0.7703
vn 0.3189 0.5523 -0.7703
vn 0.3189 0.5523 0.7702
vn 0.1301 0.9880 -0.0838
vn -0.1301 0.9880 0.0838
vn -0.5000 0.8660 0.0000
vn -0.1305 0.9914 0.0000
vn -0.3189 0.5523 0.7703
vn -0.8660 0.5000 0.0000
vn -0.5523 0.3189 0.7703
vn 0.1301 0.9880 0.0838
vn 0.3638 0.3638 0.8575
vn 0.0000 0.0000 1.0000
vn 0.0980 0.1699 -0.9806
vn -0.0771 -0.1438 -0.9866
vn -0.0981 0.1698 -0.9806
vn 0.0176 0.1342 -0.9908
vn 0.0868 0.0114 -0.9962
vn 0.7093 0.4095 -0.5738
vn 0.4095 0.7093 -0.5738
vn 0.0372 0.0215 -0.9991
vn -0.0177 0.1345 -0.9908
vn 0.0867 -0.0113 -0.9962
usemtl Material.005
s off
f 4/1/1 5/2/1 6/3/1
f 53/4/2 5/2/2 2/5/2
f 4/1/3 2/5/3 5/2/3
f 64/6/2 54/7/2 63/8/2
f 53/4/2 2/5/2 62/9/2
f 54/7/2 62/9/2 63/8/2
f 64/6/2 55/10/2 54/7/2
f 5/11/4 32/12/5 6/13/4
f 34/14/6 17/15/7 37/16/8
f 32/12/9 37/16/10 6/13/4
f 5/11/4 12/17/4 11/18/4
f 12/17/4 54/19/4 49/20/4
f 49/20/4 55/21/4 46/22/4
f 46/22/4 1/23/4 47/24/4
f 55/10/2 3/25/2 1/26/2
f 54/7/2 53/4/2 62/9/2
f 5/11/4 11/18/4 32/12/5
f 34/14/6 18/27/11 17/15/7
f 32/12/9 34/14/12 37/16/10
f 5/11/4 53/28/4 12/17/4
f 12/17/4 53/28/4 54/19/4
f 49/20/4 54/19/4 55/21/4
f 46/22/4 55/21/4 1/23/4
f 55/10/2 64/6/2 3/25/2
s 1
f 52/29/13 58/30/14 39/31/14
f 7/32/15 8/33/16 9/34/17
f 10/35/18 11/36/19 12/37/19
f 13/38/20 14/39/21 15/40/22
f 16/41/21 17/42/23 18/43/24
f 19/44/25 20/45/26 21/46/19
f 22/47/27 23/48/28 20/45/26
f 24/49/29 25/50/30 23/51/28
f 15/40/22 26/52/31 13/38/20
f 27/53/32 28/54/33 26/55/31
f 29/56/34 30/57/35 28/54/33
f 31/58/25 32/59/36 11/36/19
f 33/60/27 34/61/37 32/59/36
f 35/62/29 18/43/24 34/63/37
f 36/64/38 37/65/39 17/42/23
f 38/66/40 6/3/41 37/65/39
f 38/67/40 16/68/21 35/69/29
f 9/34/17 40/70/42 7/32/15
f 41/71/43 42/72/44 40/70/42
f 43/73/45 44/74/46 42/75/44
f 45/76/47 46/77/48 47/78/49
f 48/79/50 49/80/51 46/81/48
f 50/82/52 12/37/19 49/80/51
f 47/83/49 51/84/53 45/85/47
f 27/86/32 14/87/21 24/88/29
f 7/32/15 30/57/35 8/33/16
f 10/35/18 31/58/25 11/36/19
f 13/38/20 25/50/30 14/39/21
f 16/41/21 36/64/38 17/42/23
f 19/44/25 22/47/27 20/45/26
f 22/47/27 24/89/29 23/48/28
f 24/49/29 14/39/21 25/50/30
f 15/40/22 27/90/32 26/52/31
f 27/53/32 29/56/34 28/54/33
f 29/56/34 8/33/16 30/57/35
f 31/58/25 33/60/27 32/59/36
f 33/60/27 35/91/29 34/61/37
f 35/62/29 16/41/21 18/43/24
f 36/64/38 38/66/40 37/65/39
f 38/66/40 4/1/54 6/3/41
f 27/86/32 15/92/22 14/87/21
f 9/34/17 41/71/43 40/70/42
f 41/71/43 43/93/45 42/72/44
f 43/73/45 51/94/53 44/74/46
f 45/76/47 48/95/50 46/77/48
f 48/79/50 50/82/52 49/80/51
f 50/82/52 10/35/18 12/37/19
f 47/83/49 44/96/46 51/84/53
f 61/97/13 57/98/14 58/30/14
f 29/99/34 19/100/25 8/101/16
f 38/67/40 36/102/38 16/68/21
f 62/103/55 31/104/25 10/105/18
f 63/106/55 10/105/18 50/107/52
f 48/108/50 3/109/55 64/110/55
f 4/111/54 35/69/29 33/112/27
f 59/113/13 8/101/16 19/100/25
f 52/29/13 61/97/13 58/30/14
f 43/114/45 52/115/13 51/116/53
f 31/104/25 4/111/54 33/112/27
f 41/117/43 61/118/13 43/114/45
f 9/119/17 60/120/13 41/117/43
f 59/121/13 21/46/19 56/122/14
f 60/123/13 56/122/14 57/98/14
f 50/107/52 64/110/55 63/106/55
f 29/99/34 24/88/29 22/124/27
f 26/125/56 20/126/57 23/127/58
f 23/127/58 13/128/59 26/125/56
f 20/126/57 30/129/4 21/130/4
f 30/129/4 56/131/4 21/130/4
f 7/132/60 57/133/4 56/131/4
f 40/134/61 58/135/4 57/133/4
f 42/136/62 39/137/4 58/135/4
f 61/97/13 60/123/13 57/98/14
f 29/99/34 22/124/27 19/100/25
f 62/103/55 2/138/55 31/104/25
f 63/106/55 62/103/55 10/105/18
f 48/108/50 45/76/47 3/109/55
f 4/111/54 38/67/40 35/69/29
f 59/113/13 9/119/17 8/101/16
f 43/114/45 61/118/13 52/115/13
f 31/104/25 2/138/55 4/111/54
f 41/117/43 60/120/13 61/118/13
f 9/119/17 59/113/13 60/120/13
f 59/121/13 19/44/25 21/46/19
f 60/123/13 59/121/13 56/122/14
f 50/107/52 48/108/50 64/110/55
f 29/99/34 27/86/32 24/88/29
f 26/125/56 28/139/63 20/126/57
f 23/127/58 25/140/64 13/128/59
f 20/126/57 28/139/63 30/129/4
f 30/129/4 7/132/60 56/131/4
f 7/132/60 40/134/61 57/133/4
f 40/134/61 42/136/62 58/135/4
f 42/136/62 44/141/65 39/137/4
