# Blender v3.0.0 OBJ File: ''
# www.blender.org
mtllib Map06.mtl
o Map.06_Plane.029
v 0.500000 -0.000000 -0.331978
v 0.500000 0.089271 -0.000000
v 0.500000 0.000000 -0.000000
v 0.500000 0.089271 0.331978
v 0.500000 0.000000 0.331978
v 0.500000 -0.000000 -0.500000
v 0.500000 0.089271 -0.331978
v 0.500000 0.089271 0.500000
v 0.500000 0.000000 0.500000
v 0.332072 0.089271 0.500000
v 0.332072 0.000000 0.500000
v -0.331977 0.000000 0.500000
v -0.500000 0.089271 0.500000
v -0.500000 0.000000 0.500000
v 0.500000 0.099234 -0.325605
v 0.500000 0.106889 -0.327665
v 0.500000 0.106318 -0.318352
v 0.500000 0.103168 -0.331978
v 0.500000 0.099065 -0.338352
v 0.500000 0.106889 -0.336291
v 0.500000 0.099234 0.006373
v 0.500000 0.106889 0.004313
v 0.500000 0.106318 0.013626
v 0.500000 0.103168 -0.000000
v 0.500000 0.099065 -0.006373
v 0.500000 0.106889 -0.004313
v 0.500000 0.099234 0.338351
v 0.500000 0.106889 0.336291
v 0.500000 0.106318 0.345604
v 0.500000 0.103168 0.331978
v 0.500000 0.099065 0.325604
v 0.500000 0.106889 0.327665
v -0.331977 0.089271 0.500000
v -0.500000 0.099271 0.497321
v 0.332072 0.099271 0.497321
v 0.500000 0.099271 0.497320
v 0.332072 0.106591 0.490000
v 0.500000 0.106613 -0.345605
v 0.500000 0.099271 -0.500000
v 0.500000 0.106591 -0.500000
v 0.500000 0.089271 -0.500000
v -0.331977 0.020000 0.331978
v 0.329393 0.005000 0.329298
v -0.331977 0.010000 0.329299
v 0.322072 0.001340 0.321978
v -0.331977 0.002679 0.321978
v 0.500000 0.106613 -0.013627
v 0.500000 0.106613 0.318351
v -0.331977 0.099271 0.497321
v 0.500000 0.106591 0.490000
v 0.332072 0.010000 0.331978
v -0.500000 0.020000 -0.331978
v -0.331977 0.089271 -0.331978
v -0.500000 0.089271 -0.331978
v 0.332072 0.089271 0.331978
v -0.500000 0.109271 -0.500000
v -0.351977 0.109271 -0.351978
v -0.351977 0.109271 -0.500000
v 0.332072 0.020000 -0.000000
v 0.332072 0.089271 -0.000000
v 0.332072 0.089271 -0.331978
v 0.332072 0.020000 -0.331978
v 0.352072 0.109271 0.020000
v 0.500000 0.109271 0.311978
v 0.500000 0.109271 0.020000
v 0.332072 0.109271 0.351978
v 0.500000 0.109271 0.480000
v 0.500000 0.109271 0.351978
v -0.500000 0.000000 0.000000
v -0.331977 0.000000 0.311978
v -0.331977 0.000000 0.000000
v 0.352072 0.109271 -0.311978
v 0.500000 0.109271 -0.020000
v 0.500000 0.109271 -0.311978
v -0.500000 0.020000 0.331978
v -0.331977 0.089271 0.331978
v 0.332072 0.089271 -0.500000
v 0.332072 0.020000 -0.500000
v 0.312072 0.000000 0.311978
v 0.312072 0.000000 -0.000000
v 0.352072 0.109271 -0.500000
v 0.500000 0.109271 -0.351978
v 0.500000 0.109271 -0.500000
v -0.500000 0.109271 0.351978
v -0.331977 0.109271 0.480000
v -0.331977 0.109271 0.351978
v 0.312072 -0.000000 -0.500000
v -0.311977 -0.000000 -0.351978
v 0.312072 -0.000000 -0.351978
v 0.332072 0.109271 0.480000
v -0.331977 0.020000 -0.500000
v -0.331977 0.020000 -0.331978
v -0.331977 -0.000000 -0.311978
v 0.312072 -0.000000 -0.311978
v 0.500000 0.109271 -0.325311
v 0.500000 0.109271 -0.338645
v 0.500000 0.109271 -0.006667
v 0.500000 0.109271 0.006667
v 0.342278 0.106318 -0.013627
v 0.352072 0.109271 -0.006667
v 0.352072 0.109271 -0.020000
v 0.334731 0.099234 -0.006373
v 0.342607 0.106889 -0.004313
v 0.335025 0.099065 0.006373
v 0.342607 0.106889 0.004313
v 0.337689 0.103168 -0.000000
v 0.352072 0.109271 0.006667
v 0.342109 0.106613 0.013627
v 0.342278 0.106318 -0.345605
v 0.352072 0.109271 -0.338645
v 0.352072 0.109271 -0.351978
v 0.334730 0.099234 -0.338351
v 0.342607 0.106889 -0.336291
v 0.335025 0.099065 -0.325605
v 0.342607 0.106889 -0.327665
v 0.337689 0.103168 -0.331978
v 0.352072 0.109271 -0.325311
v 0.342109 0.106613 -0.318351
v 0.500000 0.109271 0.325311
v 0.500000 0.109271 0.338645
v 0.342278 0.106318 0.318352
v 0.342250 0.109271 0.324772
v 0.352072 0.109271 0.311978
v 0.335025 0.099065 0.325605
v 0.337733 0.106933 0.327423
v 0.332072 0.099087 0.334946
v 0.334379 0.106916 0.335136
v 0.334411 0.103607 0.330743
v 0.334960 0.109271 0.339392
v 0.332072 0.106303 0.342162
v -0.500000 0.106591 0.490000
v -0.331977 0.106591 0.490000
v -0.500000 0.109271 0.480000
v -0.334656 0.099271 -0.334657
v -0.500000 0.099271 -0.334657
v -0.341977 0.106591 -0.341978
v -0.500000 0.106591 -0.341978
v -0.500000 0.109271 -0.351978
v -0.500000 0.106591 0.341978
v -0.331977 0.099271 0.334658
v -0.500000 0.099271 0.334658
v -0.500000 0.089271 0.331978
v 0.334752 0.099271 -0.500000
v 0.342072 0.106591 -0.500000
v -0.341977 0.106591 -0.500000
v -0.334656 0.099271 -0.500000
v -0.331977 0.089271 -0.500000
v -0.331977 0.106591 0.341978
v 0.312072 -0.000000 -0.338645
v 0.322035 0.002658 -0.345605
v 0.312072 -0.000000 -0.325311
v 0.321538 0.002382 -0.336291
v 0.321866 0.002953 -0.318352
v 0.329414 0.010037 -0.325605
v 0.321538 0.002382 -0.327665
v 0.329119 0.010206 -0.338352
v 0.326455 0.006103 -0.331978
v -0.321771 0.002953 -0.345604
v -0.321799 -0.000000 -0.339184
v -0.329024 0.010206 -0.338351
v -0.326316 0.002338 -0.336533
v -0.331977 0.010183 -0.329010
v -0.329670 0.002355 -0.328820
v -0.329638 0.005664 -0.333213
v -0.329089 -0.000000 -0.324564
v -0.331977 0.002968 -0.321794
v 0.322072 0.002680 -0.000000
v 0.329393 0.010000 -0.000000
v -0.500000 -0.000000 -0.311978
v -0.500000 0.002679 -0.321978
v -0.500000 0.010000 -0.329298
v -0.500000 0.010000 0.329299
v -0.500000 0.002679 0.321978
v -0.500000 0.000000 0.311978
v -0.329297 0.010000 -0.500000
v -0.321977 0.002679 -0.500000
v -0.311977 -0.000000 -0.500000
v 0.322072 0.002680 -0.500000
v 0.329392 0.010000 -0.500000
v -0.500000 -0.000000 -0.500000
v -0.500000 0.089271 -0.500000
vt 0.116194 0.134046
vt 0.128452 0.294590
vt 0.087500 0.286249
vt 0.096357 0.443337
vt 0.055224 0.437800
vt 0.129757 0.053964
vt 0.158082 0.141769
vt 0.087023 0.504193
vt 0.054072 0.517795
vt 0.132176 0.546477
vt 0.105341 0.572465
vt 0.301705 0.752600
vt 0.379263 0.775059
vt 0.352884 0.802251
vt 0.162217 0.145705
vt 0.166097 0.145382
vt 0.164942 0.149974
vt 0.164677 0.142977
vt 0.163266 0.139563
vt 0.166844 0.141218
vt 0.132402 0.298565
vt 0.136246 0.298354
vt 0.134976 0.302878
vt 0.134908 0.295927
vt 0.133594 0.292492
vt 0.137109 0.294242
vt 0.099947 0.446989
vt 0.103488 0.446922
vt 0.102242 0.450838
vt 0.102379 0.444636
vt 0.101293 0.441399
vt 0.104528 0.443169
vt 0.326831 0.725532
vt 0.382322 0.771836
vt 0.135098 0.543327
vt 0.090747 0.502517
vt 0.138043 0.540091
vt 0.167502 0.136695
vt 0.176987 0.061908
vt 0.180505 0.062519
vt 0.172182 0.061077
vt 0.402411 0.646322
vt 0.228519 0.466810
vt 0.405652 0.642978
vt 0.232857 0.465488
vt 0.408746 0.639802
vt 0.137935 0.289594
vt 0.105524 0.438815
vt 0.329916 0.722214
vt 0.093608 0.500305
vt 0.225192 0.468096
vt 0.681097 0.277325
vt 0.649937 0.211651
vt 0.702528 0.253652
vt 0.187797 0.475712
vt 0.745259 0.175136
vt 0.662935 0.206685
vt 0.674603 0.146981
vt 0.257938 0.320890
vt 0.225034 0.314521
vt 0.255079 0.158142
vt 0.288110 0.164005
vt 0.208200 0.320997
vt 0.108070 0.435580
vt 0.136040 0.306930
vt 0.176530 0.485187
vt 0.095133 0.497242
vt 0.102870 0.453723
vt 0.563547 0.524122
vt 0.618073 0.422880
vt 0.618073 0.524122
vt 0.238578 0.165136
vt 0.140453 0.286167
vt 0.166114 0.154018
vt 0.454705 0.695893
vt 0.382754 0.667237
vt 0.269230 0.077388
vt 0.302633 0.083645
vt 0.827078 0.422880
vt 0.827078 0.524122
vt 0.254301 0.074760
vt 0.169326 0.133834
vt 0.181792 0.062744
vt 0.425230 0.726527
vt 0.336108 0.715588
vt 0.373474 0.676840
vt 0.827078 0.686381
vt 0.624563 0.638344
vt 0.827078 0.638345
vt 0.140949 0.536830
vt 0.625402 0.140594
vt 0.622121 0.224192
vt 0.618073 0.625364
vt 0.827078 0.625364
vt 0.167051 0.146733
vt 0.168197 0.140284
vt 0.138493 0.293359
vt 0.137153 0.299720
vt 0.216531 0.305959
vt 0.210915 0.308236
vt 0.212284 0.301865
vt 0.220760 0.310449
vt 0.215331 0.310356
vt 0.219513 0.316547
vt 0.214472 0.314480
vt 0.217821 0.313010
vt 0.209558 0.314620
vt 0.213792 0.318998
vt 0.246299 0.149822
vt 0.240757 0.152304
vt 0.241891 0.145847
vt 0.250682 0.154187
vt 0.245250 0.154270
vt 0.249620 0.160312
vt 0.244541 0.158418
vt 0.247826 0.156840
vt 0.239656 0.158739
vt 0.244036 0.162935
vt 0.105885 0.442406
vt 0.104237 0.448193
vt 0.179061 0.468084
vt 0.177297 0.471211
vt 0.174979 0.463352
vt 0.183354 0.472696
vt 0.179242 0.473208
vt 0.183416 0.477726
vt 0.179364 0.477295
vt 0.181121 0.475277
vt 0.177852 0.479057
vt 0.179384 0.481004
vt 0.385379 0.768613
vt 0.333008 0.718899
vt 0.388435 0.765390
vt 0.654173 0.210031
vt 0.705490 0.249896
vt 0.658447 0.208398
vt 0.708239 0.246321
vt 0.710866 0.242854
vt 0.428288 0.723347
vt 0.379665 0.670429
vt 0.431347 0.720165
vt 0.434406 0.716986
vt 0.264249 0.076509
vt 0.259281 0.075632
vt 0.670277 0.146138
vt 0.665788 0.145296
vt 0.661018 0.144459
vt 0.376570 0.673634
vt 0.303469 0.163526
vt 0.299132 0.159291
vt 0.304633 0.157131
vt 0.302269 0.169952
vt 0.298582 0.163801
vt 0.296701 0.172342
vt 0.301004 0.176383
vt 0.292419 0.167948
vt 0.297816 0.167932
vt 0.293540 0.161874
vt 0.295288 0.165342
vt 0.611912 0.217977
vt 0.610758 0.221371
vt 0.606984 0.214094
vt 0.617047 0.221791
vt 0.613020 0.222996
vt 0.617935 0.226818
vt 0.613805 0.227011
vt 0.615232 0.224736
vt 0.612598 0.228970
vt 0.614395 0.230668
vt 0.612083 0.235192
vt 0.619010 0.629448
vt 0.827078 0.629691
vt 0.621376 0.634193
vt 0.827078 0.634018
vt 0.237796 0.464156
vt 0.411782 0.636680
vt 0.267731 0.323046
vt 0.272500 0.324091
vt 0.262937 0.321995
vt 0.671928 0.287651
vt 0.674978 0.284190
vt 0.678041 0.280740
vt 0.457758 0.692686
vt 0.460810 0.689479
vt 0.463864 0.686270
vt 0.620375 0.140392
vt 0.615383 0.140179
vt 0.610291 0.139953
vt 0.312520 0.085452
vt 0.317470 0.086359
vt 0.307568 0.084544
vt 0.563547 0.625364
vt 0.563547 0.422880
vt 0.624563 0.686380
vn 1.0000 -0.0000 -0.0000
vn 0.0000 0.0000 1.0000
vn 0.0000 0.2588 0.9659
vn 0.0000 0.7072 0.7071
vn 0.0239 0.7131 -0.7006
vn 0.0086 0.8932 -0.4495
vn 0.0000 0.2589 0.9659
vn 0.0000 0.7071 0.7071
vn -0.0005 0.1383 0.9904
vn 0.6972 0.1672 0.6972
vn 0.0000 0.1305 0.9914
vn 0.0140 -0.0449 -0.9989
vn -0.9938 -0.0777 -0.0795
vn -0.8729 -0.4796 -0.0897
vn -0.5773 0.5774 -0.5774
vn 0.0985 0.9903 0.0985
vn 0.0959 0.7280 -0.6789
vn -0.9890 0.1480 0.0018
vn -0.9872 0.1591 0.0046
vn -0.9880 0.1541 0.0046
vn -0.9880 0.1542 0.0046
vn -0.1346 0.9909 0.0012
vn 0.7071 0.7071 -0.0000
vn -0.0922 0.9955 -0.0219
vn 0.6789 0.7280 0.0959
vn -0.0000 1.0000 -0.0000
vn 0.0003 0.9940 -0.1091
vn -0.3187 0.1237 -0.9398
vn 0.0048 0.0901 -0.9959
vn -0.9914 0.1305 -0.0000
vn -0.9904 0.1383 -0.0005
vn -0.0782 0.9950 -0.0621
vn -0.1188 0.9929 0.0006
vn -0.1013 0.7271 -0.6790
vn 0.0957 0.7280 -0.6789
vn -0.6789 0.7280 -0.0957
vn 0.0000 0.9914 0.1305
vn 0.0001 0.9909 -0.1344
vn -0.1305 0.9914 -0.0000
vn 0.1281 0.9915 0.0238
vn -0.1296 0.9916 0.0009
vn 0.9385 0.1311 -0.3194
vn 0.7012 0.1703 0.6923
vn 0.0461 0.9957 0.0802
vn -0.1384 0.9904 -0.0031
vn -0.5075 0.8615 -0.0175
vn -0.1321 0.9912 -0.0059
vn -0.1383 0.9904 -0.0031
vn -0.8712 0.4908 -0.0092
vn -0.4686 0.8830 -0.0268
vn -0.8734 0.4866 0.0205
vn -0.4736 0.8805 0.0199
vn -0.7643 0.6449 0.0049
vn -0.1256 0.9921 0.0021
vn -0.5104 0.8599 0.0113
vn -0.5027 0.8643 -0.0170
vn -0.1322 0.9912 -0.0059
vn -0.1383 0.9904 -0.0029
vn -0.8726 0.4884 -0.0089
vn -0.8749 0.4839 0.0202
vn -0.4735 0.8806 0.0199
vn -0.5056 0.8627 0.0111
vn -0.6077 0.7687 -0.1994
vn -0.2981 0.9349 -0.1925
vn -0.1280 0.9915 -0.0240
vn -0.9176 0.3443 -0.1988
vn -0.7153 0.5937 -0.3686
vn -0.0550 0.5072 -0.8601
vn -0.7963 0.5360 -0.2802
vn -0.8857 0.3168 -0.3394
vn -0.4387 0.8899 -0.1251
vn -0.0376 0.8633 -0.5033
vn 0.0000 0.4700 0.8827
vn -0.6532 0.6557 0.3786
vn -0.4472 0.6323 0.6326
vn 0.0000 0.8660 0.5000
vn -0.6789 0.7280 0.0958
vn 0.1656 0.9526 0.2553
vn 0.0000 0.8484 0.5294
vn 0.9864 0.0000 -0.1644
vn 0.7281 0.0957 -0.6787
vn 0.0000 0.5000 0.8660
vn 0.5886 0.5542 0.5886
vn -0.2506 0.4841 0.8384
vn 0.3332 0.8820 0.3332
vn -0.6532 0.6558 0.3784
vn -0.6789 0.7279 0.0961
vn -0.6532 0.6560 -0.3783
vn 0.0002 0.5034 -0.8641
vn -0.2506 0.4840 -0.8384
vn -0.0000 0.1305 -0.9914
vn -0.8621 0.5068 0.0006
vn -0.4978 0.8632 -0.0846
vn 0.3785 0.6558 -0.6532
vn 0.8383 0.4841 -0.2506
vn 0.9914 0.1305 -0.0000
vn 0.0002 0.8640 -0.5034
vn -0.5081 0.8612 0.0106
vn -0.1321 0.9912 -0.0061
vn -0.5028 0.8642 -0.0173
vn -0.8726 0.4884 -0.0090
vn -0.8759 0.4821 0.0199
vn 0.6032 0.7724 0.1986
vn 0.2980 0.9350 0.1925
vn 0.9186 0.3416 0.1985
vn 0.7153 0.5937 0.3686
vn 0.6197 0.4114 0.6684
vn 0.7964 0.5360 0.2802
vn 0.8857 0.3168 0.3394
vn 0.4387 0.8899 0.1251
vn 0.5060 0.7672 0.3941
vn 0.0005 0.9189 -0.3945
vn -0.4557 0.8901 0.0028
vn -0.4274 0.9034 -0.0339
vn -0.8370 0.5472 0.0040
vn -0.9098 0.4149 0.0074
vn -0.0005 0.9904 0.1384
vn -0.0015 0.8621 0.5068
vn -0.0015 0.5068 0.8621
vn -0.7703 0.3188 -0.5523
vn -0.7703 0.5523 -0.3189
vn -0.0838 0.9880 -0.1301
vn 0.5498 0.3234 -0.7702
vn 0.3230 0.5500 -0.7702
vn 0.1375 0.9869 -0.0844
vn -0.5065 0.8623 -0.0006
vn -0.8661 0.4999 -0.0011
vn 0.0000 0.5000 -0.8660
usemtl Material.006
s off
f 1/1/1 2/2/1 3/3/1
f 3/3/1 4/4/1 5/5/1
f 6/6/1 7/7/1 1/1/1
f 5/5/1 8/8/1 9/9/1
f 9/9/2 10/10/2 11/11/2
f 12/12/2 13/13/2 14/14/2
f 15/15/1 16/16/1 17/17/1
f 7/7/1 18/18/1 15/15/1
f 19/19/1 20/20/1 18/18/1
f 16/16/1 18/18/1 20/20/1
f 21/21/1 22/22/1 23/23/1
f 2/2/1 24/24/1 21/21/1
f 25/25/1 26/26/1 24/24/1
f 26/26/1 22/22/1 24/24/1
f 27/27/1 28/28/1 29/29/1
f 4/4/1 30/30/1 27/27/1
f 31/31/1 32/32/1 30/30/1
f 32/32/1 28/28/1 30/30/1
f 33/33/3 34/34/3 13/13/3
f 8/8/3 35/35/3 10/10/3
f 36/36/4 37/37/4 35/35/4
f 17/17/1 25/25/1 15/15/1
f 25/25/1 7/7/1 15/15/1
f 38/38/1 39/39/1 40/40/1
f 19/19/1 41/41/1 39/39/1
f 23/23/1 31/31/1 21/21/1
f 31/31/1 2/2/1 21/21/1
f 29/29/1 36/36/1 27/27/1
f 27/27/1 8/8/1 4/4/1
f 42/42/5 43/43/5 44/44/5
f 44/44/6 45/45/6 46/46/6
f 1/1/1 7/7/1 2/2/1
f 3/3/1 2/2/1 4/4/1
f 6/6/1 41/41/1 7/7/1
f 5/5/1 4/4/1 8/8/1
f 9/9/2 8/8/2 10/10/2
f 12/12/2 33/33/2 13/13/2
f 15/15/1 18/18/1 16/16/1
f 7/7/1 19/19/1 18/18/1
f 19/19/1 38/38/1 20/20/1
f 21/21/1 24/24/1 22/22/1
f 2/2/1 25/25/1 24/24/1
f 25/25/1 47/47/1 26/26/1
f 27/27/1 30/30/1 28/28/1
f 4/4/1 31/31/1 30/30/1
f 31/31/1 48/48/1 32/32/1
f 33/33/3 49/49/3 34/34/3
f 8/8/7 36/36/7 35/35/7
f 36/36/8 50/50/8 37/37/8
f 17/17/1 47/47/1 25/25/1
f 25/25/1 2/2/1 7/7/1
f 38/38/1 19/19/1 39/39/1
f 19/19/1 7/7/1 41/41/1
f 23/23/1 48/48/1 31/31/1
f 31/31/1 4/4/1 2/2/1
f 29/29/1 50/50/1 36/36/1
f 27/27/1 36/36/1 8/8/1
f 42/42/5 51/51/5 43/43/5
f 44/44/6 43/43/6 45/45/6
s 1
f 52/52/9 53/53/10 54/54/11
f 42/42/12 55/55/13 51/51/14
f 56/56/15 57/57/16 58/58/17
f 59/59/18 55/55/13 60/60/19
f 59/59/18 61/61/20 62/62/21
f 63/63/22 64/64/23 65/65/23
f 66/66/24 67/67/25 68/68/23
f 69/69/26 70/70/27 71/71/26
f 72/72/22 73/73/23 74/74/23
f 75/75/28 76/76/29 42/42/12
f 62/62/21 77/77/30 78/78/31
f 71/71/26 79/79/32 80/80/33
f 81/81/34 82/82/23 83/83/35
f 84/84/36 85/85/37 86/86/38
f 87/87/39 88/88/40 89/89/41
f 86/86/38 90/90/37 66/66/24
f 91/91/42 53/53/10 92/92/43
f 93/93/44 80/80/33 94/94/45
f 17/17/1 95/95/23 74/74/23
f 96/96/23 38/38/1 82/82/23
f 95/95/23 20/20/1 96/96/23
f 97/97/23 47/47/1 73/73/23
f 98/98/23 26/26/1 97/97/23
f 23/23/1 98/98/23 65/65/23
f 99/99/46 100/100/47 101/101/48
f 102/102/49 103/103/50 99/99/46
f 104/104/51 102/102/49 60/60/19
f 104/104/51 105/105/52 106/106/53
f 107/107/54 108/108/55 63/63/22
f 107/107/54 103/103/50 105/105/52
f 103/103/50 106/106/53 105/105/52
f 109/109/56 110/110/57 111/111/58
f 112/112/59 113/113/50 109/109/56
f 114/114/60 112/112/59 61/61/20
f 114/114/60 115/115/61 116/116/53
f 117/117/54 118/118/62 72/72/22
f 117/117/54 113/113/50 115/115/61
f 113/113/50 116/116/53 115/115/61
f 119/119/23 48/48/1 64/64/23
f 119/119/23 28/28/1 32/32/1
f 29/29/1 120/120/23 68/68/23
f 121/121/63 122/122/64 123/123/65
f 124/124/66 125/125/67 121/121/63
f 126/126/68 124/124/66 55/55/13
f 126/126/68 127/127/69 128/128/70
f 129/129/71 130/130/72 66/66/24
f 129/129/71 125/125/67 127/127/69
f 125/125/67 128/128/70 127/127/69
f 49/49/73 131/131/74 34/34/75
f 132/132/76 133/133/77 131/131/74
f 50/50/78 90/90/37 37/37/79
f 73/73/23 17/17/1 74/74/23
f 65/65/23 107/107/54 63/63/22
f 98/98/23 100/100/47 107/107/54
f 97/97/23 101/101/48 100/100/47
f 82/82/23 40/40/80 83/83/81
f 74/74/23 117/117/54 72/72/22
f 95/95/23 110/110/57 117/117/54
f 110/110/57 82/82/23 111/111/58
f 64/64/23 23/23/1 65/65/23
f 68/68/23 129/129/71 66/66/24
f 120/120/23 122/122/64 129/129/71
f 119/119/23 123/123/65 122/122/64
f 10/10/11 49/49/73 33/33/11
f 35/35/82 132/132/76 49/49/73
f 37/37/79 85/85/37 132/132/76
f 55/55/13 104/104/51 60/60/19
f 104/104/51 121/121/63 108/108/55
f 108/108/55 123/123/65 63/63/22
f 60/60/19 114/114/60 61/61/20
f 114/114/60 99/99/46 118/118/62
f 118/118/62 101/101/48 72/72/22
f 54/54/11 134/134/83 135/135/84
f 135/135/84 136/136/85 137/137/86
f 137/137/86 57/57/16 138/138/87
f 86/86/38 139/139/88 84/84/36
f 139/139/88 140/140/89 141/141/90
f 140/140/89 142/142/91 141/141/90
f 77/77/30 112/112/59 143/143/92
f 143/143/92 109/109/56 144/144/93
f 144/144/93 111/111/58 81/81/34
f 67/67/25 29/29/1 68/68/23
f 57/57/16 145/145/94 58/58/17
f 136/136/85 146/146/95 145/145/94
f 134/134/83 147/147/96 146/146/95
f 86/86/38 130/130/72 148/148/97
f 130/130/72 140/140/89 148/148/97
f 126/126/68 76/76/29 140/140/89
f 11/11/2 33/33/11 12/12/2
f 149/149/54 150/150/98 89/151/41
f 151/152/99 152/153/52 149/149/54
f 153/154/100 151/152/99 94/155/45
f 154/156/101 155/157/50 153/154/100
f 156/158/102 154/156/101 62/62/21
f 156/158/102 152/153/52 157/159/53
f 152/153/52 155/157/50 157/159/53
f 158/160/103 159/161/104 88/162/40
f 160/163/105 161/164/106 158/160/103
f 162/165/107 160/163/105 92/92/43
f 162/165/107 163/166/108 164/167/109
f 165/168/110 166/169/111 93/170/44
f 165/168/110 161/164/106 163/166/108
f 161/164/106 164/167/109 163/166/108
f 94/94/45 165/171/110 93/93/44
f 151/172/99 159/173/104 165/171/110
f 149/174/54 88/88/40 159/173/104
f 46/46/112 79/175/32 70/176/27
f 79/175/32 167/177/113 80/178/33
f 45/45/114 168/179/115 167/177/113
f 43/43/116 59/59/18 168/179/115
f 94/155/45 167/177/113 153/154/100
f 153/154/100 168/179/115 154/156/101
f 154/156/101 59/59/18 62/62/21
f 169/180/117 166/169/111 170/181/118
f 166/169/111 171/182/119 170/181/118
f 162/165/107 52/52/9 171/182/119
f 42/42/12 172/183/120 75/75/28
f 172/183/120 46/46/112 173/184/121
f 46/46/112 174/185/122 173/184/121
f 91/91/42 160/163/105 175/186/123
f 175/186/123 158/160/103 176/187/124
f 176/187/124 88/162/40 177/188/125
f 89/151/41 178/189/126 87/190/39
f 150/150/98 179/191/127 178/189/126
f 156/158/102 78/78/31 179/191/127
f 169/192/117 71/71/26 93/93/44
f 52/52/9 92/92/43 53/53/10
f 42/42/12 76/76/29 55/55/13
f 56/56/15 138/138/87 57/57/16
f 59/59/18 51/51/14 55/55/13
f 59/59/18 60/60/19 61/61/20
f 63/63/22 123/123/65 64/64/23
f 66/66/24 90/90/37 67/67/25
f 69/69/26 174/193/122 70/70/27
f 72/72/22 101/101/48 73/73/23
f 75/75/28 142/142/91 76/76/29
f 62/62/21 61/61/20 77/77/30
f 71/71/26 70/70/27 79/79/32
f 81/81/34 111/111/58 82/82/23
f 84/84/36 133/133/77 85/85/37
f 87/87/39 177/194/125 88/88/40
f 86/86/38 85/85/37 90/90/37
f 91/91/42 147/147/96 53/53/10
f 93/93/44 71/71/26 80/80/33
f 17/17/1 16/16/1 95/95/23
f 96/96/23 20/20/1 38/38/1
f 95/95/23 16/16/1 20/20/1
f 97/97/23 26/26/1 47/47/1
f 98/98/23 22/22/1 26/26/1
f 23/23/1 22/22/1 98/98/23
f 99/99/46 103/103/50 100/100/47
f 102/102/49 106/106/53 103/103/50
f 104/104/51 106/106/53 102/102/49
f 104/104/51 108/108/55 105/105/52
f 107/107/54 105/105/52 108/108/55
f 107/107/54 100/100/47 103/103/50
f 109/109/56 113/113/50 110/110/57
f 112/112/59 116/116/53 113/113/50
f 114/114/60 116/116/53 112/112/59
f 114/114/60 118/118/62 115/115/61
f 117/117/54 115/115/61 118/118/62
f 117/117/54 110/110/57 113/113/50
f 119/119/23 32/32/1 48/48/1
f 119/119/23 120/120/23 28/28/1
f 29/29/1 28/28/1 120/120/23
f 121/121/63 125/125/67 122/122/64
f 124/124/66 128/128/70 125/125/67
f 126/126/68 128/128/70 124/124/66
f 126/126/68 130/130/72 127/127/69
f 129/129/71 127/127/69 130/130/72
f 129/129/71 122/122/64 125/125/67
f 49/49/73 132/132/76 131/131/74
f 132/132/76 85/85/37 133/133/77
f 50/50/78 67/67/25 90/90/37
f 73/73/23 47/47/1 17/17/1
f 65/65/23 98/98/23 107/107/54
f 98/98/23 97/97/23 100/100/47
f 97/97/23 73/73/23 101/101/48
f 82/82/23 38/38/1 40/40/80
f 74/74/23 95/95/23 117/117/54
f 95/95/23 96/96/23 110/110/57
f 110/110/57 96/96/23 82/82/23
f 64/64/23 48/48/1 23/23/1
f 68/68/23 120/120/23 129/129/71
f 120/120/23 119/119/23 122/122/64
f 119/119/23 64/64/23 123/123/65
f 10/10/11 35/35/82 49/49/73
f 35/35/82 37/37/79 132/132/76
f 37/37/79 90/90/37 85/85/37
f 55/55/13 124/124/66 104/104/51
f 104/104/51 124/124/66 121/121/63
f 108/108/55 121/121/63 123/123/65
f 60/60/19 102/102/49 114/114/60
f 114/114/60 102/102/49 99/99/46
f 118/118/62 99/99/46 101/101/48
f 54/54/11 53/53/10 134/134/83
f 135/135/84 134/134/83 136/136/85
f 137/137/86 136/136/85 57/57/16
f 86/86/38 148/148/97 139/139/88
f 139/139/88 148/148/97 140/140/89
f 140/140/89 76/76/29 142/142/91
f 77/77/30 61/61/20 112/112/59
f 143/143/92 112/112/59 109/109/56
f 144/144/93 109/109/56 111/111/58
f 67/67/25 50/50/78 29/29/1
f 57/57/16 136/136/85 145/145/94
f 136/136/85 134/134/83 146/146/95
f 134/134/83 53/53/10 147/147/96
f 86/86/38 66/66/24 130/130/72
f 130/130/72 126/126/68 140/140/89
f 126/126/68 55/55/13 76/76/29
f 11/11/2 10/10/11 33/33/11
f 149/149/54 152/153/52 150/150/98
f 151/152/99 155/157/50 152/153/52
f 153/154/100 155/157/50 151/152/99
f 154/156/101 157/159/53 155/157/50
f 156/158/102 157/159/53 154/156/101
f 156/158/102 150/150/98 152/153/52
f 158/160/103 161/164/106 159/161/104
f 160/163/105 164/167/109 161/164/106
f 162/165/107 164/167/109 160/163/105
f 162/165/107 166/169/111 163/166/108
f 165/168/110 163/166/108 166/169/111
f 165/168/110 159/161/104 161/164/106
f 94/94/45 151/172/99 165/171/110
f 151/172/99 149/174/54 159/173/104
f 149/174/54 89/89/41 88/88/40
f 46/46/112 45/45/114 79/175/32
f 79/175/32 45/45/114 167/177/113
f 45/45/114 43/43/116 168/179/115
f 43/43/116 51/51/14 59/59/18
f 94/155/45 80/178/33 167/177/113
f 153/154/100 167/177/113 168/179/115
f 154/156/101 168/179/115 59/59/18
f 169/180/117 93/170/44 166/169/111
f 166/169/111 162/165/107 171/182/119
f 162/165/107 92/92/43 52/52/9
f 42/42/12 44/44/128 172/183/120
f 172/183/120 44/44/128 46/46/112
f 46/46/112 70/176/27 174/185/122
f 91/91/42 92/92/43 160/163/105
f 175/186/123 160/163/105 158/160/103
f 176/187/124 158/160/103 88/162/40
f 89/151/41 150/150/98 178/189/126
f 150/150/98 156/158/102 179/191/127
f 156/158/102 62/62/21 78/78/31
f 169/192/117 69/69/26 71/71/26
l 180 181
