# Blender v3.1.2 OBJ File: 'Map.blend'
# www.blender.org
mtllib Map06.mtl
o Map.06_Plane.029
v -0.500000 0.000000 0.500000
v 0.500000 -0.000000 -0.500000
v -0.500000 0.000000 -0.500000
v 0.500000 -0.000000 0.500000
v -0.500000 0.000000 0.000000
v 0.500000 -0.000000 -0.000000
v -0.500000 0.000000 0.331978
v -0.500000 0.000000 -0.331978
v -0.332072 0.000000 -0.500000
v 0.331977 -0.000000 -0.500000
v 0.331977 -0.000000 -0.000000
v -0.332072 0.109271 -0.480000
v -0.332072 0.089271 -0.500000
v -0.332072 0.106591 -0.490000
v -0.332072 0.099271 -0.497321
v -0.500000 0.109271 -0.480000
v -0.500000 0.089271 -0.500000
v -0.500000 0.106591 -0.490000
v -0.500000 0.099271 -0.497320
v 0.351977 0.109271 0.500000
v 0.331977 0.089271 0.500000
v 0.341977 0.106591 0.500000
v 0.334656 0.099271 0.500000
v 0.500000 0.109271 0.500000
v 0.500000 0.089271 0.500000
v -0.500000 0.109271 0.311978
v -0.500000 0.089271 0.331978
v -0.500000 0.109271 0.351978
v -0.500000 0.106318 0.318352
v -0.500000 0.109271 0.325311
v -0.500000 0.106889 0.327665
v -0.500000 0.099065 0.338352
v -0.500000 0.099234 0.325605
v -0.500000 0.103168 0.331978
v -0.500000 0.109271 0.338645
v -0.500000 0.106613 0.345605
v -0.500000 0.106889 0.336291
v -0.500000 0.109271 0.020000
v -0.500000 0.109271 -0.020000
v -0.500000 0.089271 0.000000
v -0.500000 0.109271 0.006667
v -0.500000 0.106613 0.013627
v -0.500000 0.106889 0.004313
v -0.500000 0.106318 -0.013626
v -0.500000 0.109271 -0.006667
v -0.500000 0.106889 -0.004313
v -0.500000 0.099065 0.006373
v -0.500000 0.099234 -0.006373
v -0.500000 0.103168 0.000000
v -0.352072 0.109271 0.020000
v -0.332072 0.089271 0.000000
v -0.352072 0.109271 -0.020000
v -0.342278 0.106318 0.013627
v -0.352072 0.109271 0.006667
v -0.342607 0.106889 0.004313
v -0.335025 0.099065 -0.006373
v -0.334731 0.099234 0.006373
v -0.337689 0.103168 0.000000
v -0.352072 0.109271 -0.006667
v -0.342109 0.106613 -0.013627
v -0.342607 0.106889 -0.004313
v -0.500000 0.089271 0.500000
v -0.500000 0.109271 0.500000
v -0.500000 0.099271 0.500000
v -0.500000 0.106591 0.500000
v -0.352072 0.109271 0.351978
v -0.332072 0.089271 0.331978
v -0.352072 0.109271 0.311978
v -0.342278 0.106318 0.345605
v -0.352072 0.109271 0.338645
v -0.342607 0.106889 0.336291
v -0.335025 0.099065 0.325605
v -0.334730 0.099234 0.338351
v -0.337689 0.103168 0.331978
v -0.352072 0.109271 0.325311
v -0.342109 0.106613 0.318351
v -0.342607 0.106889 0.327665
v -0.500000 0.109271 -0.311978
v -0.500000 0.109271 -0.351978
v -0.500000 0.089271 -0.331978
v -0.500000 0.109271 -0.325311
v -0.500000 0.106613 -0.318351
v -0.500000 0.106889 -0.327665
v -0.500000 0.106318 -0.345604
v -0.500000 0.109271 -0.338645
v -0.500000 0.106889 -0.336291
v -0.500000 0.099065 -0.325604
v -0.500000 0.099234 -0.338351
v -0.500000 0.103168 -0.331978
v 0.500000 0.109271 -0.480000
v 0.500000 0.089271 -0.500000
v 0.500000 0.106591 -0.490000
v 0.500000 0.099271 -0.497321
v 0.500000 0.109271 -0.351978
v 0.500000 0.089271 -0.331978
v 0.500000 0.106591 -0.341978
v 0.500000 0.099271 -0.334658
v -0.352072 0.109271 -0.311978
v -0.332072 0.089271 -0.331978
v -0.332072 0.109271 -0.351978
v -0.342278 0.106318 -0.318352
v -0.342250 0.109271 -0.324772
v -0.337733 0.106933 -0.327423
v -0.332072 0.099087 -0.334946
v -0.335025 0.099065 -0.325605
v -0.334411 0.103607 -0.330743
v -0.334960 0.109271 -0.339392
v -0.332072 0.106303 -0.342162
v -0.334379 0.106916 -0.335136
v 0.331977 0.089271 -0.500000
v 0.331977 0.109271 -0.480000
v 0.331977 0.099271 -0.497321
v 0.331977 0.106591 -0.490000
v -0.352072 0.109271 0.500000
v -0.332072 0.089271 0.500000
v -0.342072 0.106591 0.500000
v -0.334752 0.099271 0.500000
v 0.500000 0.109271 0.351978
v 0.500000 0.089271 0.331978
v 0.500000 0.106591 0.341978
v 0.500000 0.099271 0.334657
v 0.331977 0.089271 0.331978
v 0.351977 0.109271 0.351978
v 0.334656 0.099271 0.334657
v 0.341977 0.106591 0.341978
v 0.331977 0.109271 -0.351978
v 0.331977 0.089271 -0.331978
v 0.331977 0.106591 -0.341978
v 0.331977 0.099271 -0.334658
v 0.500000 -0.000000 0.311978
v 0.500000 0.020000 0.331978
v 0.500000 0.002679 0.321978
v 0.500000 0.010000 0.329298
v 0.500000 0.020000 -0.331978
v 0.500000 -0.000000 -0.311978
v 0.500000 0.010000 -0.329299
v 0.500000 0.002679 -0.321978
v -0.312072 0.000000 0.500000
v -0.332072 0.020000 0.500000
v -0.322072 0.002680 0.500000
v -0.329392 0.010000 0.500000
v -0.332072 0.020000 0.000000
v -0.312072 0.000000 0.000000
v -0.329393 0.010000 0.000000
v -0.322072 0.002680 0.000000
v -0.312072 0.000000 0.351978
v -0.312072 0.000000 0.311978
v -0.332072 0.020000 0.331978
v -0.312072 0.000000 0.338645
v -0.322035 0.002658 0.345605
v -0.321538 0.002382 0.336291
v -0.321866 0.002953 0.318352
v -0.312072 0.000000 0.325311
v -0.321538 0.002382 0.327665
v -0.329119 0.010206 0.338352
v -0.329414 0.010037 0.325605
v -0.326455 0.006103 0.331978
v -0.332072 0.010000 -0.331978
v -0.312072 0.000000 -0.311978
v -0.329393 0.005000 -0.329298
v -0.322072 0.001340 -0.321978
v 0.331977 0.020000 0.500000
v 0.311977 -0.000000 0.500000
v 0.329297 0.010000 0.500000
v 0.321977 0.002679 0.500000
v 0.311977 -0.000000 0.351978
v 0.331977 0.020000 0.331978
v 0.331977 -0.000000 0.311978
v 0.321771 0.002953 0.345604
v 0.321799 -0.000000 0.339184
v 0.326316 0.002338 0.336533
v 0.331977 0.010183 0.329010
v 0.329024 0.010206 0.338351
v 0.329638 0.005664 0.333213
v 0.329089 -0.000000 0.324564
v 0.331977 0.002968 0.321794
v 0.329670 0.002355 0.328820
v 0.331977 -0.000000 -0.311978
v 0.331977 0.020000 -0.331978
v 0.331977 0.002679 -0.321978
v 0.331977 0.010000 -0.329299
vt 0.116194 0.134046
vt 0.128452 0.294590
vt 0.087500 0.286249
vt 0.096357 0.443337
vt 0.055224 0.437800
vt 0.129757 0.053964
vt 0.158082 0.141769
vt 0.087023 0.504193
vt 0.054072 0.517795
vt 0.132176 0.546477
vt 0.105341 0.572465
vt 0.301705 0.752600
vt 0.379263 0.775059
vt 0.352884 0.802251
vt 0.162217 0.145705
vt 0.166097 0.145382
vt 0.164942 0.149974
vt 0.164677 0.142977
vt 0.163266 0.139563
vt 0.166844 0.141218
vt 0.132402 0.298565
vt 0.136246 0.298354
vt 0.134976 0.302878
vt 0.134908 0.295927
vt 0.133594 0.292492
vt 0.137109 0.294242
vt 0.099947 0.446989
vt 0.103488 0.446922
vt 0.102242 0.450838
vt 0.102379 0.444636
vt 0.101293 0.441399
vt 0.104528 0.443169
vt 0.326831 0.725532
vt 0.382322 0.771836
vt 0.135098 0.543327
vt 0.090747 0.502517
vt 0.138043 0.540091
vt 0.167502 0.136695
vt 0.176987 0.061908
vt 0.180505 0.062519
vt 0.172182 0.061077
vt 0.402411 0.646322
vt 0.228519 0.466810
vt 0.405652 0.642978
vt 0.232857 0.465488
vt 0.408746 0.639802
vt 0.137935 0.289594
vt 0.105524 0.438815
vt 0.329916 0.722214
vt 0.093608 0.500305
vt 0.225192 0.468096
vt 0.681097 0.277325
vt 0.649937 0.211651
vt 0.702528 0.253652
vt 0.187797 0.475712
vt 0.745259 0.175136
vt 0.662935 0.206685
vt 0.674603 0.146981
vt 0.257938 0.320890
vt 0.225034 0.314521
vt 0.255079 0.158142
vt 0.288110 0.164005
vt 0.208200 0.320997
vt 0.108070 0.435580
vt 0.136040 0.306930
vt 0.176530 0.485187
vt 0.095133 0.497242
vt 0.102870 0.453723
vt 0.563547 0.524122
vt 0.618073 0.422880
vt 0.618073 0.524122
vt 0.238578 0.165136
vt 0.140453 0.286167
vt 0.166114 0.154018
vt 0.454705 0.695893
vt 0.382754 0.667237
vt 0.269230 0.077388
vt 0.302633 0.083645
vt 0.827078 0.422880
vt 0.827078 0.524122
vt 0.254301 0.074760
vt 0.169326 0.133834
vt 0.181792 0.062744
vt 0.425230 0.726527
vt 0.336108 0.715588
vt 0.373474 0.676840
vt 0.827078 0.686381
vt 0.624563 0.638344
vt 0.827078 0.638345
vt 0.140949 0.536830
vt 0.625402 0.140594
vt 0.622121 0.224192
vt 0.618073 0.625364
vt 0.827078 0.625364
vt 0.167051 0.146733
vt 0.168197 0.140284
vt 0.138493 0.293359
vt 0.137153 0.299720
vt 0.216531 0.305959
vt 0.210915 0.308236
vt 0.212284 0.301865
vt 0.220760 0.310449
vt 0.215331 0.310356
vt 0.219513 0.316547
vt 0.214472 0.314480
vt 0.217821 0.313010
vt 0.209558 0.314620
vt 0.213792 0.318998
vt 0.246299 0.149822
vt 0.240757 0.152304
vt 0.241891 0.145847
vt 0.250682 0.154187
vt 0.245250 0.154270
vt 0.249620 0.160312
vt 0.244541 0.158418
vt 0.247826 0.156840
vt 0.239656 0.158739
vt 0.244036 0.162935
vt 0.105885 0.442406
vt 0.104237 0.448193
vt 0.179061 0.468084
vt 0.177297 0.471211
vt 0.174979 0.463352
vt 0.183354 0.472696
vt 0.179242 0.473208
vt 0.183416 0.477726
vt 0.179364 0.477295
vt 0.181121 0.475277
vt 0.177852 0.479057
vt 0.179384 0.481004
vt 0.385379 0.768613
vt 0.333008 0.718899
vt 0.388435 0.765390
vt 0.654173 0.210031
vt 0.705490 0.249896
vt 0.658447 0.208398
vt 0.708239 0.246321
vt 0.710866 0.242854
vt 0.428288 0.723347
vt 0.379665 0.670429
vt 0.431347 0.720165
vt 0.434406 0.716986
vt 0.264249 0.076509
vt 0.259281 0.075632
vt 0.670277 0.146138
vt 0.665788 0.145296
vt 0.661018 0.144459
vt 0.376570 0.673634
vt 0.303469 0.163526
vt 0.299132 0.159291
vt 0.304633 0.157131
vt 0.302269 0.169952
vt 0.298582 0.163801
vt 0.296701 0.172342
vt 0.301004 0.176383
vt 0.292419 0.167948
vt 0.297816 0.167932
vt 0.293540 0.161874
vt 0.295288 0.165342
vt 0.611912 0.217977
vt 0.610758 0.221371
vt 0.606984 0.214094
vt 0.617047 0.221791
vt 0.613020 0.222996
vt 0.617935 0.226818
vt 0.613805 0.227011
vt 0.615232 0.224736
vt 0.612598 0.228970
vt 0.614395 0.230668
vt 0.612083 0.235192
vt 0.619010 0.629448
vt 0.827078 0.629691
vt 0.621376 0.634193
vt 0.827078 0.634018
vt 0.237796 0.464156
vt 0.411782 0.636680
vt 0.267731 0.323046
vt 0.272500 0.324091
vt 0.262937 0.321995
vt 0.671928 0.287651
vt 0.674978 0.284190
vt 0.678041 0.280740
vt 0.457758 0.692686
vt 0.460810 0.689479
vt 0.463864 0.686270
vt 0.620375 0.140392
vt 0.615383 0.140179
vt 0.610291 0.139953
vt 0.312520 0.085452
vt 0.317470 0.086359
vt 0.307568 0.084544
vt 0.563547 0.625364
vt 0.563547 0.422880
vt 0.624563 0.686380
vn -1.0000 -0.0000 0.0000
vn -0.0000 0.0000 -1.0000
vn 0.0000 0.2588 -0.9659
vn 0.0000 0.7071 -0.7071
vn -0.0239 0.7131 0.7006
vn -0.0086 0.8932 0.4495
vn 0.0005 0.1383 -0.9904
vn -0.6972 0.1672 -0.6972
vn -0.0000 0.1305 -0.9914
vn -0.0140 -0.0449 0.9989
vn 0.9938 -0.0777 0.0795
vn 0.8729 -0.4796 0.0897
vn 0.5773 0.5774 0.5774
vn -0.0984 0.9903 -0.0984
vn -0.0959 0.7280 0.6789
vn 0.9890 0.1480 -0.0018
vn 0.9872 0.1591 -0.0046
vn 0.9880 0.1541 -0.0046
vn 0.9880 0.1542 -0.0046
vn 0.1346 0.9909 -0.0012
vn -0.7071 0.7071 -0.0000
vn 0.0922 0.9955 0.0219
vn -0.6789 0.7280 -0.0958
vn 0.0000 1.0000 -0.0000
vn -0.0003 0.9940 0.1091
vn 0.3187 0.1237 0.9398
vn -0.0048 0.0901 0.9959
vn 0.9915 0.1302 0.0000
vn 0.9904 0.1383 0.0005
vn 0.0782 0.9950 0.0621
vn 0.1188 0.9929 -0.0006
vn 0.1013 0.7271 0.6790
vn -0.0957 0.7280 0.6789
vn 0.6789 0.7280 0.0958
vn 0.0000 0.9914 -0.1305
vn -0.0001 0.9909 0.1344
vn 0.1305 0.9914 -0.0000
vn -0.1280 0.9915 -0.0238
vn 0.1296 0.9916 -0.0009
vn -0.9385 0.1311 0.3194
vn -0.7012 0.1703 -0.6923
vn -0.0461 0.9957 -0.0802
vn 0.1384 0.9904 0.0031
vn 0.5075 0.8615 0.0175
vn 0.1322 0.9912 0.0058
vn 0.1383 0.9904 0.0031
vn 0.8712 0.4908 0.0092
vn 0.4686 0.8830 0.0268
vn 0.8734 0.4866 -0.0205
vn 0.4736 0.8805 -0.0199
vn 0.7643 0.6449 -0.0049
vn 0.1256 0.9921 -0.0021
vn 0.5104 0.8599 -0.0113
vn 0.5027 0.8643 0.0170
vn 0.1322 0.9912 0.0059
vn 0.1383 0.9904 0.0029
vn 0.8726 0.4884 0.0089
vn 0.8749 0.4839 -0.0202
vn 0.4735 0.8805 -0.0199
vn 0.5056 0.8627 -0.0111
vn 0.6077 0.7687 0.1994
vn 0.2981 0.9349 0.1925
vn 0.1280 0.9915 0.0240
vn 0.9176 0.3443 0.1988
vn 0.7153 0.5937 0.3686
vn 0.0550 0.5072 0.8601
vn 0.7963 0.5360 0.2802
vn 0.8857 0.3168 0.3394
vn 0.4387 0.8899 0.1251
vn 0.0376 0.8633 0.5033
vn -0.0000 0.4700 -0.8827
vn 0.6532 0.6557 -0.3786
vn 0.4472 0.6323 -0.6326
vn 0.0000 0.8660 -0.5000
vn 0.6789 0.7280 -0.0959
vn -0.1656 0.9526 -0.2552
vn -0.0000 0.8484 -0.5294
vn -0.9864 0.0000 0.1644
vn -0.7281 0.0957 0.6787
vn -0.0000 0.5000 -0.8660
vn -0.5886 0.5542 -0.5886
vn 0.2506 0.4841 -0.8384
vn -0.3332 0.8820 -0.3332
vn 0.6532 0.6558 -0.3784
vn 0.6789 0.7280 -0.0960
vn 0.6532 0.6559 0.3784
vn -0.0002 0.5034 0.8641
vn 0.2506 0.4840 0.8384
vn 0.0000 0.1305 0.9914
vn 0.8621 0.5068 -0.0006
vn 0.4978 0.8632 0.0846
vn -0.3786 0.6557 0.6532
vn -0.8384 0.4841 0.2506
vn -0.9914 0.1305 0.0000
vn -0.0002 0.8640 0.5034
vn 0.1258 0.9921 -0.0018
vn 0.5081 0.8612 -0.0106
vn 0.1321 0.9912 0.0060
vn 0.5028 0.8642 0.0173
vn 0.8726 0.4884 0.0090
vn 0.8759 0.4821 -0.0199
vn -0.6032 0.7724 -0.1986
vn -0.2980 0.9349 -0.1925
vn -0.9186 0.3416 -0.1985
vn -0.7153 0.5937 -0.3686
vn -0.6197 0.4114 -0.6684
vn -0.7964 0.5360 -0.2802
vn -0.8857 0.3168 -0.3394
vn -0.4387 0.8899 -0.1251
vn -0.5060 0.7672 -0.3941
vn -0.0005 0.9189 0.3945
vn 0.4557 0.8902 -0.0028
vn 0.4274 0.9034 0.0339
vn 0.8370 0.5472 -0.0040
vn 0.9098 0.4149 -0.0074
vn 0.0005 0.9904 -0.1384
vn 0.0015 0.8620 -0.5068
vn 0.0015 0.5068 -0.8621
vn 0.7703 0.3187 0.5524
vn 0.7703 0.5523 0.3189
vn 0.0838 0.9880 0.1301
vn -0.5498 0.3234 0.7702
vn -0.3230 0.5500 0.7702
vn -0.1375 0.9869 0.0844
vn 0.5065 0.8623 0.0006
vn 0.8661 0.4999 0.0011
vn 0.0000 0.5000 0.8660
usemtl Material.006
s off
f 7/1/1 40/2/1 5/3/1
f 5/3/1 80/4/1 8/5/1
f 1/6/1 27/7/1 7/1/1
f 8/5/1 17/8/1 3/9/1
f 3/9/2 13/10/2 9/11/2
f 10/12/2 91/13/2 2/14/2
f 33/15/1 31/16/1 29/17/1
f 27/7/1 34/18/1 33/15/1
f 32/19/1 37/20/1 34/18/1
f 31/16/1 34/18/1 37/20/1
f 48/21/1 46/22/1 44/23/1
f 40/2/1 49/24/1 48/21/1
f 47/25/1 43/26/1 49/24/1
f 43/26/1 46/22/1 49/24/1
f 88/27/1 86/28/1 84/29/1
f 80/4/1 89/30/1 88/27/1
f 87/31/1 83/32/1 89/30/1
f 83/32/1 86/28/1 89/30/1
f 110/33/3 93/34/3 91/13/3
f 17/8/3 15/35/3 13/10/3
f 19/36/4 14/37/4 15/35/4
f 29/17/1 47/25/1 33/15/1
f 47/25/1 27/7/1 33/15/1
f 36/38/1 64/39/1 65/40/1
f 32/19/1 62/41/1 64/39/1
f 44/23/1 87/31/1 48/21/1
f 87/31/1 40/2/1 48/21/1
f 84/29/1 19/36/1 88/27/1
f 88/27/1 17/8/1 80/4/1
f 179/42/5 160/43/5 181/44/5
f 181/44/6 161/45/6 180/46/6
f 7/1/1 27/7/1 40/2/1
f 5/3/1 40/2/1 80/4/1
f 1/6/1 62/41/1 27/7/1
f 8/5/1 80/4/1 17/8/1
f 3/9/2 17/8/2 13/10/2
f 10/12/2 110/33/2 91/13/2
f 33/15/1 34/18/1 31/16/1
f 27/7/1 32/19/1 34/18/1
f 32/19/1 36/38/1 37/20/1
f 48/21/1 49/24/1 46/22/1
f 40/2/1 47/25/1 49/24/1
f 47/25/1 42/47/1 43/26/1
f 88/27/1 89/30/1 86/28/1
f 80/4/1 87/31/1 89/30/1
f 87/31/1 82/48/1 83/32/1
f 110/33/3 112/49/3 93/34/3
f 17/8/3 19/36/3 15/35/3
f 19/36/4 18/50/4 14/37/4
f 29/17/1 42/47/1 47/25/1
f 47/25/1 40/2/1 27/7/1
f 36/38/1 32/19/1 64/39/1
f 32/19/1 27/7/1 62/41/1
f 44/23/1 82/48/1 87/31/1
f 87/31/1 80/4/1 40/2/1
f 84/29/1 18/50/1 19/36/1
f 88/27/1 19/36/1 17/8/1
f 179/42/5 158/51/5 160/43/5
f 181/44/6 160/43/6 161/45/6
s 1
f 131/52/7 122/53/8 119/54/9
f 179/42/10 99/55/11 158/51/12
f 24/56/13 123/57/14 20/58/15
f 142/59/16 99/55/11 51/60/17
f 142/59/16 67/61/18 148/62/19
f 52/63/20 78/64/21 39/65/21
f 100/66/22 16/67/23 79/68/21
f 6/69/24 178/70/25 11/71/24
f 68/72/20 38/73/21 26/74/21
f 134/75/26 127/76/27 179/42/10
f 148/62/19 115/77/28 139/78/29
f 11/71/24 159/79/30 143/80/31
f 114/81/32 28/82/21 63/83/33
f 94/84/34 111/85/35 126/86/36
f 138/87/37 166/88/38 146/89/39
f 126/86/36 12/90/35 100/66/22
f 162/91/40 122/53/8 167/92/41
f 168/93/42 143/80/31 147/94/43
f 29/17/1 30/95/21 26/74/21
f 35/96/21 36/38/1 28/82/21
f 30/95/21 37/20/1 35/96/21
f 41/97/21 42/47/1 38/73/21
f 45/98/21 43/26/1 41/97/21
f 44/23/1 45/98/21 39/65/21
f 53/99/44 54/100/45 50/101/46
f 57/102/47 55/103/48 53/99/44
f 56/104/49 57/102/47 51/60/17
f 56/104/49 61/105/50 58/106/51
f 59/107/52 60/108/53 52/63/20
f 59/107/52 55/103/48 61/105/50
f 55/103/48 58/106/51 61/105/50
f 69/109/54 70/110/55 66/111/56
f 73/112/57 71/113/48 69/109/54
f 72/114/58 73/112/57 67/61/18
f 72/114/58 77/115/59 74/116/51
f 75/117/52 76/118/60 68/72/20
f 75/117/52 71/113/48 77/115/59
f 71/113/48 74/116/51 77/115/59
f 81/119/21 82/48/1 78/64/21
f 81/119/21 86/28/1 83/32/1
f 84/29/1 85/120/21 79/68/21
f 101/121/61 102/122/62 98/123/63
f 105/124/64 103/125/65 101/121/61
f 104/126/66 105/124/64 99/55/11
f 104/126/66 109/127/67 106/128/68
f 107/129/69 108/130/70 100/66/22
f 107/129/69 103/125/65 109/127/67
f 103/125/65 106/128/68 109/127/67
f 112/49/71 92/131/72 93/34/73
f 113/132/74 90/133/75 92/131/72
f 18/50/76 12/90/35 14/37/77
f 38/73/21 29/17/1 26/74/21
f 39/65/21 59/107/52 52/63/20
f 45/98/21 54/100/45 59/107/52
f 41/97/21 50/101/46 54/100/45
f 28/82/21 65/40/78 63/83/79
f 26/74/21 75/117/52 68/72/20
f 30/95/21 70/110/55 75/117/52
f 70/110/55 28/82/21 66/111/56
f 78/64/21 44/23/1 39/65/21
f 79/68/21 107/129/69 100/66/22
f 85/120/21 102/122/62 107/129/69
f 81/119/21 98/123/63 102/122/62
f 13/10/9 112/49/71 110/33/9
f 15/35/80 113/132/74 112/49/71
f 14/37/77 111/85/35 113/132/74
f 99/55/11 56/104/49 51/60/17
f 56/104/49 101/121/61 60/108/53
f 60/108/53 98/123/63 52/63/20
f 51/60/17 72/114/58 67/61/18
f 72/114/58 53/99/44 76/118/60
f 76/118/60 50/101/46 68/72/20
f 119/54/9 124/134/81 121/135/82
f 121/135/82 125/136/83 120/137/84
f 120/137/84 123/57/14 118/138/85
f 126/86/36 96/139/86 94/84/34
f 96/139/86 129/140/87 97/141/88
f 129/140/87 95/142/89 97/141/88
f 115/77/28 73/112/57 117/143/90
f 117/143/90 69/109/54 116/144/91
f 116/144/91 66/111/56 114/81/32
f 16/67/23 84/29/1 79/68/21
f 123/57/14 22/145/92 20/58/15
f 125/136/83 23/146/93 22/145/92
f 124/134/81 21/147/94 23/146/93
f 126/86/36 108/130/70 128/148/95
f 108/130/70 129/140/87 128/148/95
f 104/126/66 127/76/27 129/140/87
f 9/11/2 110/33/9 10/12/2
f 149/149/96 150/150/97 146/151/39
f 153/152/98 151/153/50 149/149/96
f 152/154/99 153/152/98 147/155/43
f 156/156/100 154/157/48 152/154/99
f 155/158/101 156/156/100 148/62/19
f 155/158/101 151/153/50 157/159/51
f 151/153/50 154/157/48 157/159/51
f 169/160/102 170/161/103 166/162/38
f 173/163/104 171/164/105 169/160/102
f 172/165/106 173/163/104 167/92/41
f 172/165/106 177/166/107 174/167/108
f 175/168/109 176/169/110 168/170/42
f 175/168/109 171/164/105 177/166/107
f 171/164/105 174/167/108 177/166/107
f 147/94/43 175/171/109 168/93/42
f 153/172/98 170/173/103 175/171/109
f 149/174/96 166/88/38 170/173/103
f 180/46/111 159/175/30 178/176/25
f 159/175/30 145/177/112 143/178/31
f 161/45/113 144/179/114 145/177/112
f 160/43/115 142/59/16 144/179/114
f 147/155/43 145/177/112 152/154/99
f 152/154/99 144/179/114 156/156/100
f 156/156/100 142/59/16 148/62/19
f 130/180/116 176/169/110 132/181/117
f 176/169/110 133/182/118 132/181/117
f 172/165/106 131/52/7 133/182/118
f 179/42/10 136/183/119 134/75/26
f 136/183/119 180/46/111 137/184/120
f 180/46/111 135/185/121 137/184/120
f 162/91/40 173/163/104 164/186/122
f 164/186/122 169/160/102 165/187/123
f 165/187/123 166/162/38 163/188/124
f 146/151/39 140/189/125 138/190/37
f 150/150/97 141/191/126 140/189/125
f 155/158/101 139/78/29 141/191/126
f 130/192/116 11/71/24 168/93/42
f 131/52/7 167/92/41 122/53/8
f 179/42/10 127/76/27 99/55/11
f 24/56/13 118/138/85 123/57/14
f 142/59/16 158/51/12 99/55/11
f 142/59/16 51/60/17 67/61/18
f 52/63/20 98/123/63 78/64/21
f 100/66/22 12/90/35 16/67/23
f 6/69/24 135/193/121 178/70/25
f 68/72/20 50/101/46 38/73/21
f 134/75/26 95/142/89 127/76/27
f 148/62/19 67/61/18 115/77/28
f 11/71/24 178/70/25 159/79/30
f 114/81/32 66/111/56 28/82/21
f 94/84/34 90/133/75 111/85/35
f 138/87/37 163/194/124 166/88/38
f 126/86/36 111/85/35 12/90/35
f 162/91/40 21/147/94 122/53/8
f 168/93/42 11/71/24 143/80/31
f 29/17/1 31/16/1 30/95/21
f 35/96/21 37/20/1 36/38/1
f 30/95/21 31/16/1 37/20/1
f 41/97/21 43/26/1 42/47/1
f 45/98/21 46/22/1 43/26/1
f 44/23/1 46/22/1 45/98/21
f 53/99/44 55/103/48 54/100/45
f 57/102/47 58/106/51 55/103/48
f 56/104/49 58/106/51 57/102/47
f 56/104/49 60/108/53 61/105/50
f 59/107/52 61/105/50 60/108/53
f 59/107/52 54/100/45 55/103/48
f 69/109/54 71/113/48 70/110/55
f 73/112/57 74/116/51 71/113/48
f 72/114/58 74/116/51 73/112/57
f 72/114/58 76/118/60 77/115/59
f 75/117/52 77/115/59 76/118/60
f 75/117/52 70/110/55 71/113/48
f 81/119/21 83/32/1 82/48/1
f 81/119/21 85/120/21 86/28/1
f 84/29/1 86/28/1 85/120/21
f 101/121/61 103/125/65 102/122/62
f 105/124/64 106/128/68 103/125/65
f 104/126/66 106/128/68 105/124/64
f 104/126/66 108/130/70 109/127/67
f 107/129/69 109/127/67 108/130/70
f 107/129/69 102/122/62 103/125/65
f 112/49/71 113/132/74 92/131/72
f 113/132/74 111/85/35 90/133/75
f 18/50/76 16/67/23 12/90/35
f 38/73/21 42/47/1 29/17/1
f 39/65/21 45/98/21 59/107/52
f 45/98/21 41/97/21 54/100/45
f 41/97/21 38/73/21 50/101/46
f 28/82/21 36/38/1 65/40/78
f 26/74/21 30/95/21 75/117/52
f 30/95/21 35/96/21 70/110/55
f 70/110/55 35/96/21 28/82/21
f 78/64/21 82/48/1 44/23/1
f 79/68/21 85/120/21 107/129/69
f 85/120/21 81/119/21 102/122/62
f 81/119/21 78/64/21 98/123/63
f 13/10/9 15/35/80 112/49/71
f 15/35/80 14/37/77 113/132/74
f 14/37/77 12/90/35 111/85/35
f 99/55/11 105/124/64 56/104/49
f 56/104/49 105/124/64 101/121/61
f 60/108/53 101/121/61 98/123/63
f 51/60/17 57/102/47 72/114/58
f 72/114/58 57/102/47 53/99/44
f 76/118/60 53/99/44 50/101/46
f 119/54/9 122/53/8 124/134/81
f 121/135/82 124/134/81 125/136/83
f 120/137/84 125/136/83 123/57/14
f 126/86/36 128/148/95 96/139/86
f 96/139/86 128/148/95 129/140/87
f 129/140/87 127/76/27 95/142/89
f 115/77/28 67/61/18 73/112/57
f 117/143/90 73/112/57 69/109/54
f 116/144/91 69/109/54 66/111/56
f 16/67/23 18/50/76 84/29/1
f 123/57/14 125/136/83 22/145/92
f 125/136/83 124/134/81 23/146/93
f 124/134/81 122/53/8 21/147/94
f 126/86/36 100/66/22 108/130/70
f 108/130/70 104/126/66 129/140/87
f 104/126/66 99/55/11 127/76/27
f 9/11/2 13/10/9 110/33/9
f 149/149/96 151/153/50 150/150/97
f 153/152/98 154/157/48 151/153/50
f 152/154/99 154/157/48 153/152/98
f 156/156/100 157/159/51 154/157/48
f 155/158/101 157/159/51 156/156/100
f 155/158/101 150/150/97 151/153/50
f 169/160/102 171/164/105 170/161/103
f 173/163/104 174/167/108 171/164/105
f 172/165/106 174/167/108 173/163/104
f 172/165/106 176/169/110 177/166/107
f 175/168/109 177/166/107 176/169/110
f 175/168/109 170/161/103 171/164/105
f 147/94/43 153/172/98 175/171/109
f 153/172/98 149/174/96 170/173/103
f 149/174/96 146/89/39 166/88/38
f 180/46/111 161/45/113 159/175/30
f 159/175/30 161/45/113 145/177/112
f 161/45/113 160/43/115 144/179/114
f 160/43/115 158/51/12 142/59/16
f 147/155/43 143/178/31 145/177/112
f 152/154/99 145/177/112 144/179/114
f 156/156/100 144/179/114 142/59/16
f 130/180/116 168/170/42 176/169/110
f 176/169/110 172/165/106 133/182/118
f 172/165/106 167/92/41 131/52/7
f 179/42/10 181/44/127 136/183/119
f 136/183/119 181/44/127 180/46/111
f 180/46/111 178/176/25 135/185/121
f 162/91/40 167/92/41 173/163/104
f 164/186/122 173/163/104 169/160/102
f 165/187/123 169/160/102 166/162/38
f 146/151/39 150/150/97 140/189/125
f 150/150/97 155/158/101 141/191/126
f 155/158/101 148/62/19 139/78/29
f 130/192/116 6/69/24 11/71/24
l 4 25
