# Blender v3.1.2 OBJ File: ''
# www.blender.org
mtllib up02.mtl
o up02_Plane.001
v -1.110000 1.000000 -1.110000
v -1.000000 1.000000 -1.110000
v -1.000000 1.000000 1.110000
v -1.000000 1.109971 1.110000
v -1.110000 1.109971 -1.110000
v -1.110000 1.109971 1.110000
v -1.110000 1.000000 1.110000
v -1.000000 1.109971 -1.110000
vt 0.273256 1.000000
vt 0.256180 0.689441
vt 0.273256 0.689441
vt 0.689432 0.327640
vt 0.672356 0.017081
vt 0.689432 0.017081
vt 0.327640 0.017081
vt 0.344720 0.327640
vt 0.327640 0.327640
vt 0.344721 0.017081
vt 0.361797 0.000000
vt 0.361797 0.017081
vt 0.051242 1.000000
vt 0.034162 0.689441
vt 0.051242 0.689441
vt 0.361797 0.672360
vt 0.344721 0.689441
vt 0.344721 0.672360
vt 0.256180 1.000000
vt 0.672356 0.327640
vt 0.344720 0.017081
vt 0.344721 0.000000
vt 0.034162 1.000000
vt 0.361797 0.689441
vn 0.5773 -0.5774 -0.5774
vn 0.5773 0.5774 0.5774
vn 0.5774 -0.5774 0.5774
vn -0.5773 -0.5774 0.5774
vn -0.5773 0.5774 -0.5773
vn -0.5774 -0.5773 -0.5774
vn 0.5774 0.5774 -0.5774
vn -0.5774 0.5774 0.5774
usemtl Material.001
s 1
f 2/1/1 4/2/2 3/3/3
f 7/4/4 5/5/5 1/6/6
f 8/7/7 6/8/8 4/9/2
f 4/10/2 7/11/4 3/12/3
f 3/13/3 1/14/6 2/15/1
f 2/16/1 5/17/5 8/18/7
f 2/1/1 8/19/7 4/2/2
f 7/4/4 6/20/8 5/5/5
f 8/7/7 5/21/5 6/8/8
f 4/10/2 6/22/8 7/11/4
f 3/13/3 7/23/4 1/14/6
f 2/16/1 1/24/6 5/17/5
