# Blender v3.1.2 OBJ File: ''
# www.blender.org
mtllib Map021.mtl
o Map.021_Plane.001
v -0.490000 0.106591 0.490000
v -0.497322 0.099271 -0.500000
v -0.497321 0.099271 0.497321
v -0.500001 0.089271 -0.500000
v -0.500000 0.089271 0.500000
v 0.500000 0.099271 0.497320
v 0.500000 0.106591 0.490000
v 0.500000 0.089271 0.500000
v 0.499999 0.089271 -0.500000
v 0.500000 -0.000000 0.500000
v 0.499999 0.000000 -0.500000
v 0.499999 0.099271 -0.500000
v 0.499999 0.106591 -0.500000
v -0.490001 0.106591 -0.500000
v -0.480001 0.109271 -0.500000
v 0.499999 0.109271 -0.500000
v -0.500001 0.000000 -0.500000
v -0.500000 -0.000000 0.500000
v 0.500000 0.109271 0.480000
v -0.480000 0.109271 0.480000
vt 0.123940 0.010231
vt 0.106670 0.999724
vt 0.106669 0.002814
vt 0.089271 0.999601
vt 0.089270 0.000038
vt 0.462040 0.358909
vt 0.459538 0.057359
vt 0.462040 0.057359
vt 0.459538 0.361139
vt 0.456412 0.057359
vt 0.051552 0.000038
vt 0.140783 0.999579
vt 0.051553 0.999579
vt 0.399215 0.361139
vt 0.402261 0.057359
vt 0.402261 0.361955
vt 0.396985 0.057359
vt 0.396169 0.355863
vt 0.396169 0.057359
vt 0.123941 0.999845
vt 0.456412 0.361955
vt 0.000038 0.000038
vt 0.000039 0.999601
vt 0.034187 0.999681
vt 0.016917 0.021939
vt 0.034154 0.004700
vt 0.429453 0.361955
vt 0.429453 0.057359
vt 0.429453 0.057359
vt 0.017121 0.999807
vt 0.000038 0.084973
vt 0.399215 0.057359
vt 0.396985 0.358909
vt 0.140783 0.000038
vt 0.429453 0.361955
vt 0.001152 0.999963
vt 0.141038 0.020332
vt 0.065538 0.062764
vt 0.362814 0.057359
vt 0.362886 0.060465
vt 0.362886 0.357821
vt 0.065538 0.360121
vt 0.141038 0.999963
vt 0.062432 0.059682
vn -0.7071 0.7072 0.0000
vn -0.9659 0.2588 0.0000
vn 0.0000 0.7071 0.7071
vn 0.0000 0.2589 0.9659
vn 1.0000 0.0000 -0.0000
vn 0.0000 0.0000 -1.0000
vn 0.0000 0.7072 0.7071
vn 0.0000 0.2588 0.9659
vn -1.0000 0.0000 0.0000
vn 0.0000 0.0000 1.0000
vn 0.7604 0.6439 0.0850
vn 0.7071 -0.0004 -0.7071
vn 0.7604 0.6439 0.0851
vn -0.0985 0.9903 0.0985
vn -0.2589 0.9659 0.0000
vn -0.1317 0.9825 0.1317
vn 0.8575 0.4970 0.1331
vn 0.6789 0.7280 0.0957
vn 0.7071 0.7071 0.0003
vn -0.1305 0.9914 0.0000
usemtl Material.006
s off
f 1/1/1 2/2/1 3/3/1
f 3/3/2 4/4/2 5/5/2
f 1/6/3 6/7/3 7/8/3
f 3/9/4 8/10/4 6/7/4
f 8/11/5 11/12/5 9/13/5
f 2/14/6 9/15/6 4/16/6
f 13/17/6 15/18/6 16/19/6
f 1/1/1 14/20/1 2/2/1
f 3/3/2 2/2/2 4/4/2
f 1/6/7 3/9/7 6/7/7
f 3/9/8 5/21/8 8/10/8
f 18/22/9 4/4/9 17/23/9
f 12/24/5 7/25/5 6/26/5
f 8/10/10 18/27/10 10/28/10
f 11/29/6 4/16/6 9/15/6
f 6/26/5 9/13/5 12/24/5
f 13/30/5 19/31/11 7/25/5
f 12/32/6 14/33/6 13/17/6
f 8/11/5 10/34/5 11/12/5
f 2/14/6 12/32/6 9/15/6
f 13/17/6 14/33/6 15/18/6
f 18/22/9 5/5/9 4/4/9
f 12/24/5 13/30/5 7/25/5
f 8/10/10 5/21/10 18/27/10
f 11/29/6 17/35/6 4/16/6
f 6/26/5 8/11/5 9/13/5
f 13/30/5 16/36/12 19/31/13
f 12/32/6 2/14/6 14/33/6
s 1
f 20/37/14 14/20/15 1/1/16
f 20/38/14 7/39/17 19/40/18
f 20/38/14 16/41/19 15/42/20
f 20/37/14 15/43/20 14/20/15
f 20/38/14 1/44/16 7/39/17
f 20/38/14 19/40/18 16/41/19
