# Blender v3.1.2 OBJ File: 'Map.blend'
# www.blender.org
mtllib Map021.mtl
o Map.021_Plane.042
v -0.500001 0.000000 -0.500000
v 0.500000 -0.000000 0.500000
v 0.499999 0.000000 -0.500000
v -0.500000 -0.000000 0.500000
v 0.499999 0.109271 -0.500000
v -0.500000 0.089271 0.500000
v -0.480000 0.109271 0.480000
v -0.497321 0.099271 0.497321
v -0.490000 0.106591 0.490000
v -0.500001 0.089271 -0.500000
v -0.480001 0.109271 -0.500000
v -0.497322 0.099271 -0.500000
v -0.490001 0.106591 -0.500000
v 0.500000 0.109271 0.480000
v 0.500000 0.089271 0.500000
v 0.500000 0.106591 0.490000
v 0.500000 0.099271 0.497320
vt 0.399215 0.361139
vt 0.396985 0.358909
vt 0.396169 0.355863
vt 0.429453 0.057359
vt 0.456412 0.361955
vt 0.429453 0.361955
vt 0.494627 0.060405
vt 0.492125 0.361955
vt 0.492125 0.058175
vt 0.488999 0.361955
vt 0.488999 0.057359
vt 0.462040 0.358909
vt 0.459538 0.057359
vt 0.462040 0.057359
vt 0.459538 0.361139
vt 0.456412 0.057359
vt 0.396169 0.057359
vt 0.429453 0.057359
vt 0.429453 0.361955
vt 0.402261 0.361955
vt 0.494627 0.361955
vt 0.065538 0.062764
vt 0.062432 0.360073
vt 0.062432 0.059682
vt 0.362814 0.057359
vt 0.362886 0.060465
vt 0.362886 0.357821
vt 0.065538 0.360121
vn -0.0000 0.0000 -1.0000
vn 0.0000 0.0000 1.0000
vn -0.7071 0.7071 0.0000
vn -0.9659 0.2588 0.0000
vn 0.0000 0.7071 0.7071
vn 0.0000 0.2588 0.9659
vn -0.0984 0.9903 0.0984
vn -0.2588 0.9659 0.0000
vn -0.1316 0.9825 0.1316
vn 0.8575 0.4970 0.1331
vn 0.6789 0.7280 0.0957
vn 0.7071 0.7071 0.0003
vn -0.1305 0.9914 0.0000
usemtl Material.018
s off
f 12/1/1 13/2/1 11/3/1
f 2/4/2 6/5/2 4/6/2
f 9/7/3 12/8/3 8/9/3
f 8/9/4 10/10/4 6/11/4
f 9/12/5 17/13/5 16/14/5
f 8/15/6 15/16/6 17/13/6
f 5/17/1 3/18/1 11/3/1
f 3/18/1 1/19/1 11/3/1
f 1/19/1 10/20/1 11/3/1
f 10/20/1 12/1/1 11/3/1
f 2/4/2 15/16/2 6/5/2
f 9/7/3 13/21/3 12/8/3
f 8/9/4 12/8/4 10/10/4
f 9/12/5 8/15/5 17/13/5
f 8/15/6 6/5/6 15/16/6
s 1
f 7/22/7 13/23/8 9/24/9
f 7/22/7 16/25/10 14/26/11
f 7/22/7 5/27/12 11/28/13
f 7/22/7 11/28/13 13/23/8
f 7/22/7 9/24/9 16/25/10
f 7/22/7 14/26/11 5/27/12
