# Blender v3.0.0 OBJ File: ''
# www.blender.org
mtllib Map015.mtl
o Map.017_Plane.035
v 0.500000 -0.000000 0.500000
v -0.499999 0.089271 0.500001
v -0.500000 0.000000 0.500001
v 0.497322 0.099271 0.499999
v 0.500001 0.089271 0.499999
v 0.500000 0.010000 0.329298
v 0.500000 0.020000 0.331978
v 0.490001 0.106591 0.499999
v 0.480001 0.109271 0.351978
v 0.480001 0.109271 0.500000
v 0.490001 0.106591 0.341978
v 0.497321 0.099271 0.334657
v 0.500000 0.089271 0.331978
v -0.499999 0.099271 0.500001
v 0.500000 -0.000000 0.311978
v 0.500000 0.002679 0.321978
v 0.500000 0.020000 -0.331978
v -0.500000 0.089271 -0.331977
v -0.500000 0.020000 -0.331977
v -0.500000 0.020000 0.331979
v 0.480000 0.109271 -0.351978
v -0.500000 0.109271 -0.499999
v -0.500000 0.109271 -0.351977
v -0.499999 0.109271 0.500001
v -0.500000 0.109271 0.351979
v -0.500000 0.089271 -0.499999
v 0.497321 0.099271 -0.499999
v 0.500000 0.089271 -0.499999
v -0.500000 0.099271 -0.499999
v 0.490000 0.106591 -0.499999
v -0.500000 0.106591 -0.499999
v 0.480000 0.109271 -0.499999
v -0.500000 0.106591 -0.341977
v 0.490000 0.106591 -0.341978
v -0.500000 0.099271 -0.334657
v 0.497321 0.099271 -0.334657
v 0.500000 0.089271 -0.331978
v -0.500000 0.089271 0.331979
v -0.500000 0.099271 0.334658
v -0.500000 0.106591 0.341979
v -0.499999 0.106591 0.500001
v 0.500000 -0.000000 -0.500000
v 0.500000 0.010000 -0.329298
v -0.500000 0.010000 -0.329298
v 0.500000 0.002679 -0.321978
v -0.500000 0.002680 -0.321977
v 0.500000 -0.000000 -0.311978
v -0.500000 0.000000 0.311979
v -0.500000 0.002680 0.321979
v -0.500000 0.010000 0.329299
v -0.500000 0.000000 -0.311977
v -0.500000 0.000000 -0.499999
vt 0.251440 0.889942
vt 0.182415 0.110058
vt 0.251441 0.110058
vt 0.174410 0.889942
vt 0.182415 0.889942
vt 0.333957 0.256693
vt 0.341756 0.123566
vt 0.349555 0.125656
vt 0.417086 0.248894
vt 0.419176 0.141253
vt 0.419176 0.241096
vt 0.411377 0.254604
vt 0.417086 0.133455
vt 0.411377 0.127745
vt 0.403578 0.256693
vt 0.403578 0.125656
vt 0.174410 0.110058
vt 0.333957 0.110058
vt 0.336047 0.117857
vt 0.310363 0.846022
vt 0.263155 0.153978
vt 0.310363 0.153978
vt 0.266099 0.110058
vt 0.319299 0.889942
vt 0.266099 0.889942
vt 0.169081 0.846022
vt 0.080679 0.153978
vt 0.169081 0.153978
vt 0.160362 0.110058
vt 0.060739 0.889942
vt 0.060739 0.110058
vt 0.237360 0.153978
vt 0.244463 0.846022
vt 0.237360 0.846022
vt 0.244463 0.153978
vt 0.250147 0.846022
vt 0.073896 0.153978
vt 0.080679 0.846022
vt 0.073896 0.846022
vt 0.176109 0.153978
vt 0.176109 0.846022
vt 0.250147 0.846022
vt 0.256017 0.153978
vt 0.256017 0.846022
vt 0.263154 0.846022
vt 0.319299 0.110058
vt 0.327343 0.889942
vt 0.327343 0.110058
vt 0.333957 0.889942
vt 0.052819 0.110058
vt 0.052818 0.889942
vt 0.160361 0.889942
vt 0.168005 0.110058
vt 0.168005 0.889942
vt 0.176109 0.846022
vt 0.317500 0.846022
vt 0.317500 0.153978
vt 0.323370 0.846022
vt 0.398990 0.153978
vt 0.406019 0.846022
vt 0.398990 0.846022
vt 0.419176 0.110058
vt 0.427096 0.889942
vt 0.419176 0.889942
vt 0.251441 0.110058
vt 0.258055 0.889942
vt 0.251441 0.889942
vt 0.258055 0.110058
vt 0.752986 0.398341
vt 0.620656 0.703111
vt 0.752986 0.703111
vt 0.330291 0.282243
vt 0.325224 0.174739
vt 0.330291 0.169673
vt 0.325224 0.277177
vt 0.323370 0.181660
vt 0.337211 0.284097
vt 0.392070 0.165964
vt 0.397136 0.160898
vt 0.398990 0.284097
vt 0.250147 0.153978
vt 0.250147 0.153978
vt 0.333957 0.110058
vt 0.176109 0.153978
vt 0.323370 0.153978
vt 0.406019 0.153978
vt 0.427096 0.110058
vt 0.620656 0.398341
vt 0.323370 0.270256
vt 0.337211 0.167819
vt 0.385150 0.167819
vt 0.398990 0.153978
vn 0.0000 -0.0000 1.0000
vn 1.0000 0.0000 0.0000
vn 0.3667 0.9254 0.0959
vn 0.1374 0.9891 -0.0523
vn 0.2047 0.9770 0.0600
vn 0.7972 0.6037 -0.0000
vn 0.6018 0.7965 -0.0583
vn 0.6313 0.7670 0.1147
vn 0.9592 0.2823 -0.0137
vn 0.9659 0.2588 -0.0000
vn 0.2983 0.9437 -0.1429
vn 0.7127 0.7009 -0.0268
vn 0.9569 0.2563 0.1369
vn 0.6691 0.1940 0.7174
vn 0.0000 0.1305 0.9914
vn -0.0000 0.1305 -0.9914
vn -0.0000 0.1191 -0.9929
vn 0.0988 0.9942 -0.0427
vn -0.1085 0.7051 -0.7008
vn -0.1413 0.9815 0.1292
vn -0.1781 0.6957 0.6959
vn 0.1302 0.9862 -0.1024
vn -0.0859 0.9881 -0.1276
vn -0.0000 0.0000 -1.0000
vn 0.7227 0.1843 -0.6661
vn 0.7280 0.0958 -0.6789
vn 0.5560 0.4979 -0.6656
vn -0.0254 0.1450 -0.9891
vn -0.0650 0.7298 -0.6806
vn 0.0185 0.9238 0.3825
vn 0.1846 0.9653 0.1846
vn 0.0000 0.5000 0.8660
vn 0.5664 0.5986 0.5664
vn 0.6972 0.1672 0.6972
vn 0.0291 0.4349 -0.9000
vn -0.0000 0.5000 -0.8660
vn 0.1287 0.8464 -0.5167
vn -0.0282 0.9349 -0.3539
vn 0.0790 0.5331 0.8424
vn 0.0166 0.1176 0.9929
vn 0.0657 0.1343 0.9888
vn 0.1185 0.0684 0.9906
vn 0.7071 0.0000 -0.7071
vn 0.2081 0.9779 -0.0207
vn 0.2081 0.8365 -0.5069
vn 0.0000 0.8660 0.5000
vn 0.1711 0.9767 0.1295
vn 0.0000 0.9914 -0.1305
vn -0.0000 0.8660 -0.5000
vn 0.0000 0.9914 0.1305
usemtl Material.017
s off
f 1/1/1 2/2/1 3/3/1
f 4/4/1 2/2/1 5/5/1
f 1/6/2 6/7/2 7/8/2
f 8/9/3 9/10/4 10/11/5
f 4/12/6 11/13/7 8/9/8
f 12/14/9 5/15/10 13/16/10
f 1/1/1 5/5/1 2/2/1
f 4/4/1 14/17/1 2/2/1
f 13/16/2 5/15/2 7/8/2
f 5/15/2 1/6/2 7/8/2
f 1/6/2 15/18/2 16/19/2
f 1/6/2 16/19/2 6/7/2
f 8/9/3 11/13/11 9/10/4
f 4/12/6 12/14/12 11/13/7
f 12/14/9 4/12/13 5/15/10
s 1
f 17/20/14 18/21/15 19/22/15
f 20/23/16 13/24/17 7/25/16
f 21/26/18 22/27/19 23/28/20
f 24/29/21 9/30/22 25/31/23
f 26/32/24 27/33/25 28/34/26
f 29/35/24 30/36/27 27/33/25
f 31/37/28 32/38/29 30/39/27
f 21/26/18 33/40/30 34/41/31
f 34/42/31 35/43/32 36/44/33
f 36/44/33 18/21/15 37/45/34
f 38/46/16 12/47/35 13/24/17
f 39/48/36 11/49/37 12/47/35
f 40/50/38 9/30/22 11/51/37
f 10/52/39 41/53/40 8/54/41
f 8/54/41 14/17/1 4/4/42
f 42/55/43 26/32/24 28/34/26
f 19/22/15 43/56/44 17/20/14
f 44/57/32 45/58/45 43/56/44
f 46/59/46 47/60/47 45/61/45
f 48/62/48 16/63/49 15/64/48
f 49/65/49 6/66/36 16/67/49
f 50/68/36 7/25/16 6/66/36
f 15/69/48 51/70/50 48/71/48
f 27/72/25 34/73/31 36/74/33
f 30/75/27 21/76/18 34/73/31
f 36/74/33 28/77/26 27/72/25
f 43/78/44 45/79/45 42/80/43
f 17/20/14 37/45/34 18/21/15
f 20/23/16 38/46/16 13/24/17
f 21/26/18 32/38/29 22/27/19
f 24/29/21 10/52/39 9/30/22
f 26/32/24 29/35/24 27/33/25
f 29/35/24 31/81/28 30/36/27
f 31/37/28 22/27/19 32/38/29
f 21/26/18 23/28/20 33/40/30
f 34/42/31 33/82/30 35/43/32
f 36/44/33 35/43/32 18/21/15
f 38/46/16 39/48/36 12/47/35
f 39/48/36 40/83/38 11/49/37
f 40/50/38 25/31/23 9/30/22
f 10/52/39 24/29/21 41/53/40
f 8/54/41 41/53/40 14/17/1
f 42/55/43 52/84/24 26/32/24
f 19/22/15 44/57/32 43/56/44
f 44/57/32 46/85/46 45/58/45
f 46/59/46 51/86/50 47/60/47
f 48/62/48 49/87/49 16/63/49
f 49/65/49 50/68/36 6/66/36
f 50/68/36 20/23/16 7/25/16
f 15/69/48 47/88/47 51/70/50
f 27/72/25 30/75/27 34/73/31
f 30/75/27 32/89/29 21/76/18
f 36/74/33 37/90/34 28/77/26
f 42/80/43 28/77/26 17/91/14
f 28/77/26 37/90/34 17/91/14
f 45/79/45 47/92/47 42/80/43
f 42/80/43 17/91/14 43/78/44
