# Blender v3.1.2 OBJ File: ''
# www.blender.org
mtllib Map015.mtl
o Map.017_Plane.001
v 0.500000 -0.000000 0.500000
v -0.499999 0.089271 0.500001
v -0.500000 -0.000000 0.500001
v 0.497322 0.099271 0.499999
v 0.500001 0.089271 0.499999
v 0.500000 0.010000 0.329298
v 0.500000 0.020000 0.331978
v 0.490001 0.106591 0.499999
v 0.480001 0.109271 0.351978
v 0.480001 0.109271 0.500000
v 0.490001 0.106591 0.341978
v 0.497321 0.099271 0.334657
v 0.500000 0.089271 0.331978
v -0.499999 0.099271 0.500001
v 0.500000 -0.000000 0.311978
v 0.500000 0.002679 0.321978
v 0.500000 0.020000 -0.331978
v -0.500000 0.089271 -0.331977
v -0.500000 0.020000 -0.331977
v -0.500000 0.020000 0.331979
v 0.480000 0.109271 -0.351978
v -0.500000 0.109271 -0.499999
v -0.500000 0.109271 -0.351977
v -0.499999 0.109271 0.500001
v -0.500000 0.109271 0.351979
v -0.500000 0.089271 -0.499999
v 0.497321 0.099271 -0.499999
v 0.500000 0.089271 -0.499999
v -0.500000 0.099271 -0.499999
v 0.490000 0.106591 -0.499999
v -0.500000 0.106591 -0.499999
v 0.480000 0.109271 -0.499999
v -0.500000 0.106591 -0.341977
v 0.490000 0.106591 -0.341978
v -0.500000 0.099271 -0.334657
v 0.497321 0.099271 -0.334657
v 0.500000 0.089271 -0.331978
v -0.500000 0.089271 0.331979
v -0.500000 0.099271 0.334658
v -0.500000 0.106591 0.341979
v -0.499999 0.106591 0.500001
v 0.500000 0.000000 -0.500000
v 0.500000 0.010000 -0.329298
v -0.500000 0.010000 -0.329298
v 0.500000 0.002679 -0.321978
v -0.500000 0.002680 -0.321977
v 0.500000 0.000000 -0.311978
v -0.500000 -0.000000 0.311979
v -0.500000 0.002680 0.321979
v -0.500000 0.010000 0.329299
v -0.500000 0.000000 -0.311977
v -0.500000 0.000000 -0.499999
v -0.500000 0.020000 -0.499999
v -0.500000 0.010000 -0.499999
v -0.500000 0.002680 -0.499999
v -0.500000 0.020000 0.500001
v -0.500000 0.010000 0.500001
v -0.500000 0.002680 0.500001
v 0.500000 0.020000 0.500000
v 0.500000 0.010000 0.500000
v 0.500000 0.002679 0.500000
v 0.500000 0.020000 -0.500000
v 0.500000 0.010000 -0.500000
v 0.500000 0.002679 -0.500000
vt 0.174410 0.889942
vt 0.182415 0.110058
vt 0.182415 0.889942
vt 0.417086 0.248894
vt 0.419176 0.141253
vt 0.419176 0.241096
vt 0.411377 0.254604
vt 0.417086 0.133455
vt 0.411377 0.127745
vt 0.403578 0.256693
vt 0.403578 0.125656
vt 0.174410 0.110058
vt 0.249369 0.889942
vt 0.251441 0.110058
vt 0.251440 0.889942
vt 0.341756 0.123566
vt 0.336046 0.256693
vt 0.336047 0.117857
vt 0.349555 0.125656
vt 0.349555 0.256693
vt 0.341756 0.256693
vt 0.333957 0.256693
vt 0.235976 0.889942
vt 0.235977 0.110058
vt 0.243708 0.889942
vt 0.243709 0.110058
vt 0.249369 0.110058
vt 0.333957 0.110058
vt 0.243750 0.566229
vt 0.131163 0.293142
vt 0.243750 0.293142
vt 0.310363 0.846022
vt 0.263155 0.153978
vt 0.310363 0.153978
vt 0.266099 0.110058
vt 0.319299 0.889942
vt 0.266099 0.889942
vt 0.169081 0.846022
vt 0.080679 0.153978
vt 0.169081 0.153978
vt 0.160362 0.110058
vt 0.060739 0.889942
vt 0.060739 0.110058
vt 0.237360 0.153978
vt 0.244463 0.846022
vt 0.237360 0.846022
vt 0.244463 0.153978
vt 0.250147 0.846022
vt 0.073896 0.153978
vt 0.080679 0.846022
vt 0.073896 0.846022
vt 0.176109 0.153978
vt 0.176109 0.846022
vt 0.250147 0.846022
vt 0.256017 0.153978
vt 0.256017 0.846022
vt 0.263154 0.846022
vt 0.319299 0.110058
vt 0.327343 0.889942
vt 0.327343 0.110058
vt 0.333957 0.889942
vt 0.052819 0.110058
vt 0.052818 0.889942
vt 0.160361 0.889942
vt 0.168005 0.110058
vt 0.168005 0.889942
vt 0.317500 0.846022
vt 0.317500 0.153978
vt 0.323370 0.846022
vt 0.398990 0.153978
vt 0.406019 0.846022
vt 0.398990 0.846022
vt 0.419176 0.110058
vt 0.427096 0.889942
vt 0.419176 0.889942
vt 0.251441 0.110058
vt 0.258055 0.889942
vt 0.251441 0.889942
vt 0.258055 0.110058
vt 0.752986 0.398341
vt 0.620656 0.703111
vt 0.752986 0.703111
vt 0.330291 0.282243
vt 0.325224 0.174739
vt 0.330291 0.169673
vt 0.325224 0.277177
vt 0.323370 0.181660
vt 0.337211 0.284097
vt 0.250147 0.153978
vt 0.250147 0.153978
vt 0.333957 0.110058
vt 0.271900 0.309395
vt 0.260003 0.566229
vt 0.260003 0.297498
vt 0.323370 0.153978
vt 0.406019 0.153978
vt 0.427096 0.110058
vt 0.620656 0.398341
vt 0.323370 0.270256
vt 0.337211 0.167819
vt 0.176109 0.153978
vt 0.177947 0.846022
vt 0.176109 0.846022
vt 0.385150 0.167819
vt 0.392070 0.284097
vt 0.385149 0.284097
vt 0.131163 0.566229
vt 0.271901 0.566229
vt 0.276256 0.325648
vt 0.276256 0.566229
vt 0.406272 0.228023
vt 0.137577 0.244274
vt 0.133223 0.228024
vt 0.114910 0.566229
vt 0.114910 0.288788
vt 0.103012 0.566229
vt 0.103012 0.276888
vt 0.097962 0.566217
vt 0.097962 0.260619
vt 0.406272 0.115453
vt 0.406272 0.244274
vt 0.149474 0.256170
vt 0.406272 0.256170
vt 0.165725 0.260525
vt 0.133223 0.115453
vt 0.406272 0.099202
vt 0.128868 0.099202
vt 0.406272 0.087307
vt 0.116972 0.087306
vt 0.406261 0.082257
vt 0.392070 0.165964
vt 0.397136 0.284097
vt 0.397136 0.160898
vt 0.398990 0.284097
vt 0.189831 0.153978
vt 0.189831 0.846022
vt 0.182970 0.153978
vt 0.182970 0.846022
vt 0.177948 0.153978
vt 0.406272 0.260525
vt 0.097962 0.082208
vt 0.398990 0.153978
vn 0.0000 -0.0000 1.0000
vn 0.3667 0.9254 0.0959
vn 0.1374 0.9891 -0.0523
vn 0.2047 0.9770 0.0600
vn 0.7972 0.6037 -0.0000
vn 0.6018 0.7965 -0.0583
vn 0.6313 0.7670 0.1147
vn 0.9592 0.2823 -0.0137
vn 0.9659 0.2588 -0.0000
vn 0.2983 0.9437 -0.1429
vn 0.7127 0.7009 -0.0268
vn 0.9569 0.2563 0.1369
vn 1.0000 0.0000 -0.0000
vn -1.0000 0.0000 0.0000
vn 0.7279 0.1925 0.6581
vn 0.0000 0.1305 0.9914
vn -0.0000 0.1305 -0.9914
vn -0.0000 0.1191 -0.9929
vn 0.0988 0.9942 -0.0427
vn -0.1085 0.7051 -0.7008
vn -0.1413 0.9815 0.1292
vn -0.1781 0.6957 0.6959
vn 0.1302 0.9862 -0.1024
vn -0.0859 0.9881 -0.1276
vn 0.0000 0.0000 -1.0000
vn 0.7227 0.1843 -0.6661
vn 0.7280 0.0958 -0.6789
vn 0.5560 0.4979 -0.6656
vn -0.0254 0.1450 -0.9891
vn -0.0650 0.7298 -0.6806
vn 0.0186 0.9238 0.3825
vn 0.1846 0.9653 0.1846
vn 0.0000 0.5000 0.8660
vn 0.5664 0.5986 0.5664
vn 0.6972 0.1672 0.6972
vn 0.0291 0.4349 -0.9000
vn -0.0000 0.5000 -0.8660
vn 0.1287 0.8464 -0.5167
vn -0.0282 0.9349 -0.3539
vn 0.0790 0.5331 0.8424
vn 0.0166 0.1176 0.9929
vn 0.0657 0.1343 0.9888
vn 0.1185 0.0684 0.9906
vn 0.2048 0.9745 -0.0916
vn 0.2273 0.8051 -0.5479
vn 0.0000 0.8660 0.5000
vn 0.1711 0.9767 0.1295
vn 0.0000 0.9914 -0.1305
vn -0.0000 0.8660 -0.5000
vn 0.0000 0.9914 0.1305
vn -0.9925 -0.0956 0.0755
vn 0.7071 0.0000 -0.7071
vn -0.9891 -0.1450 -0.0254
vn -0.9910 0.1328 0.0175
vn -0.9963 0.0580 -0.0631
vn -0.9886 -0.0831 -0.1259
vn -0.9929 -0.1176 -0.0166
vn -0.9967 0.0803 -0.0131
vn -0.9900 0.0997 0.0995
usemtl Material.004
s off
f 4/1/1 2/2/1 5/3/1
f 8/4/2 9/5/3 10/6/4
f 4/7/5 11/8/6 8/4/7
f 12/9/8 5/10/9 13/11/9
f 4/1/1 14/12/1 2/2/1
f 8/4/2 11/8/10 9/5/3
f 4/7/5 12/9/11 11/8/6
f 12/9/8 4/7/12 5/10/9
f 61/13/1 3/14/1 1/15/1
f 6/16/13 61/17/13 16/18/13
f 7/19/13 5/10/13 59/20/13
f 60/21/13 7/19/13 59/20/13
f 1/22/13 16/18/13 61/17/13
f 59/23/1 2/2/1 56/24/1
f 60/25/1 56/24/1 57/26/1
f 61/13/1 57/26/1 58/27/1
f 61/13/1 58/27/1 3/14/1
f 6/16/13 60/21/13 61/17/13
f 7/19/13 13/11/13 5/10/13
f 60/21/13 6/16/13 7/19/13
f 1/22/13 15/28/13 16/18/13
f 59/23/1 5/3/1 2/2/1
f 60/25/1 59/23/1 56/24/1
f 61/13/1 60/25/1 57/26/1
s 1
f 26/29/14 19/30/14 18/31/14
f 17/32/15 18/33/16 19/34/16
f 20/35/17 13/36/18 7/37/17
f 21/38/19 22/39/20 23/40/21
f 24/41/22 9/42/23 25/43/24
f 26/44/25 27/45/26 28/46/27
f 29/47/25 30/48/28 27/45/26
f 31/49/29 32/50/30 30/51/28
f 21/38/19 33/52/31 34/53/32
f 34/54/32 35/55/33 36/56/34
f 36/56/34 18/33/16 37/57/35
f 38/58/17 12/59/36 13/36/18
f 39/60/37 11/61/38 12/59/36
f 40/62/39 9/42/23 11/63/38
f 10/64/40 41/65/41 8/66/42
f 8/66/42 14/12/1 4/1/43
f 19/34/16 43/67/44 17/32/15
f 44/68/33 45/69/45 43/67/44
f 46/70/46 47/71/47 45/72/45
f 48/73/48 16/74/49 15/75/48
f 49/76/49 6/77/37 16/78/49
f 50/79/37 7/37/17 6/77/37
f 15/80/48 51/81/50 48/82/48
f 27/83/26 34/84/32 36/85/34
f 30/86/28 21/87/19 34/84/32
f 36/85/34 28/88/27 27/83/26
f 17/32/15 37/57/35 18/33/16
f 20/35/17 38/58/17 13/36/18
f 21/38/19 32/50/30 22/39/20
f 24/41/22 10/64/40 9/42/23
f 26/44/25 29/47/25 27/45/26
f 29/47/25 31/89/29 30/48/28
f 31/49/29 22/39/20 32/50/30
f 21/38/19 23/40/21 33/52/31
f 34/54/32 33/90/31 35/55/33
f 36/56/34 35/55/33 18/33/16
f 38/58/17 39/60/37 12/59/36
f 39/60/37 40/91/39 11/61/38
f 40/62/39 25/43/24 9/42/23
f 10/64/40 24/41/22 41/65/41
f 8/66/42 41/65/41 14/12/1
f 33/92/51 29/93/14 35/94/14
f 19/34/16 44/68/33 43/67/44
f 44/68/33 46/95/46 45/69/45
f 46/70/46 51/96/50 47/71/47
f 48/73/48 49/97/49 16/74/49
f 49/76/49 50/79/37 6/77/37
f 50/79/37 20/35/17 7/37/17
f 15/80/48 47/98/47 51/81/50
f 27/83/26 30/86/28 34/84/32
f 30/86/28 32/99/30 21/87/19
f 36/85/34 37/100/35 28/88/27
f 52/101/25 64/102/52 42/103/52
f 17/104/15 63/105/52 62/106/52
f 26/29/14 53/107/14 19/30/14
f 31/108/53 23/109/54 22/110/55
f 26/29/14 35/94/14 29/93/14
f 2/111/14 39/112/14 38/113/14
f 19/30/14 54/114/14 44/115/14
f 44/115/14 55/116/14 46/117/14
f 46/117/14 52/118/14 51/119/14
f 38/113/14 56/120/14 2/111/14
f 14/121/14 40/122/56 39/112/14
f 41/123/57 25/124/58 40/122/56
f 20/125/14 57/126/14 56/120/14
f 50/127/14 58/128/14 57/126/14
f 49/129/14 3/130/14 58/128/14
f 28/88/27 17/104/15 62/106/52
f 43/131/44 64/132/52 63/105/52
f 45/133/45 42/134/52 64/132/52
f 53/135/25 28/46/27 62/136/52
f 54/137/25 62/136/52 63/138/52
f 55/139/25 63/138/52 64/102/52
f 33/92/51 31/108/53 29/93/14
f 52/101/25 55/139/25 64/102/52
f 17/104/15 43/131/44 63/105/52
f 31/108/53 33/92/51 23/109/54
f 26/29/14 18/31/14 35/94/14
f 2/111/14 14/121/14 39/112/14
f 19/30/14 53/107/14 54/114/14
f 44/115/14 54/114/14 55/116/14
f 46/117/14 55/116/14 52/118/14
f 38/113/14 20/125/14 56/120/14
f 14/121/14 41/123/57 40/122/56
f 41/123/57 24/140/59 25/124/58
f 20/125/14 50/127/14 57/126/14
f 50/127/14 49/129/14 58/128/14
f 49/129/14 48/141/14 3/130/14
f 28/88/27 37/100/35 17/104/15
f 43/131/44 45/133/45 64/132/52
f 45/133/45 47/142/47 42/134/52
f 53/135/25 26/44/25 28/46/27
f 54/137/25 53/135/25 62/136/52
f 55/139/25 54/137/25 63/138/52
