# Blender v3.1.2 OBJ File: 'Map.blend'
# www.blender.org
mtllib Map015.mtl
o Map.015_Plane.031
v -0.500001 0.000000 -0.500000
v 0.500000 -0.000000 0.500000
v 0.499999 0.000000 -0.500000
v -0.500000 -0.000000 0.500000
v 0.479999 0.109271 -0.500000
v 0.499999 0.089271 -0.500000
v 0.489999 0.106591 -0.500000
v 0.497320 0.099271 -0.500000
v -0.500000 0.109271 0.500001
v -0.351979 0.109271 -0.500000
v -0.331979 0.089271 -0.500000
v -0.341979 0.106591 -0.500000
v -0.334658 0.099271 -0.500000
v -0.500000 0.109271 -0.499999
v 0.351977 0.109271 -0.500000
v 0.331977 0.089271 -0.500000
v 0.341977 0.106591 -0.500000
v 0.334657 0.099271 -0.500000
v 0.480000 0.109271 0.500000
v 0.500000 0.089271 0.500000
v 0.490000 0.106591 0.500000
v 0.497321 0.099271 0.500000
v 0.351978 0.109271 0.500000
v 0.331978 0.089271 0.500000
v 0.341978 0.106591 0.500000
v 0.334658 0.099271 0.500000
v -0.351978 0.109271 0.500000
v -0.331978 0.089271 0.500000
v -0.341978 0.106591 0.500000
v -0.334657 0.099271 0.500000
v -0.331979 0.020000 -0.500000
v -0.311979 0.000000 -0.500000
v -0.329299 0.010000 -0.500000
v -0.321979 0.002680 -0.500000
v -0.311978 -0.000000 0.500000
v -0.331978 0.020000 0.500000
v -0.321978 0.002679 0.500000
v -0.329298 0.010000 0.500000
v 0.311977 0.000000 -0.500000
v 0.331977 0.020000 -0.500000
v 0.321977 0.002680 -0.500000
v 0.329298 0.010000 -0.500000
v 0.331978 0.020000 0.500000
v 0.311978 -0.000000 0.500000
v 0.329299 0.010000 0.500000
v 0.321978 0.002679 0.500000
vt 0.181834 0.106864
vt 0.267751 0.893136
vt 0.181834 0.893136
vt 0.414465 0.238975
vt 0.360000 0.238975
vt 0.344274 0.223250
vt 0.267751 0.106864
vt 0.344274 0.106864
vt 0.430191 0.106864
vt 0.430191 0.254701
vt 0.428084 0.246838
vt 0.422328 0.241082
vt 0.346381 0.231112
vt 0.352137 0.236868
vt 0.320732 0.896986
vt 0.266571 0.103014
vt 0.320732 0.103014
vt 0.282529 0.106864
vt 0.336165 0.893136
vt 0.282529 0.893136
vt 0.158642 0.896985
vt 0.057219 0.103014
vt 0.158642 0.103014
vt 0.167056 0.893136
vt 0.052443 0.106864
vt 0.167056 0.106864
vt 0.236977 0.103014
vt 0.245127 0.896986
vt 0.236977 0.896986
vt 0.245127 0.103014
vt 0.251648 0.896986
vt 0.049438 0.103014
vt 0.057219 0.896985
vt 0.049438 0.896985
vt 0.166705 0.896985
vt 0.251648 0.103014
vt 0.258382 0.896986
vt 0.251648 0.896986
vt 0.258382 0.103014
vt 0.266571 0.896986
vt 0.336165 0.106864
vt 0.344274 0.893136
vt 0.181834 0.893136
vt 0.175165 0.106864
vt 0.181834 0.106864
vt 0.175165 0.893136
vt 0.166705 0.896986
vt 0.328921 0.896986
vt 0.328921 0.103014
vt 0.335655 0.896986
vt 0.422413 0.103014
vt 0.430477 0.896986
vt 0.422413 0.896986
vt 0.430191 0.106864
vt 0.438300 0.893136
vt 0.430191 0.893136
vt 0.267751 0.106864
vt 0.274420 0.893136
vt 0.267751 0.893136
vt 0.274420 0.106864
vt 0.530490 0.471784
vt 0.849290 0.612012
vt 0.849950 0.473304
vt 0.406534 0.118894
vt 0.414474 0.116766
vt 0.422413 0.252298
vt 0.052443 0.893136
vt 0.251648 0.103014
vt 0.166705 0.103014
vt 0.344274 0.106864
vt 0.166705 0.103014
vt 0.335655 0.103014
vt 0.430477 0.103014
vt 0.438300 0.106864
vt 0.529831 0.610493
vt 0.351535 0.252298
vt 0.343595 0.250171
vt 0.337783 0.244359
vt 0.335655 0.236419
vt 0.335655 0.134773
vt 0.337783 0.126833
vt 0.343595 0.121021
vt 0.351535 0.118894
vt 0.420286 0.110954
vt 0.422413 0.103014
vn -1.0000 0.0000 0.0000
vn -0.0000 -0.0000 1.0000
vn 0.0175 0.1328 0.9910
vn 0.0657 0.1343 0.9888
vn 0.0225 0.0169 0.9996
vn -0.7174 0.1940 0.6691
vn -0.9914 0.1305 0.0000
vn 0.9914 0.1305 -0.0000
vn 0.0650 0.7298 0.6806
vn 0.1276 0.9881 -0.0859
vn -0.1292 0.9815 -0.1413
vn -0.7008 0.7051 0.1085
vn 0.1293 0.9815 0.1413
vn 0.7205 0.1929 0.6661
vn 0.7280 0.0958 0.6789
vn 0.8660 0.5000 -0.0000
vn 0.5555 0.4983 0.6656
vn 0.3539 0.9349 -0.0282
vn 0.1088 0.8265 0.5523
vn -0.1538 0.7303 0.6656
vn -0.3825 0.9238 0.0185
vn -0.6243 0.4194 0.6591
vn -0.8660 0.5000 0.0000
vn -0.7280 0.0958 0.6789
vn 0.8672 0.4970 0.0311
vn 0.5016 0.8491 0.1657
vn 0.7071 -0.0000 0.7071
vn 0.0207 0.9779 0.2081
vn 0.5069 0.8365 0.2081
vn -0.5000 0.8660 0.0000
vn -0.1295 0.9767 0.1711
vn 0.1305 0.9914 0.0000
vn 0.5000 0.8660 -0.0000
vn -0.1305 0.9914 0.0000
vn -0.9609 0.2707 -0.0578
vn 1.0000 0.0000 -0.0000
usemtl Material.013
s off
f 4/1/1 14/2/1 1/3/1
f 36/4/2 28/5/2 27/6/3
f 4/1/1 9/7/1 14/2/1
f 27/6/3 9/8/2 4/9/2
f 4/9/2 35/10/2 37/11/2
f 4/9/2 37/11/2 38/12/2
f 29/13/4 27/6/3 28/5/2
f 27/6/3 4/9/2 36/4/2
f 28/5/2 30/14/5 29/13/4
f 4/9/2 38/12/2 36/4/2
s 1
f 43/15/6 16/16/7 40/17/7
f 31/18/8 28/19/8 36/20/8
f 23/21/9 5/22/10 15/23/11
f 10/24/10 9/25/12 27/26/13
f 6/27/8 22/28/14 20/29/15
f 8/30/16 21/31/17 22/28/14
f 7/32/18 19/33/19 21/34/17
f 15/23/11 25/35/20 23/21/9
f 17/36/21 26/37/22 25/38/20
f 18/39/23 24/40/24 26/37/22
f 11/41/8 30/42/25 28/19/8
f 13/43/16 29/44/26 30/45/25
f 12/46/18 27/26/13 29/44/26
f 2/47/27 6/27/8 20/29/15
f 40/17/7 45/48/28 43/15/6
f 42/49/23 46/50/29 45/48/28
f 41/51/30 44/52/31 46/53/29
f 32/54/32 37/55/33 35/56/32
f 34/57/33 38/58/16 37/59/33
f 33/60/16 36/20/8 38/58/16
f 35/61/32 39/62/34 32/63/32
f 43/64/6 45/65/28 2/66/27
f 43/15/6 24/40/24 16/16/7
f 31/18/8 11/41/8 28/19/8
f 23/21/9 19/33/19 5/22/10
f 10/24/10 14/67/35 9/25/12
f 6/27/8 8/30/16 22/28/14
f 8/30/16 7/68/18 21/31/17
f 7/32/18 5/22/10 19/33/19
f 15/23/11 17/69/21 25/35/20
f 17/36/21 18/39/23 26/37/22
f 18/39/23 16/16/7 24/40/24
f 11/41/8 13/70/16 30/42/25
f 13/43/16 12/46/18 29/44/26
f 12/46/18 10/24/10 27/26/13
f 2/47/27 3/71/36 6/27/8
f 40/17/7 42/49/23 45/48/28
f 42/49/23 41/72/30 46/50/29
f 41/51/30 39/73/34 44/52/31
f 32/54/32 34/74/33 37/55/33
f 34/57/33 33/60/16 38/58/16
f 33/60/16 31/18/8 36/20/8
f 35/61/32 44/75/31 39/62/34
f 20/76/15 22/77/14 21/78/17
f 21/78/17 19/79/19 20/76/15
f 19/79/19 23/80/9 43/64/6
f 20/76/15 19/79/19 2/66/27
f 23/80/9 25/81/20 26/82/22
f 26/82/22 24/83/24 23/80/9
f 24/83/24 43/64/6 23/80/9
f 2/66/27 19/79/19 43/64/6
f 46/84/29 44/85/31 2/66/27
f 45/65/28 46/84/29 2/66/27
