# Blender v3.1.2 OBJ File: ''
# www.blender.org
mtllib MainStage.mtl
o 立方体.001
v -2.000000 -0.050000 -0.000000
v -2.000000 0.050000 0.000000
v -2.000000 0.050001 -4.000000
v -2.000000 -0.049999 -4.000000
v 2.000000 0.050001 -4.000000
v 2.000000 -0.049999 -4.000000
v 2.000000 -0.050000 -0.000000
v 2.000000 0.050000 0.000000
v 2.000000 0.049999 4.000000
v 2.000000 -0.050001 4.000000
v -2.000000 0.049999 4.000000
v -2.000000 -0.050001 4.000000
vt 0.833333 0.333333
vt 0.666667 0.000000
vt 0.833333 0.000000
vt 0.333333 0.333333
vt 0.000000 0.000000
vt 0.333333 0.000000
vt 0.166667 0.666667
vt 0.000000 0.333333
vt 0.166667 0.333333
vt 0.666667 0.333333
vt 0.333333 0.000000
vt 0.666667 0.000000
vt 0.666667 0.500000
vt 0.333333 0.666667
vt 0.333333 0.500000
vt 0.330234 0.690942
vt 0.633496 0.988139
vt 0.330234 0.988139
vt 0.026972 0.690942
vt 0.026972 0.988139
vt 0.666667 0.333333
vt 0.333333 0.333333
vt 0.333333 0.666667
vt 0.333333 0.333333
vt 1.000000 0.333333
vt 1.000000 0.000000
vt 0.666667 0.333333
vt 0.000000 0.333333
vt 0.000000 0.666667
vt 0.333333 0.333333
vt 0.666667 0.666667
vt 0.633496 0.690942
vn -1.0000 -0.0000 0.0000
vn 0.0000 0.0000 -1.0000
vn 1.0000 0.0000 0.0000
vn 0.0000 0.0000 1.0000
vn 0.0000 -1.0000 -0.0000
vn 0.0000 1.0000 0.0000
usemtl マテリアル.003
s 1
f 2/1/1 4/2/1 1/3/1
f 3/4/2 6/5/2 4/6/2
f 8/7/3 10/8/3 7/9/3
f 9/10/4 12/11/4 10/12/4
f 7/13/5 12/14/5 1/15/5
f 2/16/6 9/17/6 8/18/6
f 3/19/6 8/18/6 5/20/6
f 6/21/5 1/15/5 4/22/5
f 5/23/3 7/9/3 6/24/3
f 11/25/1 1/3/1 12/26/1
f 2/1/1 3/27/1 4/2/1
f 3/4/2 5/28/2 6/5/2
f 8/7/3 9/29/3 10/8/3
f 9/10/4 11/30/4 12/11/4
f 7/13/5 10/31/5 12/14/5
f 2/16/6 11/32/6 9/17/6
f 3/19/6 2/16/6 8/18/6
f 6/21/5 7/13/5 1/15/5
f 5/23/3 8/7/3 7/9/3
f 11/25/1 2/1/1 1/3/1
