# Blender v3.0.0 OBJ File: ''
# www.blender.org
mtllib Map01.mtl
o Map.01_Plane.026
v 0.331978 0.000000 0.500000
v -0.000000 0.089271 0.500000
v -0.000000 0.000000 0.500000
v -0.331978 0.089271 0.500000
v -0.331978 -0.000000 0.500000
v 0.500000 0.000000 0.500000
v 0.331978 0.089271 0.500000
v -0.500000 0.089271 0.500000
v -0.500000 -0.000000 0.500000
v -0.500000 0.089271 0.332072
v -0.500000 -0.000000 0.332072
v -0.500000 -0.000000 -0.331977
v -0.500000 0.089271 -0.500000
v -0.500000 -0.000000 -0.500000
v 0.325605 0.099234 0.497342
v 0.327665 0.106889 0.489465
v 0.318352 0.106318 0.489794
v 0.338352 0.099065 0.497047
v 0.336291 0.106889 0.489465
v 0.331978 0.103168 0.494383
v -0.006373 0.099234 0.497342
v -0.004312 0.106889 0.489466
v -0.013626 0.106318 0.489794
v 0.006374 0.099065 0.497047
v 0.004313 0.106889 0.489466
v -0.000000 0.103168 0.494383
v -0.338351 0.099234 0.497342
v -0.336290 0.106889 0.489466
v -0.345604 0.106318 0.489794
v -0.325604 0.099065 0.497047
v -0.327665 0.106889 0.489466
v -0.331978 0.103168 0.494383
v -0.500000 0.089271 -0.331977
v -0.497320 0.099271 -0.500000
v -0.497320 0.099271 0.497321
v -0.497320 0.099271 0.332072
v -0.490000 0.106591 0.490000
v -0.490000 0.106591 0.332072
v 0.345605 0.106613 0.489963
v 0.500000 0.099271 0.497320
v 0.500000 0.106591 0.490000
v 0.500000 0.089271 0.500000
v -0.331978 0.020000 -0.331977
v -0.329298 0.005000 0.329393
v -0.329298 0.010000 -0.331977
v -0.321978 0.001340 0.322072
v -0.321978 0.002679 -0.331977
v 0.013627 0.106613 0.489963
v -0.318351 0.106613 0.489963
v -0.497320 0.099271 -0.331977
v -0.331978 0.010000 0.332072
v 0.331978 0.020000 -0.500000
v 0.331978 0.089271 -0.331977
v 0.331978 0.089271 -0.500000
v -0.331978 0.089271 0.332072
v 0.500000 0.109271 -0.500000
v 0.351978 0.109271 -0.351977
v 0.500000 0.109271 -0.351977
v -0.000000 0.020000 0.332072
v -0.000000 0.089271 0.332072
v 0.331978 0.089271 0.332072
v 0.331978 0.020000 0.332072
v -0.020000 0.109271 0.352072
v -0.311978 0.109271 0.480000
v -0.020000 0.109271 0.480000
v -0.351978 0.109271 0.332072
v -0.480000 0.109271 0.480000
v -0.351978 0.109271 0.480000
v 0.000000 0.000000 -0.500000
v -0.311978 -0.000000 -0.331977
v 0.000000 0.000000 -0.331977
v 0.311978 0.109271 0.480000
v 0.020000 0.109271 0.352072
v 0.020000 0.109271 0.480000
v -0.331978 0.020000 -0.500000
v -0.331978 0.089271 -0.331977
v 0.500000 0.089271 0.332072
v 0.500000 0.020000 0.332072
v -0.311978 -0.000000 0.312072
v -0.000000 0.000000 0.312072
v 0.500000 0.109271 0.352072
v 0.351978 0.109271 0.480000
v 0.500000 0.109271 0.480000
v -0.351978 0.109271 -0.500000
v -0.480000 0.109271 -0.331977
v -0.351978 0.109271 -0.331977
v 0.500000 0.000000 0.312072
v 0.351978 0.000000 -0.311977
v 0.351978 0.000000 0.312072
v -0.480000 0.109271 0.332072
v 0.500000 0.020000 -0.331977
v 0.331978 0.020000 -0.331977
v 0.311978 0.000000 -0.331977
v 0.311978 0.000000 0.312072
v 0.325312 0.109271 0.480000
v 0.338645 0.109271 0.480000
v 0.006667 0.109271 0.480000
v -0.006666 0.109271 0.480000
v 0.013627 0.106318 0.342278
v 0.006667 0.109271 0.352072
v 0.006374 0.099234 0.334731
v 0.004313 0.106889 0.342607
v -0.006373 0.099065 0.335025
v -0.004312 0.106889 0.342607
v -0.000000 0.103168 0.337689
v -0.006666 0.109271 0.352072
v -0.013626 0.106613 0.342109
v 0.345605 0.106318 0.342278
v 0.338645 0.109271 0.352072
v 0.351978 0.109271 0.352072
v 0.338352 0.099234 0.334731
v 0.336291 0.106889 0.342607
v 0.325605 0.099065 0.335025
v 0.327666 0.106889 0.342607
v 0.331978 0.103168 0.337689
v 0.325312 0.109271 0.352072
v 0.318352 0.106613 0.342109
v 0.311978 0.109271 0.352072
v -0.325311 0.109271 0.480000
v -0.338644 0.109271 0.480000
v -0.318351 0.106318 0.342278
v -0.324772 0.109271 0.342250
v -0.311978 0.109271 0.352072
v -0.325604 0.099065 0.335025
v -0.327423 0.106933 0.337733
v -0.334945 0.099087 0.332072
v -0.335135 0.106916 0.334379
v -0.330743 0.103607 0.334411
v -0.339392 0.109271 0.334960
v -0.342161 0.106303 0.332072
v -0.490000 0.106591 -0.500000
v -0.490000 0.106591 -0.331977
v -0.480000 0.109271 -0.500000
v 0.334658 0.099271 -0.334656
v 0.334658 0.099271 -0.500000
v 0.341978 0.106591 -0.341977
v 0.341978 0.106591 -0.500000
v 0.351978 0.109271 -0.500000
v -0.341978 0.106591 -0.500000
v -0.334657 0.099271 -0.331977
v -0.334657 0.099271 -0.500000
v -0.331978 0.089271 -0.500000
v 0.500000 0.099271 0.334752
v 0.500000 0.106591 0.342072
v 0.500000 0.106591 -0.341977
v 0.500000 0.099271 -0.334656
v 0.500000 0.089271 -0.331977
v -0.341978 0.106591 -0.331977
v 0.338645 0.000000 0.312072
v 0.345605 0.002658 0.322035
v 0.325312 0.000000 0.312072
v 0.336291 0.002382 0.321538
v 0.318352 0.002953 0.321866
v 0.325605 0.010037 0.329414
v 0.327666 0.002382 0.321538
v 0.338352 0.010206 0.329119
v 0.331978 0.006103 0.326455
v 0.345605 0.002953 -0.321771
v 0.339184 0.000000 -0.321799
v 0.338352 0.010206 -0.329024
v 0.336533 0.002338 -0.326316
v 0.329011 0.010183 -0.331977
v 0.328821 0.002355 -0.329670
v 0.333213 0.005664 -0.329638
v 0.324564 0.000000 -0.329089
v 0.321795 0.002968 -0.331977
v -0.000000 0.002680 0.322072
v -0.000000 0.010000 0.329393
v 0.311978 0.000000 -0.500000
v 0.321978 0.002679 -0.500000
v 0.329299 0.010000 -0.500000
v -0.329298 0.010000 -0.500000
v -0.321978 0.002679 -0.500000
v -0.311978 -0.000000 -0.500000
v 0.500000 0.010000 -0.329297
v 0.500000 0.002679 -0.321977
v 0.500000 0.000000 -0.311977
v 0.500000 0.002680 0.322072
v 0.500000 0.010000 0.329393
vt 0.021286 0.111266
vt 0.062629 0.260422
vt 0.022404 0.260714
vt 0.064079 0.407602
vt 0.023958 0.410527
vt 0.020720 0.035697
vt 0.061454 0.110959
vt 0.065426 0.465214
vt 0.038717 0.485082
vt 0.116346 0.490765
vt 0.098765 0.520581
vt 0.314384 0.635141
vt 0.388315 0.637297
vt 0.371146 0.667455
vt 0.066093 0.113784
vt 0.070989 0.112806
vt 0.070773 0.116992
vt 0.066034 0.108064
vt 0.070952 0.108934
vt 0.068236 0.110909
vt 0.067239 0.263232
vt 0.072109 0.262265
vt 0.071884 0.266428
vt 0.067189 0.257543
vt 0.072079 0.258415
vt 0.069375 0.260374
vt 0.068207 0.410191
vt 0.072669 0.409514
vt 0.072194 0.413247
vt 0.068355 0.404975
vt 0.072860 0.405951
vt 0.070264 0.407660
vt 0.330463 0.605362
vt 0.390290 0.633738
vt 0.068745 0.463182
vt 0.118236 0.487100
vt 0.072010 0.461107
vt 0.120030 0.483533
vt 0.070668 0.104750
vt 0.065509 0.035359
vt 0.070165 0.035327
vt 0.060872 0.035396
vt 0.379168 0.517872
vt 0.183424 0.398346
vt 0.381277 0.514158
vt 0.187063 0.396187
vt 0.383293 0.510628
vt 0.071803 0.254248
vt 0.072809 0.401999
vt 0.332442 0.601709
vt 0.180681 0.400263
vt 0.554877 0.142860
vt 0.514912 0.088842
vt 0.570096 0.117569
vt 0.148239 0.415603
vt 0.594863 0.038740
vt 0.525817 0.082021
vt 0.525762 0.025794
vt 0.179138 0.259267
vt 0.147741 0.259956
vt 0.146816 0.110301
vt 0.178014 0.110009
vt 0.133809 0.269062
vt 0.077409 0.399375
vt 0.076476 0.269270
vt 0.140274 0.426619
vt 0.075416 0.458932
vt 0.075939 0.416076
vt 0.699271 0.356667
vt 0.816110 0.419593
vt 0.699271 0.419593
vt 0.075403 0.119839
vt 0.133786 0.251044
vt 0.076406 0.251358
vt 0.436991 0.549815
vt 0.366517 0.540946
vt 0.146241 0.034811
vt 0.177363 0.034629
vt 0.816110 0.660797
vt 0.699271 0.660797
vt 0.132301 0.034916
vt 0.075284 0.101848
vt 0.074819 0.035295
vt 0.417907 0.583783
vt 0.336423 0.594407
vt 0.360489 0.551630
vt 0.512015 0.660796
vt 0.567452 0.427083
vt 0.567451 0.660797
vt 0.121764 0.480006
vt 0.480003 0.028770
vt 0.491918 0.105169
vt 0.582432 0.419593
vt 0.582432 0.660797
vt 0.075370 0.113839
vt 0.075329 0.107844
vt 0.076440 0.257335
vt 0.076464 0.263306
vt 0.138414 0.253899
vt 0.133803 0.257041
vt 0.143097 0.257118
vt 0.138189 0.258091
vt 0.143156 0.262856
vt 0.138214 0.261971
vt 0.140946 0.259997
vt 0.133814 0.263047
vt 0.138477 0.266176
vt 0.137482 0.104261
vt 0.132886 0.107414
vt 0.132855 0.101417
vt 0.142168 0.107470
vt 0.137267 0.108450
vt 0.142224 0.113196
vt 0.137305 0.112322
vt 0.140022 0.110348
vt 0.132925 0.113413
vt 0.137587 0.116508
vt 0.132969 0.119409
vt 0.077031 0.405169
vt 0.076551 0.410759
vt 0.138670 0.410684
vt 0.137784 0.413900
vt 0.133924 0.407333
vt 0.143570 0.413877
vt 0.139987 0.415262
vt 0.144754 0.418388
vt 0.141020 0.418909
vt 0.142143 0.416701
vt 0.140060 0.420834
vt 0.141875 0.422232
vt 0.392264 0.630179
vt 0.334428 0.598058
vt 0.394238 0.626621
vt 0.518465 0.086618
vt 0.572114 0.113634
vt 0.522051 0.084375
vt 0.573970 0.109902
vt 0.575735 0.106289
vt 0.419887 0.580254
vt 0.364509 0.544498
vt 0.421869 0.576725
vt 0.423851 0.573197
vt 0.141590 0.034845
vt 0.136951 0.034878
vt 0.521688 0.025801
vt 0.517467 0.025836
vt 0.512992 0.025928
vt 0.362498 0.548063
vt 0.191931 0.106837
vt 0.187235 0.103759
vt 0.191853 0.100829
vt 0.191997 0.112889
vt 0.187536 0.107958
vt 0.187365 0.116073
vt 0.192020 0.118964
vt 0.182662 0.112841
vt 0.187581 0.111856
vt 0.182597 0.107100
vt 0.184812 0.109950
vt 0.481551 0.101348
vt 0.481108 0.104633
vt 0.476389 0.098703
vt 0.486888 0.103895
vt 0.483450 0.105705
vt 0.488588 0.108297
vt 0.484876 0.109207
vt 0.485765 0.106890
vt 0.484130 0.111199
vt 0.486063 0.112420
vt 0.484771 0.116936
vt 0.577718 0.420675
vt 0.577438 0.660797
vt 0.572243 0.423405
vt 0.572445 0.660797
vt 0.191235 0.393896
vt 0.385270 0.507160
vt 0.188506 0.259293
vt 0.193062 0.259304
vt 0.183923 0.259282
vt 0.548399 0.153860
vt 0.550549 0.150178
vt 0.552713 0.146503
vt 0.438962 0.546267
vt 0.440931 0.542718
vt 0.442901 0.539168
vt 0.475407 0.029482
vt 0.470843 0.030179
vt 0.466185 0.030880
vt 0.186627 0.034558
vt 0.191264 0.034525
vt 0.181987 0.034592
vt 0.582432 0.356667
vt 0.816110 0.356667
vt 0.512016 0.427082
vn 0.0000 0.0000 1.0000
vn -1.0000 0.0000 0.0000
vn -0.0640 0.7239 0.6869
vn 0.0264 0.3746 0.9268
vn 0.0529 0.7021 0.7101
vn 0.0000 0.7975 0.6034
vn -0.0639 0.7240 0.6869
vn -0.0639 0.7239 0.6869
vn 0.0000 0.7974 0.6034
vn -0.9659 0.2589 0.0000
vn -0.7071 0.7071 0.0000
vn -0.0000 0.7071 0.7071
vn -0.0005 0.2732 0.9620
vn -0.0011 0.6961 0.7179
vn -0.0010 0.2739 0.9618
vn 0.0012 0.7182 0.6958
vn 0.0000 0.2582 0.9661
vn 0.7006 0.7131 0.0239
vn 0.4495 0.8932 0.0086
vn -0.0011 0.6961 0.7180
vn -0.0000 0.2585 0.9660
vn -0.9904 0.1383 -0.0005
vn -0.6972 0.1672 0.6971
vn -0.9914 0.1305 0.0000
vn 0.9989 -0.0449 0.0140
vn 0.0795 -0.0777 -0.9938
vn 0.0897 -0.4796 -0.8729
vn 0.5774 0.5774 -0.5773
vn -0.0985 0.9903 0.0985
vn 0.6789 0.7280 0.0959
vn -0.0018 0.1480 -0.9890
vn -0.0046 0.1591 -0.9872
vn -0.0046 0.1541 -0.9880
vn -0.0046 0.1542 -0.9880
vn -0.0012 0.9909 -0.1347
vn 0.0012 0.9909 0.1346
vn -0.0031 0.9904 0.1383
vn 0.0220 0.9955 -0.0922
vn -0.0981 0.9897 0.1042
vn -0.0029 0.9904 0.1385
vn -0.0000 1.0000 -0.0000
vn 0.1091 0.9940 0.0003
vn 0.0031 0.9904 -0.1383
vn 0.0012 0.9909 0.1347
vn 0.9397 0.1238 -0.3187
vn 0.9959 0.0901 0.0048
vn -0.0000 0.1300 -0.9915
vn 0.0005 0.1383 -0.9904
vn 0.0621 0.9950 -0.0782
vn -0.0006 0.9929 -0.1188
vn 0.6791 0.7270 -0.1012
vn 0.0011 0.9916 0.1295
vn 0.6789 0.7280 0.0956
vn 0.0958 0.7280 -0.6789
vn -0.1306 0.9914 -0.0000
vn 0.1344 0.9909 0.0001
vn -0.0000 0.9914 -0.1305
vn -0.0238 0.9915 0.1281
vn -0.0009 0.9916 -0.1296
vn 0.3194 0.1310 0.9385
vn -0.6923 0.1704 0.7012
vn -0.0802 0.9957 0.0461
vn 0.0031 0.9904 -0.1384
vn -0.0134 0.9614 0.2747
vn -0.0059 0.9912 0.1322
vn 0.0021 0.9921 0.1256
vn 0.0046 0.9670 0.2548
vn 0.0027 0.9687 0.2483
vn 0.0017 0.9920 0.1259
vn 0.0044 0.9656 0.2601
vn 0.0175 0.8615 -0.5075
vn 0.0059 0.9912 -0.1321
vn 0.0092 0.4908 -0.8712
vn 0.0268 0.8830 -0.4686
vn -0.0205 0.4866 -0.8734
vn -0.0199 0.8805 -0.4736
vn -0.0049 0.6449 -0.7643
vn -0.0021 0.9921 -0.1256
vn -0.0113 0.8599 -0.5104
vn 0.0170 0.8643 -0.5027
vn 0.0061 0.9912 -0.1321
vn 0.0029 0.9904 -0.1383
vn 0.0089 0.4884 -0.8726
vn -0.0202 0.4839 -0.8749
vn -0.0199 0.8806 -0.4735
vn -0.0111 0.8627 -0.5056
vn 0.0044 0.9656 0.2600
vn -0.0088 0.9662 0.2576
vn -0.0132 0.9614 0.2749
vn -0.0062 0.9912 0.1319
vn 0.1994 0.7687 -0.6077
vn 0.1925 0.9349 -0.2981
vn 0.0240 0.9915 -0.1280
vn 0.1988 0.3443 -0.9176
vn 0.3686 0.5937 -0.7153
vn 0.8601 0.5072 -0.0550
vn 0.2802 0.5360 -0.7963
vn 0.3394 0.3168 -0.8857
vn 0.1251 0.8899 -0.4387
vn 0.5033 0.8633 -0.0376
vn -0.8827 0.4700 -0.0000
vn -0.3785 0.6558 -0.6532
vn -0.6326 0.6323 -0.4472
vn -0.5000 0.8660 -0.0000
vn -0.0958 0.7280 -0.6789
vn -0.5294 0.8484 -0.0000
vn 0.1644 0.9529 0.2548
vn -0.9914 0.1306 0.0000
vn -0.8660 0.5000 -0.0000
vn -0.5885 0.5542 0.5886
vn -0.8384 0.4841 -0.2506
vn -0.3332 0.8820 0.3332
vn -0.3784 0.6558 -0.6532
vn -0.0960 0.7279 -0.6789
vn 0.3785 0.6558 -0.6532
vn 0.8640 0.5034 0.0002
vn 0.8384 0.4840 -0.2506
vn 0.9914 0.1305 0.0000
vn -0.0006 0.5068 -0.8621
vn 0.0846 0.8632 -0.4978
vn 0.6532 0.6557 0.3786
vn 0.2506 0.4841 0.8383
vn -0.0000 0.1305 0.9914
vn 0.5034 0.8640 0.0002
vn -0.0106 0.8612 -0.5081
vn 0.0173 0.8642 -0.5028
vn 0.0090 0.4884 -0.8726
vn -0.0199 0.4821 -0.8759
vn -0.1986 0.7725 0.6032
vn -0.1925 0.9350 0.2980
vn -0.1985 0.3416 0.9186
vn -0.3686 0.5937 0.7153
vn -0.6684 0.4114 0.6197
vn -0.2802 0.5360 0.7964
vn -0.3394 0.3168 0.8857
vn -0.1251 0.8899 0.4387
vn -0.3941 0.7672 0.5060
vn 0.3945 0.9189 0.0005
vn -0.0028 0.8901 -0.4557
vn 0.0339 0.9034 -0.4274
vn -0.0040 0.5472 -0.8370
vn -0.0074 0.4149 -0.9098
vn -0.1384 0.9904 -0.0005
vn -0.5068 0.8620 -0.0015
vn -0.8621 0.5068 -0.0015
vn 0.5521 0.3190 -0.7703
vn 0.3189 0.5523 -0.7703
vn 0.1301 0.9880 -0.0838
vn 0.7701 0.3236 0.5498
vn 0.7702 0.5500 0.3229
vn 0.0844 0.9869 0.1375
vn 0.0006 0.8623 -0.5065
vn 0.0011 0.4995 -0.8663
vn -0.1313 0.9815 0.1393
vn 0.8660 0.5000 0.0000
usemtl Material.001
s off
f 1/1/1 2/2/1 3/3/1
f 3/3/1 4/4/1 5/5/1
f 6/6/1 7/7/1 1/1/1
f 5/5/1 8/8/1 9/9/1
f 9/9/2 10/10/2 11/11/2
f 12/12/2 13/13/2 14/14/2
f 15/15/3 16/16/3 17/17/3
f 18/18/4 15/15/4 7/7/4
f 18/18/5 19/19/5 20/20/5
f 16/16/6 20/20/6 19/19/6
f 21/21/7 22/22/8 23/23/8
f 24/24/4 21/21/4 2/2/4
f 24/24/5 25/25/5 26/26/5
f 25/25/9 22/22/9 26/26/9
f 27/27/7 28/28/8 29/29/8
f 30/30/4 27/27/4 4/4/4
f 30/30/5 31/31/5 32/32/5
f 31/31/9 28/28/9 32/32/9
f 33/33/10 34/34/10 13/13/10
f 10/10/10 35/35/10 36/36/10
f 36/36/11 37/37/11 38/38/11
f 17/17/12 24/24/12 15/15/12
f 24/24/13 7/7/13 15/15/13
f 39/39/14 40/40/14 41/41/14
f 18/18/15 42/42/15 40/40/15
f 23/23/12 30/30/12 21/21/12
f 30/30/13 2/2/13 21/21/13
f 37/37/16 27/27/16 29/29/16
f 27/27/17 8/8/17 4/4/17
f 43/43/18 44/44/18 45/45/18
f 45/45/19 46/46/19 47/47/19
f 1/1/1 7/7/1 2/2/1
f 3/3/1 2/2/1 4/4/1
f 6/6/1 42/42/1 7/7/1
f 5/5/1 4/4/1 8/8/1
f 9/9/2 8/8/2 10/10/2
f 12/12/2 33/33/2 13/13/2
f 15/15/8 20/20/8 16/16/8
f 18/18/4 20/20/4 15/15/4
f 18/18/5 39/39/5 19/19/5
f 21/21/8 26/26/8 22/22/8
f 24/24/4 26/26/4 21/21/4
f 24/24/5 48/48/5 25/25/5
f 27/27/8 32/32/8 28/28/8
f 30/30/4 32/32/4 27/27/4
f 30/30/5 49/49/5 31/31/5
f 33/33/10 50/50/10 34/34/10
f 10/10/10 8/8/10 35/35/10
f 36/36/11 35/35/11 37/37/11
f 17/17/12 48/48/12 24/24/12
f 24/24/13 2/2/13 7/7/13
f 39/39/20 18/18/20 40/40/20
f 18/18/15 7/7/15 42/42/15
f 23/23/12 49/49/12 30/30/12
f 30/30/13 4/4/13 2/2/13
f 37/37/16 35/35/16 27/27/16
f 27/27/21 35/35/21 8/8/21
f 43/43/18 51/51/18 44/44/18
f 45/45/19 44/44/19 46/46/19
s 1
f 52/52/22 53/53/23 54/54/24
f 43/43/25 55/55/26 51/51/27
f 56/56/28 57/57/29 58/58/30
f 59/59/31 55/55/26 60/60/32
f 59/59/31 61/61/33 62/62/34
f 63/63/35 64/64/36 65/65/37
f 66/66/38 67/67/39 68/68/40
f 69/69/41 70/70/42 71/71/41
f 72/72/37 73/73/43 74/74/44
f 75/75/45 76/76/46 43/43/25
f 62/62/34 77/77/47 78/78/48
f 71/71/41 79/79/49 80/80/50
f 81/81/51 82/82/52 83/83/53
f 84/84/54 85/85/55 86/86/56
f 87/87/57 88/88/58 89/89/59
f 86/86/56 90/90/55 66/66/38
f 91/91/60 53/53/23 92/92/61
f 93/93/62 80/80/50 94/94/63
f 17/17/64 95/95/65 72/72/37
f 96/96/66 39/39/67 82/82/52
f 95/95/65 19/19/68 96/96/66
f 97/97/69 48/48/70 74/74/44
f 98/98/65 25/25/68 97/97/69
f 23/23/64 98/98/65 65/65/37
f 99/99/71 100/100/72 73/73/43
f 101/101/73 102/102/74 99/99/71
f 103/103/75 101/101/73 60/60/32
f 103/103/75 104/104/76 105/105/77
f 106/106/78 107/107/79 63/63/35
f 106/106/78 102/102/74 104/104/76
f 102/102/74 105/105/77 104/104/76
f 108/108/80 109/109/81 110/110/82
f 111/111/83 112/112/74 108/108/80
f 113/113/84 111/111/83 61/61/33
f 113/113/84 114/114/85 115/115/77
f 116/116/78 117/117/86 118/118/35
f 116/116/78 112/112/74 114/114/85
f 112/112/74 115/115/77 114/114/85
f 119/119/66 49/49/87 64/64/36
f 119/119/66 28/28/88 31/31/68
f 29/29/89 120/120/90 68/68/40
f 121/121/91 122/122/92 123/123/93
f 124/124/94 125/125/95 121/121/91
f 126/126/96 124/124/94 55/55/26
f 126/126/96 127/127/97 128/128/98
f 129/129/99 130/130/100 66/66/38
f 129/129/99 125/125/95 127/127/97
f 125/125/95 128/128/98 127/127/97
f 50/50/101 131/131/102 34/34/103
f 132/132/104 133/133/105 131/131/102
f 38/38/106 67/67/39 90/90/55
f 72/72/37 48/48/70 17/17/64
f 63/63/35 98/98/65 106/106/78
f 98/98/65 100/100/72 106/106/78
f 97/97/69 73/73/43 100/100/72
f 82/82/52 41/41/107 83/83/53
f 72/72/37 116/116/78 118/118/35
f 116/116/78 96/96/66 109/109/81
f 96/96/66 110/110/82 109/109/81
f 65/65/37 49/49/87 23/23/64
f 68/68/40 129/129/99 66/66/38
f 120/120/90 122/122/92 129/129/99
f 119/119/66 123/123/93 122/122/92
f 10/10/24 50/50/101 33/33/108
f 36/36/109 132/132/104 50/50/101
f 38/38/106 85/85/55 132/132/104
f 55/55/26 103/103/75 60/60/32
f 103/103/75 121/121/91 107/107/79
f 107/107/79 123/123/93 63/63/35
f 60/60/32 113/113/84 61/61/33
f 113/113/84 99/99/71 117/117/86
f 117/117/86 73/73/43 118/118/35
f 54/54/24 134/134/110 135/135/111
f 135/135/111 136/136/112 137/137/113
f 137/137/113 57/57/29 138/138/114
f 86/86/56 139/139/115 84/84/54
f 139/139/115 140/140/116 141/141/117
f 140/140/116 142/142/118 141/141/117
f 77/77/47 111/111/83 143/143/119
f 143/143/119 108/108/80 144/144/120
f 144/144/120 110/110/82 81/81/51
f 67/67/39 29/29/89 68/68/40
f 57/57/29 145/145/121 58/58/30
f 136/136/112 146/146/122 145/145/121
f 134/134/110 147/147/123 146/146/122
f 86/86/56 130/130/100 148/148/124
f 130/130/100 140/140/116 148/148/124
f 126/126/96 76/76/46 140/140/116
f 11/11/2 33/33/108 12/12/2
f 149/149/78 150/150/125 89/151/59
f 151/152/81 152/153/76 149/149/78
f 153/154/126 151/152/81 94/155/63
f 154/156/127 155/157/74 153/154/126
f 156/158/128 154/156/127 62/62/34
f 156/158/128 152/153/76 157/159/77
f 152/153/76 155/157/74 157/159/77
f 158/160/129 159/161/130 88/162/58
f 160/163/131 161/164/132 158/160/129
f 162/165/133 160/163/131 92/92/61
f 162/165/133 163/166/134 164/167/135
f 165/168/136 166/169/137 93/170/62
f 165/168/136 161/164/132 163/166/134
f 161/164/132 164/167/135 163/166/134
f 94/94/63 165/171/136 93/93/62
f 151/172/81 159/173/130 165/171/136
f 149/174/78 88/88/58 159/173/130
f 47/47/138 79/175/49 70/176/42
f 79/175/49 167/177/139 80/178/50
f 46/46/140 168/179/141 167/177/139
f 44/44/142 59/59/31 168/179/141
f 94/155/63 167/177/139 153/154/126
f 153/154/126 168/179/141 154/156/127
f 154/156/127 59/59/31 62/62/34
f 169/180/143 166/169/137 170/181/144
f 166/169/137 171/182/145 170/181/144
f 162/165/133 52/52/22 171/182/145
f 43/43/25 172/183/146 75/75/45
f 172/183/146 47/47/138 173/184/147
f 47/47/138 174/185/148 173/184/147
f 91/91/60 160/163/131 175/186/149
f 175/186/149 158/160/129 176/187/150
f 176/187/150 88/162/58 177/188/151
f 89/151/59 178/189/152 87/190/57
f 150/150/125 179/191/153 178/189/152
f 156/158/128 78/78/48 179/191/153
f 169/192/143 71/71/41 93/93/62
f 52/52/22 92/92/61 53/53/23
f 43/43/25 76/76/46 55/55/26
f 56/56/28 138/138/114 57/57/29
f 59/59/31 51/51/27 55/55/26
f 59/59/31 60/60/32 61/61/33
f 63/63/35 123/123/93 64/64/36
f 66/66/38 90/90/55 67/67/39
f 69/69/41 174/193/148 70/70/42
f 72/72/37 118/118/35 73/73/43
f 75/75/45 142/142/118 76/76/46
f 62/62/34 61/61/33 77/77/47
f 71/71/41 70/70/42 79/79/49
f 81/81/51 110/110/82 82/82/52
f 84/84/54 133/133/105 85/85/55
f 87/87/57 177/194/151 88/88/58
f 86/86/56 85/85/55 90/90/55
f 91/91/60 147/147/123 53/53/23
f 93/93/62 71/71/41 80/80/50
f 17/17/64 16/16/88 95/95/65
f 96/96/66 19/19/68 39/39/67
f 95/95/65 16/16/88 19/19/68
f 97/97/69 25/25/68 48/48/70
f 98/98/65 22/22/88 25/25/68
f 23/23/64 22/22/88 98/98/65
f 99/99/71 102/102/74 100/100/72
f 101/101/73 105/105/77 102/102/74
f 103/103/75 105/105/77 101/101/73
f 103/103/75 107/107/79 104/104/76
f 106/106/78 104/104/76 107/107/79
f 106/106/78 100/100/72 102/102/74
f 108/108/80 112/112/74 109/109/81
f 111/111/83 115/115/77 112/112/74
f 113/113/84 115/115/77 111/111/83
f 113/113/84 117/117/86 114/114/85
f 116/116/78 114/114/85 117/117/86
f 116/116/78 109/109/81 112/112/74
f 119/119/66 31/31/68 49/49/87
f 119/119/66 120/120/90 28/28/88
f 29/29/89 28/28/88 120/120/90
f 121/121/91 125/125/95 122/122/92
f 124/124/94 128/128/98 125/125/95
f 126/126/96 128/128/98 124/124/94
f 126/126/96 130/130/100 127/127/97
f 129/129/99 127/127/97 130/130/100
f 129/129/99 122/122/92 125/125/95
f 50/50/101 132/132/104 131/131/102
f 132/132/104 85/85/55 133/133/105
f 38/38/106 37/37/154 67/67/39
f 72/72/37 74/74/44 48/48/70
f 63/63/35 65/65/37 98/98/65
f 98/98/65 97/97/69 100/100/72
f 97/97/69 74/74/44 73/73/43
f 82/82/52 39/39/67 41/41/107
f 72/72/37 95/95/65 116/116/78
f 116/116/78 95/95/65 96/96/66
f 96/96/66 82/82/52 110/110/82
f 65/65/37 64/64/36 49/49/87
f 68/68/40 120/120/90 129/129/99
f 120/120/90 119/119/66 122/122/92
f 119/119/66 64/64/36 123/123/93
f 10/10/24 36/36/109 50/50/101
f 36/36/109 38/38/106 132/132/104
f 38/38/106 90/90/55 85/85/55
f 55/55/26 124/124/94 103/103/75
f 103/103/75 124/124/94 121/121/91
f 107/107/79 121/121/91 123/123/93
f 60/60/32 101/101/73 113/113/84
f 113/113/84 101/101/73 99/99/71
f 117/117/86 99/99/71 73/73/43
f 54/54/24 53/53/23 134/134/110
f 135/135/111 134/134/110 136/136/112
f 137/137/113 136/136/112 57/57/29
f 86/86/56 148/148/124 139/139/115
f 139/139/115 148/148/124 140/140/116
f 140/140/116 76/76/46 142/142/118
f 77/77/47 61/61/33 111/111/83
f 143/143/119 111/111/83 108/108/80
f 144/144/120 108/108/80 110/110/82
f 67/67/39 37/37/154 29/29/89
f 57/57/29 136/136/112 145/145/121
f 136/136/112 134/134/110 146/146/122
f 134/134/110 53/53/23 147/147/123
f 86/86/56 66/66/38 130/130/100
f 130/130/100 126/126/96 140/140/116
f 126/126/96 55/55/26 76/76/46
f 11/11/2 10/10/24 33/33/108
f 149/149/78 152/153/76 150/150/125
f 151/152/81 155/157/74 152/153/76
f 153/154/126 155/157/74 151/152/81
f 154/156/127 157/159/77 155/157/74
f 156/158/128 157/159/77 154/156/127
f 156/158/128 150/150/125 152/153/76
f 158/160/129 161/164/132 159/161/130
f 160/163/131 164/167/135 161/164/132
f 162/165/133 164/167/135 160/163/131
f 162/165/133 166/169/137 163/166/134
f 165/168/136 163/166/134 166/169/137
f 165/168/136 159/161/130 161/164/132
f 94/94/63 151/172/81 165/171/136
f 151/172/81 149/174/78 159/173/130
f 149/174/78 89/89/59 88/88/58
f 47/47/138 46/46/140 79/175/49
f 79/175/49 46/46/140 167/177/139
f 46/46/140 44/44/142 168/179/141
f 44/44/142 51/51/27 59/59/31
f 94/155/63 80/178/50 167/177/139
f 153/154/126 167/177/139 168/179/141
f 154/156/127 168/179/141 59/59/31
f 169/180/143 93/170/62 166/169/137
f 166/169/137 162/165/133 171/182/145
f 162/165/133 92/92/61 52/52/22
f 43/43/25 45/45/155 172/183/146
f 172/183/146 45/45/155 47/47/138
f 47/47/138 70/176/42 174/185/148
f 91/91/60 92/92/61 160/163/131
f 175/186/149 160/163/131 158/160/129
f 176/187/150 158/160/129 88/162/58
f 89/151/59 150/150/125 178/189/152
f 150/150/125 156/158/128 179/191/153
f 156/158/128 62/62/34 78/78/48
f 169/192/143 69/69/41 71/71/41
