# Blender v3.1.2 OBJ File: 'Map.blend'
# www.blender.org
mtllib Map04.mtl
o Map.04_Plane.017
v -0.500000 0.000000 -0.500000
v 0.500000 -0.000000 0.500000
v 0.500000 0.000000 -0.500000
v -0.500000 -0.000000 0.500000
v 0.500000 0.000000 -0.300001
v -0.500000 0.000000 -0.300000
v 0.500000 0.109271 -0.300001
v -0.500000 0.109271 0.500000
v -0.500000 0.109271 -0.300000
v 0.500000 0.109271 0.500000
v 0.500000 0.089271 -0.500000
v 0.500000 0.109271 -0.480000
v 0.500000 0.099271 -0.497321
v 0.500000 0.106591 -0.490000
v -0.500000 0.109271 -0.480000
v -0.500000 0.089271 -0.500000
v -0.500000 0.106591 -0.490000
v -0.500000 0.099271 -0.497320
vt 0.453464 0.358941
vt 0.450352 0.359775
vt 0.456577 0.353550
vt 0.422566 0.297524
vt 0.456577 0.048521
vt 0.456577 0.297524
vt 0.489877 0.359775
vt 0.462328 0.048521
vt 0.489877 0.048521
vt 0.388555 0.048521
vt 0.422566 0.359775
vt 0.388555 0.359775
vt 0.456577 0.048521
vt 0.459134 0.359775
vt 0.456577 0.359775
vt 0.459134 0.048521
vt 0.462328 0.359775
vt 0.385442 0.049355
vt 0.387721 0.051633
vt 0.388555 0.054746
vt 0.422566 0.359775
vt 0.455743 0.356663
vt 0.422566 0.048521
vt 0.422566 0.048521
vt 0.388555 0.110772
vt 0.354544 0.110772
vt 0.354544 0.048521
vt 0.382330 0.048521
vt 0.295557 0.359775
vt 0.351371 0.048521
vt 0.351371 0.359775
vt 0.388555 0.359775
vt 0.354544 0.359775
vt 0.047496 0.359775
vt 0.295557 0.048521
vt 0.354544 0.359775
vt 0.047496 0.048521
vt 0.354544 0.048521
vn -1.0000 0.0000 0.0000
vn -0.0000 0.0000 -1.0000
vn 0.0000 0.0000 1.0000
vn -0.0000 0.7071 -0.7071
vn -0.0000 0.2588 -0.9659
vn 1.0000 0.0000 0.0000
vn -0.2806 0.8975 0.3403
vn 0.0000 1.0000 0.0000
vn -0.5955 0.7693 0.2314
vn 0.4133 0.7006 0.5817
vn 0.4105 0.8333 -0.3704
vn -0.0000 0.9659 -0.2588
usemtl Material.004
s off
f 18/1/1 16/2/1 15/3/1
f 6/4/1 8/5/1 9/6/1
f 1/7/2 11/8/2 3/9/2
f 2/10/3 8/11/3 4/12/3
f 14/13/4 18/14/4 17/15/4
f 13/16/5 16/17/5 18/14/5
f 13/18/6 14/19/6 12/20/6
f 16/2/1 1/21/1 15/3/1
f 1/21/1 6/4/1 15/3/1
f 6/4/1 9/6/1 15/3/1
f 15/3/1 17/22/1 18/1/1
f 6/4/1 4/23/1 8/5/1
f 1/7/2 16/17/2 11/8/2
f 2/10/3 10/24/3 8/11/3
f 14/13/4 13/16/4 18/14/4
f 13/16/5 11/8/5 16/17/5
f 7/25/6 5/26/6 12/20/6
f 5/26/6 3/27/6 12/20/6
f 3/27/6 11/28/6 12/20/6
f 11/28/6 13/18/6 12/20/6
s 1
f 9/29/7 12/30/8 15/31/8
f 5/26/6 10/32/9 2/33/6
f 8/34/10 7/35/11 9/29/7
f 12/30/12 17/36/12 15/31/12
f 9/29/7 7/35/11 12/30/8
f 5/26/6 7/25/11 10/32/9
f 8/34/10 10/37/9 7/35/11
f 12/30/12 14/38/12 17/36/12
