# Blender v3.1.2 OBJ File: ''
# www.blender.org
mtllib Map04.mtl
o Map.04_Plane.017
v -20.000000 3.970843 -19.892799
v -20.000000 3.570843 -20.000000
v -20.000000 4.370843 -19.199999
v -20.000000 0.000002 -12.000000
v -20.000000 4.370837 20.000000
v -20.000000 4.370842 -11.999999
v -20.000000 0.000003 -20.000000
v 20.000000 3.570843 -20.000000
v 20.000000 0.000003 -20.000000
v 20.000000 -0.000003 20.000000
v -20.000000 -0.000003 20.000000
v 20.000000 4.263643 -19.600000
v -20.000000 4.263643 -19.600000
v 20.000000 3.970843 -19.892841
v 20.000000 4.370843 -19.199999
v 20.000000 4.370837 20.000000
v 20.000000 4.370842 -12.000039
v 20.000000 0.000002 -12.000040
vt 0.453464 0.358941
vt 0.450352 0.359775
vt 0.456577 0.353550
vt 0.422566 0.297524
vt 0.456577 0.048521
vt 0.456577 0.297524
vt 0.489877 0.359775
vt 0.462328 0.048521
vt 0.489877 0.048521
vt 0.388555 0.048521
vt 0.422566 0.359775
vt 0.388555 0.359775
vt 0.456577 0.048521
vt 0.459134 0.359775
vt 0.456577 0.359775
vt 0.459134 0.048521
vt 0.462328 0.359775
vt 0.385442 0.049355
vt 0.387721 0.051633
vt 0.388555 0.054746
vt 0.422566 0.359775
vt 0.455743 0.356663
vt 0.422566 0.048521
vt 0.422566 0.048521
vt 0.388555 0.110772
vt 0.354544 0.110772
vt 0.354544 0.048521
vt 0.382330 0.048521
vt 0.295557 0.359775
vt 0.351371 0.048521
vt 0.351371 0.359775
vt 0.388555 0.359775
vt 0.354544 0.359775
vt 0.047496 0.359775
vt 0.295557 0.048521
vt 0.354544 0.359775
vt 0.047496 0.048521
vt 0.354544 0.048521
vn -1.0000 0.0000 0.0000
vn 0.0000 0.0000 -1.0000
vn 0.0000 0.0000 1.0000
vn 0.0000 0.7071 -0.7071
vn -0.0000 0.2589 -0.9659
vn 1.0000 0.0000 0.0000
vn -0.0000 0.7072 -0.7071
vn 0.0000 0.2588 -0.9659
vn -0.2806 0.8975 0.3403
vn 0.0000 1.0000 0.0000
vn -0.5954 0.7692 0.2322
vn 0.4133 0.7006 0.5817
vn 0.4105 0.8333 -0.3704
vn 0.0000 0.9659 -0.2589
usemtl Material.004
s off
f 1/1/1 2/2/1 3/3/1
f 4/4/1 5/5/1 6/6/1
f 7/7/2 8/8/2 9/9/2
f 10/10/3 5/11/3 11/12/3
f 12/13/4 1/14/4 13/15/4
f 14/16/5 2/17/5 1/14/5
f 14/18/6 12/19/6 15/20/6
f 2/2/1 7/21/1 3/3/1
f 7/21/1 4/4/1 3/3/1
f 4/4/1 6/6/1 3/3/1
f 3/3/1 13/22/1 1/1/1
f 4/4/1 11/23/1 5/5/1
f 7/7/2 2/17/2 8/8/2
f 10/10/3 16/24/3 5/11/3
f 12/13/7 14/16/7 1/14/7
f 14/16/8 8/8/8 2/17/8
f 17/25/6 18/26/6 15/20/6
f 18/26/6 9/27/6 15/20/6
f 9/27/6 8/28/6 15/20/6
f 8/28/6 14/18/6 15/20/6
s 1
f 6/29/9 15/30/10 3/31/10
f 18/26/6 16/32/11 10/33/6
f 5/34/12 17/35/13 6/29/9
f 15/30/14 13/36/14 3/31/14
f 6/29/9 17/35/13 15/30/10
f 18/26/6 17/25/13 16/32/11
f 5/34/12 16/37/11 17/35/13
f 15/30/14 12/38/14 13/36/14
