# Blender v3.1.2 OBJ File: 'Map.blend'
# www.blender.org
mtllib Map013.mtl
o Map.013_Plane.045
v -0.500001 0.000000 -0.500000
v 0.500000 -0.000000 0.500000
v 0.499999 0.000000 -0.500000
v -0.500000 -0.000000 0.500000
v 0.499999 0.109271 -0.500000
v 0.500000 0.109271 0.500000
v -0.480000 0.109271 0.500000
v -0.500000 0.089271 0.500000
v -0.490000 0.106591 0.500000
v -0.497320 0.099271 0.500000
v -0.500001 0.089271 -0.500000
v -0.480001 0.109271 -0.500000
v -0.497321 0.099271 -0.500000
v -0.490001 0.106591 -0.500000
vt 0.438419 0.363453
vt 0.435537 0.364225
vt 0.441301 0.358461
vt 0.469767 0.364225
vt 0.444259 0.076027
vt 0.469767 0.076027
vt 0.381200 0.363453
vt 0.379090 0.361343
vt 0.378318 0.358461
vt 0.344459 0.076027
vt 0.346826 0.364225
vt 0.344459 0.364225
vt 0.441301 0.076027
vt 0.444259 0.364225
vt 0.441301 0.364225
vt 0.409809 0.364225
vt 0.409809 0.076027
vt 0.441301 0.076027
vt 0.440529 0.361343
vt 0.378318 0.076027
vt 0.409809 0.076027
vt 0.409809 0.364225
vt 0.384082 0.364225
vt 0.346826 0.076027
vt 0.346826 0.076027
vt 0.378318 0.364225
vt 0.346826 0.364225
vt 0.341501 0.076027
vt 0.341501 0.364225
vt 0.061483 0.076027
vt 0.061483 0.364225
vn 0.0000 0.0000 1.0000
vn -1.0000 0.0000 0.0000
vn 0.0000 0.0000 -1.0000
vn -0.7071 0.7071 0.0000
vn -0.9659 0.2588 0.0000
vn 1.0000 0.0000 -0.0000
vn 0.8440 0.3982 0.3594
vn -0.1305 0.9914 0.0000
vn -0.2588 0.9659 0.0000
vn 0.4431 0.8679 -0.2246
usemtl Material.014
s off
f 10/1/1 8/2/1 7/3/1
f 4/4/2 11/5/2 1/6/2
f 13/7/3 14/8/3 12/9/3
f 14/10/4 10/11/4 9/12/4
f 13/13/5 8/14/5 10/15/5
f 8/2/1 4/16/1 7/3/1
f 4/16/1 2/17/1 7/3/1
f 2/17/1 6/18/1 7/3/1
f 7/3/1 9/19/1 10/1/1
f 4/4/2 8/14/2 11/5/2
f 5/20/3 3/21/3 12/9/3
f 3/21/3 1/22/3 12/9/3
f 1/22/3 11/23/3 12/9/3
f 11/23/3 13/7/3 12/9/3
f 14/10/4 13/24/4 10/11/4
f 13/13/5 11/5/5 8/14/5
s 1
f 3/25/6 6/26/7 2/27/6
f 12/28/8 9/12/9 7/29/8
f 7/29/8 5/30/10 12/28/8
f 3/25/6 5/20/10 6/26/7
f 12/28/8 14/10/9 9/12/9
f 7/29/8 6/31/7 5/30/10
