# Blender v3.0.0 OBJ File: ''
# www.blender.org
mtllib Map018.mtl
o Map.018_Plane.036
v 0.500000 -0.000000 -0.331978
v 0.500000 0.089271 -0.000000
v 0.500000 0.000000 -0.000000
v 0.500001 0.089271 0.331978
v 0.500001 0.000000 0.331978
v 0.500000 -0.000000 -0.500000
v 0.500000 0.089271 -0.331978
v 0.500001 0.089271 0.500000
v 0.500001 0.000000 0.500000
v 0.332073 0.089271 0.500000
v 0.332073 0.000000 0.500000
v -0.331976 0.000000 0.500000
v -0.499999 0.089271 0.500000
v -0.499999 0.000000 0.500000
v 0.497342 0.099234 -0.325605
v 0.489466 0.106889 -0.327665
v 0.489795 0.106318 -0.318352
v 0.497048 0.099065 -0.338352
v 0.489466 0.106889 -0.336291
v 0.494383 0.103168 -0.331978
v 0.497342 0.099234 0.006373
v 0.489466 0.106889 0.004313
v 0.489795 0.106318 0.013626
v 0.497048 0.099065 -0.006374
v 0.489466 0.106889 -0.004313
v 0.494383 0.103168 -0.000000
v 0.497342 0.099234 0.338351
v 0.489466 0.106889 0.336291
v 0.489795 0.106318 0.345604
v 0.497048 0.099065 0.325604
v 0.489466 0.106889 0.327665
v 0.494383 0.103168 0.331978
v -0.331976 0.089271 0.500000
v -0.499999 0.099271 0.497321
v 0.497321 0.099271 0.497320
v 0.332073 0.099271 0.497320
v 0.490001 0.106591 0.490000
v 0.332073 0.106591 0.490000
v 0.489964 0.106613 -0.345605
v 0.497321 0.099271 -0.500000
v 0.490000 0.106591 -0.500000
v 0.500000 0.089271 -0.500000
v -0.331976 0.020000 0.331978
v 0.329393 0.005000 0.329298
v -0.331976 0.010000 0.329299
v 0.322073 0.001340 0.321978
v -0.331976 0.002679 0.321978
v 0.489964 0.106613 -0.013627
v 0.489964 0.106613 0.318351
v -0.331976 0.099271 0.497321
v 0.332073 0.010000 0.331978
v -0.500000 0.020000 -0.331978
v -0.331976 0.089271 -0.331978
v -0.500000 0.089271 -0.331978
v 0.332073 0.089271 0.331978
v -0.500000 0.109271 -0.500000
v -0.351976 0.109271 -0.351978
v -0.351976 0.109271 -0.500000
v 0.332073 0.020000 -0.000000
v 0.332073 0.089271 -0.000000
v 0.332073 0.089271 -0.331978
v 0.332073 0.020000 -0.331978
v 0.352073 0.109271 0.020000
v 0.480001 0.109271 0.311978
v 0.480000 0.109271 0.020000
v 0.332073 0.109271 0.351978
v 0.480001 0.109271 0.480000
v 0.480001 0.109271 0.351978
v -0.500000 0.000000 0.000000
v -0.331976 0.000000 0.311978
v -0.331976 0.000000 0.000000
v 0.480000 0.109271 -0.311978
v 0.352073 0.109271 -0.020000
v 0.480000 0.109271 -0.020000
v -0.499999 0.020000 0.331978
v -0.331976 0.089271 0.331978
v 0.332072 0.089271 -0.500000
v 0.332072 0.020000 -0.500000
v 0.312073 0.000000 0.311978
v 0.312073 0.000000 -0.000000
v 0.352073 0.109271 -0.500000
v 0.480000 0.109271 -0.351978
v 0.480000 0.109271 -0.500000
v -0.499999 0.109271 0.351978
v -0.331976 0.109271 0.480000
v -0.331976 0.109271 0.351978
v 0.312072 -0.000000 -0.500000
v -0.311976 -0.000000 -0.351978
v 0.312073 -0.000000 -0.351978
v 0.332073 0.109271 0.480000
v -0.331976 0.020000 -0.500000
v -0.331976 0.020000 -0.331978
v -0.331976 -0.000000 -0.311978
v 0.312073 -0.000000 -0.311978
v 0.480000 0.109271 -0.325311
v 0.480000 0.109271 -0.338645
v 0.480000 0.109271 -0.006667
v 0.480000 0.109271 0.006667
v 0.342278 0.106318 -0.013627
v 0.352073 0.109271 -0.006667
v 0.334731 0.099234 -0.006374
v 0.342607 0.106889 -0.004313
v 0.335025 0.099065 0.006373
v 0.342607 0.106889 0.004313
v 0.337690 0.103168 -0.000000
v 0.352073 0.109271 0.006667
v 0.342109 0.106613 0.013626
v 0.342278 0.106318 -0.345605
v 0.352073 0.109271 -0.338645
v 0.352073 0.109271 -0.351978
v 0.334731 0.099234 -0.338352
v 0.342607 0.106889 -0.336291
v 0.335025 0.099065 -0.325605
v 0.342607 0.106889 -0.327665
v 0.337690 0.103168 -0.331978
v 0.352073 0.109271 -0.325311
v 0.342109 0.106613 -0.318352
v 0.352073 0.109271 -0.311978
v 0.480001 0.109271 0.325311
v 0.480000 0.109271 0.338645
v 0.342278 0.106318 0.318351
v 0.342250 0.109271 0.324772
v 0.352073 0.109271 0.311978
v 0.335025 0.099065 0.325604
v 0.337734 0.106933 0.327423
v 0.332073 0.099087 0.334945
v 0.334379 0.106916 0.335135
v 0.334411 0.103607 0.330743
v 0.334961 0.109271 0.339392
v 0.332073 0.106303 0.342161
v -0.499999 0.106591 0.490000
v -0.331976 0.106591 0.490000
v -0.499999 0.109271 0.480000
v -0.334656 0.099271 -0.334657
v -0.500000 0.099271 -0.334657
v -0.341976 0.106591 -0.341978
v -0.500000 0.106591 -0.341978
v -0.500000 0.109271 -0.351978
v -0.499999 0.106591 0.341978
v -0.331976 0.099271 0.334658
v -0.499999 0.099271 0.334658
v -0.499999 0.089271 0.331978
v 0.334752 0.099271 -0.500000
v 0.342073 0.106591 -0.500000
v -0.341976 0.106591 -0.500000
v -0.334656 0.099271 -0.500000
v -0.331976 0.089271 -0.500000
v -0.331976 0.106591 0.341978
v 0.312073 -0.000000 -0.338645
v 0.322036 0.002658 -0.345605
v 0.312073 -0.000000 -0.325311
v 0.321538 0.002382 -0.336291
v 0.321867 0.002953 -0.318352
v 0.329414 0.010037 -0.325605
v 0.321538 0.002382 -0.327665
v 0.329120 0.010206 -0.338352
v 0.326455 0.006103 -0.331978
v -0.321771 0.002953 -0.345604
v -0.321799 -0.000000 -0.339184
v -0.329024 0.010206 -0.338351
v -0.326315 0.002338 -0.336533
v -0.331976 0.010183 -0.329010
v -0.329670 0.002355 -0.328820
v -0.329638 0.005664 -0.333213
v -0.329088 -0.000000 -0.324564
v -0.331976 0.002968 -0.321794
v 0.322073 0.002680 -0.000000
v 0.329393 0.010000 -0.000000
v -0.500000 -0.000000 -0.311978
v -0.500000 0.002679 -0.321978
v -0.500000 0.010000 -0.329298
v -0.499999 0.010000 0.329299
v -0.499999 0.002679 0.321978
v -0.499999 0.000000 0.311978
v -0.329297 0.010000 -0.500000
v -0.321976 0.002679 -0.500000
v -0.311976 -0.000000 -0.500000
v 0.322072 0.002680 -0.500000
v 0.329393 0.010000 -0.500000
v -0.500000 -0.000000 -0.500000
v -0.500000 0.089271 -0.500000
vt 0.374460 0.506311
vt 0.349490 0.411746
vt 0.374460 0.411592
vt 0.349490 0.317026
vt 0.374460 0.316872
vt 0.374460 0.554251
vt 0.349490 0.506465
vt 0.349490 0.269086
vt 0.374460 0.268932
vt 0.343962 0.554382
vt 0.318756 0.506447
vt 0.343962 0.506447
vt 0.343962 0.316895
vt 0.318756 0.268933
vt 0.343962 0.268932
vt 0.346552 0.504641
vt 0.343962 0.505176
vt 0.344141 0.502520
vt 0.346583 0.508276
vt 0.343962 0.507637
vt 0.345283 0.506442
vt 0.080047 0.314628
vt 0.078822 0.316033
vt 0.077585 0.314628
vt 0.346552 0.409922
vt 0.343962 0.410456
vt 0.344141 0.407801
vt 0.346583 0.413556
vt 0.343962 0.412917
vt 0.345283 0.411722
vt 0.172347 0.314627
vt 0.174809 0.314627
vt 0.173584 0.316032
vt 0.346552 0.315202
vt 0.343962 0.315737
vt 0.344141 0.313081
vt 0.346583 0.318836
vt 0.343962 0.318198
vt 0.345283 0.317002
vt 0.267108 0.314627
vt 0.269570 0.314627
vt 0.268345 0.316031
vt 0.318756 0.316895
vt 0.315820 0.268933
vt 0.315820 0.553617
vt 0.315820 0.506447
vt 0.313446 0.551528
vt 0.313446 0.506447
vt 0.344068 0.510298
vt 0.346541 0.554400
vt 0.344076 0.554350
vt 0.349490 0.554405
vt 0.344076 0.271885
vt 0.410489 0.316897
vt 0.406139 0.505685
vt 0.407541 0.316897
vt 0.550162 0.080143
vt 0.548078 0.266844
vt 0.548084 0.080146
vt 0.318756 0.554382
vt 0.344068 0.415579
vt 0.344068 0.320859
vt 0.315820 0.316895
vt 0.346541 0.269845
vt 0.407686 0.506450
vt 0.550162 0.268932
vt 0.111818 0.363995
vt 0.131378 0.316033
vt 0.131378 0.363995
vt 0.429903 0.506447
vt 0.030852 0.361143
vt 0.073105 0.318891
vt 0.073105 0.361143
vt 0.379934 0.369628
vt 0.398857 0.274701
vt 0.399161 0.369409
vt 0.399465 0.464116
vt 0.380238 0.464335
vt 0.179283 0.275408
vt 0.262627 0.311924
vt 0.179283 0.311925
vt 0.274044 0.269698
vt 0.310588 0.311924
vt 0.274044 0.311924
vt 0.667304 0.715113
vt 0.553072 0.653590
vt 0.667304 0.653590
vt 0.084521 0.311925
vt 0.167865 0.275408
vt 0.167865 0.311925
vt 0.410489 0.268935
vt 0.429903 0.316895
vt 0.399619 0.512050
vt 0.380392 0.512269
vt 0.553072 0.417770
vt 0.667304 0.417770
vt 0.030851 0.275409
vt 0.073104 0.311925
vt 0.030851 0.311925
vt 0.274044 0.032184
vt 0.310588 0.080146
vt 0.274044 0.080146
vt 0.850381 0.417770
vt 0.796182 0.646267
vt 0.796182 0.417770
vt 0.310588 0.269698
vt 0.081719 0.316152
vt 0.101095 0.363972
vt 0.081719 0.364092
vt 0.781536 0.653590
vt 0.781536 0.417770
vt 0.082707 0.314722
vt 0.080716 0.311925
vt 0.076910 0.311925
vt 0.074927 0.314770
vt 0.171671 0.311925
vt 0.169689 0.314769
vt 0.175477 0.311925
vt 0.177468 0.314721
vt 0.169689 0.272613
vt 0.171671 0.275408
vt 0.402109 0.371220
vt 0.404757 0.370681
vt 0.404585 0.373337
vt 0.402070 0.367587
vt 0.404749 0.368220
vt 0.403392 0.369417
vt 0.175477 0.275408
vt 0.177468 0.272564
vt 0.172347 0.272706
vt 0.174809 0.272706
vt 0.173584 0.271304
vt 0.074928 0.272613
vt 0.076910 0.275408
vt 0.073104 0.275408
vt 0.402413 0.465928
vt 0.405061 0.465388
vt 0.404889 0.468044
vt 0.402374 0.462294
vt 0.405053 0.462928
vt 0.403696 0.464124
vt 0.080716 0.275408
vt 0.082706 0.272565
vt 0.084521 0.275408
vt 0.077585 0.272707
vt 0.080047 0.272707
vt 0.078822 0.271304
vt 0.266433 0.311924
vt 0.264450 0.314769
vt 0.272230 0.314721
vt 0.270239 0.311924
vt 0.264451 0.272612
vt 0.266279 0.272603
vt 0.262627 0.275407
vt 0.401778 0.276516
vt 0.404140 0.275997
vt 0.404281 0.278629
vt 0.401578 0.273824
vt 0.403905 0.273766
vt 0.402993 0.275030
vt 0.404593 0.272550
vt 0.403575 0.271742
vt 0.404389 0.268932
vt 0.313446 0.268933
vt 0.313446 0.080146
vt 0.310588 0.032183
vt 0.313446 0.032184
vt 0.313446 0.269699
vt 0.030856 0.314781
vt 0.270452 0.270523
vt 0.313446 0.316895
vt 0.404630 0.365559
vt 0.404935 0.460267
vt 0.134313 0.316797
vt 0.134313 0.363995
vt 0.136687 0.318887
vt 0.136687 0.363995
vt 0.030852 0.316033
vt 0.030851 0.318891
vt 0.271194 0.032184
vt 0.435299 0.268934
vt 0.432851 0.316895
vt 0.432851 0.268932
vt 0.429903 0.268932
vt 0.402573 0.512043
vt 0.405093 0.512088
vt 0.030856 0.272555
vt 0.075960 0.361139
vt 0.106509 0.361174
vt 0.104044 0.316038
vt 0.106509 0.316087
vt 0.104044 0.363213
vt 0.101095 0.316033
vt 0.271247 0.269699
vt 0.271194 0.080147
vt 0.435228 0.506448
vt 0.435299 0.316896
vt 0.432815 0.506447
vt 0.359509 0.263983
vt 0.357518 0.266826
vt 0.355703 0.263983
vt 0.363315 0.263983
vt 0.360177 0.266684
vt 0.365297 0.266778
vt 0.367121 0.263983
vt 0.377290 0.462524
vt 0.374642 0.463063
vt 0.374814 0.460407
vt 0.377329 0.466157
vt 0.374650 0.465524
vt 0.376007 0.464327
vt 0.362639 0.266684
vt 0.361402 0.268087
vt 0.357525 0.083052
vt 0.359362 0.083045
vt 0.355710 0.085848
vt 0.078811 0.362265
vt 0.076456 0.362775
vt 0.076369 0.360147
vt 0.078973 0.364956
vt 0.076652 0.365004
vt 0.077576 0.363744
vt 0.075960 0.366217
vt 0.076955 0.367027
vt 0.076125 0.369833
vt 0.363536 0.080964
vt 0.360116 0.081755
vt 0.362317 0.080797
vt 0.786144 0.652533
vt 0.786418 0.417770
vt 0.791497 0.649864
vt 0.791300 0.417770
vt 0.545226 0.263990
vt 0.545234 0.080146
vt 0.456169 0.266840
vt 0.456173 0.263986
vt 0.456157 0.268927
vt 0.375291 0.275707
vt 0.376980 0.369634
vt 0.139546 0.316033
vt 0.136739 0.363995
vt 0.136687 0.316033
vt 0.106583 0.316033
vt 0.108883 0.363995
vt 0.106509 0.363995
vt 0.108922 0.316033
vt 0.407541 0.268935
vt 0.405093 0.316896
vt 0.405093 0.268934
vt 0.545236 0.032184
vt 0.548086 0.032183
vt 0.078769 0.316147
vt 0.076305 0.316097
vt 0.313454 0.082992
vt 0.313458 0.085847
vt 0.313446 0.266835
vt 0.313451 0.263981
vt 0.374768 0.468185
vt 0.377438 0.512276
vt 0.374918 0.512231
vt 0.781536 0.715113
vt 0.111818 0.316033
vt 0.376855 0.274952
vt 0.553072 0.715113
vt 0.850381 0.646267
vt 0.267039 0.271315
vt 0.405093 0.276788
vt 0.313446 0.314779
vt 0.075960 0.316033
vt 0.374460 0.369590
vt 0.139546 0.363996
vn 1.0000 -0.0000 -0.0000
vn 0.0000 0.0000 1.0000
vn 0.6869 0.7239 0.0639
vn 0.9268 0.3746 -0.0264
vn 0.7101 0.7021 -0.0529
vn 0.6035 0.7974 0.0000
vn 0.6034 0.7974 0.0000
vn 0.6869 0.7240 0.0639
vn 0.0000 0.2588 0.9659
vn 0.0000 0.2589 0.9659
vn 0.0000 0.7071 0.7071
vn 0.7071 0.7071 0.0000
vn 0.9620 0.2732 0.0005
vn 0.7179 0.6961 0.0011
vn 0.9618 0.2739 0.0010
vn 0.6958 0.7182 -0.0012
vn 0.9661 0.2583 -0.0000
vn 0.0239 0.7131 -0.7006
vn 0.0086 0.8932 -0.4495
vn 0.9659 0.2589 0.0001
vn -0.0005 0.1383 0.9904
vn 0.6972 0.1672 0.6971
vn 0.0000 0.1305 0.9914
vn 0.0140 -0.0449 -0.9989
vn -0.9938 -0.0777 -0.0795
vn -0.8729 -0.4796 -0.0897
vn -0.5773 0.5774 -0.5774
vn 0.0985 0.9903 0.0985
vn 0.0959 0.7280 -0.6789
vn -0.9890 0.1480 0.0018
vn -0.9872 0.1591 0.0046
vn -0.9880 0.1541 0.0046
vn -0.9880 0.1542 0.0046
vn -0.1346 0.9909 0.0012
vn 0.1346 0.9909 -0.0012
vn 0.1383 0.9904 0.0031
vn -0.0922 0.9955 -0.0220
vn 0.1042 0.9897 0.0981
vn 0.1385 0.9904 0.0029
vn -0.0000 1.0000 -0.0000
vn 0.0003 0.9940 -0.1091
vn -0.1383 0.9904 -0.0031
vn 0.1347 0.9909 -0.0012
vn -0.3187 0.1237 -0.9398
vn 0.0048 0.0901 -0.9959
vn -0.9914 0.1305 -0.0000
vn -0.9904 0.1383 -0.0005
vn -0.0782 0.9950 -0.0621
vn -0.1188 0.9929 0.0006
vn -0.1013 0.7270 -0.6791
vn 0.1295 0.9916 -0.0011
vn 0.0956 0.7280 -0.6789
vn -0.6789 0.7280 -0.0957
vn 0.0000 0.9914 0.1305
vn 0.0001 0.9909 -0.1344
vn -0.1305 0.9914 0.0000
vn 0.1281 0.9915 0.0238
vn -0.1297 0.9916 0.0008
vn 0.9385 0.1311 -0.3194
vn 0.7012 0.1703 0.6923
vn 0.0461 0.9957 0.0802
vn -0.1384 0.9904 -0.0031
vn 0.2747 0.9614 0.0134
vn 0.1322 0.9912 0.0059
vn 0.1258 0.9921 -0.0018
vn 0.2551 0.9669 -0.0043
vn 0.2483 0.9687 -0.0027
vn 0.1256 0.9921 -0.0021
vn 0.2601 0.9656 -0.0044
vn -0.5075 0.8615 -0.0175
vn -0.1322 0.9912 -0.0058
vn -0.8712 0.4908 -0.0092
vn -0.4686 0.8830 -0.0268
vn -0.8734 0.4866 0.0205
vn -0.4736 0.8805 0.0199
vn -0.7643 0.6449 0.0049
vn -0.1256 0.9921 0.0021
vn -0.5104 0.8599 0.0113
vn -0.5027 0.8643 -0.0170
vn -0.1322 0.9912 -0.0059
vn -0.1383 0.9904 -0.0029
vn -0.8726 0.4884 -0.0089
vn -0.8749 0.4839 0.0202
vn -0.4735 0.8806 0.0200
vn -0.5056 0.8627 0.0111
vn -0.1347 0.9909 0.0012
vn 0.2576 0.9662 0.0088
vn 0.2749 0.9614 0.0132
vn 0.1320 0.9912 0.0061
vn -0.6077 0.7687 -0.1994
vn -0.2981 0.9349 -0.1925
vn -0.1280 0.9915 -0.0240
vn -0.9176 0.3443 -0.1988
vn -0.7153 0.5937 -0.3686
vn -0.0550 0.5072 -0.8601
vn -0.7963 0.5360 -0.2802
vn -0.8857 0.3168 -0.3394
vn -0.4387 0.8899 -0.1251
vn -0.0376 0.8633 -0.5033
vn 0.0000 0.4700 0.8827
vn -0.6532 0.6556 0.3787
vn -0.4472 0.6323 0.6326
vn 0.0000 0.8660 0.5000
vn -0.6789 0.7280 0.0958
vn 0.0000 0.8484 0.5294
vn 0.2548 0.9529 -0.1644
vn 0.0000 0.5000 0.8660
vn 0.5885 0.5542 0.5886
vn -0.2506 0.4841 0.8384
vn 0.3332 0.8820 0.3332
vn -0.6532 0.6558 0.3784
vn -0.6789 0.7279 0.0960
vn -0.6532 0.6560 -0.3783
vn 0.0002 0.5034 -0.8641
vn -0.2506 0.4840 -0.8384
vn -0.0000 0.1305 -0.9914
vn -0.8621 0.5068 0.0006
vn -0.4978 0.8632 -0.0846
vn 0.3786 0.6557 -0.6532
vn 0.8384 0.4840 -0.2506
vn 0.9914 0.1305 -0.0000
vn 0.0002 0.8641 -0.5034
vn -0.5081 0.8612 0.0106
vn -0.1321 0.9912 -0.0060
vn -0.5028 0.8642 -0.0173
vn -0.8726 0.4884 -0.0090
vn -0.8759 0.4821 0.0199
vn 0.6032 0.7725 0.1986
vn 0.2980 0.9349 0.1925
vn 0.9186 0.3416 0.1985
vn 0.7153 0.5937 0.3686
vn 0.6197 0.4114 0.6684
vn 0.7964 0.5360 0.2802
vn 0.8857 0.3168 0.3394
vn 0.4387 0.8899 0.1251
vn 0.5060 0.7672 0.3941
vn 0.0005 0.9189 -0.3945
vn -0.4557 0.8901 0.0028
vn -0.4274 0.9034 -0.0339
vn -0.8370 0.5472 0.0040
vn -0.9098 0.4149 0.0074
vn -0.0005 0.9904 0.1384
vn -0.0015 0.8621 0.5068
vn -0.0015 0.5068 0.8621
vn -0.7703 0.3188 -0.5523
vn -0.7703 0.5522 -0.3190
vn -0.0838 0.9880 -0.1301
vn 0.5498 0.3234 -0.7702
vn 0.3229 0.5501 -0.7702
vn 0.1375 0.9869 -0.0844
vn -0.5065 0.8623 -0.0006
vn -0.8661 0.4999 -0.0011
vn 0.1393 0.9815 0.1313
vn 0.0000 0.5000 -0.8660
usemtl Material.021
s off
f 1/1/1 2/2/1 3/3/1
f 3/3/1 4/4/1 5/5/1
f 6/6/1 7/7/1 1/1/1
f 5/5/1 8/8/1 9/9/1
f 9/10/2 10/11/2 11/12/2
f 12/13/2 13/14/2 14/15/2
f 15/16/3 16/17/3 17/18/3
f 18/19/4 15/16/4 7/7/4
f 18/19/5 19/20/5 20/21/5
f 16/22/6 20/23/6 19/24/6
f 21/25/3 22/26/3 23/27/3
f 24/28/4 21/25/4 2/2/4
f 24/28/5 25/29/5 26/30/5
f 25/31/7 22/32/7 26/33/7
f 27/34/8 28/35/3 29/36/8
f 30/37/4 27/34/4 4/4/4
f 30/37/5 31/38/5 32/39/5
f 31/40/7 28/41/7 32/42/7
f 33/43/9 34/44/9 13/14/9
f 10/11/10 35/45/10 36/46/10
f 36/46/11 37/47/11 38/48/11
f 17/18/12 24/28/12 15/16/12
f 24/28/13 7/7/13 15/16/13
f 39/49/14 40/50/14 41/51/14
f 18/19/15 42/52/15 40/50/15
f 23/27/12 30/37/12 21/25/12
f 30/37/13 2/2/13 21/25/13
f 37/53/16 27/34/16 29/36/16
f 27/34/17 8/8/17 4/4/17
f 43/54/18 44/55/18 45/56/18
f 45/57/19 46/58/19 47/59/19
f 1/1/1 7/7/1 2/2/1
f 3/3/1 2/2/1 4/4/1
f 6/6/1 42/52/1 7/7/1
f 5/5/1 4/4/1 8/8/1
f 9/10/2 8/60/2 10/11/2
f 12/13/2 33/43/2 13/14/2
f 15/16/3 20/21/3 16/17/3
f 18/19/4 20/21/4 15/16/4
f 18/19/5 39/49/5 19/20/5
f 21/25/3 26/30/3 22/26/3
f 24/28/4 26/30/4 21/25/4
f 24/28/5 48/61/5 25/29/5
f 27/34/3 32/39/3 28/35/3
f 30/37/4 32/39/4 27/34/4
f 30/37/5 49/62/5 31/38/5
f 33/43/9 50/63/9 34/44/9
f 10/11/10 8/60/10 35/45/10
f 36/46/11 35/45/11 37/47/11
f 17/18/12 48/61/12 24/28/12
f 24/28/13 2/2/13 7/7/13
f 39/49/14 18/19/14 40/50/14
f 18/19/15 7/7/15 42/52/15
f 23/27/12 49/62/12 30/37/12
f 30/37/13 4/4/13 2/2/13
f 37/53/16 35/64/16 27/34/16
f 27/34/20 35/64/20 8/8/20
f 43/54/18 51/65/18 44/55/18
f 45/57/19 44/66/19 46/58/19
s 1
f 52/67/21 53/68/22 54/69/23
f 43/54/24 55/70/25 51/65/26
f 56/71/27 57/72/28 58/73/29
f 59/74/30 55/75/25 60/76/31
f 59/74/30 61/77/32 62/78/33
f 63/79/34 64/80/35 65/81/36
f 66/82/37 67/83/38 68/84/39
f 69/85/40 70/86/41 71/87/40
f 72/88/36 73/89/42 74/90/43
f 75/91/44 76/92/45 43/54/24
f 62/78/33 77/93/46 78/94/47
f 71/87/40 79/95/48 80/96/49
f 81/97/50 82/98/51 83/99/52
f 84/100/53 85/101/54 86/102/55
f 87/103/56 88/104/57 89/105/58
f 86/102/55 90/106/54 66/82/37
f 91/107/59 53/108/22 92/109/60
f 93/110/61 80/96/49 94/111/62
f 17/112/63 95/113/64 72/88/36
f 96/114/65 39/115/66 82/98/51
f 95/113/64 19/24/67 96/114/65
f 97/116/68 48/117/69 74/90/43
f 98/118/64 25/31/67 97/116/68
f 23/119/63 98/118/64 65/81/36
f 99/120/70 100/121/71 73/89/42
f 101/122/72 102/123/73 99/124/70
f 103/125/74 101/122/72 60/76/31
f 103/125/74 104/126/75 105/127/76
f 106/128/77 107/129/78 63/79/34
f 106/128/77 102/130/73 104/131/75
f 102/130/73 105/132/76 104/131/75
f 108/133/79 109/134/80 110/135/81
f 111/136/82 112/137/73 108/138/79
f 113/139/83 111/136/82 61/77/32
f 113/139/83 114/140/84 115/141/76
f 116/142/77 117/143/85 118/144/86
f 116/142/77 112/145/73 114/146/84
f 112/145/73 115/147/76 114/146/84
f 119/148/68 49/149/69 64/80/35
f 119/148/68 28/41/87 31/40/67
f 29/150/88 120/151/89 68/84/39
f 121/152/90 122/153/91 123/154/92
f 124/155/93 125/156/94 121/157/90
f 126/158/95 124/155/93 55/75/25
f 126/158/95 127/159/96 128/160/97
f 129/161/98 130/162/99 66/163/37
f 129/161/98 125/156/94 127/159/96
f 125/156/94 128/160/97 127/159/96
f 50/63/100 131/164/101 34/44/102
f 132/165/103 133/166/104 131/167/101
f 38/168/105 67/83/38 90/106/54
f 72/88/36 48/117/69 17/112/63
f 63/79/34 98/118/64 106/128/77
f 98/118/64 100/121/71 106/128/77
f 97/116/68 73/89/42 100/121/71
f 82/98/51 41/169/106 83/99/52
f 72/88/36 116/142/77 118/144/86
f 116/142/77 96/114/65 109/134/80
f 96/114/65 110/135/81 109/134/80
f 65/81/36 49/149/69 23/119/63
f 68/84/39 129/170/98 66/82/37
f 120/151/89 122/153/91 129/170/98
f 119/148/68 123/154/92 122/153/91
f 10/11/23 50/63/100 33/43/23
f 36/46/107 132/171/103 50/63/100
f 38/168/105 85/101/54 132/165/103
f 55/75/25 103/125/74 60/76/31
f 103/125/74 121/157/90 107/172/78
f 107/129/78 123/154/92 63/79/34
f 60/76/31 113/139/83 61/77/32
f 113/139/83 99/124/70 117/173/85
f 117/143/85 73/89/42 118/144/86
f 54/69/23 134/174/108 135/175/109
f 135/175/109 136/176/110 137/177/111
f 137/178/111 57/72/28 138/179/112
f 86/102/55 139/180/113 84/100/53
f 139/181/113 140/182/114 141/183/115
f 140/182/114 142/184/116 141/183/115
f 77/93/46 111/136/82 143/185/117
f 143/185/117 108/138/79 144/186/118
f 144/187/118 110/135/81 81/97/50
f 67/83/38 29/150/88 68/84/39
f 57/72/28 145/188/119 58/73/29
f 136/189/110 146/190/120 145/191/119
f 134/192/108 147/193/121 146/190/120
f 86/102/55 130/194/99 148/195/122
f 130/196/99 140/182/114 148/197/122
f 126/198/95 76/92/45 140/182/114
f 11/12/2 33/43/23 12/13/2
f 149/199/77 150/200/123 89/201/58
f 151/202/124 152/203/75 149/199/77
f 153/204/125 151/202/124 94/205/62
f 154/206/126 155/207/73 153/208/125
f 156/209/127 154/206/126 62/78/33
f 156/209/127 152/210/75 157/211/76
f 152/203/75 155/212/73 157/213/76
f 158/214/128 159/215/129 88/216/57
f 160/217/130 161/218/131 158/219/128
f 162/220/132 160/217/130 92/109/60
f 162/220/132 163/221/133 164/222/134
f 165/223/135 166/224/136 93/225/61
f 165/226/135 161/227/131 163/228/133
f 161/218/131 164/222/134 163/221/133
f 94/111/62 165/229/135 93/110/61
f 151/230/124 159/231/129 165/229/135
f 149/232/77 88/104/57 159/231/129
f 47/59/137 79/233/48 70/234/41
f 79/233/48 167/235/138 80/236/49
f 46/58/139 168/237/140 167/235/138
f 44/238/141 59/74/30 168/239/140
f 94/205/62 167/235/138 153/204/125
f 153/208/125 168/239/140 154/206/126
f 154/206/126 59/74/30 62/78/33
f 169/240/142 166/241/136 170/242/143
f 166/243/136 171/244/144 170/245/143
f 162/246/132 52/67/21 171/244/144
f 43/54/24 172/247/145 75/91/44
f 172/247/145 47/248/137 173/249/146
f 47/59/137 174/250/147 173/251/146
f 91/107/59 160/217/130 175/252/148
f 175/252/148 158/219/128 176/253/149
f 176/254/149 88/216/57 177/255/150
f 89/201/58 178/256/151 87/257/56
f 150/258/123 179/259/152 178/260/151
f 156/209/127 78/94/47 179/259/152
f 169/261/142 71/87/40 93/110/61
f 52/67/21 92/262/60 53/68/22
f 43/54/24 76/92/45 55/70/25
f 56/71/27 138/179/112 57/72/28
f 59/74/30 51/263/26 55/75/25
f 59/74/30 60/76/31 61/77/32
f 63/79/34 123/154/92 64/80/35
f 66/82/37 90/106/54 67/83/38
f 69/85/40 174/264/147 70/86/41
f 72/88/36 118/144/86 73/89/42
f 75/91/44 142/184/116 76/92/45
f 62/78/33 61/77/32 77/93/46
f 71/87/40 70/86/41 79/95/48
f 81/97/50 110/135/81 82/98/51
f 84/100/53 133/166/104 85/101/54
f 87/103/56 177/265/150 88/104/57
f 86/102/55 85/101/54 90/106/54
f 91/107/59 147/193/121 53/108/22
f 93/110/61 71/87/40 80/96/49
f 17/112/63 16/22/87 95/113/64
f 96/114/65 19/24/67 39/115/66
f 95/113/64 16/22/87 19/24/67
f 97/116/68 25/31/67 48/117/69
f 98/118/64 22/32/87 25/31/67
f 23/119/63 22/32/87 98/118/64
f 99/120/70 102/130/73 100/121/71
f 101/122/72 105/127/76 102/123/73
f 103/125/74 105/127/76 101/122/72
f 103/125/74 107/172/78 104/126/75
f 106/128/77 104/131/75 107/129/78
f 106/128/77 100/121/71 102/130/73
f 108/133/79 112/145/73 109/134/80
f 111/136/82 115/141/76 112/137/73
f 113/139/83 115/141/76 111/136/82
f 113/139/83 117/173/85 114/140/84
f 116/142/77 114/146/84 117/143/85
f 116/142/77 109/134/80 112/145/73
f 119/148/68 31/40/67 49/149/69
f 119/148/68 120/151/89 28/41/87
f 29/150/88 28/41/87 120/151/89
f 121/152/90 125/266/94 122/153/91
f 124/155/93 128/160/97 125/156/94
f 126/158/95 128/160/97 124/155/93
f 126/158/95 130/162/99 127/159/96
f 129/161/98 127/159/96 130/162/99
f 129/161/98 122/267/91 125/156/94
f 50/63/100 132/171/103 131/164/101
f 132/165/103 85/101/54 133/166/104
f 38/168/105 37/268/153 67/83/38
f 72/88/36 74/90/43 48/117/69
f 63/79/34 65/81/36 98/118/64
f 98/118/64 97/116/68 100/121/71
f 97/116/68 74/90/43 73/89/42
f 82/98/51 39/115/66 41/169/106
f 72/88/36 95/113/64 116/142/77
f 116/142/77 95/113/64 96/114/65
f 96/114/65 82/98/51 110/135/81
f 65/81/36 64/80/35 49/149/69
f 68/84/39 120/151/89 129/170/98
f 120/151/89 119/148/68 122/153/91
f 119/148/68 64/80/35 123/154/92
f 10/11/23 36/46/107 50/63/100
f 36/46/107 38/48/105 132/171/103
f 38/168/105 90/106/54 85/101/54
f 55/75/25 124/155/93 103/125/74
f 103/125/74 124/155/93 121/157/90
f 107/129/78 121/152/90 123/154/92
f 60/76/31 101/122/72 113/139/83
f 113/139/83 101/122/72 99/124/70
f 117/143/85 99/120/70 73/89/42
f 54/69/23 53/68/22 134/174/108
f 135/175/109 134/174/108 136/176/110
f 137/178/111 136/269/110 57/72/28
f 86/102/55 148/195/122 139/180/113
f 139/181/113 148/197/122 140/182/114
f 140/182/114 76/92/45 142/184/116
f 77/93/46 61/77/32 111/136/82
f 143/185/117 111/136/82 108/138/79
f 144/187/118 108/133/79 110/135/81
f 67/83/38 37/268/153 29/150/88
f 57/72/28 136/269/110 145/188/119
f 136/189/110 134/192/108 146/190/120
f 134/192/108 53/108/22 147/193/121
f 86/102/55 66/82/37 130/194/99
f 130/196/99 126/198/95 140/182/114
f 126/198/95 55/70/25 76/92/45
f 11/12/2 10/11/23 33/43/23
f 149/199/77 152/203/75 150/200/123
f 151/202/124 155/212/73 152/203/75
f 153/204/125 155/212/73 151/202/124
f 154/206/126 157/211/76 155/207/73
f 156/209/127 157/211/76 154/206/126
f 156/209/127 150/258/123 152/210/75
f 158/214/128 161/227/131 159/215/129
f 160/217/130 164/222/134 161/218/131
f 162/220/132 164/222/134 160/217/130
f 162/220/132 166/224/136 163/221/133
f 165/223/135 163/221/133 166/224/136
f 165/226/135 159/215/129 161/227/131
f 94/111/62 151/230/124 165/229/135
f 151/230/124 149/232/77 159/231/129
f 149/232/77 89/105/58 88/104/57
f 47/59/137 46/58/139 79/233/48
f 79/233/48 46/58/139 167/235/138
f 46/58/139 44/66/141 168/237/140
f 44/238/141 51/263/26 59/74/30
f 94/205/62 80/236/49 167/235/138
f 153/208/125 167/270/138 168/239/140
f 154/206/126 168/239/140 59/74/30
f 169/240/142 93/271/61 166/241/136
f 166/243/136 162/246/132 171/244/144
f 162/246/132 92/262/60 52/67/21
f 43/54/24 45/56/154 172/247/145
f 172/247/145 45/56/154 47/248/137
f 47/59/137 70/234/41 174/250/147
f 91/107/59 92/109/60 160/217/130
f 175/252/148 160/217/130 158/219/128
f 176/254/149 158/214/128 88/216/57
f 89/201/58 150/200/123 178/256/151
f 150/258/123 156/209/127 179/259/152
f 156/209/127 62/78/33 78/94/47
f 169/261/142 69/85/40 71/87/40
l 180 181
