# Blender v3.1.2 OBJ File: ''
# www.blender.org
mtllib Map018.mtl
o Map.01_Plane.001
v 0.500000 0.099765 -0.396352
v 0.500000 0.107291 -0.394291
v 0.500000 0.103868 -0.389978
v 0.500000 0.099765 0.383604
v 0.500000 0.107291 0.385665
v 0.500000 0.103868 0.389978
v 0.500000 0.107291 -0.385665
v 0.500000 0.107291 -0.004313
v 0.500000 0.107291 0.004312
v 0.500000 0.103868 -0.000000
v 0.500000 0.089971 -0.000000
v 0.500000 0.099765 -0.006374
v 0.500000 0.107291 0.394290
v 0.500000 0.107291 -0.013627
v 0.500000 0.099934 -0.383605
v 0.500000 0.107291 -0.376352
v 0.500000 0.107291 0.500000
v 0.500000 0.099934 0.396351
v 0.500000 0.107291 0.403604
v 0.500000 0.107291 0.376351
v 0.500000 0.099934 0.006373
v 0.500000 0.107291 0.013626
v 0.500000 0.089971 0.500000
v 0.500000 0.000000 0.389978
v 0.500000 0.089971 0.389978
v 0.500000 0.107291 -0.403605
v 0.500000 0.099971 -0.500000
v 0.500000 0.107291 -0.500000
v 0.500000 0.099971 0.500000
v 0.390072 0.099971 0.500000
v 0.500000 0.089971 -0.500000
v 0.390072 0.000000 0.500000
v 0.500000 0.000000 0.500000
v 0.500000 0.089971 -0.389978
v 0.500000 0.000000 -0.389978
v 0.500000 0.000000 -0.500000
v -0.500000 0.089971 0.500000
v -0.389977 0.099971 0.500000
v -0.500000 0.099971 0.500000
v 0.500000 0.000000 -0.000000
v -0.389977 0.089971 0.500000
v -0.500000 -0.000000 0.500000
v -0.389977 -0.000000 0.500000
v 0.390072 0.089971 0.500000
v 0.390072 0.107291 0.500000
v 0.500000 0.109971 0.396644
v 0.400250 0.109971 0.382772
v 0.392960 0.109971 0.397392
v 0.393025 0.099765 0.006373
v 0.400278 0.107018 0.376351
v 0.400109 0.107313 0.013626
v 0.400072 0.107291 -0.500000
v 0.410072 0.109971 -0.409978
v 0.410072 0.109971 -0.500000
v -0.500000 0.099971 0.392657
v -0.389977 0.089971 0.389978
v -0.500000 0.089971 0.389978
v -0.389977 -0.000000 -0.389978
v -0.389977 0.089971 -0.500000
v -0.389977 0.089971 -0.389978
v 0.410072 0.109971 -0.369978
v 0.500000 0.109971 -0.383312
v 0.410072 0.109971 -0.383312
v -0.389977 0.107291 0.500000
v 0.390072 0.109971 0.500000
v -0.389977 0.109971 0.500000
v 0.390072 0.000000 -0.389978
v -0.389977 -0.000000 0.000000
v 0.390072 0.000000 -0.000000
v -0.500000 -0.000000 0.389978
v 0.500000 0.109971 -0.020000
v 0.500000 0.109971 -0.369978
v 0.390072 0.109971 0.409978
v -0.389977 0.109971 0.409978
v 0.393025 0.099765 -0.383605
v 0.395689 0.103868 -0.389978
v 0.392731 0.099934 -0.396352
v 0.400278 0.107018 -0.403605
v 0.390072 0.089971 0.389978
v 0.390072 0.000000 0.389978
v -0.389977 -0.000000 0.389978
v 0.392731 0.099934 -0.006374
v 0.395689 0.103868 -0.000000
v 0.400607 0.107589 -0.004313
v 0.400607 0.107589 -0.394291
v 0.410072 0.109971 -0.396645
v -0.500000 0.107291 0.500000
v 0.390072 0.089971 -0.500000
v 0.400109 0.107313 -0.376352
v 0.400607 0.107589 -0.385666
v -0.389977 0.099971 0.392657
v -0.500000 0.089971 -0.500000
v -0.500000 0.089971 -0.389978
v -0.500000 0.099971 -0.392658
v 0.400278 0.107018 -0.013627
v 0.410072 0.109971 -0.006667
v 0.500000 0.109971 0.409978
v -0.392656 0.099971 -0.392658
v 0.500000 0.109971 0.383311
v 0.393025 0.099765 0.383604
v 0.390072 0.089971 -0.000000
v 0.500000 0.109971 -0.500000
v 0.500000 0.109971 -0.409978
v 0.410072 0.109971 0.006666
v 0.500000 0.109971 0.020000
v 0.500000 0.109971 0.006666
v 0.400607 0.107589 0.004312
v -0.409977 0.109971 -0.500000
v -0.500000 0.109971 -0.409978
v -0.409977 0.109971 -0.409978
v 0.500000 0.109971 -0.396645
v -0.399977 0.107291 -0.399978
v -0.392656 0.099971 -0.500000
v -0.399977 0.107291 -0.500000
v 0.390072 0.089971 -0.389978
v 0.500000 0.109971 -0.006667
v 0.410072 0.109971 0.369978
v 0.410072 0.109971 0.020000
v -0.500000 0.099971 -0.500000
v 0.395733 0.107633 0.385423
v 0.390072 0.099787 0.392945
v 0.410072 0.109971 -0.020000
v -0.500000 -0.000000 -0.389978
v 0.500000 0.109971 0.500000
v 0.390072 0.107003 0.400161
v -0.389977 0.107291 0.399978
v 0.500000 0.109971 0.369978
v -0.389977 -0.000000 -0.500000
v 0.392379 0.107616 0.393135
v 0.392411 0.104307 0.388743
v -0.500000 0.109971 0.500000
v -0.500000 -0.000000 0.000000
v -0.500000 0.109971 0.409978
v -0.500000 0.107291 0.399978
v -0.500000 0.107291 -0.399978
v 0.392752 0.099971 -0.500000
v 0.390072 0.000000 -0.500000
v -0.500000 0.107291 -0.500000
v -0.500000 0.109971 -0.500000
v -0.500000 -0.000000 -0.500000
vt 0.269354 0.008279
vt 0.270010 0.005884
vt 0.271383 0.006974
vt 0.517604 0.008279
vt 0.518260 0.005884
vt 0.519633 0.006974
vt 0.272755 0.005884
vt 0.394135 0.005884
vt 0.396880 0.005884
vt 0.395508 0.006974
vt 0.395508 0.011397
vt 0.393479 0.008279
vt 0.521006 0.005884
vt 0.391171 0.005884
vt 0.273411 0.008226
vt 0.275720 0.005884
vt 0.554652 0.005884
vt 0.521662 0.008226
vt 0.523970 0.005884
vt 0.515296 0.005884
vt 0.397536 0.008226
vt 0.399845 0.005884
vt 0.554652 0.011397
vt 0.519633 0.040033
vt 0.519633 0.011397
vt 0.267045 0.005884
vt 0.236364 0.008214
vt 0.236364 0.005884
vt 0.554652 0.008214
vt 0.554652 0.074183
vt 0.519663 0.071853
vt 0.554652 0.071853
vt 0.236364 0.011397
vt 0.554652 0.068670
vt 0.519663 0.040033
vt 0.554652 0.040033
vt 0.271383 0.011397
vt 0.271383 0.040033
vt 0.236364 0.040033
vt 0.236364 0.068670
vt 0.271383 0.071853
vt 0.236364 0.071853
vt 0.395508 0.040033
vt 0.271383 0.068670
vt 0.236364 0.040033
vt 0.271383 0.040033
vt 0.519663 0.068670
vt 0.519663 0.074183
vt 0.103356 0.000000
vt 0.117228 0.099750
vt 0.102608 0.107040
vt 0.490594 0.012701
vt 0.395671 0.010484
vt 0.488826 0.010419
vt 0.620715 0.066233
vt 0.597879 0.063570
vt 0.620694 0.063570
vt 0.391824 0.037975
vt 0.420148 0.040618
vt 0.391824 0.040618
vt 0.618080 0.006676
vt 0.587937 0.043855
vt 0.587937 0.006676
vt 0.869978 0.089928
vt 0.883312 0.000000
vt 0.883312 0.089928
vt 0.271383 0.074183
vt 0.519663 0.075036
vt 0.271383 0.075036
vt 0.716093 0.340952
vt 0.528557 0.716068
vt 0.528557 0.340952
vt 0.484614 0.081402
vt 0.519633 0.090088
vt 0.484614 0.090088
vt 0.520000 0.000000
vt 0.869978 0.000000
vt 0.090022 0.109928
vt 0.090022 0.889977
vt 0.000000 0.889977
vt 0.590753 0.012701
vt 0.592421 0.011524
vt 0.594021 0.012674
vt 0.596298 0.066197
vt 0.620966 0.040618
vt 0.620966 0.063570
vt 0.420149 0.063570
vt 0.495859 0.068488
vt 0.494099 0.067526
vt 0.495076 0.066082
vt 0.593915 0.066082
vt 0.594499 0.063570
vt 0.236364 0.074183
vt 0.076267 0.745859
vt 0.015513 0.745859
vt 0.015513 0.696135
vt 0.588985 0.010419
vt 0.591385 0.010323
vt 0.420148 0.037975
vt 0.586902 0.043855
vt 0.586902 0.081034
vt 0.583523 0.080128
vt 0.497459 0.066197
vt 0.495661 0.063570
vt 0.090022 0.000000
vt 0.584468 0.007582
vt 0.517511 0.005031
vt 0.393709 0.012701
vt 0.492216 0.015326
vt 0.392057 0.015326
vt 0.495830 0.010484
vt 1.000000 0.000000
vt 0.909978 0.089928
vt 0.909978 0.000000
vt 0.493334 0.089928
vt 0.480000 0.000000
vt 0.493334 0.000000
vt 0.492890 0.066082
vt 0.492281 0.063570
vt 0.578237 0.043855
vt 0.547987 0.013265
vt 0.578237 0.013603
vt 0.896645 0.089928
vt 0.896645 0.000000
vt 0.581693 0.010055
vt 0.584468 0.043855
vt 0.581693 0.043855
vt 0.592709 0.037975
vt 0.592375 0.015326
vt 0.393386 0.005031
vt 0.269261 0.005031
vt 0.490537 0.066223
vt 0.400201 0.063570
vt 0.488902 0.063570
vt 0.583523 0.043855
vt 0.341021 0.768976
vt 0.341021 0.716068
vt 0.401874 0.005031
vt 0.651087 0.080129
vt 0.647708 0.043855
vt 0.651087 0.043855
vt 0.393260 0.010574
vt 0.391259 0.012855
vt 0.520000 0.089928
vt 0.000000 0.109928
vt 0.617305 0.081034
vt 0.000000 0.000000
vt 0.592924 0.073337
vt 0.396791 0.070714
vt 0.592970 0.070681
vt 0.506667 0.089928
vt 0.130022 0.089928
vt 0.130022 0.000000
vt 0.617305 0.081034
vt 0.647708 0.081034
vt 0.620966 0.068488
vt 0.593293 0.068488
vt 0.513267 0.005031
vt 0.521755 0.005031
vt 0.525999 0.005031
vt 0.265017 0.005031
vt 0.491226 0.010323
vt 0.492262 0.011524
vt 0.591120 0.063570
vt 0.589376 0.066223
vt 0.587741 0.063570
vt 0.592938 0.067526
vt 0.591729 0.066082
vt 0.389142 0.005031
vt 0.397630 0.005031
vt 0.398620 0.066197
vt 0.396862 0.066039
vt 0.391221 0.010759
vt 0.392362 0.011591
vt 0.390129 0.010135
vt 0.389379 0.011038
vt 0.386847 0.010291
vt 0.620966 0.074209
vt 0.617872 0.073337
vt 0.620028 0.073445
vt 0.506667 0.000000
vt 0.620966 0.038011
vt 0.000000 1.000000
vt 0.499040 0.063570
vt 0.236364 0.075036
vt 0.769001 0.716068
vt 0.716093 0.716068
vt 0.528557 0.768976
vt 0.620597 0.073337
vt 0.620643 0.070681
vt 0.277748 0.005031
vt 0.554652 0.075036
vt 0.624324 0.006676
vt 0.654467 0.043855
vt 0.624324 0.043855
vt 0.116689 0.000000
vt 0.518780 0.078219
vt 0.484614 0.078219
vt 0.548083 0.009809
vt 0.397110 0.068553
vt 0.620855 0.006676
vt 0.618080 0.040476
vt 0.618080 0.006676
vt 0.554652 0.005031
vt 0.581693 0.043798
vt 0.620855 0.042950
vt 0.273504 0.005031
vt 0.620632 0.015326
vt 0.620642 0.012664
vt 0.493862 0.012674
vt 0.594698 0.068488
vt 0.620966 0.037975
vt 0.620966 0.068481
vt 0.616768 0.074209
vt 0.581693 0.010186
vt 0.015513 0.756912
vt 0.070740 0.755431
vt 0.065213 0.756912
vt 0.484614 0.075036
vt 0.516450 0.075889
vt 0.484614 0.075889
vt 0.581049 0.043855
vt 0.580144 0.074275
vt 0.580144 0.043855
vt 0.341021 0.340952
vt 0.581049 0.077655
vt 0.654467 0.074275
vt 0.653561 0.043855
vt 0.654467 0.043855
vt 0.653561 0.077655
vt 0.015513 0.751386
vt 0.074786 0.751386
vt 0.236364 0.005031
vt 0.492550 0.037975
vt 0.392391 0.037975
vt 0.015513 0.755431
vt 0.513267 0.075036
vt 0.076267 0.696135
vt 0.519633 0.081402
vt 0.654467 0.006676
vt 0.617305 0.043855
vt 0.090022 1.000000
vt 1.000000 0.089928
vt 0.480000 0.089928
vt 0.547987 0.043516
vt 0.391824 0.063570
vt 0.618080 0.043855
vt 0.769001 0.340952
vt 0.396727 0.073337
vt 0.394010 0.009742
vt 0.716093 0.768976
vn 1.0000 -0.0000 0.0000
vn 0.0000 0.0000 1.0000
vn 0.7071 0.7071 0.0000
vn -0.3838 0.8967 -0.2207
vn -0.4454 0.8858 -0.1303
vn -0.8734 0.4866 0.0204
vn -0.6114 0.7647 -0.2035
vn -0.5104 0.8599 0.0112
vn -0.4995 0.8663 0.0018
vn -0.1383 0.9904 -0.0027
vn -0.1379 0.9904 0.0009
vn -0.0000 0.5000 -0.8660
vn 0.0001 0.1344 -0.9909
vn -0.0000 0.1305 -0.9914
vn 0.3015 0.9045 0.3015
vn 0.9914 0.1305 -0.0000
vn 0.6971 0.1672 0.6972
vn -0.1347 0.9909 0.0012
vn -0.1258 0.9921 0.0018
vn -0.0000 0.7071 0.7071
vn -0.7071 0.7071 0.0000
vn -0.0000 1.0000 0.0000
vn -1.0000 -0.0000 0.0000
vn -0.0462 0.9958 -0.0796
vn 0.0001 0.9909 -0.1345
vn -0.8749 0.4839 0.0203
vn -0.7643 0.6449 0.0049
vn -0.8726 0.4884 -0.0088
vn -0.5026 0.8644 -0.0167
vn -0.7004 0.1733 -0.6924
vn -0.5774 0.5774 -0.5774
vn -0.0000 0.7071 -0.7071
vn -0.8712 0.4908 -0.0092
vn -0.4686 0.8830 -0.0268
vn -0.1321 0.9912 -0.0061
vn -0.0000 0.0000 -1.0000
vn -0.5056 0.8627 0.0111
vn -0.4735 0.8806 0.0199
vn 0.0002 0.5033 -0.8641
vn -0.7071 -0.0000 -0.7071
vn -0.5076 0.8614 -0.0176
vn -0.1320 0.9912 -0.0063
vn 0.5886 0.5542 0.5885
vn -0.9108 0.3634 -0.1961
vn -0.9872 0.1592 0.0047
vn -0.1256 0.9921 0.0021
vn 0.1305 0.9914 0.0000
vn -0.0000 0.9914 0.1306
vn 0.0985 0.9903 0.0985
vn 0.3332 0.8820 0.3332
vn 0.8660 0.5000 0.0000
vn 0.5000 0.8660 0.0000
vn -0.9880 0.1541 0.0046
vn -0.1255 0.9918 -0.0245
vn -0.7168 0.5933 -0.3663
vn -0.6211 0.4116 -0.6669
vn -0.1383 0.9904 -0.0031
vn 0.5774 0.5774 0.5773
vn -0.5050 0.7668 -0.3962
vn 0.0002 0.8641 -0.5034
vn -0.8163 0.5047 -0.2809
vn -0.8887 0.3175 -0.3308
vn -0.0000 0.9914 -0.1306
vn -0.0000 0.8660 -0.5000
vn 0.7071 0.0000 0.7071
vn -0.0000 0.1306 0.9914
vn -0.0000 0.8660 0.5000
vn -0.0000 0.5000 0.8660
vn -0.9914 0.1305 -0.0000
vn -0.8620 0.5069 0.0009
usemtl Material.004
s off
f 1/1/1 2/2/1 3/3/1
f 4/4/1 5/5/1 6/6/1
f 7/7/1 3/3/1 2/2/1
f 8/8/1 9/9/1 10/10/1
f 10/10/1 11/11/1 12/12/1
f 12/12/1 8/8/1 10/10/1
f 5/5/1 13/13/1 6/6/1
f 14/14/1 15/15/1 16/16/1
f 17/17/1 18/18/1 19/19/1
f 20/20/1 21/21/1 22/22/1
f 23/23/1 24/24/1 25/25/1
f 26/26/1 27/27/1 28/28/1
f 18/18/1 6/6/1 13/13/1
f 15/15/1 3/3/1 7/7/1
f 14/14/1 12/12/1 15/15/1
f 17/17/1 29/29/1 18/18/1
f 20/20/1 4/4/1 21/21/1
f 26/26/1 1/1/1 27/27/1
f 21/21/1 10/10/1 9/9/1
f 17/30/2 30/31/2 29/32/2
f 4/4/1 11/11/1 21/21/1
f 1/1/1 31/33/1 27/27/1
f 6/6/1 25/25/1 4/4/1
f 23/34/2 32/35/2 33/36/2
f 34/37/1 35/38/1 36/39/1
f 37/40/2 38/41/2 39/42/2
f 34/37/1 36/39/1 31/33/1
f 25/25/1 40/43/1 11/11/1
f 18/18/1 23/23/1 25/25/1
f 12/12/1 34/37/1 15/15/1
f 41/44/2 42/45/2 43/46/2
f 29/32/2 44/47/2 23/34/2
f 3/3/1 34/37/1 1/1/1
f 11/11/1 35/38/1 34/37/1
f 23/34/2 44/47/2 32/35/2
f 1/1/1 34/37/1 31/33/1
f 4/4/1 25/25/1 11/11/1
f 41/44/2 37/40/2 42/45/2
f 25/25/1 24/24/1 40/43/1
f 23/23/1 33/36/1 24/24/1
f 11/11/1 40/43/1 35/38/1
f 29/32/2 30/31/2 44/47/2
f 6/6/1 18/18/1 25/25/1
f 37/40/2 41/44/2 38/41/2
f 17/30/2 45/48/2 30/31/2
f 10/10/1 21/21/1 11/11/1
f 12/12/1 11/11/1 34/37/1
f 18/18/1 29/29/1 23/23/1
f 3/3/1 15/15/1 34/37/1
s 1
f 46/49/3 47/50/4 48/51/5
f 49/52/6 50/53/7 51/54/8
f 52/55/9 53/56/10 54/57/11
f 55/58/12 56/59/13 57/60/14
f 58/61/15 59/62/16 60/63/17
f 61/64/18 62/65/3 63/66/19
f 64/67/2 65/68/20 66/69/20
f 67/70/21 68/71/22 69/72/21
f 37/73/23 70/74/23 42/75/23
f 71/76/3 72/77/3 61/64/18
f 73/78/24 74/79/25 66/80/20
f 75/81/26 76/82/27 77/83/28
f 52/55/9 78/84/29 53/56/10
f 79/85/30 80/86/31 81/87/32
f 82/88/33 83/89/27 84/90/34
f 78/84/29 85/91/34 86/92/35
f 87/93/2 64/67/2 66/69/20
f 88/94/36 31/95/36 36/96/36
f 75/81/26 89/97/37 90/98/38
f 55/58/12 91/99/39 56/59/13
f 92/100/40 93/101/23 94/102/23
f 95/103/41 84/90/34 96/104/42
f 97/105/3 46/49/3 48/51/5
f 98/106/43 60/63/17 59/62/16
f 5/5/1 20/20/1 99/107/3
f 100/108/44 101/109/45 79/110/30
f 75/81/26 95/111/41 89/97/37
f 39/42/2 64/67/2 87/93/2
f 102/112/3 53/113/10 103/114/3
f 104/115/46 105/116/3 106/117/3
f 96/104/42 107/118/38 104/119/46
f 108/120/47 109/121/48 110/122/49
f 86/123/35 62/65/3 111/124/3
f 9/9/1 22/22/1 21/21/1
f 112/125/50 113/126/51 114/127/52
f 67/128/21 101/109/45 115/129/53
f 8/8/1 14/14/1 116/130/3
f 2/2/1 26/26/1 111/131/3
f 51/132/8 117/133/54 118/134/18
f 92/100/40 94/102/23 119/135/40
f 68/71/22 70/136/22 81/137/32
f 105/138/3 20/20/1 22/22/1
f 113/139/36 92/140/40 119/141/40
f 120/142/55 50/53/7 100/108/44
f 121/143/56 100/108/44 79/110/30
f 71/76/3 61/64/18 122/144/57
f 97/105/3 48/51/5 73/78/24
f 73/78/24 66/80/20 65/145/20
f 38/41/2 45/48/2 64/67/2
f 86/123/35 103/114/3 53/113/10
f 92/100/40 123/146/23 93/101/23
f 97/105/3 65/145/20 124/147/58
f 74/148/25 125/149/59 126/150/60
f 41/44/2 30/31/2 38/41/2
f 96/151/42 71/76/3 122/144/57
f 105/116/3 117/152/54 127/153/3
f 128/154/36 92/140/40 59/155/36
f 55/156/12 126/150/60 91/157/39
f 99/107/3 20/20/1 127/158/3
f 19/19/1 46/159/3 97/160/3
f 46/159/3 5/5/1 99/107/3
f 111/131/3 26/26/1 103/161/3
f 49/52/6 107/162/38 83/163/27
f 7/7/1 16/16/1 15/15/1
f 75/81/26 90/98/38 76/82/27
f 78/84/29 86/92/35 53/56/10
f 75/81/26 77/83/28 115/129/53
f 84/90/34 83/89/27 107/118/38
f 63/164/19 89/165/37 61/166/18
f 13/13/1 19/19/1 18/18/1
f 85/91/34 76/167/27 90/168/38
f 116/130/3 14/14/1 71/169/3
f 9/9/1 116/130/3 106/170/3
f 22/22/1 106/170/3 105/138/3
f 50/171/7 47/172/4 117/133/54
f 121/143/56 129/173/61 130/174/62
f 48/175/5 125/176/59 73/177/24
f 48/178/5 120/179/55 129/180/61
f 120/142/55 130/174/62 129/173/61
f 104/115/46 116/181/3 96/151/42
f 121/182/56 56/59/13 91/99/39
f 74/79/25 131/183/20 66/80/20
f 89/165/37 122/184/57 61/166/18
f 87/93/2 66/69/20 131/185/20
f 67/70/21 128/186/22 58/187/15
f 58/187/15 132/188/22 68/71/22
f 133/189/63 126/150/60 134/190/64
f 72/191/3 14/14/1 16/16/1
f 124/192/58 45/48/2 17/30/65
f 93/193/66 58/194/15 60/195/17
f 101/109/45 75/81/26 115/129/53
f 46/49/3 99/196/3 47/50/4
f 55/197/23 37/73/23 39/198/23
f 135/199/67 110/122/49 109/121/48
f 91/157/39 125/149/59 121/200/56
f 79/85/30 81/87/32 56/59/13
f 94/201/68 112/202/50 135/203/67
f 124/204/58 19/19/1 97/160/3
f 110/122/49 114/205/52 108/120/47
f 99/196/3 117/152/54 47/50/4
f 93/193/66 98/206/43 94/201/68
f 16/16/1 62/207/3 72/191/3
f 88/208/69 77/83/28 136/209/70
f 49/52/6 82/210/33 101/109/45
f 95/103/41 96/104/42 122/184/57
f 98/106/43 59/62/16 113/126/51
f 86/92/35 90/168/38 63/164/19
f 82/88/33 84/90/34 95/103/41
f 77/211/28 85/91/34 78/84/29
f 81/87/32 57/60/14 56/59/13
f 137/212/21 115/129/53 88/208/69
f 136/213/70 78/84/29 52/55/9
f 100/108/44 130/174/62 120/142/55
f 121/143/56 125/176/59 129/173/61
f 48/175/5 129/173/61 125/176/59
f 48/178/5 47/214/4 120/179/55
f 135/199/67 112/215/50 110/122/49
f 124/204/58 17/17/65 19/19/1
f 110/122/49 112/215/50 114/205/52
f 102/216/36 52/217/36 54/218/36
f 131/219/23 134/220/23 87/221/23
f 138/222/23 109/223/23 139/224/23
f 134/220/23 39/198/23 87/221/23
f 69/72/21 81/137/32 80/225/31
f 62/207/3 2/2/1 111/131/3
f 135/226/23 119/135/40 94/102/23
f 108/227/36 138/228/36 139/229/36
f 114/230/36 119/141/40 138/228/36
f 52/217/36 27/231/36 136/232/36
f 103/161/3 28/28/1 102/233/3
f 79/110/30 69/234/21 80/235/31
f 31/95/36 136/232/36 27/231/36
f 104/119/46 51/132/8 118/134/18
f 102/216/36 28/236/36 52/217/36
f 131/219/23 133/237/23 134/220/23
f 138/222/23 135/226/23 109/223/23
f 134/220/23 55/197/23 39/198/23
f 135/226/23 138/222/23 119/135/40
f 108/227/36 114/230/36 138/228/36
f 114/230/36 113/139/36 119/141/40
f 52/217/36 28/236/36 27/231/36
f 88/94/36 36/96/36 137/238/36
f 105/138/3 127/158/3 20/20/1
f 46/159/3 13/13/1 5/5/1
f 9/9/1 8/8/1 116/130/3
f 72/191/3 71/169/3 14/14/1
f 62/207/3 7/7/1 2/2/1
f 103/161/3 26/26/1 28/28/1
f 41/44/2 43/46/2 32/35/2
f 37/73/23 57/239/23 70/74/23
f 67/70/21 58/187/15 68/71/22
f 49/52/6 100/108/44 50/53/7
f 124/192/58 65/68/20 45/48/2
f 49/52/6 51/54/8 107/162/38
f 104/115/46 106/117/3 116/181/3
f 121/143/56 130/174/62 100/108/44
f 7/7/1 62/207/3 16/16/1
f 133/189/63 74/148/25 126/150/60
f 51/132/8 50/171/7 117/133/54
f 93/193/66 123/240/20 58/194/15
f 64/67/2 45/48/2 65/68/20
f 49/52/6 83/163/27 82/210/33
f 97/105/3 73/78/24 65/145/20
f 75/81/26 82/210/33 95/111/41
f 96/151/42 116/181/3 71/76/3
f 88/208/69 115/129/53 77/83/28
f 77/211/28 76/167/27 85/91/34
f 31/95/36 88/94/36 136/232/36
f 13/13/1 46/159/3 19/19/1
f 128/154/36 140/241/40 92/140/40
f 74/79/25 133/242/63 131/183/20
f 104/119/46 107/118/38 51/132/8
f 93/193/66 60/195/17 98/206/43
f 89/165/37 95/103/41 122/184/57
f 63/164/19 90/168/38 89/165/37
f 102/112/3 54/243/11 53/113/10
f 39/42/2 38/41/2 64/67/2
f 100/108/44 49/52/6 101/109/45
f 104/115/46 118/244/18 105/116/3
f 68/71/22 132/188/22 70/136/22
f 108/120/47 139/245/22 109/121/48
f 137/212/21 67/128/21 115/129/53
f 105/116/3 118/244/18 117/152/54
f 121/182/56 79/85/30 56/59/13
f 61/64/18 72/77/3 62/65/3
f 99/196/3 127/153/3 117/152/54
f 79/110/30 101/109/45 69/234/21
f 55/197/23 57/239/23 37/73/23
f 81/87/32 70/246/36 57/60/14
f 91/157/39 126/150/60 125/149/59
f 136/213/70 77/211/28 78/84/29
f 58/61/15 128/247/1 59/62/16
f 92/100/40 140/241/40 123/146/23
f 55/156/12 134/190/64 126/150/60
f 67/70/21 137/248/21 128/186/22
f 2/2/1 1/1/1 26/26/1
f 67/128/21 69/234/21 101/109/45
f 41/44/2 44/47/2 30/31/2
f 113/139/36 59/155/36 92/140/40
f 96/104/42 84/90/34 107/118/38
f 5/5/1 4/4/1 20/20/1
f 74/148/25 73/249/24 125/149/59
f 120/142/55 47/250/4 50/53/7
f 9/9/1 106/170/3 22/22/1
f 112/125/50 98/106/43 113/126/51
f 101/109/45 82/210/33 75/81/26
f 69/72/21 68/71/22 81/137/32
f 8/8/1 12/12/1 14/14/1
f 86/92/35 85/91/34 90/168/38
f 38/41/2 30/31/2 45/48/2
f 94/201/68 98/206/43 112/202/50
f 58/187/15 123/251/20 132/188/22
f 86/123/35 111/124/3 103/114/3
f 86/123/35 63/66/19 62/65/3
f 41/44/2 32/35/2 44/47/2
