# Blender v3.0.0 OBJ File: ''
# www.blender.org
mtllib Wall.mtl
o å¹³é¢
v -5.000000 0.000002 -5.000000
v 5.000000 0.000002 -5.000000
v 5.000000 2.329321 -5.000000
v -5.000000 2.329321 -5.000000
v 7.500000 -0.000002 7.500000
v 7.500000 0.000002 -7.500000
v 7.500000 2.358418 -7.500000
v 7.500000 2.358414 7.500000
v -7.500000 0.000002 -7.500000
v -5.000000 -0.000002 5.000000
v 5.000000 -0.000002 5.000000
v -7.500000 -0.000002 7.500000
v -7.500000 2.358414 7.500000
v -7.500000 2.358418 -7.500000
v -5.000000 2.329317 5.000000
v 5.000000 2.329317 5.000000
vt 1.000000 1.000000
vt 0.000000 1.000000
vt 0.000000 1.000000
vt 1.000000 1.000000
vt 1.000000 0.000000
vt 1.000000 0.000000
vt 1.000000 0.000000
vt 0.000000 0.000000
vt 0.000000 0.000000
vt 0.000000 1.000000
vt 0.000000 0.000000
vt 0.000000 0.000000
vt 0.000000 0.000000
vt 0.000000 1.000000
vt 1.000000 1.000000
vt 0.000000 0.000000
vt 1.000000 0.000000
vt 1.000000 1.000000
vt 0.000000 0.000000
vt 0.000000 0.000000
vt 0.000000 0.000000
vt 0.000000 0.000000
vt 0.000000 0.000000
vt 0.000000 0.000000
vt 0.000000 0.000000
vn 0.0000 -0.0000 1.0000
vn 1.0000 0.0000 0.0000
vn 0.0000 -1.0000 -0.0000
vn 0.0000 1.0000 0.0000
vn -1.0000 -0.0000 0.0000
vn 0.0000 0.0000 -1.0000
vn 0.0000 0.9999 -0.0116
vn -0.0116 0.9999 0.0000
vn 0.0000 0.9999 0.0116
vn 0.0116 0.9999 0.0000
usemtl None
s 1
f 2/1/1 4/2/1 1/3/1
f 6/4/2 8/5/2 5/6/2
f 1/3/3 6/4/3 2/1/3
f 11/7/3 12/8/3 10/9/3
f 2/1/3 5/6/3 11/7/3
f 10/9/3 9/10/3 1/3/3
f 1/11/4 11/12/4 2/13/4
f 12/8/5 14/14/5 9/10/5
f 9/10/6 7/15/6 6/4/6
f 5/6/1 13/16/1 12/8/1
f 10/9/6 16/17/6 11/7/6
f 11/7/5 3/18/5 2/1/5
f 1/3/2 15/19/2 10/9/2
f 8/5/7 15/19/7 13/16/7
f 8/20/8 3/21/8 16/22/8
f 7/23/9 4/24/9 3/21/9
f 14/25/10 15/19/10 4/24/10
f 2/1/1 3/18/1 4/2/1
f 6/4/2 7/15/2 8/5/2
f 1/3/3 9/10/3 6/4/3
f 11/7/3 5/6/3 12/8/3
f 2/1/3 6/4/3 5/6/3
f 10/9/3 12/8/3 9/10/3
f 1/11/4 10/9/4 11/12/4
f 12/8/5 13/16/5 14/14/5
f 9/10/6 14/14/6 7/15/6
f 5/6/1 8/5/1 13/16/1
f 10/9/6 15/19/6 16/17/6
f 11/7/5 16/17/5 3/18/5
f 1/3/2 4/2/2 15/19/2
f 8/5/7 16/17/7 15/19/7
f 8/20/8 7/23/8 3/21/8
f 7/23/9 14/25/9 4/24/9
f 14/25/10 13/16/10 15/19/10
