# Blender v3.1.2 OBJ File: ''
# www.blender.org
mtllib down02.mtl
o down02_Plane.009
v -1.000000 -1.000000 1.110000
v -1.000000 -1.000000 -1.110000
v -1.000000 -0.890029 1.110000
v -1.110000 -0.890029 -1.110000
v -1.110000 -1.000000 -1.110000
v -1.000000 -0.890029 -1.110000
v -1.110000 -1.000000 1.110000
v -1.110000 -0.890029 1.110000
vt 0.170799 1.000000
vt 0.153722 0.689441
vt 0.170799 0.689441
vt 0.999991 0.327640
vt 0.982915 0.017081
vt 0.999991 0.017081
vt 0.017081 0.689441
vt 0.034162 1.000000
vt 0.017081 1.000000
vt 0.655280 0.017081
vt 0.672356 0.000000
vt 0.672356 0.017081
vt 0.017081 0.672360
vt 0.000000 0.361801
vt 0.017081 0.361801
vt 0.672356 0.672360
vt 0.655280 0.689441
vt 0.655280 0.672360
vt 0.153722 1.000000
vt 0.982915 0.327640
vt 0.034162 0.689441
vt 0.655280 0.000000
vt 0.000000 0.672360
vt 0.672356 0.689441
vn 0.5774 -0.5774 -0.5774
vn 0.5774 0.5774 0.5774
vn 0.5774 -0.5774 0.5774
vn -0.5774 -0.5774 0.5774
vn -0.5774 0.5774 -0.5774
vn -0.5774 -0.5774 -0.5774
vn 0.5774 0.5774 -0.5774
vn -0.5774 0.5774 0.5774
usemtl Material.001
s 1
f 2/1/1 3/2/2 1/3/3
f 7/4/4 4/5/5 5/6/6
f 6/7/7 8/8/8 3/9/2
f 3/10/2 7/11/4 1/12/3
f 1/13/3 5/14/6 2/15/1
f 2/16/1 4/17/5 6/18/7
f 2/1/1 6/19/7 3/2/2
f 7/4/4 8/20/8 4/5/5
f 6/7/7 4/21/5 8/8/8
f 3/10/2 8/22/8 7/11/4
f 1/13/3 7/23/4 5/14/6
f 2/16/1 5/24/6 4/17/5
