# Blender v3.1.2 OBJ File: ''
# www.blender.org
mtllib Map02.mtl
o Map.012_Plane.005
v -0.499999 0.099271 0.500000
v 0.500000 0.089271 0.500000
v 0.500000 0.099271 0.500000
v -0.500000 0.089271 0.500000
v -0.500000 0.002680 0.500001
v 0.500000 0.002679 0.500000
v 0.500000 0.010000 0.500000
v -0.500000 0.099271 0.334658
v -0.500000 0.089271 0.331979
v 0.500000 -0.000000 0.500000
v -0.500000 -0.000000 0.500001
v -0.499999 0.106591 0.500000
v -0.500000 0.109271 0.351979
v -0.500000 0.106591 0.341979
v -0.500000 0.020000 0.331979
v -0.500000 0.010000 0.500001
v -0.500000 0.020000 0.500001
v -0.500000 0.010000 0.329299
v -0.500000 0.002680 0.321979
v 0.500000 0.020000 0.500000
v -0.499999 0.109271 0.500000
v -0.500000 -0.000000 0.311979
v -0.500000 0.002680 -0.499999
v 0.500000 0.000000 -0.500000
v -0.500000 0.000000 -0.499999
v -0.500000 0.010000 -0.499999
v 0.500000 0.020000 -0.500000
v 0.500000 0.010000 -0.500000
v 0.500000 0.020000 -0.331978
v -0.500000 0.089271 -0.331977
v -0.500000 0.020000 -0.331977
v 0.500000 0.109271 -0.351978
v -0.500000 0.109271 -0.479999
v -0.500000 0.109271 -0.351977
v -0.500000 0.089271 -0.499999
v 0.500000 0.099271 -0.497321
v 0.500000 0.089271 -0.500000
v -0.500000 0.099271 -0.497320
v 0.500000 0.106591 -0.490000
v -0.500000 0.106591 -0.489999
v 0.500000 0.109271 -0.480000
v 0.500000 0.106591 -0.341978
v -0.500000 0.106591 -0.341977
v 0.500000 0.099271 -0.334658
v -0.500000 0.099271 -0.334657
v 0.500000 0.089271 -0.331978
v 0.500000 0.010000 -0.329299
v -0.500000 0.010000 -0.329298
v 0.500000 0.002679 -0.321978
v -0.500000 0.002680 -0.321977
v 0.500000 0.000000 -0.311978
v 0.500000 -0.000000 0.311978
v -0.500000 0.000000 -0.311977
v 0.500000 0.089271 0.331978
v 0.500000 0.020000 0.331978
v 0.500000 0.109271 0.351978
v 0.500000 0.099271 0.334657
v 0.500000 0.106591 0.341978
v 0.500000 0.106591 0.500000
v 0.500000 0.109271 0.500000
v 0.500000 0.002679 0.321978
v 0.500000 0.010000 0.329298
v -0.500000 0.020000 -0.499999
v 0.500000 0.002679 -0.500000
vt 0.249351 0.714557
vt 0.242641 0.043612
vt 0.249351 0.045410
vt 0.242641 0.714557
vt 0.184543 0.714557
vt 0.184542 0.043612
vt 0.189454 0.043612
vt 0.708915 0.285348
vt 0.694186 0.041848
vt 0.708913 0.037902
vt 0.182745 0.043612
vt 0.182745 0.714557
vt 0.683408 0.285348
vt 0.679459 0.067356
vt 0.683406 0.052630
vt 0.694188 0.285348
vt 0.810929 0.037901
vt 0.825659 0.285348
vt 0.810931 0.285348
vt 0.825656 0.033954
vt 0.836439 0.285348
vt 0.836436 0.023174
vt 0.841015 0.285338
vt 0.196164 0.043612
vt 0.196164 0.714557
vt 0.189454 0.714557
vt 0.679461 0.285348
vt 0.841056 0.005946
vt 0.248395 0.858999
vt 0.250303 0.141001
vt 0.250303 0.858999
vt 0.243184 0.858999
vt 0.236066 0.141001
vt 0.243184 0.141001
vt 0.263798 0.141001
vt 0.312777 0.858999
vt 0.263798 0.858999
vt 0.074631 0.148552
vt 0.166421 0.850939
vt 0.074631 0.851198
vt 0.186755 0.858999
vt 0.179385 0.142925
vt 0.186755 0.141001
vt 0.179385 0.858999
vt 0.173488 0.148181
vt 0.173488 0.850817
vt 0.166421 0.148293
vt 0.173488 0.141001
vt 0.067359 0.141301
vt 0.326272 0.858999
vt 0.320182 0.142925
vt 0.326272 0.148181
vt 0.320182 0.858999
vt 0.312777 0.141001
vt 0.256393 0.141001
vt 0.256393 0.858999
vt 0.250303 0.141001
vt 0.403087 0.141001
vt 0.410359 0.858069
vt 0.403087 0.857987
vt 0.511727 0.480291
vt 0.884902 0.642322
vt 0.884902 0.480291
vt 0.268671 0.043612
vt 0.314440 0.714557
vt 0.268671 0.714557
vt 0.077408 0.706530
vt 0.175858 0.051283
vt 0.175858 0.707389
vt 0.314440 0.043612
vt 0.321360 0.712759
vt 0.321360 0.043612
vt 0.327050 0.707848
vt 0.182745 0.707330
vt 0.182745 0.044529
vt 0.256060 0.714557
vt 0.254262 0.050322
vt 0.256060 0.057031
vt 0.254262 0.714557
vt 0.405719 0.713108
vt 0.398831 0.043671
vt 0.405719 0.043612
vt 0.256060 0.043612
vt 0.261751 0.714557
vt 0.256060 0.714557
vt 0.261751 0.043612
vt 0.173488 0.858999
vt 0.067359 0.851117
vt 0.236066 0.858999
vt 0.250303 0.858999
vt 0.410359 0.141083
vt 0.511727 0.642322
vt 0.077407 0.050424
vt 0.327051 0.043612
vt 0.398831 0.713167
vt 0.410112 0.698500
vt 0.398875 0.941087
vt 0.398875 0.687261
vt 0.108711 0.910326
vt 0.215034 0.652428
vt 0.215035 0.910325
vt 0.649855 0.268716
vt 0.664616 0.024663
vt 0.664616 0.264761
vt 0.383523 0.941087
vt 0.277182 0.683148
vt 0.383523 0.683148
vt 0.410112 0.941087
vt 0.414226 0.713851
vt 0.414226 0.941087
vt 0.241620 0.894976
vt 0.245733 0.683126
vt 0.245733 0.879627
vt 0.230384 0.906212
vt 0.241620 0.667777
vt 0.093361 0.652428
vt 0.108710 0.652428
vt 0.093361 0.914438
vt 0.082123 0.652428
vt 0.082124 0.925675
vt 0.077354 0.652439
vt 0.261831 0.941087
vt 0.261831 0.679034
vt 0.250592 0.941087
vt 0.250592 0.667797
vt 0.245822 0.941075
vt 0.245822 0.652428
vt 0.675420 0.035467
vt 0.679376 0.239194
vt 0.675420 0.253955
vt 0.547608 0.020707
vt 0.649855 0.020707
vt 0.532847 0.268716
vt 0.532847 0.016753
vt 0.522042 0.268716
vt 0.522042 0.005946
vt 0.248396 0.141001
vt 0.277182 0.941087
vt 0.230383 0.656540
vt 0.077309 0.943637
vt 0.679376 0.050228
vt 0.547608 0.268715
vn 0.0000 0.0000 1.0000
vn -1.0000 0.0000 0.0000
vn -0.9929 0.0083 -0.1185
vn -0.9967 0.0803 -0.0131
vn -0.9886 -0.0493 0.1426
vn -0.9886 -0.0812 -0.1271
vn -1.0000 0.0001 0.0000
vn -0.9891 0.1040 0.1041
vn -0.9929 -0.1185 -0.0083
vn -0.0000 0.0000 -1.0000
vn 0.7071 0.0004 -0.7071
vn 0.6557 -0.0002 -0.7550
vn 0.6691 0.1940 0.7174
vn 0.0000 0.1305 0.9914
vn 0.6806 0.7298 -0.0650
vn -0.0859 0.9881 -0.1276
vn -0.1413 0.9815 0.1292
vn -0.0000 0.1305 -0.9914
vn 0.6662 0.1846 -0.7226
vn 0.6789 0.0956 -0.7280
vn -0.0000 0.5000 -0.8660
vn 0.6656 0.4979 -0.5560
vn -0.0282 0.9349 -0.3539
vn 0.5523 0.8265 -0.1090
vn 0.6656 0.7304 0.1532
vn 0.0187 0.9238 0.3825
vn 0.6593 0.4212 0.6229
vn 0.0000 0.5000 0.8660
vn 0.6789 0.0959 0.7279
vn 0.2080 0.9779 -0.0208
vn 0.2081 0.8365 -0.5069
vn 0.0000 0.8660 0.5000
vn 0.1711 0.9767 0.1295
vn -0.0000 0.9914 -0.1305
vn -0.0000 0.9914 0.1305
vn -0.1782 0.6958 0.6958
vn 0.1413 0.9815 -0.1293
vn 0.0311 0.4970 -0.8672
vn 0.1657 0.8491 -0.5016
vn 0.1493 0.0088 0.9888
vn 0.1085 0.7051 0.7008
vn 0.0166 0.1176 0.9929
vn 0.1369 0.0000 0.9906
vn -0.0000 0.8660 -0.5000
vn 0.9882 0.1377 -0.0673
vn 1.0000 0.0000 0.0000
vn 0.9996 0.0173 -0.0231
vn 0.7136 -0.0025 0.7005
vn 0.7550 0.0857 -0.6501
vn 0.7543 0.0855 0.6510
vn 0.9888 -0.0088 0.1493
vn 0.9906 0.1353 -0.0177
vn 0.9967 0.0551 0.0600
vn 0.7505 0.4026 0.5241
vn 0.8464 0.5280 -0.0693
vn 0.7376 0.6269 0.2509
vn 0.7858 0.2576 0.5624
vn 0.7505 0.6552 -0.0866
vn 0.7071 -0.3538 -0.6122
vn 0.3816 -0.5120 0.7695
vn 0.3817 -0.0585 0.9224
vn 0.7071 -0.7071 0.0004
vn -0.9925 -0.0956 0.0755
vn -0.9966 0.0812 -0.0133
vn -0.9886 -0.0831 -0.1259
vn 0.7582 0.4969 -0.4221
vn 0.9839 -0.0215 0.1772
vn 0.7071 -0.7071 0.0005
vn -0.9908 0.1345 0.0177
usemtl Material.034
s off
f 1/1/1 2/2/1 3/3/1
f 1/1/1 4/4/1 2/2/1
f 5/5/1 6/6/1 7/7/1
f 4/8/2 8/9/2 9/10/2
f 10/11/1 5/5/1 11/12/1
f 12/13/3 13/14/4 14/15/5
f 1/16/2 14/15/6 8/9/2
f 15/17/2 4/8/2 9/10/2
f 15/17/2 16/18/2 17/19/2
f 18/20/2 5/21/2 16/18/2
f 19/22/2 11/23/2 5/21/2
f 20/24/1 4/4/1 17/25/1
f 5/5/1 7/7/1 16/26/1
f 7/7/1 17/25/1 16/26/1
f 7/7/1 20/24/1 17/25/1
f 4/8/7 1/16/7 8/9/7
f 10/11/1 6/6/1 5/5/1
f 12/13/3 21/27/8 13/14/4
f 1/16/2 12/13/9 14/15/6
f 15/17/2 17/19/2 4/8/2
f 15/17/2 18/20/2 16/18/2
f 18/20/2 19/22/2 5/21/2
f 19/22/2 22/28/2 11/23/2
f 20/24/1 2/2/1 4/4/1
s 1
f 23/29/10 24/30/11 25/31/10
f 26/32/10 27/33/12 28/34/12
f 29/35/13 30/36/14 31/37/14
f 32/38/15 33/39/16 34/40/17
f 35/41/18 36/42/19 37/43/20
f 38/44/21 39/45/22 36/42/19
f 40/46/23 41/47/24 39/48/22
f 34/40/17 42/49/25 32/38/15
f 43/50/26 44/51/27 42/52/25
f 45/53/28 46/54/29 44/51/27
f 31/37/14 47/55/30 29/35/13
f 48/56/28 49/57/31 47/55/30
f 50/58/32 51/59/33 49/60/31
f 52/61/34 53/62/35 22/63/34
f 15/64/18 54/65/18 55/66/18
f 21/67/36 56/68/37 13/69/16
f 9/70/18 57/71/38 54/65/18
f 8/72/21 58/73/39 57/71/38
f 14/74/23 56/68/37 58/75/39
f 21/76/36 59/77/40 60/78/41
f 12/79/42 3/3/43 59/77/40
f 22/80/34 61/81/44 52/82/34
f 19/83/44 62/84/21 61/85/44
f 18/86/21 55/66/18 62/84/21
f 29/35/13 46/54/29 30/36/14
f 32/38/15 41/47/24 33/39/16
f 35/41/18 38/44/21 36/42/19
f 38/44/21 40/87/23 39/45/22
f 40/46/23 33/39/16 41/47/24
f 34/40/17 43/88/26 42/49/25
f 43/50/26 45/53/28 44/51/27
f 45/53/28 30/36/14 46/54/29
f 63/89/10 37/43/20 27/33/12
f 31/37/14 48/56/28 47/55/30
f 48/56/28 50/90/32 49/57/31
f 50/58/32 53/91/35 51/59/33
f 52/61/34 51/92/33 53/62/35
f 15/64/18 9/70/18 54/65/18
f 21/67/36 60/93/41 56/68/37
f 9/70/18 8/72/21 57/71/38
f 8/72/21 14/94/23 58/73/39
f 14/74/23 13/69/16 56/68/37
f 21/76/36 12/79/42 59/77/40
f 12/79/42 1/1/1 3/3/43
f 22/80/34 19/95/44 61/81/44
f 19/83/44 18/86/21 62/84/21
f 18/86/21 15/64/18 55/66/18
f 58/96/45 3/97/46 57/98/47
f 29/99/48 37/100/49 46/101/50
f 35/102/2 45/103/2 38/104/2
f 2/105/46 55/106/46 54/107/46
f 57/98/47 2/105/46 54/107/46
f 59/108/51 56/109/52 60/110/53
f 42/111/54 41/112/55 32/113/56
f 44/114/57 39/115/58 42/111/54
f 37/100/49 44/114/57 46/101/50
f 29/99/48 28/116/59 27/117/59
f 47/118/60 64/119/59 28/116/59
f 49/120/61 24/121/62 64/119/59
f 55/106/46 7/122/46 62/123/46
f 62/123/46 6/124/46 61/125/46
f 61/125/46 10/126/46 52/127/46
f 43/128/63 33/129/64 40/130/65
f 45/103/2 40/130/65 38/104/2
f 35/102/2 31/131/2 30/132/2
f 31/131/2 26/133/2 48/134/2
f 48/134/2 23/135/2 50/136/2
f 50/58/2 25/31/2 53/91/2
f 23/29/10 28/34/12 64/137/12
f 23/29/10 64/137/12 24/30/11
f 26/32/10 63/89/10 27/33/12
f 63/89/10 35/41/18 37/43/20
f 58/96/45 59/108/51 3/97/46
f 29/99/48 27/117/59 37/100/49
f 35/102/2 30/132/2 45/103/2
f 2/105/46 20/138/46 55/106/46
f 57/98/47 3/97/46 2/105/46
f 59/108/51 58/96/45 56/109/52
f 42/111/54 39/115/58 41/112/55
f 44/114/57 36/139/66 39/115/58
f 37/100/49 36/139/66 44/114/57
f 29/99/48 47/118/60 28/116/59
f 47/118/60 49/120/61 64/119/59
f 49/120/61 51/140/67 24/121/68
f 55/106/46 20/138/46 7/122/46
f 62/123/46 7/122/46 6/124/46
f 61/125/46 6/124/46 10/126/46
f 43/128/63 34/141/69 33/129/64
f 45/103/2 43/128/63 40/130/65
f 35/102/2 63/142/2 31/131/2
f 31/131/2 63/142/2 26/133/2
f 48/134/2 26/133/2 23/135/2
f 50/58/2 23/29/2 25/31/2
f 23/29/10 26/32/10 28/34/12
