# Blender v3.0.0 OBJ File: ''
# www.blender.org
mtllib Map02.mtl
o Map.02_Plane.005
v -0.500000 -0.000000 -0.500000
v 0.499999 0.089271 -0.500000
v 0.500000 0.000000 -0.500000
v 0.497320 0.099271 -0.497321
v -0.500000 0.089271 -0.499999
v -0.500000 0.099271 -0.497320
v -0.500000 0.020000 0.331978
v 0.500000 0.089271 0.331978
v 0.500000 0.020000 0.331978
v 0.500000 0.020000 -0.331978
v -0.500000 0.089271 -0.331978
v -0.500000 0.020000 -0.331978
v -0.500000 0.109271 0.351978
v 0.480000 0.109271 0.480000
v 0.480000 0.109271 0.351978
v 0.479999 0.109271 -0.480000
v -0.500000 0.109271 -0.351978
v 0.479999 0.109271 -0.351978
v -0.500000 0.089271 0.500000
v 0.497321 0.099271 0.497320
v -0.500000 0.099271 0.497321
v 0.490000 0.106591 0.490000
v -0.500000 0.106591 0.490000
v -0.500000 0.109271 0.480000
v -0.500000 0.106591 0.341978
v 0.490000 0.106591 0.341978
v -0.500000 0.099271 0.334658
v 0.497320 0.099271 0.334657
v -0.500000 0.089271 0.331978
v 0.497320 0.099271 -0.334658
v -0.500000 0.099271 -0.334657
v 0.489999 0.106591 -0.341978
v -0.500000 0.106591 -0.341978
v -0.500000 0.106591 -0.490000
v -0.500000 0.109271 -0.480000
v 0.489999 0.106591 -0.490000
v -0.500000 -0.000000 0.500000
v 0.500000 0.089271 0.500000
v -0.500000 0.010000 0.329299
v 0.500000 0.010000 0.329298
v -0.500000 0.002679 0.321978
v 0.500000 0.002680 0.321978
v -0.500000 -0.000000 0.311978
v 0.500000 0.000000 -0.311978
v -0.500000 0.002679 -0.321978
v -0.500000 -0.000000 -0.311978
v 0.500000 0.002680 -0.321978
v -0.500000 0.010000 -0.329298
v 0.500000 0.010000 -0.329299
v 0.500000 0.000000 0.311978
v 0.500000 0.000000 0.500000
v 0.500000 0.089271 -0.331978
vt 0.409164 0.957993
vt 0.341118 0.178778
vt 0.409164 0.042007
vt 0.328666 0.191211
vt 0.328213 0.957129
vt 0.312799 0.956900
vt 0.059732 0.047451
vt 0.172887 0.807209
vt 0.127424 0.876939
vt 0.128262 0.120417
vt 0.118450 0.953302
vt 0.060092 0.950011
vt 0.165449 0.042447
vt 0.302267 0.786256
vt 0.204025 0.779529
vt 0.306053 0.212116
vt 0.161247 0.956267
vt 0.207922 0.218784
vt 0.332110 0.044033
vt 0.324893 0.807475
vt 0.316735 0.044088
vt 0.313261 0.796378
vt 0.302534 0.044175
vt 0.289079 0.044281
vt 0.152069 0.043196
vt 0.194162 0.787976
vt 0.137947 0.044009
vt 0.183930 0.796988
vt 0.122685 0.044919
vt 0.187479 0.200526
vt 0.133730 0.954390
vt 0.197974 0.210007
vt 0.147862 0.955365
vt 0.298554 0.956654
vt 0.285058 0.956398
vt 0.317110 0.202065
vt 0.413660 0.044033
vt 0.336981 0.819148
vt 0.045643 0.048552
vt 0.112889 0.889452
vt 0.032012 0.049615
vt 0.097260 0.898016
vt 0.018337 0.050671
vt 0.081525 0.097514
vt 0.032772 0.948049
vt 0.017941 0.946992
vt 0.097977 0.099489
vt 0.046454 0.949026
vt 0.113641 0.108015
vt 0.507377 0.683093
vt 0.883256 0.447655
vt 0.883663 0.682441
vt 0.413660 0.957553
vt 0.176609 0.190702
vt 0.080754 0.899963
vt 0.506970 0.448307
vn 0.0000 0.0000 -1.0000
vn -0.0000 0.2588 -0.9659
vn -0.0838 0.1301 -0.9879
vn 0.6972 0.1672 -0.6971
vn 0.6789 0.0959 -0.7280
vn 0.6789 0.0959 0.7280
vn 0.0000 0.1305 0.9914
vn -0.1413 0.9815 -0.1292
vn 0.0989 0.9950 0.0128
vn -0.0427 0.9942 -0.0989
vn -0.0427 0.9942 -0.0988
vn -0.1413 0.9815 0.1292
vn 0.5886 0.5542 0.5885
vn -0.0346 0.6422 0.7658
vn 0.1652 0.9226 0.3485
vn -0.2123 0.8463 0.4886
vn -0.2123 0.8463 -0.4886
vn 0.2035 0.9015 -0.3819
vn -0.0466 0.4995 -0.8651
vn 0.5885 0.5542 -0.5886
vn -0.0000 0.1305 -0.9914
vn 0.5886 0.5543 0.5885
vn -0.0311 0.4970 0.8672
vn -0.1657 0.8491 0.5016
vn -0.1657 0.8589 -0.4846
vn -0.0859 0.9881 -0.1277
vn -0.1369 0.7005 -0.7004
vn -0.0000 -0.0000 1.0000
vn 0.6971 0.1672 0.6972
vn -0.7703 0.3188 -0.5523
vn 0.6532 0.3786 -0.6557
vn -0.7703 0.5523 -0.3189
vn 0.6532 0.6557 -0.3786
vn -0.0838 0.9880 -0.1301
vn 0.0838 0.9880 0.1301
vn -0.0000 0.8660 0.5000
vn -0.0000 0.9914 0.1305
vn 0.6532 0.6557 0.3786
vn 0.0000 0.5000 0.8660
vn 0.6532 0.3786 0.6557
vn 0.0838 0.9880 -0.1301
vn 0.7818 0.5847 -0.2166
vn 0.7071 0.0000 0.7071
vn 1.0000 0.0000 -0.0000
vn 0.6971 0.1672 0.6971
vn 0.9929 0.1191 -0.0000
usemtl Material.002
s off
f 1/1/1 2/2/1 3/3/1
f 4/4/2 5/5/2 6/6/2
f 1/1/1 5/5/1 2/2/1
f 4/4/2 2/2/2 5/5/2
s 1
f 7/7/3 8/8/4 9/9/5
f 10/10/6 11/11/7 12/12/7
f 13/13/8 14/14/9 15/15/10
f 16/16/11 17/17/12 18/18/9
f 19/19/7 20/20/13 21/21/14
f 21/21/14 22/22/15 23/23/16
f 23/23/16 14/14/9 24/24/12
f 15/15/10 25/25/17 13/13/8
f 26/26/18 27/27/19 25/25/17
f 28/28/20 29/29/21 27/27/19
f 11/11/7 30/30/22 31/31/23
f 31/31/23 32/32/15 33/33/24
f 33/33/24 18/18/9 17/17/12
f 16/16/11 34/34/25 35/35/26
f 36/36/18 6/6/27 34/34/25
f 37/37/28 38/38/29 19/19/7
f 9/9/5 39/39/30 7/7/3
f 40/40/31 41/41/32 39/39/30
f 42/42/33 43/43/34 41/41/32
f 44/44/35 45/45/36 46/46/37
f 47/47/38 48/48/39 45/45/36
f 49/49/40 12/12/7 48/48/39
f 46/50/37 50/51/41 44/52/35
f 28/28/20 22/22/15 20/20/13
f 32/32/15 4/4/42 36/36/18
f 51/53/43 42/42/33 40/40/31
f 20/20/13 8/8/4 28/28/20
f 22/22/15 15/15/10 14/14/9
f 49/49/40 47/47/38 3/3/44
f 4/4/42 52/54/45 2/2/46
f 36/36/18 18/18/9 32/32/15
f 7/7/3 29/29/21 8/8/4
f 10/10/6 52/54/45 11/11/7
f 13/13/8 24/24/12 14/14/9
f 16/16/11 35/35/26 17/17/12
f 19/19/7 38/38/29 20/20/13
f 21/21/14 20/20/13 22/22/15
f 23/23/16 22/22/15 14/14/9
f 15/15/10 26/26/18 25/25/17
f 26/26/18 28/28/20 27/27/19
f 28/28/20 8/8/4 29/29/21
f 11/11/7 52/54/45 30/30/22
f 31/31/23 30/30/22 32/32/15
f 33/33/24 32/32/15 18/18/9
f 16/16/11 36/36/18 34/34/25
f 36/36/18 4/4/42 6/6/27
f 37/37/28 51/53/43 38/38/29
f 9/9/5 40/40/31 39/39/30
f 40/40/31 42/42/33 41/41/32
f 42/42/33 50/55/41 43/43/34
f 44/44/35 47/47/38 45/45/36
f 47/47/38 49/49/40 48/48/39
f 49/49/40 10/10/6 12/12/7
f 46/50/37 43/56/34 50/51/41
f 28/28/20 26/26/18 22/22/15
f 32/32/15 30/30/22 4/4/42
f 9/9/5 8/8/4 38/38/29
f 51/53/43 50/55/41 42/42/33
f 40/40/31 9/9/5 51/53/43
f 9/9/5 38/38/29 51/53/43
f 20/20/13 38/38/29 8/8/4
f 22/22/15 26/26/18 15/15/10
f 3/3/44 2/2/46 10/10/6
f 2/2/46 52/54/45 10/10/6
f 47/47/38 44/44/35 3/3/44
f 3/3/44 10/10/6 49/49/40
f 4/4/42 30/30/22 52/54/45
f 36/36/18 16/16/11 18/18/9
