# Blender v3.1.2 OBJ File: 'Map.blend'
# www.blender.org
mtllib Map03.mtl
o Map.03_Plane.027
v -0.499999 0.000000 0.500001
v 0.500000 -0.000000 -0.500001
v -0.500000 0.000000 -0.499999
v 0.500001 -0.000000 0.499999
v -0.500000 0.109271 -0.500000
v 0.500001 0.109271 0.480000
v 0.500001 0.089271 0.499999
v 0.500001 0.106591 0.490000
v 0.500001 0.099271 0.497320
v -0.499999 0.109271 0.351979
v -0.499999 0.089271 0.331979
v -0.499999 0.106591 0.341979
v -0.499999 0.099271 0.334658
v -0.499999 0.089271 0.500001
v -0.499999 0.109271 0.480000
v -0.499999 0.099271 0.497321
v -0.499999 0.106591 0.490000
v -0.500000 0.109271 -0.351977
v -0.500000 0.089271 -0.331977
v -0.500000 0.106591 -0.341977
v -0.500000 0.099271 -0.334657
v 0.500000 0.109271 -0.500000
v 0.500000 0.109271 -0.351979
v 0.500000 0.089271 -0.331979
v 0.500000 0.106591 -0.341979
v 0.500000 0.099271 -0.334658
v 0.500001 0.109271 0.351977
v 0.500001 0.089271 0.331977
v 0.500001 0.106591 0.341977
v 0.500001 0.099271 0.334657
v -0.500000 0.020000 0.331979
v -0.500000 0.000000 0.311979
v -0.500000 0.010000 0.329299
v -0.500000 0.002680 0.321979
v 0.500000 -0.000000 0.311977
v 0.500000 0.020000 0.331977
v 0.500000 0.002679 0.321977
v 0.500000 0.010000 0.329298
v -0.500000 0.000000 -0.311977
v -0.500000 0.020000 -0.331977
v -0.500000 0.002680 -0.321977
v -0.500000 0.010000 -0.329298
v 0.500000 0.020000 -0.331979
v 0.500000 -0.000000 -0.311979
v 0.500000 0.010000 -0.329299
v 0.500000 0.002679 -0.321979
vt 0.408976 0.921925
vt 0.333578 0.077324
vt 0.408976 0.077324
vt 0.318837 0.077408
vt 0.333578 0.921925
vt 0.318837 0.922009
vt 0.089418 0.113866
vt 0.142913 0.886134
vt 0.089417 0.886134
vt 0.078497 0.077824
vt 0.137003 0.922426
vt 0.078497 0.922426
vt 0.183349 0.885905
vt 0.297662 0.113637
vt 0.297662 0.885905
vt 0.289354 0.077574
vt 0.181227 0.922176
vt 0.181227 0.077574
vt 0.169871 0.113714
vt 0.183350 0.113637
vt 0.169870 0.885982
vt 0.156392 0.113790
vt 0.156391 0.886058
vt 0.142914 0.113866
vt 0.137004 0.077824
vt 0.151745 0.922342
vt 0.151745 0.077741
vt 0.166486 0.922259
vt 0.166486 0.077658
vt 0.304096 0.922092
vt 0.289355 0.922176
vt 0.304096 0.077491
vt 0.382049 0.113637
vt 0.075939 0.113942
vt 0.075938 0.886210
vt 0.062461 0.114019
vt 0.062460 0.886287
vt 0.048982 0.114095
vt 0.034274 0.078074
vt 0.049015 0.922593
vt 0.034274 0.922676
vt 0.049015 0.077991
vt 0.063756 0.922509
vt 0.063756 0.077908
vt 0.509709 0.486938
vt 0.888541 0.651426
vt 0.888541 0.486938
vt 0.382049 0.885906
vt 0.048981 0.886363
vt 0.509709 0.651426
vn 0.0000 -0.0000 1.0000
vn 0.0000 0.2588 0.9659
vn 0.0000 0.2589 0.9659
vn 0.0838 0.1301 0.9880
vn 0.0000 0.1305 0.9914
vn -0.0000 0.1305 -0.9914
vn -0.1413 0.9815 0.1292
vn 0.0920 0.1141 -0.9892
vn -0.0799 0.2340 -0.9690
vn 0.1413 0.9815 -0.1293
vn -0.0859 0.9881 -0.1276
vn 0.2123 0.8463 0.4887
vn 0.1413 0.9815 0.1292
vn 0.0185 0.9238 0.3825
vn 0.0466 0.4995 0.8651
vn 0.0000 0.5000 0.8660
vn 0.0311 0.4970 -0.8672
vn -0.0000 0.5000 -0.8660
vn 0.1657 0.8491 -0.5016
vn -0.0282 0.9349 -0.3539
vn 0.1657 0.8589 0.4846
vn 0.0859 0.9881 0.1276
vn 0.1369 0.7005 0.7005
vn -0.0000 0.0000 -1.0000
vn 0.7703 0.3188 0.5523
vn 0.7703 0.5523 0.3189
vn 0.0000 0.8660 0.5000
vn 0.0838 0.9880 0.1301
vn 0.0000 0.9914 -0.1305
vn -0.0000 0.8660 -0.5000
vn 0.0000 0.9914 0.1305
vn 0.0000 0.7071 0.7071
usemtl Material.003
s off
f 4/1/1 14/2/1 1/3/1
f 16/4/2 7/5/2 9/6/2
f 4/1/1 7/5/1 14/2/1
f 16/4/3 14/2/3 7/5/3
s 1
f 43/7/4 19/8/5 40/9/5
f 31/10/6 28/11/6 36/12/6
f 18/13/7 22/14/8 5/15/9
f 15/16/7 27/17/10 10/18/11
f 18/13/7 25/19/12 23/20/13
f 20/21/14 26/22/15 25/19/12
f 21/23/16 24/24/5 26/22/15
f 11/25/6 30/26/17 28/11/6
f 13/27/18 29/28/19 30/26/17
f 12/29/20 27/17/10 29/28/19
f 15/16/7 8/30/21 6/31/22
f 17/32/14 9/6/23 8/30/21
f 2/33/24 5/15/9 22/14/8
f 40/9/5 45/34/25 43/7/4
f 42/35/16 46/36/26 45/34/25
f 41/37/27 44/38/28 46/36/26
f 32/39/29 37/40/30 35/41/29
f 34/42/30 38/43/18 37/40/30
f 33/44/18 36/12/6 38/43/18
f 35/45/29 39/46/31 32/47/29
f 43/7/4 24/24/5 19/8/5
f 31/10/6 11/25/6 28/11/6
f 18/13/7 23/20/13 22/14/8
f 15/16/7 6/31/22 27/17/10
f 18/13/7 20/21/14 25/19/12
f 20/21/14 21/23/16 26/22/15
f 21/23/16 19/8/5 24/24/5
f 11/25/6 13/27/18 30/26/17
f 13/27/18 12/29/20 29/28/19
f 12/29/20 10/18/11 27/17/10
f 15/16/7 17/32/14 8/30/21
f 17/32/14 16/4/32 9/6/23
f 2/33/24 3/48/24 5/15/9
f 40/9/5 42/35/16 45/34/25
f 42/35/16 41/37/27 46/36/26
f 41/37/27 39/49/31 44/38/28
f 32/39/29 34/42/30 37/40/30
f 34/42/30 33/44/18 38/43/18
f 33/44/18 31/10/6 36/12/6
f 35/45/29 44/50/28 39/46/31
