# Blender v3.1.2 OBJ File: ''
# www.blender.org
mtllib Map03.mtl
o Map.03_Plane.027
v 19.999960 0.000003 -20.000040
v 20.000040 3.570837 19.999960
v 20.000040 -0.000003 19.999960
v 19.892841 3.970837 19.999960
v 19.999960 3.570843 -20.000040
v 19.892799 3.970843 -20.000040
v -13.279160 0.800003 -20.000000
v -13.279080 3.570837 20.000000
v -13.279080 0.799997 20.000000
v 13.279160 0.799997 20.000000
v 13.279080 3.570843 -20.000040
v 13.279080 0.800003 -20.000000
v -14.079080 4.370837 20.000000
v -20.000000 4.370843 -20.000000
v -20.000000 4.370837 20.000000
v 19.199999 4.370837 19.999960
v 14.079080 4.370843 -20.000040
v 14.079160 4.370837 19.999960
v -13.679160 4.263643 -20.000000
v -14.079160 4.370843 -20.000000
v -13.679080 4.263637 20.000000
v -13.386320 3.970843 -20.000000
v -13.386280 3.970837 20.000000
v -13.279160 3.570843 -20.000000
v 13.279160 3.570837 19.999960
v 13.386280 3.970843 -20.000040
v 13.386320 3.970837 19.999960
v 13.679080 4.263643 -20.000040
v 13.679160 4.263637 19.999960
v 19.600000 4.263643 -20.000040
v 19.199999 4.370843 -20.000040
v 19.600000 4.263637 19.999960
v -20.000040 0.000003 -20.000000
v -13.171960 0.400003 -20.000000
v -13.171920 0.399997 20.000000
v -12.879160 0.107163 -20.000000
v -12.879080 0.107197 20.000000
v -12.479160 0.000003 -20.000000
v 12.479160 -0.000003 20.000000
v 12.879080 0.107163 -20.000000
v 12.479080 0.000003 -20.000000
v 12.879160 0.107197 20.000000
v 13.171920 0.400003 -20.000000
v 13.171960 0.399997 20.000000
v -12.479080 -0.000003 20.000000
v -19.999960 -0.000003 20.000000
vt 0.408976 0.921925
vt 0.333578 0.077324
vt 0.408976 0.077324
vt 0.318837 0.077408
vt 0.333578 0.921925
vt 0.318837 0.922009
vt 0.089418 0.113866
vt 0.142913 0.886134
vt 0.089417 0.886134
vt 0.078497 0.077824
vt 0.137003 0.922426
vt 0.078497 0.922426
vt 0.183349 0.885905
vt 0.297662 0.113637
vt 0.297662 0.885905
vt 0.289354 0.077574
vt 0.181227 0.922176
vt 0.181227 0.077574
vt 0.169871 0.113714
vt 0.183350 0.113637
vt 0.169870 0.885982
vt 0.156392 0.113790
vt 0.156391 0.886058
vt 0.142914 0.113866
vt 0.137004 0.077824
vt 0.151745 0.922342
vt 0.151745 0.077741
vt 0.166486 0.922259
vt 0.166486 0.077658
vt 0.304096 0.922092
vt 0.289355 0.922176
vt 0.304096 0.077491
vt 0.382049 0.113637
vt 0.075939 0.113942
vt 0.075938 0.886210
vt 0.062461 0.114019
vt 0.062460 0.886287
vt 0.048982 0.114095
vt 0.034274 0.078074
vt 0.049015 0.922593
vt 0.034274 0.922676
vt 0.049015 0.077991
vt 0.063756 0.922509
vt 0.063756 0.077908
vt 0.509709 0.486938
vt 0.888541 0.651426
vt 0.888541 0.486938
vt 0.382049 0.885906
vt 0.048981 0.886363
vt 0.509709 0.651426
vn 1.0000 0.0000 -0.0000
vn 0.9659 0.2588 -0.0000
vn 0.9659 0.2589 -0.0000
vn 0.9880 0.1301 -0.0838
vn 0.9914 0.1305 -0.0000
vn -0.9914 0.1305 0.0000
vn 0.1292 0.9815 0.1413
vn -0.9892 0.1141 -0.0920
vn -0.9690 0.2340 0.0796
vn -0.1293 0.9815 -0.1413
vn -0.1276 0.9881 0.0859
vn 0.4886 0.8463 -0.2123
vn 0.1292 0.9815 -0.1413
vn 0.3825 0.9238 -0.0185
vn 0.8651 0.4995 -0.0466
vn 0.8660 0.5000 -0.0000
vn -0.8672 0.4970 -0.0311
vn -0.8660 0.5000 0.0000
vn -0.5016 0.8491 -0.1657
vn -0.3539 0.9349 0.0282
vn 0.4846 0.8589 -0.1657
vn 0.1276 0.9881 -0.0859
vn 0.7004 0.7005 -0.1369
vn -1.0000 0.0000 0.0000
vn 0.5523 0.3188 -0.7703
vn 0.3189 0.5523 -0.7703
vn 0.5000 0.8660 -0.0000
vn 0.1301 0.9880 -0.0838
vn -0.1305 0.9914 -0.0000
vn -0.5000 0.8660 0.0000
vn 0.1305 0.9914 -0.0000
vn 0.7071 0.7072 -0.0000
usemtl Material.003
s off
f 1/1/1 2/2/1 3/3/1
f 4/4/2 5/5/2 6/6/2
f 1/1/1 5/5/1 2/2/1
f 4/4/3 2/2/3 5/5/3
s 1
f 7/7/4 8/8/5 9/9/5
f 10/10/6 11/11/6 12/12/6
f 13/13/7 14/14/8 15/15/9
f 16/16/7 17/17/10 18/18/11
f 13/13/7 19/19/12 20/20/13
f 21/21/14 22/22/15 19/19/12
f 23/23/16 24/24/5 22/22/15
f 25/25/6 26/26/17 11/11/6
f 27/27/18 28/28/19 26/26/17
f 29/29/20 17/17/10 28/28/19
f 16/16/7 30/30/21 31/31/22
f 32/32/14 6/6/23 30/30/21
f 33/33/24 15/15/9 14/14/8
f 9/9/5 34/34/25 7/7/4
f 35/35/16 36/36/26 34/34/25
f 37/37/27 38/38/28 36/36/26
f 39/39/29 40/40/30 41/41/29
f 42/42/30 43/43/18 40/40/30
f 44/44/18 12/12/6 43/43/18
f 41/45/29 45/46/31 39/47/29
f 7/7/4 24/24/5 8/8/5
f 10/10/6 25/25/6 11/11/6
f 13/13/7 20/20/13 14/14/8
f 16/16/7 31/31/22 17/17/10
f 13/13/7 21/21/14 19/19/12
f 21/21/14 23/23/16 22/22/15
f 23/23/16 8/8/5 24/24/5
f 25/25/6 27/27/18 26/26/17
f 27/27/18 29/29/20 28/28/19
f 29/29/20 18/18/11 17/17/10
f 16/16/7 32/32/14 30/30/21
f 32/32/14 4/4/32 6/6/23
f 33/33/24 46/48/24 15/15/9
f 9/9/5 35/35/16 34/34/25
f 35/35/16 37/37/27 36/36/26
f 37/37/27 45/49/31 38/38/28
f 39/39/29 42/42/30 40/40/30
f 42/42/30 44/44/18 43/43/18
f 44/44/18 10/10/6 12/12/6
f 41/45/29 38/50/28 45/46/31
