# Blender v3.1.2 OBJ File: ''
# www.blender.org
mtllib side03.mtl
o side03_Plane.006
v 1.000000 -1.000000 -1.110000
v 1.110000 -1.000000 -1.000000
v 1.000000 -1.000000 -1.000000
v 1.110000 -1.000000 -1.110000
v 1.110000 -0.890029 -1.110000
v 1.000000 1.109971 -1.110000
v 1.000000 1.109971 -1.000000
v 1.110000 1.109971 -1.110000
v 1.110000 1.109971 -1.000000
vt 0.327640 0.344720
vt 0.344720 0.361801
vt 0.327640 0.361801
vt 0.409902 0.689441
vt 0.392821 0.982924
vt 0.392821 0.689441
vt 0.361797 0.361801
vt 0.655280 0.344720
vt 0.655280 0.361801
vt 0.689432 0.689441
vt 0.982915 0.672360
vt 0.982915 0.689441
vt 0.017081 0.017081
vt 0.000000 0.000000
vt 0.017081 0.000000
vt 0.290337 0.982924
vt 0.273256 0.689441
vt 0.290337 0.689441
vt 0.344720 0.344720
vt 0.672356 0.344720
vt 0.999991 0.672360
vt 0.999991 0.689441
vt 0.409902 0.982924
vt 0.361797 0.344720
vt 0.689432 0.672360
vt 0.000000 0.017081
vt 0.273256 0.982924
vn -0.5774 -0.5774 -0.5774
vn 0.0000 -0.7071 0.7071
vn -0.5774 -0.5774 0.5774
vn -0.5773 0.5774 -0.5774
vn 0.0000 0.0000 -1.0000
vn 0.5773 0.5774 -0.5774
vn 1.0000 0.0000 0.0000
vn -0.5774 0.5773 0.5774
vn 0.5774 0.5773 0.5774
vn 0.0000 -0.7071 -0.7071
usemtl Material.001
s 1
f 1/1/1 2/2/2 3/3/3
f 3/4/3 6/5/4 1/6/1
f 6/7/4 5/8/5 1/9/1
f 8/10/6 2/11/7 5/12/7
f 7/13/8 8/14/6 6/15/4
f 9/16/9 3/17/3 2/18/2
f 1/1/1 4/19/10 2/2/2
f 1/9/1 5/8/5 4/20/10
f 2/21/7 4/22/7 5/12/7
f 3/4/3 7/23/8 6/5/4
f 6/7/4 8/24/6 5/8/5
f 8/10/6 9/25/9 2/11/7
f 7/13/8 9/26/9 8/14/6
f 9/16/9 7/27/8 3/17/3
