# Blender v3.1.2 OBJ File: 'Map.blend'
# www.blender.org
mtllib Map019.mtl
o Map.019_Plane.041
v -0.500001 0.000000 -0.500000
v 0.500000 -0.000000 0.500000
v 0.499999 0.000000 -0.500000
v -0.500000 -0.000000 0.500000
v -0.500001 0.089271 0.500000
v -0.500001 0.109271 0.480000
v -0.500001 0.099271 0.497321
v -0.500001 0.106591 0.490000
v 0.500000 0.109271 0.480000
v 0.500000 0.089271 0.500000
v 0.500000 0.106591 0.490000
v 0.500000 0.099271 0.497320
v 0.499999 0.089271 -0.500000
v 0.499999 0.109271 -0.500000
v 0.499999 0.099271 -0.500000
v 0.499999 0.106591 -0.500000
v -0.500001 0.109271 -0.500000
v -0.500001 0.089271 -0.500000
v -0.500001 0.106591 -0.500000
v -0.500001 0.099271 -0.500000
v 0.499999 0.053953 -0.500000
vt 0.396012 0.378630
vt 0.366382 0.046718
vt 0.396012 0.046718
vt 0.432280 0.046718
vt 0.450188 0.378630
vt 0.432280 0.378630
vt 0.033845 0.378630
vt 0.031119 0.046718
vt 0.033845 0.046718
vt 0.501332 0.378630
vt 0.497925 0.046718
vt 0.501332 0.046718
vt 0.468548 0.046718
vt 0.497925 0.378630
vt 0.468548 0.378630
vt 0.468548 0.378630
vt 0.465229 0.046718
vt 0.468548 0.046718
vt 0.465229 0.378630
vt 0.461910 0.046718
vt 0.360633 0.050037
vt 0.359743 0.371992
vt 0.359743 0.053356
vt 0.363063 0.047607
vt 0.360633 0.375311
vt 0.363063 0.377740
vt 0.461910 0.378630
vt 0.366382 0.378630
vt 0.031119 0.378630
vt 0.413920 0.046718
vt 0.425642 0.046718
vt 0.425642 0.378630
vt 0.037252 0.378630
vt 0.037252 0.046718
vt 0.353162 0.046718
vt 0.356453 0.378630
vt 0.353162 0.378630
vt 0.431391 0.050037
vt 0.432280 0.371992
vt 0.431391 0.375311
vt 0.428961 0.047607
vt 0.428961 0.377740
vt 0.396012 0.378630
vt 0.396012 0.046718
vt 0.356453 0.046718
vt 0.432280 0.053356
vn -1.0000 0.0000 0.0000
vn -0.0000 0.0000 -1.0000
vn 0.0000 0.7071 0.7071
vn 0.0000 0.2588 0.9659
vn 0.0000 0.0000 1.0000
vn 1.0000 -0.0000 -0.0000
vn 0.0000 0.9914 0.1305
vn 0.8575 0.4970 0.1332
vn 0.6789 0.7280 0.0958
vn 0.5774 0.5774 -0.5773
vn -0.0000 0.7071 -0.7071
vn 0.8944 -0.0000 -0.4472
vn 0.0000 0.9659 0.2588
usemtl Material.020
s off
f 4/1/1 18/2/1 1/3/1
f 1/4/2 21/5/2 3/6/2
f 8/7/3 12/8/3 11/9/3
f 7/10/4 10/11/4 12/12/4
f 2/13/5 5/14/5 4/15/5
f 16/16/2 20/17/2 19/18/2
f 15/19/2 18/20/2 20/17/2
f 19/21/1 6/22/1 17/23/1
f 20/24/1 8/25/1 19/21/1
f 18/2/1 7/26/1 20/24/1
f 21/5/2 18/20/2 13/27/2
f 4/1/1 5/28/1 18/2/1
f 1/4/2 18/20/2 21/5/2
f 8/7/3 7/29/3 12/8/3
f 7/10/4 5/14/4 10/11/4
f 2/13/5 10/11/5 5/14/5
f 16/16/2 15/19/2 20/17/2
f 15/19/2 13/27/2 18/20/2
f 19/21/1 8/25/1 6/22/1
f 20/24/1 7/26/1 8/25/1
f 18/2/1 5/28/1 7/26/1
s 1
f 21/30/6 13/31/6 10/32/6
f 6/33/7 11/9/8 9/34/9
f 14/35/10 19/36/2 17/37/11
f 6/33/7 14/35/10 17/37/11
f 16/38/12 9/39/9 11/40/8
f 15/41/6 11/40/8 12/42/6
f 13/31/6 12/42/6 10/32/6
f 10/32/6 2/43/6 21/30/6
f 2/43/6 3/44/6 21/30/6
f 6/33/7 8/7/13 11/9/8
f 14/35/10 16/45/12 19/36/2
f 6/33/7 9/34/9 14/35/10
f 16/38/12 14/46/10 9/39/9
f 15/41/6 16/38/12 11/40/8
f 13/31/6 15/41/6 12/42/6
