# Blender v3.1.2 OBJ File: ''
# www.blender.org
mtllib Map05.mtl
o Map.01_Plane.001
v 0.396352 0.099765 0.500000
v 0.394291 0.107291 0.500000
v 0.389978 0.103868 0.500000
v -0.383604 0.099765 0.500000
v -0.385665 0.107291 0.500000
v -0.389978 0.103868 0.500000
v 0.385665 0.107291 0.500000
v 0.004313 0.107291 0.500000
v -0.004312 0.107291 0.500000
v -0.000000 0.103868 0.500000
v -0.000000 0.089971 0.500000
v 0.006374 0.099765 0.500000
v -0.394290 0.107291 0.500000
v 0.013627 0.107291 0.500000
v 0.383605 0.099934 0.500000
v 0.376352 0.107291 0.500000
v -0.500000 0.107291 0.500000
v -0.396351 0.099934 0.500000
v -0.403604 0.107291 0.500000
v -0.376351 0.107291 0.500000
v -0.006373 0.099934 0.500000
v -0.013626 0.107291 0.500000
v -0.500000 0.089971 0.500000
v -0.389978 0.000000 0.500000
v -0.389978 0.089971 0.500000
v 0.403605 0.107291 0.500000
v 0.500000 0.099971 0.500000
v 0.500000 0.107291 0.500000
v -0.500000 0.099971 0.500000
v -0.500000 0.099971 0.390072
v 0.500000 0.089971 0.500000
v -0.500000 0.000000 0.390072
v -0.500000 0.000000 0.500000
v 0.389978 0.089971 0.500000
v 0.389978 -0.000000 0.500000
v 0.500000 -0.000000 0.500000
v -0.500000 0.089971 -0.500000
v -0.500000 0.099971 -0.389977
v -0.500000 0.099971 -0.500000
v -0.000000 0.000000 0.500000
v -0.500000 0.089971 -0.389977
v -0.500000 0.000000 -0.500000
v -0.500000 0.000000 -0.389977
v -0.500000 0.089971 0.390072
v -0.500000 0.107291 0.390072
v -0.396644 0.109971 0.500000
v -0.382772 0.109971 0.400250
v -0.397392 0.109971 0.392960
v -0.006373 0.099765 0.393025
v -0.376351 0.107018 0.400278
v -0.013626 0.107313 0.400109
v 0.500000 0.107291 0.400072
v 0.409978 0.109971 0.410072
v 0.500000 0.109971 0.410072
v -0.392657 0.099971 -0.500000
v -0.389978 0.089971 -0.389977
v -0.389978 0.089971 -0.500000
v 0.389978 -0.000000 -0.389977
v 0.500000 0.089971 -0.389977
v 0.389978 0.089971 -0.389977
v 0.369978 0.109971 0.410072
v 0.383312 0.109971 0.500000
v 0.383312 0.109971 0.410072
v -0.500000 0.107291 -0.389977
v -0.500000 0.109971 0.390072
v -0.500000 0.109971 -0.389977
v 0.389978 -0.000000 0.390072
v 0.000000 0.000000 -0.389977
v -0.000000 0.000000 0.390072
v -0.389978 0.000000 -0.500000
v 0.020000 0.109971 0.500000
v 0.369978 0.109971 0.500000
v -0.409978 0.109971 0.390072
v -0.409978 0.109971 -0.389977
v 0.383605 0.099765 0.393025
v 0.389978 0.103868 0.395689
v 0.396352 0.099934 0.392731
v 0.403605 0.107018 0.400278
v -0.389978 0.089971 0.390072
v -0.389978 0.000000 0.390072
v -0.389978 0.000000 -0.389977
v 0.006374 0.099934 0.392731
v -0.000000 0.103868 0.395689
v 0.004313 0.107589 0.400607
v 0.394291 0.107589 0.400607
v 0.396645 0.109971 0.410072
v -0.500000 0.107291 -0.500000
v 0.500000 0.089971 0.390072
v 0.376352 0.107313 0.400109
v 0.385666 0.107589 0.400607
v -0.392657 0.099971 -0.389977
v 0.500000 0.089971 -0.500000
v 0.389978 0.089971 -0.500000
v 0.392658 0.099971 -0.500000
v 0.013627 0.107018 0.400278
v 0.006667 0.109971 0.410072
v -0.409978 0.109971 0.500000
v 0.392658 0.099971 -0.392656
v -0.383311 0.109971 0.500000
v -0.383604 0.099765 0.393025
v -0.000000 0.089971 0.390072
v 0.500000 0.109971 0.500000
v 0.409978 0.109971 0.500000
v -0.006666 0.109971 0.410072
v -0.020000 0.109971 0.500000
v -0.006666 0.109971 0.500000
v -0.004312 0.107589 0.400607
v 0.500000 0.109971 -0.409977
v 0.409978 0.109971 -0.500000
v 0.409978 0.109971 -0.409977
v 0.396645 0.109971 0.500000
v 0.399978 0.107291 -0.399977
v 0.500000 0.099971 -0.392656
v 0.500000 0.107291 -0.399977
v 0.389978 0.089971 0.390072
v 0.006667 0.109971 0.500000
v -0.369978 0.109971 0.410072
v -0.020000 0.109971 0.410072
v 0.500000 0.099971 -0.500000
v -0.385423 0.107633 0.395733
v -0.392945 0.099787 0.390072
v 0.020000 0.109971 0.410072
v 0.389978 -0.000000 -0.500000
v -0.500000 0.109971 0.500000
v -0.400161 0.107003 0.390072
v -0.399978 0.107291 -0.389977
v -0.369978 0.109971 0.500000
v 0.500000 -0.000000 -0.389977
v -0.393135 0.107616 0.392379
v -0.388743 0.104307 0.392411
v -0.500000 0.109971 -0.500000
v 0.000000 0.000000 -0.500000
v -0.409978 0.109971 -0.500000
v -0.399978 0.107291 -0.500000
v 0.399978 0.107291 -0.500000
v 0.500000 0.099971 0.392752
v 0.500000 -0.000000 0.390072
v 0.500000 0.107291 -0.500000
v 0.500000 0.109971 -0.500000
v 0.500000 -0.000000 -0.500000
vt 0.008279 0.730646
vt 0.005884 0.729990
vt 0.006974 0.728617
vt 0.008279 0.482396
vt 0.005884 0.481740
vt 0.006974 0.480367
vt 0.005884 0.727245
vt 0.005884 0.605865
vt 0.005884 0.603120
vt 0.006974 0.604492
vt 0.011397 0.604492
vt 0.008279 0.606521
vt 0.005884 0.478994
vt 0.005884 0.608829
vt 0.008226 0.726589
vt 0.005884 0.724280
vt 0.005884 0.445348
vt 0.008226 0.478338
vt 0.005884 0.476030
vt 0.005884 0.484704
vt 0.008226 0.602464
vt 0.005884 0.600155
vt 0.011397 0.445348
vt 0.040033 0.480367
vt 0.011397 0.480367
vt 0.005884 0.732955
vt 0.008214 0.763636
vt 0.005884 0.763636
vt 0.008214 0.445348
vt 0.074183 0.445348
vt 0.071853 0.480337
vt 0.071853 0.445348
vt 0.011397 0.763636
vt 0.068670 0.445348
vt 0.040033 0.480337
vt 0.040033 0.445348
vt 0.011397 0.728617
vt 0.040033 0.728617
vt 0.040033 0.763636
vt 0.068670 0.763636
vt 0.071853 0.728617
vt 0.071853 0.763636
vt 0.040033 0.604492
vt 0.068670 0.728617
vt 0.040033 0.763636
vt 0.040033 0.728617
vt 0.068670 0.480337
vt 0.074183 0.480337
vt 0.000000 0.896644
vt 0.099750 0.882772
vt 0.107040 0.897392
vt 0.012701 0.509406
vt 0.010484 0.604329
vt 0.010419 0.511174
vt 0.066233 0.379285
vt 0.063570 0.402121
vt 0.063570 0.379306
vt 0.037975 0.608176
vt 0.040618 0.579852
vt 0.040618 0.608176
vt 0.006676 0.381920
vt 0.043855 0.412063
vt 0.006676 0.412063
vt 0.089928 0.130022
vt 0.000000 0.116688
vt 0.089928 0.116688
vt 0.074183 0.728617
vt 0.075036 0.480337
vt 0.075036 0.728617
vt 0.340952 0.283907
vt 0.716068 0.471443
vt 0.340952 0.471443
vt 0.081402 0.515386
vt 0.090088 0.480367
vt 0.090088 0.515386
vt 0.000000 0.480000
vt 0.000000 0.130022
vt 0.109928 0.909978
vt 0.889977 0.909978
vt 0.889977 1.000000
vt 0.012701 0.409247
vt 0.011524 0.407579
vt 0.012674 0.405979
vt 0.066197 0.403702
vt 0.040618 0.379034
vt 0.063570 0.379034
vt 0.063570 0.579851
vt 0.068488 0.504141
vt 0.067526 0.505901
vt 0.066082 0.504924
vt 0.066082 0.406085
vt 0.063570 0.405501
vt 0.074183 0.763636
vt 0.745859 0.923733
vt 0.745859 0.984487
vt 0.696135 0.984487
vt 0.010419 0.411015
vt 0.010323 0.408615
vt 0.037975 0.579852
vt 0.043855 0.413098
vt 0.081034 0.413098
vt 0.080128 0.416477
vt 0.066197 0.502541
vt 0.063570 0.504339
vt 0.000000 0.909978
vt 0.007582 0.415532
vt 0.005031 0.482489
vt 0.012701 0.606291
vt 0.015326 0.507784
vt 0.015326 0.607943
vt 0.010484 0.504170
vt 0.000000 0.000000
vt 0.089928 0.090022
vt 0.000000 0.090022
vt 0.089928 0.506666
vt 0.000000 0.520000
vt 0.000000 0.506666
vt 0.066082 0.507110
vt 0.063570 0.507719
vt 0.043855 0.421763
vt 0.013265 0.452013
vt 0.013603 0.421763
vt 0.089928 0.103355
vt 0.000000 0.103355
vt 0.010055 0.418307
vt 0.043855 0.415532
vt 0.043855 0.418307
vt 0.037975 0.407291
vt 0.015326 0.407625
vt 0.005031 0.606614
vt 0.005031 0.730739
vt 0.066223 0.509463
vt 0.063570 0.599799
vt 0.063570 0.511098
vt 0.043855 0.416477
vt 0.768976 0.658979
vt 0.716068 0.658979
vt 0.005031 0.598126
vt 0.080129 0.348913
vt 0.043855 0.352292
vt 0.043855 0.348913
vt 0.010574 0.606740
vt 0.012855 0.608741
vt 0.089928 0.480000
vt 0.109928 1.000000
vt 0.081034 0.382695
vt 0.000000 1.000000
vt 0.073337 0.407076
vt 0.070714 0.603209
vt 0.070681 0.407030
vt 0.089928 0.493333
vt 0.089928 0.869978
vt 0.000000 0.869978
vt 0.081034 0.382695
vt 0.081034 0.352292
vt 0.068488 0.379034
vt 0.068488 0.406707
vt 0.005031 0.486733
vt 0.005031 0.478245
vt 0.005031 0.474001
vt 0.005031 0.734983
vt 0.010323 0.508774
vt 0.011524 0.507738
vt 0.063570 0.408880
vt 0.066223 0.410624
vt 0.063570 0.412259
vt 0.067526 0.407062
vt 0.066082 0.408271
vt 0.005031 0.610858
vt 0.005031 0.602370
vt 0.066197 0.601380
vt 0.066039 0.603138
vt 0.010759 0.608779
vt 0.011591 0.607638
vt 0.010135 0.609871
vt 0.011038 0.610621
vt 0.010291 0.613153
vt 0.074209 0.379034
vt 0.073337 0.382128
vt 0.073445 0.379972
vt 0.000000 0.493333
vt 0.038011 0.379034
vt 1.000000 1.000000
vt 0.063570 0.500960
vt 0.075036 0.763636
vt 0.716068 0.230999
vt 0.716068 0.283907
vt 0.768976 0.471443
vt 0.073337 0.379403
vt 0.070681 0.379357
vt 0.005031 0.722252
vt 0.075036 0.445348
vt 0.006676 0.375676
vt 0.043855 0.345533
vt 0.043855 0.375676
vt 0.000000 0.883311
vt 0.078219 0.481220
vt 0.078219 0.515386
vt 0.009809 0.451917
vt 0.068553 0.602890
vt 0.006676 0.379145
vt 0.040476 0.381920
vt 0.006676 0.381920
vt 0.005031 0.445348
vt 0.043798 0.418307
vt 0.042950 0.379145
vt 0.005031 0.726496
vt 0.015326 0.379368
vt 0.012664 0.379358
vt 0.012674 0.506138
vt 0.068488 0.405302
vt 0.037975 0.379034
vt 0.068481 0.379034
vt 0.074209 0.383232
vt 0.010186 0.418307
vt 0.756912 0.984487
vt 0.755431 0.929260
vt 0.756912 0.934787
vt 0.075036 0.515386
vt 0.075889 0.483550
vt 0.075889 0.515386
vt 0.043855 0.418951
vt 0.074275 0.419856
vt 0.043855 0.419856
vt 0.340952 0.658979
vt 0.077655 0.418951
vt 0.074275 0.345533
vt 0.043855 0.346439
vt 0.043855 0.345533
vt 0.077655 0.346439
vt 0.751386 0.984487
vt 0.751386 0.925214
vt 0.005031 0.763636
vt 0.037975 0.507450
vt 0.037975 0.607609
vt 0.755431 0.984487
vt 0.075036 0.486733
vt 0.696135 0.923733
vt 0.081402 0.480367
vt 0.006676 0.345533
vt 0.043855 0.382695
vt 1.000000 0.909978
vt 0.089928 0.000000
vt 0.089928 0.520000
vt 0.043516 0.452013
vt 0.063570 0.608176
vt 0.043855 0.381920
vt 0.340952 0.230999
vt 0.073337 0.603273
vt 0.009742 0.605990
vt 0.768976 0.283907
vn 0.0000 0.0000 1.0000
vn -1.0000 0.0000 0.0000
vn 0.0000 0.7071 0.7071
vn 0.2207 0.8967 -0.3838
vn 0.1303 0.8858 -0.4454
vn -0.0204 0.4866 -0.8734
vn 0.2035 0.7647 -0.6114
vn -0.0112 0.8599 -0.5104
vn -0.0018 0.8663 -0.4995
vn 0.0027 0.9904 -0.1383
vn -0.0009 0.9904 -0.1379
vn 0.8660 0.5000 0.0000
vn 0.9909 0.1344 0.0001
vn 0.9914 0.1305 0.0000
vn -0.3015 0.9045 0.3015
vn 0.0000 0.1305 0.9914
vn -0.6972 0.1672 0.6971
vn -0.0012 0.9909 -0.1347
vn -0.0018 0.9921 -0.1258
vn -0.7071 0.7071 -0.0000
vn -0.0000 0.7071 -0.7071
vn 0.0000 1.0000 0.0000
vn 0.0000 0.0000 -1.0000
vn 0.0796 0.9958 -0.0462
vn 0.1345 0.9909 0.0001
vn -0.0203 0.4839 -0.8749
vn -0.0049 0.6449 -0.7643
vn 0.0088 0.4884 -0.8726
vn 0.0167 0.8644 -0.5026
vn 0.6924 0.1733 -0.7004
vn 0.5774 0.5774 -0.5774
vn 0.7071 0.7071 0.0000
vn 0.0092 0.4908 -0.8712
vn 0.0268 0.8830 -0.4686
vn 0.0061 0.9912 -0.1321
vn 1.0000 -0.0000 0.0000
vn -0.0111 0.8627 -0.5056
vn -0.0199 0.8806 -0.4735
vn 0.8641 0.5034 0.0002
vn 0.7071 -0.0000 -0.7071
vn 0.0176 0.8614 -0.5076
vn 0.0062 0.9912 -0.1321
vn -0.5885 0.5542 0.5886
vn 0.1961 0.3634 -0.9108
vn -0.0047 0.1592 -0.9872
vn -0.0021 0.9921 -0.1256
vn 0.0000 0.9914 0.1306
vn -0.1305 0.9914 0.0000
vn -0.0985 0.9903 0.0985
vn -0.3332 0.8820 0.3332
vn 0.0000 0.5000 0.8660
vn 0.0000 0.8660 0.5000
vn -0.0046 0.1541 -0.9880
vn 0.0245 0.9918 -0.1255
vn 0.3663 0.5933 -0.7168
vn 0.6669 0.4116 -0.6211
vn 0.0031 0.9904 -0.1383
vn -0.5774 0.5774 0.5774
vn 0.3962 0.7668 -0.5050
vn 0.5034 0.8641 0.0002
vn 0.2809 0.5047 -0.8163
vn 0.3308 0.3175 -0.8887
vn 0.1306 0.9914 0.0000
vn 0.5000 0.8660 0.0000
vn -0.7071 0.0000 0.7071
vn -0.9914 0.1305 -0.0000
vn -0.5000 0.8660 0.0000
vn -0.8660 0.5000 0.0000
vn 0.0000 0.1305 -0.9914
vn -0.0009 0.5069 -0.8620
usemtl Material.010
s off
f 1/1/1 2/2/1 3/3/1
f 4/4/1 5/5/1 6/6/1
f 7/7/1 3/3/1 2/2/1
f 8/8/1 9/9/1 10/10/1
f 10/10/1 11/11/1 12/12/1
f 12/12/1 8/8/1 10/10/1
f 5/5/1 13/13/1 6/6/1
f 14/14/1 15/15/1 16/16/1
f 17/17/1 18/18/1 19/19/1
f 20/20/1 21/21/1 22/22/1
f 23/23/1 24/24/1 25/25/1
f 26/26/1 27/27/1 28/28/1
f 18/18/1 6/6/1 13/13/1
f 15/15/1 3/3/1 7/7/1
f 14/14/1 12/12/1 15/15/1
f 17/17/1 29/29/1 18/18/1
f 20/20/1 4/4/1 21/21/1
f 26/26/1 1/1/1 27/27/1
f 21/21/1 10/10/1 9/9/1
f 17/30/2 30/31/2 29/32/2
f 4/4/1 11/11/1 21/21/1
f 1/1/1 31/33/1 27/27/1
f 6/6/1 25/25/1 4/4/1
f 23/34/2 32/35/2 33/36/2
f 34/37/1 35/38/1 36/39/1
f 37/40/2 38/41/2 39/42/2
f 34/37/1 36/39/1 31/33/1
f 25/25/1 40/43/1 11/11/1
f 18/18/1 23/23/1 25/25/1
f 12/12/1 34/37/1 15/15/1
f 41/44/2 42/45/2 43/46/2
f 29/32/2 44/47/2 23/34/2
f 3/3/1 34/37/1 1/1/1
f 11/11/1 35/38/1 34/37/1
f 23/34/2 44/47/2 32/35/2
f 1/1/1 34/37/1 31/33/1
f 4/4/1 25/25/1 11/11/1
f 41/44/2 37/40/2 42/45/2
f 25/25/1 24/24/1 40/43/1
f 23/23/1 33/36/1 24/24/1
f 11/11/1 40/43/1 35/38/1
f 29/32/2 30/31/2 44/47/2
f 6/6/1 18/18/1 25/25/1
f 37/40/2 41/44/2 38/41/2
f 17/30/2 45/48/2 30/31/2
f 10/10/1 21/21/1 11/11/1
f 12/12/1 11/11/1 34/37/1
f 18/18/1 29/29/1 23/23/1
f 3/3/1 15/15/1 34/37/1
s 1
f 46/49/3 47/50/4 48/51/5
f 49/52/6 50/53/7 51/54/8
f 52/55/9 53/56/10 54/57/11
f 55/58/12 56/59/13 57/60/14
f 58/61/15 59/62/16 60/63/17
f 61/64/18 62/65/3 63/66/19
f 64/67/2 65/68/20 66/69/20
f 67/70/21 68/71/22 69/72/21
f 37/73/23 70/74/23 42/75/23
f 71/76/3 72/77/3 61/64/18
f 73/78/24 74/79/25 66/80/20
f 75/81/26 76/82/27 77/83/28
f 52/55/9 78/84/29 53/56/10
f 79/85/30 80/86/31 81/87/32
f 82/88/33 83/89/27 84/90/34
f 78/84/29 85/91/34 86/92/35
f 87/93/2 64/67/2 66/69/20
f 88/94/36 31/95/36 36/96/36
f 75/81/26 89/97/37 90/98/38
f 55/58/12 91/99/39 56/59/13
f 92/100/40 93/101/23 94/102/23
f 95/103/41 84/90/34 96/104/42
f 97/105/3 46/49/3 48/51/5
f 98/106/43 60/63/17 59/62/16
f 5/5/1 20/20/1 99/107/3
f 100/108/44 101/109/45 79/110/30
f 75/81/26 95/111/41 89/97/37
f 39/42/2 64/67/2 87/93/2
f 102/112/3 53/113/10 103/114/3
f 104/115/46 105/116/3 106/117/3
f 96/104/42 107/118/38 104/119/46
f 108/120/47 109/121/48 110/122/49
f 86/123/35 62/65/3 111/124/3
f 9/9/1 22/22/1 21/21/1
f 112/125/50 113/126/51 114/127/52
f 67/128/21 101/109/45 115/129/53
f 8/8/1 14/14/1 116/130/3
f 2/2/1 26/26/1 111/131/3
f 51/132/8 117/133/54 118/134/18
f 92/100/40 94/102/23 119/135/40
f 68/71/22 70/136/22 81/137/32
f 105/138/3 20/20/1 22/22/1
f 113/139/36 92/140/40 119/141/40
f 120/142/55 50/53/7 100/108/44
f 121/143/56 100/108/44 79/110/30
f 71/76/3 61/64/18 122/144/57
f 97/105/3 48/51/5 73/78/24
f 73/78/24 66/80/20 65/145/20
f 38/41/2 45/48/2 64/67/2
f 86/123/35 103/114/3 53/113/10
f 92/100/40 123/146/23 93/101/23
f 97/105/3 65/145/20 124/147/58
f 74/148/25 125/149/59 126/150/60
f 41/44/2 30/31/2 38/41/2
f 96/151/42 71/76/3 122/144/57
f 105/116/3 117/152/54 127/153/3
f 128/154/36 92/140/40 59/155/36
f 55/156/12 126/150/60 91/157/39
f 99/107/3 20/20/1 127/158/3
f 19/19/1 46/159/3 97/160/3
f 46/159/3 5/5/1 99/107/3
f 111/131/3 26/26/1 103/161/3
f 49/52/6 107/162/38 83/163/27
f 7/7/1 16/16/1 15/15/1
f 75/81/26 90/98/38 76/82/27
f 78/84/29 86/92/35 53/56/10
f 75/81/26 77/83/28 115/129/53
f 84/90/34 83/89/27 107/118/38
f 63/164/19 89/165/37 61/166/18
f 13/13/1 19/19/1 18/18/1
f 85/91/34 76/167/27 90/168/38
f 116/130/3 14/14/1 71/169/3
f 9/9/1 116/130/3 106/170/3
f 22/22/1 106/170/3 105/138/3
f 50/171/7 47/172/4 117/133/54
f 121/143/56 129/173/61 130/174/62
f 48/175/5 125/176/59 73/177/24
f 48/178/5 120/179/55 129/180/61
f 120/142/55 130/174/62 129/173/61
f 104/115/46 116/181/3 96/151/42
f 121/182/56 56/59/13 91/99/39
f 74/79/25 131/183/20 66/80/20
f 89/165/37 122/184/57 61/166/18
f 87/93/2 66/69/20 131/185/20
f 67/70/21 128/186/22 58/187/15
f 58/187/15 132/188/22 68/71/22
f 133/189/63 126/150/60 134/190/64
f 72/191/3 14/14/1 16/16/1
f 124/192/58 45/48/2 17/30/65
f 93/193/66 58/194/15 60/195/17
f 101/109/45 75/81/26 115/129/53
f 46/49/3 99/196/3 47/50/4
f 55/197/23 37/73/23 39/198/23
f 135/199/67 110/122/49 109/121/48
f 91/157/39 125/149/59 121/200/56
f 79/85/30 81/87/32 56/59/13
f 94/201/68 112/202/50 135/203/67
f 124/204/58 19/19/1 97/160/3
f 110/122/49 114/205/52 108/120/47
f 99/196/3 117/152/54 47/50/4
f 93/193/66 98/206/43 94/201/68
f 16/16/1 62/207/3 72/191/3
f 88/208/69 77/83/28 136/209/70
f 49/52/6 82/210/33 101/109/45
f 95/103/41 96/104/42 122/184/57
f 98/106/43 59/62/16 113/126/51
f 86/92/35 90/168/38 63/164/19
f 82/88/33 84/90/34 95/103/41
f 77/211/28 85/91/34 78/84/29
f 81/87/32 57/60/14 56/59/13
f 137/212/21 115/129/53 88/208/69
f 136/213/70 78/84/29 52/55/9
f 100/108/44 130/174/62 120/142/55
f 121/143/56 125/176/59 129/173/61
f 48/175/5 129/173/61 125/176/59
f 48/178/5 47/214/4 120/179/55
f 135/199/67 112/215/50 110/122/49
f 124/204/58 17/17/65 19/19/1
f 110/122/49 112/215/50 114/205/52
f 102/216/36 52/217/36 54/218/36
f 131/219/23 134/220/23 87/221/23
f 138/222/23 109/223/23 139/224/23
f 134/220/23 39/198/23 87/221/23
f 69/72/21 81/137/32 80/225/31
f 62/207/3 2/2/1 111/131/3
f 135/226/23 119/135/40 94/102/23
f 108/227/36 138/228/36 139/229/36
f 114/230/36 119/141/40 138/228/36
f 52/217/36 27/231/36 136/232/36
f 103/161/3 28/28/1 102/233/3
f 79/110/30 69/234/21 80/235/31
f 31/95/36 136/232/36 27/231/36
f 104/119/46 51/132/8 118/134/18
f 102/216/36 28/236/36 52/217/36
f 131/219/23 133/237/23 134/220/23
f 138/222/23 135/226/23 109/223/23
f 134/220/23 55/197/23 39/198/23
f 135/226/23 138/222/23 119/135/40
f 108/227/36 114/230/36 138/228/36
f 114/230/36 113/139/36 119/141/40
f 52/217/36 28/236/36 27/231/36
f 88/94/36 36/96/36 137/238/36
f 105/138/3 127/158/3 20/20/1
f 46/159/3 13/13/1 5/5/1
f 9/9/1 8/8/1 116/130/3
f 72/191/3 71/169/3 14/14/1
f 62/207/3 7/7/1 2/2/1
f 103/161/3 26/26/1 28/28/1
f 41/44/2 43/46/2 32/35/2
f 37/73/23 57/239/23 70/74/23
f 67/70/21 58/187/15 68/71/22
f 49/52/6 100/108/44 50/53/7
f 124/192/58 65/68/20 45/48/2
f 49/52/6 51/54/8 107/162/38
f 104/115/46 106/117/3 116/181/3
f 121/143/56 130/174/62 100/108/44
f 7/7/1 62/207/3 16/16/1
f 133/189/63 74/148/25 126/150/60
f 51/132/8 50/171/7 117/133/54
f 93/193/66 123/240/20 58/194/15
f 64/67/2 45/48/2 65/68/20
f 49/52/6 83/163/27 82/210/33
f 97/105/3 73/78/24 65/145/20
f 75/81/26 82/210/33 95/111/41
f 96/151/42 116/181/3 71/76/3
f 88/208/69 115/129/53 77/83/28
f 77/211/28 76/167/27 85/91/34
f 31/95/36 88/94/36 136/232/36
f 13/13/1 46/159/3 19/19/1
f 128/154/36 140/241/40 92/140/40
f 74/79/25 133/242/63 131/183/20
f 104/119/46 107/118/38 51/132/8
f 93/193/66 60/195/17 98/206/43
f 89/165/37 95/103/41 122/184/57
f 63/164/19 90/168/38 89/165/37
f 102/112/3 54/243/11 53/113/10
f 39/42/2 38/41/2 64/67/2
f 100/108/44 49/52/6 101/109/45
f 104/115/46 118/244/18 105/116/3
f 68/71/22 132/188/22 70/136/22
f 108/120/47 139/245/22 109/121/48
f 137/212/21 67/128/21 115/129/53
f 105/116/3 118/244/18 117/152/54
f 121/182/56 79/85/30 56/59/13
f 61/64/18 72/77/3 62/65/3
f 99/196/3 127/153/3 117/152/54
f 79/110/30 101/109/45 69/234/21
f 55/197/23 57/239/23 37/73/23
f 81/87/32 70/246/36 57/60/14
f 91/157/39 126/150/60 125/149/59
f 136/213/70 77/211/28 78/84/29
f 58/61/15 128/247/1 59/62/16
f 92/100/40 140/241/40 123/146/23
f 55/156/12 134/190/64 126/150/60
f 67/70/21 137/248/21 128/186/22
f 2/2/1 1/1/1 26/26/1
f 67/128/21 69/234/21 101/109/45
f 41/44/2 44/47/2 30/31/2
f 113/139/36 59/155/36 92/140/40
f 96/104/42 84/90/34 107/118/38
f 5/5/1 4/4/1 20/20/1
f 74/148/25 73/249/24 125/149/59
f 120/142/55 47/250/4 50/53/7
f 9/9/1 106/170/3 22/22/1
f 112/125/50 98/106/43 113/126/51
f 101/109/45 82/210/33 75/81/26
f 69/72/21 68/71/22 81/137/32
f 8/8/1 12/12/1 14/14/1
f 86/92/35 85/91/34 90/168/38
f 38/41/2 30/31/2 45/48/2
f 94/201/68 98/206/43 112/202/50
f 58/187/15 123/251/20 132/188/22
f 86/123/35 111/124/3 103/114/3
f 86/123/35 63/66/19 62/65/3
f 41/44/2 32/35/2 44/47/2
