# Blender v3.1.2 OBJ File: 'Map.blend'
# www.blender.org
mtllib Map05.mtl
o Map.05_Plane.028
v 0.500000 0.000000 -0.500000
v -0.500000 -0.000000 0.500000
v 0.500000 0.000000 0.500000
v -0.500000 -0.000000 -0.500000
v 0.500000 0.000000 -0.000000
v -0.500000 -0.000000 -0.000000
v 0.500000 0.000000 -0.331978
v 0.500000 0.000000 0.331978
v 0.332072 0.000000 0.500000
v -0.331977 -0.000000 0.500000
v -0.331977 -0.000000 -0.000000
v 0.332072 0.109271 0.480000
v 0.332072 0.089271 0.500000
v 0.332072 0.106591 0.490000
v 0.332072 0.099271 0.497320
v 0.500000 0.109271 0.480000
v 0.500000 0.089271 0.500000
v 0.500000 0.106591 0.490000
v 0.500000 0.099271 0.497320
v -0.351977 0.109271 -0.500000
v -0.331977 0.089271 -0.500000
v -0.341977 0.106591 -0.500000
v -0.334656 0.099271 -0.500000
v -0.500000 0.109271 -0.500000
v -0.500000 0.089271 -0.500000
v 0.500000 0.109271 -0.311978
v 0.500000 0.089271 -0.331978
v 0.500000 0.109271 -0.351978
v 0.500000 0.106318 -0.318352
v 0.500000 0.109271 -0.325312
v 0.500000 0.106889 -0.327666
v 0.500000 0.099065 -0.338352
v 0.500000 0.099234 -0.325605
v 0.500000 0.103168 -0.331978
v 0.500000 0.109271 -0.338645
v 0.500000 0.106613 -0.345605
v 0.500000 0.106889 -0.336291
v 0.500000 0.109271 -0.020000
v 0.500000 0.109271 0.020000
v 0.500000 0.089271 -0.000000
v 0.500000 0.109271 -0.006667
v 0.500000 0.106613 -0.013627
v 0.500000 0.106889 -0.004313
v 0.500000 0.106318 0.013626
v 0.500000 0.109271 0.006666
v 0.500000 0.106889 0.004312
v 0.500000 0.099065 -0.006374
v 0.500000 0.099234 0.006373
v 0.500000 0.103168 -0.000000
v 0.352072 0.109271 -0.020000
v 0.332072 0.089271 -0.000000
v 0.352072 0.109271 0.020000
v 0.342278 0.106318 -0.013627
v 0.352072 0.109271 -0.006667
v 0.342607 0.106889 -0.004313
v 0.335025 0.099065 0.006373
v 0.334731 0.099234 -0.006374
v 0.337689 0.103168 -0.000000
v 0.352072 0.109271 0.006666
v 0.342109 0.106613 0.013626
v 0.342607 0.106889 0.004312
v 0.500000 0.089271 -0.500000
v 0.500000 0.109271 -0.500000
v 0.500000 0.099271 -0.500000
v 0.500000 0.106591 -0.500000
v 0.352072 0.109271 -0.351978
v 0.332072 0.089271 -0.331978
v 0.352072 0.109271 -0.311978
v 0.342278 0.106318 -0.345605
v 0.352072 0.109271 -0.338645
v 0.342607 0.106889 -0.336291
v 0.335025 0.099065 -0.325605
v 0.334730 0.099234 -0.338352
v 0.337689 0.103168 -0.331978
v 0.352072 0.109271 -0.325312
v 0.342109 0.106613 -0.318352
v 0.342607 0.106889 -0.327666
v 0.500000 0.109271 0.311978
v 0.500000 0.109271 0.351978
v 0.500000 0.089271 0.331978
v 0.500000 0.109271 0.325311
v 0.500000 0.106613 0.318351
v 0.500000 0.106889 0.327665
v 0.500000 0.106318 0.345604
v 0.500000 0.109271 0.338644
v 0.500000 0.106889 0.336290
v 0.500000 0.099065 0.325604
v 0.500000 0.099234 0.338351
v 0.500000 0.103168 0.331978
v -0.500000 0.109271 0.480000
v -0.500000 0.089271 0.500000
v -0.500000 0.106591 0.490000
v -0.500000 0.099271 0.497321
v -0.500000 0.109271 0.351978
v -0.500000 0.089271 0.331978
v -0.500000 0.106591 0.341978
v -0.500000 0.099271 0.334657
v 0.352072 0.109271 0.311978
v 0.332072 0.089271 0.331978
v 0.332072 0.109271 0.351978
v 0.342278 0.106318 0.318351
v 0.342250 0.109271 0.324772
v 0.337733 0.106933 0.327423
v 0.332072 0.099087 0.334945
v 0.335025 0.099065 0.325604
v 0.334411 0.103607 0.330743
v 0.334960 0.109271 0.339392
v 0.332072 0.106303 0.342161
v 0.334379 0.106916 0.335135
v -0.331977 0.089271 0.500000
v -0.331977 0.109271 0.480000
v -0.331977 0.099271 0.497320
v -0.331977 0.106591 0.490000
v 0.352072 0.109271 -0.500000
v 0.332072 0.089271 -0.500000
v 0.342072 0.106591 -0.500000
v 0.334751 0.099271 -0.500000
v -0.500000 0.109271 -0.351978
v -0.500000 0.089271 -0.331978
v -0.500000 0.106591 -0.341978
v -0.500000 0.099271 -0.334658
v -0.331977 0.089271 -0.331978
v -0.351977 0.109271 -0.351978
v -0.334656 0.099271 -0.334658
v -0.341977 0.106591 -0.341978
v -0.331977 0.109271 0.351978
v -0.331977 0.089271 0.331978
v -0.331977 0.106591 0.341978
v -0.331977 0.099271 0.334657
v -0.500000 -0.000000 -0.311978
v -0.500000 0.020000 -0.331978
v -0.500000 0.002679 -0.321978
v -0.500000 0.010000 -0.329298
v -0.500000 0.020000 0.331978
v -0.500000 -0.000000 0.311978
v -0.500000 0.010000 0.329298
v -0.500000 0.002679 0.321978
v 0.312072 0.000000 -0.500000
v 0.332072 0.020000 -0.500000
v 0.322072 0.002680 -0.500000
v 0.329392 0.010000 -0.500000
v 0.332072 0.020000 -0.000000
v 0.312072 0.000000 -0.000000
v 0.329393 0.010000 -0.000000
v 0.322072 0.002680 -0.000000
v 0.312072 0.000000 -0.351978
v 0.312072 0.000000 -0.311978
v 0.332072 0.020000 -0.331978
v 0.312072 0.000000 -0.338645
v 0.322035 0.002658 -0.345605
v 0.321538 0.002382 -0.336291
v 0.321866 0.002953 -0.318352
v 0.312072 0.000000 -0.325312
v 0.321538 0.002382 -0.327666
v 0.329119 0.010206 -0.338352
v 0.329414 0.010037 -0.325605
v 0.326455 0.006103 -0.331978
v 0.332072 0.010000 0.331978
v 0.312072 0.000000 0.311978
v 0.329393 0.005000 0.329298
v 0.322072 0.001340 0.321978
v -0.331977 0.020000 -0.500000
v -0.311977 -0.000000 -0.500000
v -0.329297 0.010000 -0.500000
v -0.321977 0.002679 -0.500000
v -0.311977 -0.000000 -0.351978
v -0.331977 0.020000 -0.331978
v -0.331977 -0.000000 -0.311978
v -0.321771 0.002953 -0.345605
v -0.321799 -0.000000 -0.339184
v -0.326316 0.002338 -0.336533
v -0.331977 0.010183 -0.329010
v -0.329024 0.010206 -0.338352
v -0.329638 0.005664 -0.333213
v -0.329089 -0.000000 -0.324564
v -0.331977 0.002968 -0.321795
v -0.329670 0.002355 -0.328820
v -0.331977 -0.000000 0.311978
v -0.331977 0.020000 0.331978
v -0.331977 0.002679 0.321978
v -0.331977 0.010000 0.329298
vt 0.050808 0.245732
vt 0.102071 0.432424
vt 0.051825 0.431964
vt 0.098282 0.615339
vt 0.048463 0.618220
vt 0.048463 0.148096
vt 0.102022 0.245247
vt 0.101184 0.689307
vt 0.065402 0.712905
vt 0.164168 0.728886
vt 0.138439 0.765709
vt 0.411506 0.933379
vt 0.508207 0.942125
vt 0.483295 0.980267
vt 0.107804 0.248946
vt 0.112310 0.247675
vt 0.111999 0.253360
vt 0.110083 0.245161
vt 0.107635 0.241455
vt 0.112238 0.242589
vt 0.107645 0.436210
vt 0.112133 0.435080
vt 0.111671 0.440711
vt 0.109998 0.432523
vt 0.107659 0.428769
vt 0.112209 0.430029
vt 0.103355 0.618827
vt 0.107524 0.617937
vt 0.106944 0.622847
vt 0.105687 0.615492
vt 0.103663 0.611920
vt 0.107886 0.613267
vt 0.434967 0.895670
vt 0.511078 0.937620
vt 0.166896 0.724498
vt 0.105196 0.686476
vt 0.169631 0.720003
vt 0.111978 0.237100
vt 0.106033 0.146649
vt 0.110326 0.146563
vt 0.100172 0.146769
vt 0.506044 0.784853
vt 0.259654 0.612776
vt 0.509104 0.780162
vt 0.264470 0.610221
vt 0.512030 0.775704
vt 0.112120 0.424353
vt 0.108063 0.607900
vt 0.437848 0.891047
vt 0.108068 0.683210
vt 0.256020 0.615056
vt 0.750447 0.285385
vt 0.698614 0.215006
vt 0.770317 0.252530
vt 0.213626 0.632612
vt 0.802762 0.150057
vt 0.712819 0.206165
vt 0.712908 0.133017
vt 0.260942 0.433792
vt 0.220642 0.433814
vt 0.220267 0.242343
vt 0.260600 0.241692
vt 0.202256 0.445316
vt 0.110326 0.603498
vt 0.113856 0.445251
vt 0.202497 0.646378
vt 0.109167 0.679245
vt 0.108346 0.626108
vt 0.538324 0.526270
vt 0.603420 0.405402
vt 0.603420 0.526270
vt 0.202393 0.254380
vt 0.114306 0.419732
vt 0.114310 0.257865
vt 0.579130 0.831391
vt 0.487631 0.814044
vt 0.218463 0.143779
vt 0.259325 0.143509
vt 0.852941 0.405402
vt 0.852941 0.526270
vt 0.111896 0.146534
vt 0.201883 0.230852
vt 0.113475 0.233304
vt 0.551352 0.874305
vt 0.443640 0.881806
vt 0.478875 0.827505
vt 0.852940 0.719983
vt 0.611168 0.662634
vt 0.852941 0.662635
vt 0.172315 0.715489
vt 0.653369 0.136755
vt 0.668655 0.236185
vt 0.603420 0.647138
vt 0.852941 0.647138
vt 0.113746 0.249051
vt 0.113621 0.241176
vt 0.113641 0.428670
vt 0.113517 0.436485
vt 0.208643 0.425657
vt 0.202536 0.429632
vt 0.202692 0.421797
vt 0.214664 0.429987
vt 0.208234 0.431122
vt 0.214589 0.437471
vt 0.208165 0.436187
vt 0.211781 0.433684
vt 0.202398 0.437478
vt 0.208399 0.441675
vt 0.207997 0.234535
vt 0.202024 0.238735
vt 0.214171 0.238682
vt 0.207778 0.240025
vt 0.214321 0.246156
vt 0.207892 0.245083
vt 0.211407 0.242468
vt 0.202199 0.246583
vt 0.208331 0.250531
vt 0.109312 0.612054
vt 0.108696 0.619269
vt 0.201566 0.625609
vt 0.200201 0.629704
vt 0.195664 0.620959
vt 0.207690 0.630069
vt 0.202955 0.631616
vt 0.208916 0.635993
vt 0.204035 0.636413
vt 0.205646 0.633629
vt 0.202654 0.638839
vt 0.204908 0.640786
vt 0.513949 0.933115
vt 0.440739 0.886425
vt 0.516819 0.928610
vt 0.703243 0.212124
vt 0.772953 0.247418
vt 0.707913 0.209216
vt 0.775379 0.242568
vt 0.777685 0.237873
vt 0.554234 0.869850
vt 0.484715 0.818519
vt 0.557117 0.865394
vt 0.559999 0.860940
vt 0.212381 0.143882
vt 0.206316 0.143986
vt 0.200238 0.144099
vt 0.707608 0.133014
vt 0.702117 0.133048
vt 0.696294 0.133155
vt 0.481795 0.823012
vt 0.278619 0.237607
vt 0.272529 0.233602
vt 0.278529 0.229792
vt 0.278676 0.245467
vt 0.272914 0.239052
vt 0.272652 0.249565
vt 0.278656 0.253348
vt 0.266590 0.245359
vt 0.272957 0.244104
vt 0.266521 0.237933
vt 0.269379 0.241626
vt 0.655180 0.231188
vt 0.654596 0.235459
vt 0.648474 0.227734
vt 0.662116 0.234514
vt 0.657639 0.236859
vt 0.664315 0.240244
vt 0.659486 0.241417
vt 0.660648 0.238406
vt 0.658510 0.244007
vt 0.661020 0.245600
vt 0.659328 0.251469
vt 0.604539 0.652014
vt 0.852941 0.652304
vt 0.607363 0.657678
vt 0.852941 0.657470
vt 0.269995 0.607517
vt 0.514898 0.771324
vt 0.272996 0.434092
vt 0.278864 0.434233
vt 0.267096 0.433950
vt 0.741990 0.299676
vt 0.744797 0.294891
vt 0.747622 0.290117
vt 0.582000 0.826906
vt 0.584868 0.822421
vt 0.587738 0.817934
vt 0.647388 0.137668
vt 0.641447 0.138561
vt 0.635385 0.139461
vt 0.271410 0.143375
vt 0.277460 0.143312
vt 0.265357 0.143439
vt 0.538324 0.647138
vt 0.538324 0.405402
vt 0.611168 0.719982
vn 1.0000 -0.0000 -0.0000
vn 0.0000 0.0000 1.0000
vn 0.0000 0.2588 0.9659
vn 0.0000 0.7071 0.7071
vn 0.0239 0.7131 -0.7006
vn 0.0086 0.8932 -0.4495
vn -0.0005 0.1383 0.9904
vn 0.6972 0.1672 0.6972
vn 0.0000 0.1305 0.9914
vn 0.0140 -0.0449 -0.9989
vn -0.9938 -0.0777 -0.0795
vn -0.8729 -0.4796 -0.0897
vn -0.5773 0.5774 -0.5774
vn 0.0984 0.9903 0.0984
vn 0.0959 0.7280 -0.6789
vn -0.9890 0.1480 0.0018
vn -0.9872 0.1591 0.0046
vn -0.9880 0.1541 0.0046
vn -0.9880 0.1542 0.0046
vn -0.1347 0.9909 0.0012
vn 0.7071 0.7071 0.0000
vn -0.0922 0.9955 -0.0219
vn 0.6789 0.7280 0.0958
vn -0.0000 1.0000 0.0000
vn 0.0003 0.9940 -0.1091
vn -0.1346 0.9909 0.0012
vn -0.3187 0.1237 -0.9398
vn 0.0048 0.0901 -0.9959
vn -0.9915 0.1302 -0.0000
vn -0.9904 0.1383 -0.0005
vn -0.0782 0.9950 -0.0621
vn -0.1188 0.9929 0.0006
vn 0.0957 0.7280 -0.6789
vn -0.1383 0.9904 -0.0030
vn -0.6789 0.7280 -0.0958
vn -0.0000 0.9914 0.1305
vn 0.0001 0.9909 -0.1344
vn -0.1305 0.9914 0.0000
vn 0.1280 0.9915 0.0238
vn -0.1296 0.9916 0.0009
vn 0.9385 0.1311 -0.3194
vn 0.7012 0.1703 0.6923
vn 0.0461 0.9957 0.0802
vn -0.1384 0.9904 -0.0031
vn -0.5075 0.8615 -0.0175
vn -0.1322 0.9912 -0.0058
vn -0.1383 0.9904 -0.0031
vn -0.8712 0.4908 -0.0092
vn -0.4686 0.8830 -0.0268
vn -0.8734 0.4866 0.0205
vn -0.4736 0.8805 0.0199
vn -0.7643 0.6449 0.0049
vn -0.1256 0.9921 0.0021
vn -0.5104 0.8599 0.0113
vn -0.5027 0.8643 -0.0170
vn -0.8726 0.4884 -0.0089
vn -0.8749 0.4839 0.0202
vn -0.4735 0.8805 0.0199
vn -0.5056 0.8627 0.0111
vn -0.6077 0.7687 -0.1994
vn -0.2981 0.9349 -0.1925
vn -0.1280 0.9915 -0.0240
vn -0.9176 0.3443 -0.1988
vn -0.7153 0.5937 -0.3686
vn -0.0550 0.5072 -0.8601
vn -0.7963 0.5360 -0.2802
vn -0.8857 0.3168 -0.3394
vn -0.4387 0.8899 -0.1251
vn -0.0376 0.8633 -0.5033
vn 0.0000 0.4700 0.8827
vn -0.6532 0.6556 0.3787
vn -0.4472 0.6323 0.6326
vn 0.0000 0.8660 0.5000
vn -0.6789 0.7280 0.0957
vn 0.1656 0.9526 0.2552
vn 0.0000 0.8484 0.5294
vn 0.9864 -0.0000 -0.1644
vn 0.7281 0.0957 -0.6787
vn 0.0000 0.5000 0.8660
vn 0.5886 0.5542 0.5886
vn -0.2506 0.4841 0.8384
vn 0.3332 0.8820 0.3332
vn -0.6532 0.6558 0.3784
vn -0.6789 0.7280 0.0960
vn -0.6532 0.6559 -0.3784
vn 0.0002 0.5034 -0.8641
vn -0.2506 0.4840 -0.8384
vn -0.0000 0.1305 -0.9914
vn -0.8621 0.5068 0.0006
vn -0.4978 0.8632 -0.0846
vn -0.1013 0.7270 -0.6791
vn 0.3786 0.6557 -0.6532
vn 0.8384 0.4840 -0.2506
vn 0.9914 0.1305 -0.0000
vn 0.0002 0.8640 -0.5034
vn -0.1258 0.9921 0.0018
vn -0.5081 0.8612 0.0106
vn -0.1321 0.9912 -0.0060
vn -0.5028 0.8642 -0.0173
vn -0.8726 0.4884 -0.0090
vn -0.8759 0.4821 0.0199
vn 0.6032 0.7724 0.1986
vn 0.2980 0.9349 0.1925
vn 0.9186 0.3416 0.1985
vn 0.7153 0.5937 0.3686
vn 0.6197 0.4114 0.6684
vn 0.7963 0.5360 0.2802
vn 0.8857 0.3168 0.3394
vn 0.4387 0.8899 0.1251
vn 0.5060 0.7672 0.3941
vn 0.0005 0.9189 -0.3945
vn -0.4557 0.8902 0.0028
vn -0.4274 0.9034 -0.0339
vn -0.8370 0.5472 0.0040
vn -0.9098 0.4149 0.0074
vn -0.0005 0.9904 0.1384
vn -0.0015 0.8620 0.5068
vn -0.0015 0.5068 0.8621
vn -0.7703 0.3187 -0.5524
vn -0.7703 0.5523 -0.3189
vn -0.0838 0.9880 -0.1301
vn 0.5498 0.3235 -0.7701
vn 0.3230 0.5500 -0.7702
vn 0.1375 0.9869 -0.0844
vn -0.5065 0.8623 -0.0006
vn -0.8661 0.4999 -0.0011
vn -0.0000 0.5000 -0.8660
usemtl Material.005
s off
f 7/1/1 40/2/1 5/3/1
f 5/3/1 80/4/1 8/5/1
f 1/6/1 27/7/1 7/1/1
f 8/5/1 17/8/1 3/9/1
f 3/9/2 13/10/2 9/11/2
f 10/12/2 91/13/2 2/14/2
f 33/15/1 31/16/1 29/17/1
f 27/7/1 34/18/1 33/15/1
f 32/19/1 37/20/1 34/18/1
f 31/16/1 34/18/1 37/20/1
f 48/21/1 46/22/1 44/23/1
f 40/2/1 49/24/1 48/21/1
f 47/25/1 43/26/1 49/24/1
f 43/26/1 46/22/1 49/24/1
f 88/27/1 86/28/1 84/29/1
f 80/4/1 89/30/1 88/27/1
f 87/31/1 83/32/1 89/30/1
f 83/32/1 86/28/1 89/30/1
f 110/33/3 93/34/3 91/13/3
f 17/8/3 15/35/3 13/10/3
f 19/36/4 14/37/4 15/35/4
f 29/17/1 47/25/1 33/15/1
f 47/25/1 27/7/1 33/15/1
f 36/38/1 64/39/1 65/40/1
f 32/19/1 62/41/1 64/39/1
f 44/23/1 87/31/1 48/21/1
f 87/31/1 40/2/1 48/21/1
f 84/29/1 19/36/1 88/27/1
f 88/27/1 17/8/1 80/4/1
f 179/42/5 160/43/5 181/44/5
f 181/44/6 161/45/6 180/46/6
f 7/1/1 27/7/1 40/2/1
f 5/3/1 40/2/1 80/4/1
f 1/6/1 62/41/1 27/7/1
f 8/5/1 80/4/1 17/8/1
f 3/9/2 17/8/2 13/10/2
f 10/12/2 110/33/2 91/13/2
f 33/15/1 34/18/1 31/16/1
f 27/7/1 32/19/1 34/18/1
f 32/19/1 36/38/1 37/20/1
f 48/21/1 49/24/1 46/22/1
f 40/2/1 47/25/1 49/24/1
f 47/25/1 42/47/1 43/26/1
f 88/27/1 89/30/1 86/28/1
f 80/4/1 87/31/1 89/30/1
f 87/31/1 82/48/1 83/32/1
f 110/33/3 112/49/3 93/34/3
f 17/8/3 19/36/3 15/35/3
f 19/36/4 18/50/4 14/37/4
f 29/17/1 42/47/1 47/25/1
f 47/25/1 40/2/1 27/7/1
f 36/38/1 32/19/1 64/39/1
f 32/19/1 27/7/1 62/41/1
f 44/23/1 82/48/1 87/31/1
f 87/31/1 80/4/1 40/2/1
f 84/29/1 18/50/1 19/36/1
f 88/27/1 19/36/1 17/8/1
f 179/42/5 158/51/5 160/43/5
f 181/44/6 160/43/6 161/45/6
s 1
f 131/52/7 122/53/8 119/54/9
f 179/42/10 99/55/11 158/51/12
f 24/56/13 123/57/14 20/58/15
f 142/59/16 99/55/11 51/60/17
f 142/59/16 67/61/18 148/62/19
f 52/63/20 78/64/21 39/65/21
f 100/66/22 16/67/23 79/68/21
f 6/69/24 178/70/25 11/71/24
f 68/72/26 38/73/21 26/74/21
f 134/75/27 127/76/28 179/42/10
f 148/62/19 115/77/29 139/78/30
f 11/71/24 159/79/31 143/80/32
f 63/81/33 66/82/34 28/83/21
f 94/84/35 111/85/36 126/86/37
f 138/87/38 166/88/39 146/89/40
f 126/86/37 12/90/36 100/66/22
f 162/91/41 122/53/8 167/92/42
f 168/93/43 143/80/32 147/94/44
f 29/17/1 30/95/21 26/74/21
f 35/96/21 36/38/1 28/83/21
f 30/95/21 37/20/1 35/96/21
f 41/97/21 42/47/1 38/73/21
f 45/98/21 43/26/1 41/97/21
f 44/23/1 45/98/21 39/65/21
f 53/99/45 54/100/46 50/101/47
f 57/102/48 55/103/49 53/99/45
f 56/104/50 57/102/48 51/60/17
f 56/104/50 61/105/51 58/106/52
f 59/107/53 60/108/54 52/63/20
f 59/107/53 55/103/49 61/105/51
f 55/103/49 58/106/52 61/105/51
f 69/109/55 70/110/46 66/82/34
f 73/111/56 71/112/49 69/109/55
f 72/113/57 73/111/56 67/61/18
f 72/113/57 77/114/58 74/115/52
f 75/116/53 76/117/59 68/72/26
f 75/116/53 71/112/49 77/114/58
f 71/112/49 74/115/52 77/114/58
f 81/118/21 82/48/1 78/64/21
f 85/119/21 83/32/1 81/118/21
f 84/29/1 85/119/21 79/68/21
f 101/120/60 102/121/61 98/122/62
f 105/123/63 103/124/64 101/120/60
f 104/125/65 105/123/63 99/55/11
f 104/125/65 109/126/66 106/127/67
f 107/128/68 108/129/69 100/66/22
f 107/128/68 103/124/64 109/126/66
f 103/124/64 106/127/67 109/126/66
f 112/49/70 92/130/71 93/34/72
f 113/131/73 90/132/74 92/130/71
f 18/50/75 12/90/36 14/37/76
f 38/73/21 29/17/1 26/74/21
f 39/65/21 59/107/53 52/63/20
f 45/98/21 54/100/46 59/107/53
f 41/97/21 50/101/47 54/100/46
f 28/83/21 65/40/77 63/81/78
f 26/74/21 75/116/53 68/72/26
f 30/95/21 70/110/46 75/116/53
f 35/96/21 66/82/34 70/110/46
f 78/64/21 44/23/1 39/65/21
f 79/68/21 107/128/68 100/66/22
f 85/119/21 102/121/61 107/128/68
f 81/118/21 98/122/62 102/121/61
f 13/10/9 112/49/70 110/33/9
f 15/35/79 113/131/73 112/49/70
f 14/37/76 111/85/36 113/131/73
f 99/55/11 56/104/50 51/60/17
f 56/104/50 101/120/60 60/108/54
f 60/108/54 98/122/62 52/63/20
f 51/60/17 72/113/57 67/61/18
f 72/113/57 53/99/45 76/117/59
f 76/117/59 50/101/47 68/72/26
f 119/54/9 124/133/80 121/134/81
f 121/134/81 125/135/82 120/136/83
f 120/136/83 123/57/14 118/137/84
f 126/86/37 96/138/85 94/84/35
f 96/138/85 129/139/86 97/140/87
f 129/139/86 95/141/88 97/140/87
f 115/77/29 73/111/56 117/142/89
f 117/142/89 69/109/55 116/143/90
f 116/143/90 66/82/34 114/144/91
f 16/67/23 84/29/1 79/68/21
f 123/57/14 22/145/92 20/58/15
f 125/135/82 23/146/93 22/145/92
f 124/133/80 21/147/94 23/146/93
f 126/86/37 108/129/69 128/148/95
f 108/129/69 129/139/86 128/148/95
f 104/125/65 127/76/28 129/139/86
f 9/11/2 110/33/9 10/12/2
f 149/149/96 150/150/97 146/151/40
f 153/152/98 151/153/51 149/149/96
f 152/154/99 153/152/98 147/155/44
f 156/156/100 154/157/49 152/154/99
f 155/158/101 156/156/100 148/62/19
f 155/158/101 151/153/51 157/159/52
f 151/153/51 154/157/49 157/159/52
f 169/160/102 170/161/103 166/162/39
f 173/163/104 171/164/105 169/160/102
f 172/165/106 173/163/104 167/92/42
f 172/165/106 177/166/107 174/167/108
f 175/168/109 176/169/110 168/170/43
f 175/168/109 171/164/105 177/166/107
f 171/164/105 174/167/108 177/166/107
f 147/94/44 175/171/109 168/93/43
f 153/172/98 170/173/103 175/171/109
f 149/174/96 166/88/39 170/173/103
f 180/46/111 159/175/31 178/176/25
f 159/175/31 145/177/112 143/178/32
f 161/45/113 144/179/114 145/177/112
f 160/43/115 142/59/16 144/179/114
f 147/155/44 145/177/112 152/154/99
f 152/154/99 144/179/114 156/156/100
f 156/156/100 142/59/16 148/62/19
f 130/180/116 176/169/110 132/181/117
f 176/169/110 133/182/118 132/181/117
f 172/165/106 131/52/7 133/182/118
f 179/42/10 136/183/119 134/75/27
f 136/183/119 180/46/111 137/184/120
f 180/46/111 135/185/121 137/184/120
f 162/91/41 173/163/104 164/186/122
f 164/186/122 169/160/102 165/187/123
f 165/187/123 166/162/39 163/188/124
f 146/151/40 140/189/125 138/190/38
f 150/150/97 141/191/126 140/189/125
f 155/158/101 139/78/30 141/191/126
f 130/192/116 11/71/24 168/93/43
f 131/52/7 167/92/42 122/53/8
f 179/42/10 127/76/28 99/55/11
f 24/56/13 118/137/84 123/57/14
f 142/59/16 158/51/12 99/55/11
f 142/59/16 51/60/17 67/61/18
f 52/63/20 98/122/62 78/64/21
f 100/66/22 12/90/36 16/67/23
f 6/69/24 135/193/121 178/70/25
f 68/72/26 50/101/47 38/73/21
f 134/75/27 95/141/88 127/76/28
f 148/62/19 67/61/18 115/77/29
f 11/71/24 178/70/25 159/79/31
f 63/81/33 114/144/91 66/82/34
f 94/84/35 90/132/74 111/85/36
f 138/87/38 163/194/124 166/88/39
f 126/86/37 111/85/36 12/90/36
f 162/91/41 21/147/94 122/53/8
f 168/93/43 11/71/24 143/80/32
f 29/17/1 31/16/1 30/95/21
f 35/96/21 37/20/1 36/38/1
f 30/95/21 31/16/1 37/20/1
f 41/97/21 43/26/1 42/47/1
f 45/98/21 46/22/1 43/26/1
f 44/23/1 46/22/1 45/98/21
f 53/99/45 55/103/49 54/100/46
f 57/102/48 58/106/52 55/103/49
f 56/104/50 58/106/52 57/102/48
f 56/104/50 60/108/54 61/105/51
f 59/107/53 61/105/51 60/108/54
f 59/107/53 54/100/46 55/103/49
f 69/109/55 71/112/49 70/110/46
f 73/111/56 74/115/52 71/112/49
f 72/113/57 74/115/52 73/111/56
f 72/113/57 76/117/59 77/114/58
f 75/116/53 77/114/58 76/117/59
f 75/116/53 70/110/46 71/112/49
f 81/118/21 83/32/1 82/48/1
f 85/119/21 86/28/1 83/32/1
f 84/29/1 86/28/1 85/119/21
f 101/120/60 103/124/64 102/121/61
f 105/123/63 106/127/67 103/124/64
f 104/125/65 106/127/67 105/123/63
f 104/125/65 108/129/69 109/126/66
f 107/128/68 109/126/66 108/129/69
f 107/128/68 102/121/61 103/124/64
f 112/49/70 113/131/73 92/130/71
f 113/131/73 111/85/36 90/132/74
f 18/50/75 16/67/23 12/90/36
f 38/73/21 42/47/1 29/17/1
f 39/65/21 45/98/21 59/107/53
f 45/98/21 41/97/21 54/100/46
f 41/97/21 38/73/21 50/101/47
f 28/83/21 36/38/1 65/40/77
f 26/74/21 30/95/21 75/116/53
f 30/95/21 35/96/21 70/110/46
f 35/96/21 28/83/21 66/82/34
f 78/64/21 82/48/1 44/23/1
f 79/68/21 85/119/21 107/128/68
f 85/119/21 81/118/21 102/121/61
f 81/118/21 78/64/21 98/122/62
f 13/10/9 15/35/79 112/49/70
f 15/35/79 14/37/76 113/131/73
f 14/37/76 12/90/36 111/85/36
f 99/55/11 105/123/63 56/104/50
f 56/104/50 105/123/63 101/120/60
f 60/108/54 101/120/60 98/122/62
f 51/60/17 57/102/48 72/113/57
f 72/113/57 57/102/48 53/99/45
f 76/117/59 53/99/45 50/101/47
f 119/54/9 122/53/8 124/133/80
f 121/134/81 124/133/80 125/135/82
f 120/136/83 125/135/82 123/57/14
f 126/86/37 128/148/95 96/138/85
f 96/138/85 128/148/95 129/139/86
f 129/139/86 127/76/28 95/141/88
f 115/77/29 67/61/18 73/111/56
f 117/142/89 73/111/56 69/109/55
f 116/143/90 69/109/55 66/82/34
f 16/67/23 18/50/75 84/29/1
f 123/57/14 125/135/82 22/145/92
f 125/135/82 124/133/80 23/146/93
f 124/133/80 122/53/8 21/147/94
f 126/86/37 100/66/22 108/129/69
f 108/129/69 104/125/65 129/139/86
f 104/125/65 99/55/11 127/76/28
f 9/11/2 13/10/9 110/33/9
f 149/149/96 151/153/51 150/150/97
f 153/152/98 154/157/49 151/153/51
f 152/154/99 154/157/49 153/152/98
f 156/156/100 157/159/52 154/157/49
f 155/158/101 157/159/52 156/156/100
f 155/158/101 150/150/97 151/153/51
f 169/160/102 171/164/105 170/161/103
f 173/163/104 174/167/108 171/164/105
f 172/165/106 174/167/108 173/163/104
f 172/165/106 176/169/110 177/166/107
f 175/168/109 177/166/107 176/169/110
f 175/168/109 170/161/103 171/164/105
f 147/94/44 153/172/98 175/171/109
f 153/172/98 149/174/96 170/173/103
f 149/174/96 146/89/40 166/88/39
f 180/46/111 161/45/113 159/175/31
f 159/175/31 161/45/113 145/177/112
f 161/45/113 160/43/115 144/179/114
f 160/43/115 158/51/12 142/59/16
f 147/155/44 143/178/32 145/177/112
f 152/154/99 145/177/112 144/179/114
f 156/156/100 144/179/114 142/59/16
f 130/180/116 168/170/43 176/169/110
f 176/169/110 172/165/106 133/182/118
f 172/165/106 167/92/42 131/52/7
f 179/42/10 181/44/127 136/183/119
f 136/183/119 181/44/127 180/46/111
f 180/46/111 178/176/25 135/185/121
f 162/91/41 167/92/42 173/163/104
f 164/186/122 173/163/104 169/160/102
f 165/187/123 169/160/102 166/162/39
f 146/151/40 150/150/97 140/189/125
f 150/150/97 155/158/101 141/191/126
f 155/158/101 148/62/19 139/78/30
f 130/192/116 6/69/24 11/71/24
l 4 25
