# Blender v3.1.2 OBJ File: ''
# www.blender.org
mtllib down01.mtl
o down01_Plane.008
v -1.110000 -1.000000 -1.000000
v 1.110000 -1.000000 -1.110000
v 1.110000 -1.000000 -1.000000
v 1.110000 -0.890029 -1.110000
v -1.110000 -0.890029 -1.000000
v -1.110000 -1.000000 -1.110000
v -1.110000 -0.890029 -1.110000
v 1.110000 -0.890029 -1.000000
vt 0.982915 0.017081
vt 0.999991 0.000000
vt 0.999991 0.017081
vt 0.672356 0.672360
vt 0.655280 0.361801
vt 0.672356 0.361801
vt 0.102485 0.689441
vt 0.119565 1.000000
vt 0.102485 1.000000
vt 0.017081 0.361801
vt 0.327640 0.344720
vt 0.327640 0.361801
vt 0.999991 0.672360
vt 0.982915 0.689441
vt 0.982915 0.672360
vt 0.187875 1.000000
vt 0.170799 0.689441
vt 0.187875 0.689441
vt 0.982915 0.000000
vt 0.655280 0.672360
vt 0.119565 0.689441
vt 0.017081 0.344720
vt 0.999991 0.689441
vt 0.170799 1.000000
vn -0.5774 0.5774 0.5774
vn -0.5774 -0.5774 -0.5774
vn -0.5774 -0.5774 0.5774
vn 0.5774 0.5774 -0.5774
vn 0.5774 -0.5774 -0.5774
vn 0.5774 0.5774 0.5774
vn -0.5774 0.5774 -0.5774
vn 0.5774 -0.5774 0.5774
usemtl Material.001
s 1
f 5/1/1 6/2/2 1/3/3
f 6/4/2 4/5/4 2/6/5
f 8/7/6 7/8/7 5/9/1
f 1/10/3 2/11/5 3/12/8
f 3/13/8 4/14/4 8/15/6
f 3/16/8 5/17/1 1/18/3
f 5/1/1 7/19/7 6/2/2
f 6/4/2 7/20/7 4/5/4
f 8/7/6 4/21/4 7/8/7
f 1/10/3 6/22/2 2/11/5
f 3/13/8 2/23/5 4/14/4
f 3/16/8 8/24/6 5/17/1
