# Blender v3.1.2 OBJ File: ''
# www.blender.org
mtllib goal.mtl
o Cylinder
v 0.000000 1.000000 -0.200000
v 0.000000 6.400001 -0.200000
v 0.039018 1.000000 -0.196157
v 0.039018 6.400001 -0.196157
v 0.076537 1.000000 -0.184776
v 0.076537 6.400001 -0.184776
v 0.111114 1.000000 -0.166294
v 0.111114 6.400001 -0.166294
v 0.141421 1.000000 -0.141421
v 0.141421 6.400001 -0.141421
v 0.166294 1.000000 -0.111114
v 0.166294 6.400001 -0.111114
v 0.184776 1.000000 -0.076537
v 0.184776 6.400001 -0.076537
v 0.196157 1.000000 -0.039018
v 0.196157 6.400001 -0.039018
v 0.200000 1.000000 0.000000
v 0.198079 6.400001 0.000000
v 0.196157 1.000000 0.039018
v 0.196157 6.400001 0.039018
v 0.184776 1.000000 0.076537
v 0.184776 6.400001 0.076537
v 0.166294 1.000000 0.111114
v 0.166294 6.400001 0.111114
v 0.141421 1.000000 0.141421
v 0.141421 6.400001 0.141421
v 0.111114 1.000000 0.166294
v 0.111114 6.400001 0.166294
v 0.076537 1.000000 0.184776
v 0.076537 6.400001 0.184776
v 0.039018 1.000000 0.196157
v 0.039018 6.400001 0.196157
v -0.000000 1.000000 0.200000
v -0.000000 6.400001 0.200000
v -0.039018 1.000000 0.196157
v -0.039018 6.400001 0.196157
v -0.076537 1.000000 0.184776
v -0.076537 6.400001 0.184776
v -0.111114 1.000000 0.166294
v -0.111114 6.400001 0.166294
v -0.141421 1.000000 0.141421
v -0.141421 6.400001 0.141421
v -0.166294 1.000000 0.111114
v -0.166294 6.400001 0.111114
v -0.184776 1.000000 0.076537
v -0.184776 6.400001 0.076537
v -0.196157 1.000000 0.039018
v -0.196157 6.400001 0.039018
v -0.200000 1.000000 -0.000000
v -0.200000 6.400001 -0.000000
v -0.196157 1.000000 -0.039018
v -0.196157 6.400001 -0.039018
v -0.184776 1.000000 -0.076537
v -0.184776 6.400001 -0.076537
v -0.166294 1.000000 -0.111114
v -0.166294 6.400001 -0.111114
v -0.141421 1.000000 -0.141421
v -0.141421 6.400001 -0.141421
v -0.111114 1.000000 -0.166294
v -0.111114 6.400001 -0.166294
v -0.076537 1.000000 -0.184776
v -0.076537 6.400001 -0.184776
v -0.039018 1.000000 -0.196157
v -0.039018 6.400001 -0.196157
v -0.000000 1.000000 -0.231548
v 0.045173 1.000000 -0.227098
v 0.088609 1.000000 -0.213922
v 0.128641 1.000000 -0.192525
v 0.163729 1.000000 -0.163729
v 0.192525 1.000000 -0.128641
v 0.213922 1.000000 -0.088609
v 0.227098 1.000000 -0.045173
v 0.231548 1.000000 0.000000
v 0.227098 1.000000 0.045173
v 0.213922 1.000000 0.088609
v 0.192525 1.000000 0.128641
v 0.163729 1.000000 0.163729
v 0.128641 1.000000 0.192525
v 0.088609 1.000000 0.213922
v 0.045173 1.000000 0.227099
v -0.000000 1.000000 0.231548
v -0.045173 1.000000 0.227099
v -0.088609 1.000000 0.213922
v -0.128641 1.000000 0.192525
v -0.163729 1.000000 0.163729
v -0.192525 1.000000 0.128641
v -0.213922 1.000000 0.088609
v -0.227099 1.000000 0.045173
v -0.231548 1.000000 -0.000000
v -0.227099 1.000000 -0.045173
v -0.213922 1.000000 -0.088609
v -0.192525 1.000000 -0.128641
v -0.163729 1.000000 -0.163729
v -0.128641 1.000000 -0.192525
v -0.088609 1.000000 -0.213922
v -0.045173 1.000000 -0.227099
v -0.000002 11.400001 -0.200000
v 0.039016 11.400001 -0.196157
v 0.076535 11.400001 -0.184776
v 0.111112 11.400001 -0.166294
v 0.141419 11.400001 -0.141421
v 0.166292 11.400001 -0.111114
v 0.184774 11.400001 -0.076537
v 0.196155 11.400001 -0.039018
v 0.198077 11.400001 0.000000
v 0.196155 11.400001 0.039018
v 0.184774 11.400001 0.076537
v 0.166292 11.400001 0.111114
v 0.141419 11.400001 0.141421
v 0.111112 11.400001 0.166294
v 0.076535 11.400001 0.184776
v 0.039016 11.400001 0.196157
v -0.000002 11.400001 0.200000
v -0.039020 11.400001 0.196157
v -0.076539 11.400001 0.184776
v -0.111116 11.400001 0.166294
v -0.141423 11.400001 0.141421
v -0.166296 11.400001 0.111114
v -0.184778 11.400001 0.076537
v -0.196159 11.400001 0.039018
v -0.200002 11.400001 -0.000000
v -0.196159 11.400001 -0.039018
v -0.184778 11.400001 -0.076537
v -0.166296 11.400001 -0.111114
v -0.141423 11.400001 -0.141421
v -0.111116 11.400001 -0.166294
v -0.076539 11.400001 -0.184776
v -0.039020 11.400001 -0.196157
v 6.548241 6.400001 -0.039018
v 6.548241 6.400001 0.039018
v 6.548239 11.400001 -0.039018
v 6.548239 11.400001 0.039018
v 6.548241 6.400001 -0.000000
v 6.548239 11.400001 -0.000000
v 0.000000 -0.020261 -0.585779
v 0.114280 -0.020261 -0.574523
v 0.224168 -0.020261 -0.541189
v 0.325441 -0.020261 -0.487057
v 0.414208 -0.020261 -0.414208
v 0.487057 -0.020261 -0.325441
v 0.541189 -0.020261 -0.224168
v 0.574523 -0.020261 -0.114280
v 0.585779 -0.020261 0.000000
v 0.574523 -0.020261 0.114280
v 0.541189 -0.020261 0.224168
v 0.487057 -0.020261 0.325441
v 0.414208 -0.020261 0.414208
v 0.325441 -0.020261 0.487057
v 0.224168 -0.020261 0.541189
v 0.114280 -0.020261 0.574523
v 0.000000 -0.020261 0.585779
v -0.114280 -0.020261 0.574523
v -0.224168 -0.020261 0.541189
v -0.325441 -0.020261 0.487057
v -0.414208 -0.020261 0.414208
v -0.487057 -0.020261 0.325441
v -0.541189 -0.020261 0.224168
v -0.574523 -0.020261 0.114280
v -0.585779 -0.020261 0.000000
v -0.574523 -0.020261 -0.114280
v -0.541189 -0.020261 -0.224168
v -0.487057 -0.020261 -0.325441
v -0.414208 -0.020261 -0.414208
v -0.325441 -0.020261 -0.487057
v -0.224168 -0.020261 -0.541189
v -0.114280 -0.020261 -0.574523
vt 0.563054 0.959096
vt 0.546131 0.688316
vt 0.563054 0.688316
vt 0.546131 0.959096
vt 0.529207 0.688316
vt 0.529207 0.959096
vt 0.512283 0.688316
vt 0.512283 0.959096
vt 0.495359 0.688316
vt 0.495359 0.959096
vt 0.478435 0.688316
vt 0.478435 0.959096
vt 0.461512 0.688316
vt 0.461512 0.959096
vt 0.444588 0.688316
vt 0.427664 0.959096
vt 0.427664 0.688316
vt 0.410740 0.688316
vt 0.410740 0.959096
vt 0.393816 0.688316
vt 0.393816 0.959096
vt 0.376893 0.688316
vt 0.376893 0.959096
vt 0.359969 0.688316
vt 0.359969 0.959096
vt 0.343045 0.688316
vt 0.343045 0.959096
vt 0.326121 0.688316
vt 0.326121 0.959096
vt 0.309197 0.688316
vt 0.309197 0.959096
vt 0.292274 0.688316
vt 0.292274 0.959096
vt 0.275350 0.688316
vt 0.275350 0.959096
vt 0.258426 0.688316
vt 0.258426 0.959096
vt 0.241502 0.688316
vt 0.241502 0.959096
vt 0.224579 0.688316
vt 0.224579 0.959096
vt 0.207655 0.688316
vt 0.207655 0.959096
vt 0.190731 0.688316
vt 0.190731 0.959096
vt 0.173807 0.688316
vt 0.173807 0.959096
vt 0.156883 0.688316
vt 0.156883 0.959096
vt 0.139960 0.688316
vt 0.139960 0.959096
vt 0.123036 0.688316
vt 0.123036 0.959096
vt 0.106112 0.688316
vt 0.106112 0.959096
vt 0.089188 0.688316
vt 0.089188 0.959096
vt 0.072264 0.688316
vt 0.072264 0.959096
vt 0.055341 0.688316
vt 0.173807 0.959096
vt 0.055341 0.959096
vt 0.038417 0.688316
vt 0.038417 0.959096
vt 0.021493 0.688316
vt 0.359969 0.688316
vt 0.376893 0.688316
vt 0.224579 0.688316
vt 0.055341 0.688316
vt 0.072264 0.688316
vt 0.444588 0.688316
vt 0.292274 0.688316
vt 0.123036 0.688316
vt 0.139960 0.688316
vt 0.495359 0.688316
vt 0.512283 0.688316
vt 0.207655 0.688316
vt 0.410740 0.688316
vt 0.427664 0.688316
vt 0.275350 0.688316
vt 0.106112 0.688316
vt 0.343045 0.688316
vt 0.173807 0.688316
vt 0.190731 0.688316
vt 0.563054 0.688316
vt 0.021493 0.688316
vt 0.038417 0.688316
vt 0.258426 0.688316
vt 0.461512 0.688316
vt 0.478435 0.688316
vt 0.326121 0.688316
vt 0.156883 0.688316
vt 0.546131 0.688316
vt 0.393816 0.688316
vt 0.241502 0.688316
vt 0.089188 0.688316
vt 0.309197 0.688316
vt 0.529207 0.688316
vt 0.343045 0.688316
vt 0.410740 0.688316
vt 0.546131 0.688316
vt 0.229093 0.660995
vt 0.206623 0.673006
vt 0.286858 0.552925
vt 0.546131 0.959096
vt 0.021493 0.959096
vt 0.021493 0.959096
vt 0.393816 0.959096
vt 0.241502 0.959096
vt 0.089188 0.959096
vt 0.461512 0.959096
vt 0.309197 0.959096
vt 0.156883 0.959096
vt 0.529207 0.959096
vt 0.376893 0.959096
vt 0.224579 0.959096
vt 0.072264 0.959096
vt 0.444588 0.959096
vt 0.444588 0.959096
vt 0.292274 0.959096
vt 0.139960 0.959096
vt 0.512283 0.959096
vt 0.359969 0.959096
vt 0.207655 0.959096
vt 0.055341 0.959096
vt 0.563054 0.682121
vt 0.560990 0.946708
vt 0.560990 0.682121
vt 0.275350 0.959096
vt 0.123036 0.959096
vt 0.495359 0.959096
vt 0.343045 0.959096
vt 0.190731 0.959096
vt 0.038417 0.959096
vt 0.558925 0.946708
vt 0.558925 0.682121
vt 0.258426 0.959096
vt 0.106112 0.959096
vt 0.478435 0.959096
vt 0.326121 0.959096
vt 0.340595 0.462222
vt 0.650242 0.068843
vt 0.650242 0.462222
vt 0.650241 0.068843
vt 0.959888 0.462222
vt 0.650241 0.462222
vt 0.971969 0.378489
vt 0.969553 0.068843
vt 0.971969 0.068843
vt 0.964720 0.068843
vt 0.962304 0.462104
vt 0.962304 0.068843
vt 0.967136 0.462104
vt 0.964720 0.068843
vt 0.967136 0.068843
vt 0.969553 0.462222
vt 0.959887 0.068843
vt 0.959887 0.462222
vt 0.974385 0.378489
vt 0.974385 0.068843
vt 0.089188 0.688316
vt 0.309197 0.688316
vt 0.529207 0.688316
vt 0.072264 0.688316
vt 0.292274 0.688316
vt 0.512283 0.688316
vt 0.055341 0.688316
vt 0.275350 0.688316
vt 0.495359 0.688316
vt 0.038417 0.688316
vt 0.258426 0.688316
vt 0.478435 0.688316
vt 0.021493 0.688316
vt 0.241502 0.688316
vt 0.461512 0.688316
vt 0.224579 0.688316
vt 0.444588 0.688316
vt 0.207655 0.688316
vt 0.427664 0.688316
vt 0.190731 0.688316
vt 0.173807 0.688316
vt 0.393816 0.688316
vt 0.156883 0.688316
vt 0.376893 0.688316
vt 0.139960 0.688316
vt 0.359969 0.688316
vt 0.123036 0.688316
vt 0.106112 0.688316
vt 0.326121 0.688316
vt 0.182240 0.680403
vt 0.156883 0.682900
vt 0.131527 0.680403
vt 0.107144 0.673006
vt 0.084673 0.660995
vt 0.064977 0.644831
vt 0.048813 0.625135
vt 0.036802 0.602665
vt 0.029406 0.578282
vt 0.026909 0.552925
vt 0.029406 0.527569
vt 0.036802 0.503186
vt 0.048813 0.480715
vt 0.064977 0.461019
vt 0.084673 0.444855
vt 0.107144 0.432844
vt 0.131527 0.425448
vt 0.156883 0.422951
vt 0.182240 0.425448
vt 0.206623 0.432844
vt 0.229093 0.444855
vt 0.248789 0.461019
vt 0.264953 0.480715
vt 0.276964 0.503186
vt 0.284361 0.527569
vt 0.284361 0.578282
vt 0.276964 0.602665
vt 0.264953 0.625135
vt 0.248789 0.644831
vt 0.563054 0.959096
vt 0.410740 0.959096
vt 0.563054 0.946708
vt 0.340595 0.068843
vt 0.959888 0.068843
vt 0.969553 0.378489
vt 0.964720 0.462222
vt 0.964720 0.462222
vt 0.563054 0.688316
vn 0.0980 0.0000 -0.9952
vn 0.2903 0.0000 -0.9569
vn 0.4714 0.0000 -0.8819
vn 0.6344 0.0000 -0.7730
vn 0.7730 0.0000 -0.6344
vn 0.8819 0.0000 -0.4714
vn 0.9569 0.0000 -0.2903
vn 0.9952 0.0004 -0.0980
vn 0.9952 0.0004 0.0980
vn 0.9569 0.0000 0.2903
vn 0.8819 0.0000 0.4714
vn 0.7730 0.0000 0.6344
vn 0.6344 0.0000 0.7730
vn 0.4714 0.0000 0.8819
vn 0.2903 0.0000 0.9569
vn 0.0980 0.0000 0.9952
vn -0.0980 0.0000 0.9952
vn -0.2903 0.0000 0.9569
vn -0.4714 0.0000 0.8819
vn -0.6344 0.0000 0.7730
vn -0.7730 0.0000 0.6344
vn -0.8819 0.0000 0.4714
vn -0.9569 0.0000 0.2903
vn -0.9952 0.0000 0.0980
vn -0.9952 0.0000 -0.0980
vn -0.9569 0.0000 -0.2903
vn -0.8819 0.0000 -0.4714
vn -0.7730 0.0000 -0.6344
vn -0.6344 0.0000 -0.7730
vn -0.4714 0.0000 -0.8819
vn -0.2903 0.0000 -0.9569
vn -0.0980 0.0000 -0.9952
vn 0.0000 1.0000 0.0000
vn 0.9988 0.0000 -0.0492
vn 0.9988 0.0000 0.0492
vn 0.0000 0.0000 1.0000
vn 0.0000 0.0000 -1.0000
vn -1.0000 -0.0000 0.0000
vn 0.0000 -1.0000 0.0000
vn 0.7306 -0.3266 0.5996
vn -0.2744 -0.3266 -0.9045
vn -0.2744 -0.3266 0.9045
vn 0.5996 -0.3266 0.7306
vn -0.0926 -0.3266 -0.9406
vn -0.4455 -0.3266 0.8336
vn 0.4456 -0.3266 0.8336
vn 0.0926 -0.3266 -0.9406
vn -0.5996 -0.3266 0.7306
vn 0.2744 -0.3266 0.9045
vn 0.2744 -0.3266 -0.9045
vn -0.7306 -0.3266 0.5996
vn 0.0926 -0.3266 0.9406
vn 0.4456 -0.3266 -0.8336
vn -0.8336 -0.3266 0.4455
vn 0.5996 -0.3266 -0.7306
vn -0.9045 -0.3266 0.2744
vn 0.7306 -0.3266 -0.5996
vn -0.9406 -0.3266 0.0926
vn -0.8336 0.3266 0.4456
vn -0.9406 -0.3266 -0.0926
vn 0.9045 -0.3266 -0.2744
vn -0.9045 -0.3266 -0.2744
vn 0.9406 -0.3266 -0.0926
vn -0.8336 -0.3266 -0.4455
vn 0.9406 -0.3266 0.0926
vn -0.7306 -0.3266 -0.5996
vn 0.9045 -0.3266 0.2744
vn -0.5996 -0.3266 -0.7306
vn 0.8336 -0.3266 0.4456
vn -0.4456 -0.3266 -0.8336
vn -0.0926 -0.3266 0.9406
vn 0.0000 1.0000 -0.0001
vn 0.0000 1.0000 0.0001
vn -0.4456 -0.3266 0.8336
vn -0.4455 -0.3266 -0.8336
usemtl Material.026
s off
f 2/1/1 3/2/1 1/3/1
f 4/4/2 5/5/2 3/2/2
f 6/6/3 7/7/3 5/5/3
f 8/8/4 9/9/4 7/7/4
f 10/10/5 11/11/5 9/9/5
f 12/12/6 13/13/6 11/11/6
f 14/14/7 15/15/7 13/13/7
f 15/15/8 18/16/8 17/17/8
f 18/16/9 19/18/9 17/17/9
f 20/19/10 21/20/10 19/18/10
f 22/21/11 23/22/11 21/20/11
f 24/23/12 25/24/12 23/22/12
f 26/25/13 27/26/13 25/24/13
f 28/27/14 29/28/14 27/26/14
f 30/29/15 31/30/15 29/28/15
f 32/31/16 33/32/16 31/30/16
f 34/33/17 35/34/17 33/32/17
f 36/35/18 37/36/18 35/34/18
f 38/37/19 39/38/19 37/36/19
f 40/39/20 41/40/20 39/38/20
f 42/41/21 43/42/21 41/40/21
f 44/43/22 45/44/22 43/42/22
f 46/45/23 47/46/23 45/44/23
f 48/47/24 49/48/24 47/46/24
f 50/49/25 51/50/25 49/48/25
f 52/51/26 53/52/26 51/50/26
f 54/53/27 55/54/27 53/52/27
f 56/55/28 57/56/28 55/54/28
f 58/57/29 59/58/29 57/56/29
f 60/59/30 61/60/30 59/58/30
f 46/45/23 120/61/23 48/47/23
f 62/62/31 63/63/31 61/60/31
f 64/64/32 1/65/32 63/63/32
f 23/22/33 77/66/33 76/67/33
f 43/42/33 85/68/33 41/40/33
f 59/58/33 95/69/33 94/70/33
f 17/17/33 72/71/33 15/15/33
f 35/34/33 81/72/33 33/32/33
f 51/50/33 91/73/33 90/74/33
f 7/7/33 69/75/33 68/76/33
f 27/26/33 77/66/33 25/24/33
f 45/44/33 86/77/33 43/42/33
f 63/63/33 95/69/33 61/60/33
f 17/17/33 74/78/33 73/79/33
f 37/36/33 82/80/33 35/34/33
f 53/52/33 92/81/33 91/73/33
f 11/11/33 69/75/33 9/9/33
f 29/28/33 78/82/33 27/26/33
f 45/44/33 88/83/33 87/84/33
f 3/2/33 65/85/33 1/3/33
f 63/63/33 65/86/33 96/87/33
f 21/20/33 74/78/33 19/18/33
f 39/38/33 83/88/33 37/36/33
f 57/56/33 92/81/33 55/54/33
f 11/11/33 71/89/33 70/90/33
f 31/30/33 79/91/33 29/28/33
f 47/46/33 89/92/33 88/83/33
f 5/5/33 66/93/33 3/2/33
f 21/20/33 76/67/33 75/94/33
f 39/38/33 85/68/33 84/95/33
f 59/58/33 93/96/33 57/56/33
f 13/13/33 72/71/33 71/89/33
f 31/30/33 81/72/33 80/97/33
f 51/50/33 89/92/33 49/48/33
f 5/5/33 68/76/33 67/98/33
f 148/99/33 144/100/33 136/101/33
f 100/102/33 99/103/33 105/104/33
f 2/1/1 98/105/1 4/4/1
f 64/64/32 97/106/32 2/107/32
f 20/19/10 107/108/10 22/21/10
f 38/37/19 116/109/19 40/39/19
f 56/55/28 125/110/28 58/57/28
f 12/12/6 103/111/6 14/14/6
f 30/29/15 112/112/15 32/31/15
f 48/47/24 121/113/24 50/49/24
f 4/4/2 99/114/2 6/6/2
f 22/21/11 108/115/11 24/23/11
f 40/39/20 117/116/20 42/41/20
f 58/57/29 126/117/29 60/59/29
f 14/14/7 104/118/7 16/119/7
f 32/31/16 113/120/16 34/33/16
f 50/49/25 122/121/25 52/51/25
f 6/6/3 100/122/3 8/8/3
f 24/23/12 109/123/12 26/25/12
f 44/43/21 117/116/21 118/124/21
f 60/59/30 127/125/30 62/62/30
f 16/126/34 105/127/34 18/128/34
f 34/33/17 114/129/17 36/35/17
f 54/53/26 122/121/26 123/130/26
f 8/8/4 101/131/4 10/10/4
f 26/25/13 110/132/13 28/27/13
f 44/43/22 119/133/22 46/45/22
f 62/62/31 128/134/31 64/64/31
f 18/128/35 106/135/35 20/136/35
f 36/35/18 115/137/18 38/37/18
f 54/53/27 124/138/27 56/55/27
f 10/10/5 102/139/5 12/12/5
f 30/29/14 110/132/14 111/140/14
f 16/141/36 131/142/36 104/143/36
f 20/144/37 132/145/37 130/146/37
f 134/147/38 129/148/38 133/149/38
f 132/150/39 105/151/39 134/152/39
f 18/153/33 130/154/33 133/155/33
f 18/153/33 129/148/33 16/156/33
f 131/157/39 105/151/39 104/158/39
f 132/159/38 133/149/38 130/160/38
f 92/81/40 163/161/40 93/96/40
f 79/91/41 150/162/41 80/97/41
f 66/93/42 137/163/42 67/98/42
f 93/96/43 164/164/43 94/70/43
f 80/97/44 151/165/44 81/72/44
f 67/98/45 138/166/45 68/76/45
f 95/69/46 164/164/46 165/167/46
f 81/72/47 152/168/47 82/80/47
f 68/76/48 139/169/48 69/75/48
f 95/69/49 166/170/49 96/87/49
f 82/80/50 153/171/50 83/88/50
f 69/75/51 140/172/51 70/90/51
f 96/87/52 135/173/52 65/86/52
f 83/88/53 154/174/53 84/95/53
f 70/90/54 141/175/54 71/89/54
f 85/68/55 154/174/55 155/176/55
f 71/89/56 142/177/56 72/71/56
f 86/77/57 155/176/57 156/178/57
f 72/71/58 143/179/58 73/79/58
f 86/77/59 157/180/59 156/178/59
f 73/79/60 144/100/60 74/78/60
f 87/84/61 158/181/61 88/83/61
f 74/78/62 145/182/62 75/94/62
f 89/92/63 158/181/63 159/183/63
f 75/94/64 146/184/64 76/67/64
f 89/92/65 160/185/65 90/74/65
f 76/67/66 147/186/66 77/66/66
f 90/74/67 161/187/67 91/73/67
f 77/66/68 148/99/68 78/82/68
f 92/81/69 161/187/69 162/188/69
f 79/91/70 148/99/70 149/189/70
f 65/85/71 136/101/71 66/93/71
f 2/1/1 4/4/1 3/2/1
f 4/4/2 6/6/2 5/5/2
f 6/6/3 8/8/3 7/7/3
f 8/8/4 10/10/4 9/9/4
f 10/10/5 12/12/5 11/11/5
f 12/12/6 14/14/6 13/13/6
f 14/14/7 16/119/7 15/15/7
f 15/15/34 16/119/34 18/16/34
f 18/16/35 20/19/35 19/18/35
f 20/19/10 22/21/10 21/20/10
f 22/21/11 24/23/11 23/22/11
f 24/23/12 26/25/12 25/24/12
f 26/25/13 28/27/13 27/26/13
f 28/27/14 30/29/14 29/28/14
f 30/29/15 32/31/15 31/30/15
f 32/31/16 34/33/16 33/32/16
f 34/33/17 36/35/17 35/34/17
f 36/35/18 38/37/18 37/36/18
f 38/37/19 40/39/19 39/38/19
f 40/39/20 42/41/20 41/40/20
f 42/41/21 44/43/21 43/42/21
f 44/43/22 46/45/22 45/44/22
f 46/45/23 48/47/23 47/46/23
f 48/47/24 50/49/24 49/48/24
f 50/49/25 52/51/25 51/50/25
f 52/51/26 54/53/26 53/52/26
f 54/53/27 56/55/27 55/54/27
f 56/55/28 58/57/28 57/56/28
f 58/57/29 60/59/29 59/58/29
f 60/59/30 62/62/30 61/60/30
f 46/45/23 119/133/23 120/61/23
f 62/62/31 64/64/31 63/63/31
f 64/64/32 2/107/32 1/65/32
f 23/22/33 25/24/33 77/66/33
f 43/42/33 86/77/33 85/68/33
f 59/58/33 61/60/33 95/69/33
f 17/17/33 73/79/33 72/71/33
f 35/34/33 82/80/33 81/72/33
f 51/50/33 53/52/33 91/73/33
f 7/7/33 9/9/33 69/75/33
f 27/26/33 78/82/33 77/66/33
f 45/44/33 87/84/33 86/77/33
f 63/63/33 96/87/33 95/69/33
f 17/17/33 19/18/33 74/78/33
f 37/36/33 83/88/33 82/80/33
f 53/52/33 55/54/33 92/81/33
f 11/11/33 70/90/33 69/75/33
f 29/28/33 79/91/33 78/82/33
f 45/44/33 47/46/33 88/83/33
f 3/2/33 66/93/33 65/85/33
f 63/63/33 1/65/33 65/86/33
f 21/20/33 75/94/33 74/78/33
f 39/38/33 84/95/33 83/88/33
f 57/56/33 93/96/33 92/81/33
f 11/11/33 13/13/33 71/89/33
f 31/30/33 80/97/33 79/91/33
f 47/46/33 49/48/33 89/92/33
f 5/5/33 67/98/33 66/93/33
f 21/20/33 23/22/33 76/67/33
f 39/38/33 41/40/33 85/68/33
f 59/58/33 94/70/33 93/96/33
f 13/13/33 15/15/33 72/71/33
f 31/30/33 33/32/33 81/72/33
f 51/50/33 90/74/33 89/92/33
f 5/5/33 7/7/33 68/76/33
f 136/101/33 135/173/33 164/164/33
f 135/173/33 166/170/33 164/164/33
f 166/170/33 165/167/33 164/164/33
f 164/164/33 163/161/33 162/188/33
f 162/188/33 161/187/33 160/185/33
f 160/185/33 159/183/33 156/178/33
f 159/183/33 158/181/33 156/178/33
f 158/181/33 157/180/33 156/178/33
f 156/178/33 155/176/33 154/174/33
f 154/174/33 153/171/33 152/168/33
f 152/168/33 151/165/33 148/99/33
f 151/165/33 150/162/33 148/99/33
f 150/162/33 149/189/33 148/99/33
f 148/99/33 147/186/33 146/184/33
f 146/184/33 145/182/33 148/99/33
f 145/182/33 144/100/33 148/99/33
f 144/100/33 143/179/33 142/177/33
f 142/177/33 141/175/33 140/172/33
f 140/172/33 139/169/33 138/166/33
f 138/166/33 137/163/33 136/101/33
f 164/164/33 162/188/33 136/101/33
f 162/188/33 160/185/33 136/101/33
f 156/178/33 154/174/33 152/168/33
f 144/100/33 142/177/33 136/101/33
f 142/177/33 140/172/33 136/101/33
f 140/172/33 138/166/33 136/101/33
f 160/185/33 156/178/33 136/101/33
f 156/178/33 152/168/33 136/101/33
f 152/168/33 148/99/33 136/101/33
f 99/103/33 98/190/33 105/104/33
f 98/190/72 97/191/72 105/104/72
f 97/191/33 128/192/33 105/104/33
f 128/192/33 127/193/33 105/104/33
f 127/193/33 126/194/33 105/104/33
f 126/194/33 125/195/33 105/104/33
f 125/195/73 124/196/73 105/104/73
f 124/196/72 123/197/72 105/104/72
f 123/197/73 122/198/73 105/104/73
f 122/198/33 121/199/33 105/104/33
f 121/199/33 120/200/33 105/104/33
f 120/200/33 119/201/33 105/104/33
f 119/201/33 118/202/33 105/104/33
f 118/202/33 117/203/33 105/104/33
f 117/203/33 116/204/33 105/104/33
f 116/204/33 115/205/33 105/104/33
f 115/205/33 114/206/33 105/104/33
f 114/206/33 113/207/33 105/104/33
f 113/207/33 112/208/33 105/104/33
f 112/208/33 111/209/33 105/104/33
f 111/209/33 110/210/33 105/104/33
f 110/210/33 109/211/33 105/104/33
f 109/211/33 108/212/33 105/104/33
f 108/212/33 107/213/33 105/104/33
f 107/213/73 106/214/73 105/104/73
f 105/104/33 104/215/33 103/216/33
f 103/216/33 102/217/33 105/104/33
f 102/217/33 101/218/33 105/104/33
f 101/218/33 100/102/33 105/104/33
f 2/1/1 97/219/1 98/105/1
f 64/64/32 128/134/32 97/106/32
f 20/19/10 106/220/10 107/108/10
f 38/37/19 115/137/19 116/109/19
f 56/55/28 124/138/28 125/110/28
f 12/12/6 102/139/6 103/111/6
f 30/29/15 111/140/15 112/112/15
f 48/47/24 120/61/24 121/113/24
f 4/4/2 98/105/2 99/114/2
f 22/21/11 107/108/11 108/115/11
f 40/39/20 116/109/20 117/116/20
f 58/57/29 125/110/29 126/117/29
f 14/14/7 103/111/7 104/118/7
f 32/31/16 112/112/16 113/120/16
f 50/49/25 121/113/25 122/121/25
f 6/6/3 99/114/3 100/122/3
f 24/23/12 108/115/12 109/123/12
f 44/43/21 42/41/21 117/116/21
f 60/59/30 126/117/30 127/125/30
f 16/126/34 104/221/34 105/127/34
f 34/33/17 113/120/17 114/129/17
f 54/53/26 52/51/26 122/121/26
f 8/8/4 100/122/4 101/131/4
f 26/25/13 109/123/13 110/132/13
f 44/43/22 118/124/22 119/133/22
f 62/62/31 127/125/31 128/134/31
f 18/128/35 105/127/35 106/135/35
f 36/35/18 114/129/18 115/137/18
f 54/53/27 123/130/27 124/138/27
f 10/10/5 101/131/5 102/139/5
f 30/29/14 28/27/14 110/132/14
f 16/141/36 129/222/36 131/142/36
f 20/144/37 106/223/37 132/145/37
f 134/147/38 131/224/38 129/148/38
f 132/150/39 106/225/39 105/151/39
f 18/153/33 20/226/33 130/154/33
f 18/153/33 133/155/33 129/148/33
f 131/157/39 134/152/39 105/151/39
f 132/159/38 134/147/38 133/149/38
f 92/81/40 162/188/40 163/161/40
f 79/91/41 149/189/41 150/162/41
f 66/93/42 136/101/42 137/163/42
f 93/96/43 163/161/43 164/164/43
f 80/97/44 150/162/44 151/165/44
f 67/98/74 137/163/74 138/166/74
f 95/69/46 94/70/46 164/164/46
f 81/72/47 151/165/47 152/168/47
f 68/76/48 138/166/48 139/169/48
f 95/69/49 165/167/49 166/170/49
f 82/80/50 152/168/50 153/171/50
f 69/75/51 139/169/51 140/172/51
f 96/87/52 166/170/52 135/173/52
f 83/88/53 153/171/53 154/174/53
f 70/90/54 140/172/54 141/175/54
f 85/68/55 84/95/55 154/174/55
f 71/89/56 141/175/56 142/177/56
f 86/77/57 85/68/57 155/176/57
f 72/71/58 142/177/58 143/179/58
f 86/77/59 87/84/59 157/180/59
f 73/79/60 143/179/60 144/100/60
f 87/84/61 157/180/61 158/181/61
f 74/78/62 144/100/62 145/182/62
f 89/92/63 88/83/63 158/181/63
f 75/94/64 145/182/64 146/184/64
f 89/92/65 159/183/65 160/185/65
f 76/67/66 146/184/66 147/186/66
f 90/74/67 160/185/67 161/187/67
f 77/66/68 147/186/68 148/99/68
f 92/81/69 91/73/69 161/187/69
f 79/91/75 78/82/75 148/99/75
f 65/85/71 135/227/71 136/101/71
