# Blender v3.1.2 OBJ File: ''
# www.blender.org
mtllib Map017.mtl
o Map.017_Plane.035
v 0.500000 -0.000000 0.500000
v -0.499999 0.089271 0.500001
v -0.500000 -0.000000 0.500001
v 0.497322 0.099271 0.499999
v 0.500001 0.089271 0.499999
v 0.500000 0.010000 0.329298
v 0.500000 0.020000 0.331978
v 0.490001 0.106591 0.499999
v 0.480001 0.109271 0.351978
v 0.480001 0.109271 0.500000
v 0.490001 0.106591 0.341978
v 0.497321 0.099271 0.334657
v 0.500000 0.089271 0.331978
v -0.499999 0.099271 0.500001
v 0.500000 -0.000000 0.311978
v 0.500000 0.002679 0.321978
v 0.500000 0.020000 -0.331978
v -0.500000 0.089271 -0.331977
v -0.500000 0.020000 -0.331977
v -0.500000 0.020000 0.331979
v 0.480000 0.109271 -0.351978
v -0.500000 0.109271 -0.499999
v -0.500000 0.109271 -0.351977
v -0.499999 0.109271 0.500001
v -0.500000 0.109271 0.351979
v -0.500000 0.089271 -0.499999
v 0.497321 0.099271 -0.499999
v 0.500000 0.089271 -0.499999
v -0.500000 0.099271 -0.499999
v 0.490000 0.106591 -0.499999
v -0.500000 0.106591 -0.499999
v 0.480000 0.109271 -0.499999
v -0.500000 0.106591 -0.341977
v 0.490000 0.106591 -0.341978
v -0.500000 0.099271 -0.334657
v 0.497321 0.099271 -0.334657
v 0.500000 0.089271 -0.331978
v -0.500000 0.089271 0.331979
v -0.500000 0.099271 0.334658
v -0.500000 0.106591 0.341979
v -0.499999 0.106591 0.500001
v 0.500000 0.000000 -0.500000
v 0.500000 0.010000 -0.329298
v -0.500000 0.010000 -0.329298
v 0.500000 0.002679 -0.321978
v -0.500000 0.002680 -0.321977
v 0.500000 0.000000 -0.311978
v -0.500000 -0.000000 0.311979
v -0.500000 0.002680 0.321979
v -0.500000 0.010000 0.329299
v -0.500000 0.000000 -0.311977
v -0.500000 0.000000 -0.499999
v 0.500000 0.020000 0.500000
v 0.500000 0.010000 0.500000
v 0.500000 0.002679 0.500000
v 0.500000 0.020000 -0.500000
v 0.500000 0.010000 -0.500000
v 0.500000 0.002679 -0.500000
v -0.500000 0.020000 -0.499999
v -0.500000 0.010000 -0.499999
v -0.500000 0.002680 -0.499999
v -0.500000 0.020000 0.500001
v -0.500000 0.010000 0.500001
v -0.500000 0.002680 0.500001
vt 0.174410 0.889942
vt 0.182415 0.110058
vt 0.182415 0.889942
vt 0.417086 0.248894
vt 0.419176 0.141253
vt 0.419176 0.241096
vt 0.411377 0.254604
vt 0.417086 0.133455
vt 0.411377 0.127745
vt 0.403578 0.256693
vt 0.403578 0.125656
vt 0.349555 0.125656
vt 0.349555 0.256693
vt 0.174410 0.110058
vt 0.251440 0.889942
vt 0.249369 0.110058
vt 0.251441 0.110058
vt 0.333957 0.256693
vt 0.336047 0.117857
vt 0.336046 0.256693
vt 0.341756 0.256693
vt 0.341756 0.123566
vt 0.235976 0.889942
vt 0.235977 0.110058
vt 0.243708 0.889942
vt 0.243709 0.110058
vt 0.249369 0.889942
vt 0.333957 0.110058
vt 0.213042 0.734394
vt 0.213043 0.937090
vt 0.203653 0.937090
vt 0.203653 0.725005
vt 0.337211 0.284097
vt 0.385150 0.167819
vt 0.385149 0.284097
vt 0.397136 0.160898
vt 0.398990 0.284097
vt 0.397136 0.284097
vt 0.392070 0.165964
vt 0.392070 0.284097
vt 0.101971 0.721567
vt 0.089145 0.937090
vt 0.089145 0.718131
vt 0.310363 0.846022
vt 0.263155 0.153978
vt 0.310363 0.153978
vt 0.266099 0.110058
vt 0.319299 0.889942
vt 0.266099 0.889942
vt 0.169081 0.846022
vt 0.080679 0.153978
vt 0.169081 0.153978
vt 0.160362 0.110058
vt 0.060739 0.889942
vt 0.060739 0.110058
vt 0.237360 0.153978
vt 0.244463 0.846022
vt 0.237360 0.846022
vt 0.244463 0.153978
vt 0.250147 0.846022
vt 0.073896 0.153978
vt 0.080679 0.846022
vt 0.073896 0.846022
vt 0.176109 0.153978
vt 0.176109 0.846022
vt 0.250147 0.846022
vt 0.256017 0.153978
vt 0.256017 0.846022
vt 0.263154 0.846022
vt 0.319299 0.110058
vt 0.327343 0.889942
vt 0.327343 0.110058
vt 0.333957 0.889942
vt 0.052819 0.110058
vt 0.052818 0.889942
vt 0.160361 0.889942
vt 0.168005 0.110058
vt 0.168005 0.889942
vt 0.317500 0.846022
vt 0.317500 0.153978
vt 0.323370 0.846022
vt 0.398990 0.153978
vt 0.406019 0.846022
vt 0.398990 0.846022
vt 0.419176 0.110058
vt 0.427096 0.889942
vt 0.419176 0.889942
vt 0.251441 0.110058
vt 0.258055 0.889942
vt 0.251441 0.889942
vt 0.258055 0.110058
vt 0.752986 0.398341
vt 0.620656 0.703111
vt 0.752986 0.703111
vt 0.330291 0.282243
vt 0.325224 0.174739
vt 0.330291 0.169673
vt 0.325224 0.277177
vt 0.323370 0.181660
vt 0.250147 0.153978
vt 0.250147 0.153978
vt 0.333957 0.110058
vt 0.323370 0.153978
vt 0.406019 0.153978
vt 0.427096 0.110058
vt 0.620656 0.398341
vt 0.323370 0.270256
vt 0.337211 0.167819
vt 0.176109 0.153978
vt 0.177947 0.846022
vt 0.176109 0.846022
vt 0.216480 0.747221
vt 0.216480 0.937090
vt 0.319090 0.670176
vt 0.107033 0.683001
vt 0.103597 0.670176
vt 0.190826 0.937090
vt 0.190826 0.721567
vt 0.079755 0.937090
vt 0.079755 0.708740
vt 0.075769 0.937081
vt 0.075769 0.695900
vt 0.319090 0.692389
vt 0.129248 0.695826
vt 0.116423 0.692389
vt 0.319090 0.683001
vt 0.319090 0.581334
vt 0.103598 0.581334
vt 0.319090 0.568509
vt 0.100160 0.568509
vt 0.319090 0.559120
vt 0.090772 0.559120
vt 0.319081 0.555135
vt 0.189831 0.153978
vt 0.189831 0.846022
vt 0.182970 0.153978
vt 0.182970 0.846022
vt 0.177948 0.153978
vt 0.398990 0.153978
vt 0.101971 0.937090
vt 0.319090 0.695826
vt 0.075769 0.555097
vn 0.0000 -0.0000 1.0000
vn 0.3667 0.9254 0.0959
vn 0.1374 0.9891 -0.0523
vn 0.2047 0.9770 0.0600
vn 0.7972 0.6037 -0.0000
vn 0.6018 0.7965 -0.0583
vn 0.6313 0.7670 0.1147
vn 0.9592 0.2823 -0.0137
vn 0.9659 0.2588 -0.0000
vn 1.0000 -0.0000 -0.0000
vn 0.2983 0.9437 -0.1429
vn 0.7127 0.7009 -0.0268
vn 0.9569 0.2563 0.1369
vn -0.9925 -0.0956 0.0755
vn -0.9891 -0.1450 -0.0254
vn -1.0000 0.0000 0.0000
vn 0.7280 0.0958 -0.6789
vn 0.7585 -0.0137 0.6515
vn 0.7071 0.0000 -0.7071
vn 0.2273 -0.0720 0.9711
vn 0.2048 -0.5666 0.7982
vn 0.0000 0.1305 0.9914
vn -0.0000 0.1305 -0.9914
vn -0.0000 0.1191 -0.9929
vn 0.0988 0.9942 -0.0427
vn -0.1085 0.7051 -0.7008
vn -0.1413 0.9815 0.1292
vn -0.1781 0.6957 0.6959
vn 0.1302 0.9862 -0.1024
vn -0.0859 0.9881 -0.1276
vn 0.0000 0.0000 -1.0000
vn 0.7227 0.1843 -0.6661
vn 0.5560 0.4979 -0.6656
vn -0.0254 0.1450 -0.9891
vn -0.0650 0.7298 -0.6806
vn 0.0186 0.9238 0.3825
vn 0.1846 0.9653 0.1846
vn 0.0000 0.5000 0.8660
vn 0.5664 0.5986 0.5664
vn 0.6972 0.1672 0.6972
vn 0.0291 0.4349 -0.9000
vn -0.0000 0.5000 -0.8660
vn 0.1287 0.8464 -0.5167
vn -0.0282 0.9349 -0.3539
vn 0.0790 0.5331 0.8424
vn 0.0166 0.1176 0.9929
vn 0.0657 0.1343 0.9888
vn 0.1185 0.0684 0.9906
vn 0.0000 0.8660 0.5000
vn 0.1711 0.9767 0.1295
vn 0.0000 0.9914 -0.1305
vn -0.0000 0.8660 -0.5000
vn 0.0000 0.9914 0.1305
vn -0.9910 0.1328 0.0175
vn -0.9963 0.0580 -0.0631
vn -0.9929 -0.1176 -0.0166
vn -0.9967 0.0803 -0.0131
vn -0.9886 -0.0831 -0.1259
vn -0.9900 0.0997 0.0995
usemtl Material.017
s off
f 4/1/1 2/2/1 5/3/1
f 8/4/2 9/5/3 10/6/4
f 4/7/5 11/8/6 8/4/7
f 12/9/8 5/10/9 13/11/9
f 7/12/10 5/10/10 53/13/10
f 4/1/1 14/14/1 2/2/1
f 8/4/2 11/8/11 9/5/3
f 4/7/5 12/9/12 11/8/6
f 12/9/8 4/7/13 5/10/9
f 1/15/1 64/16/1 3/17/1
f 1/18/10 16/19/10 55/20/10
f 54/21/10 7/12/10 53/13/10
f 6/22/10 55/20/10 16/19/10
f 53/23/1 2/2/1 62/24/1
f 54/25/1 62/24/1 63/26/1
f 55/27/1 63/26/1 64/16/1
f 7/12/10 13/11/10 5/10/10
f 1/15/1 55/27/1 64/16/1
f 1/18/10 15/28/10 16/19/10
f 54/21/10 6/22/10 7/12/10
f 6/22/10 54/21/10 55/20/10
f 53/23/1 5/3/1 2/2/1
f 54/25/1 53/23/1 62/24/1
f 55/27/1 54/25/1 63/26/1
s 1
f 33/29/14 31/30/15 29/31/16
f 33/29/14 29/31/16 35/32/16
f 28/33/17 17/34/18 56/35/19
f 45/36/20 42/37/19 58/38/19
f 43/39/21 58/38/19 57/40/19
f 19/41/16 60/42/16 44/43/16
f 17/44/18 18/45/22 19/46/22
f 20/47/23 13/48/24 7/49/23
f 21/50/25 22/51/26 23/52/27
f 24/53/28 9/54/29 25/55/30
f 26/56/31 27/57/32 28/58/17
f 29/59/31 30/60/33 27/57/32
f 31/61/34 32/62/35 30/63/33
f 21/50/25 33/64/36 34/65/37
f 34/66/37 35/67/38 36/68/39
f 36/68/39 18/45/22 37/69/40
f 38/70/23 12/71/41 13/48/24
f 39/72/42 11/73/43 12/71/41
f 40/74/44 9/54/29 11/75/43
f 10/76/45 41/77/46 8/78/47
f 8/78/47 14/14/1 4/1/48
f 19/46/22 43/79/21 17/44/18
f 44/80/38 45/81/20 43/79/21
f 46/82/49 47/83/50 45/84/20
f 48/85/51 16/86/52 15/87/51
f 49/88/52 6/89/42 16/90/52
f 50/91/42 7/49/23 6/89/42
f 15/92/51 51/93/53 48/94/51
f 27/95/32 34/96/37 36/97/39
f 30/98/33 21/99/25 34/96/37
f 36/97/39 28/33/17 27/95/32
f 17/44/18 37/69/40 18/45/22
f 20/47/23 38/70/23 13/48/24
f 21/50/25 32/62/35 22/51/26
f 24/53/28 10/76/45 9/54/29
f 26/56/31 29/59/31 27/57/32
f 29/59/31 31/100/34 30/60/33
f 31/61/34 22/51/26 32/62/35
f 21/50/25 23/52/27 33/64/36
f 34/66/37 33/101/36 35/67/38
f 36/68/39 35/67/38 18/45/22
f 38/70/23 39/72/42 12/71/41
f 39/72/42 40/102/44 11/73/43
f 40/74/44 25/55/30 9/54/29
f 10/76/45 24/53/28 41/77/46
f 8/78/47 41/77/46 14/14/1
f 19/46/22 44/80/38 43/79/21
f 44/80/38 46/103/49 45/81/20
f 46/82/49 51/104/53 47/83/50
f 48/85/51 49/105/52 16/86/52
f 49/88/52 50/91/42 6/89/42
f 50/91/42 20/47/23 7/49/23
f 15/92/51 47/106/50 51/93/53
f 27/95/32 30/98/33 34/96/37
f 30/98/33 32/107/35 21/99/25
f 36/97/39 37/108/40 28/33/17
f 52/109/31 58/110/19 42/111/19
f 17/34/18 57/40/19 56/35/19
f 31/30/15 23/112/54 22/113/55
f 2/114/16 39/115/16 38/116/16
f 26/117/16 35/32/16 29/31/16
f 26/117/16 19/41/16 18/118/16
f 44/43/16 61/119/16 46/120/16
f 46/120/16 52/121/16 51/122/16
f 41/123/56 25/124/57 40/125/58
f 14/126/16 40/125/58 39/115/16
f 38/116/16 62/127/16 2/114/16
f 20/128/16 63/129/16 62/127/16
f 50/130/16 64/131/16 63/129/16
f 49/132/16 3/133/16 64/131/16
f 59/134/31 28/58/17 56/135/19
f 60/136/31 56/135/19 57/137/19
f 61/138/31 57/137/19 58/110/19
f 28/33/17 37/108/40 17/34/18
f 45/36/20 47/139/50 42/37/19
f 43/39/21 45/36/20 58/38/19
f 19/41/16 59/140/16 60/42/16
f 52/109/31 61/138/31 58/110/19
f 17/34/18 43/39/21 57/40/19
f 31/30/15 33/29/14 23/112/54
f 2/114/16 14/126/16 39/115/16
f 26/117/16 18/118/16 35/32/16
f 26/117/16 59/140/16 19/41/16
f 44/43/16 60/42/16 61/119/16
f 46/120/16 61/119/16 52/121/16
f 41/123/56 24/141/59 25/124/57
f 14/126/16 41/123/56 40/125/58
f 38/116/16 20/128/16 62/127/16
f 20/128/16 50/130/16 63/129/16
f 50/130/16 49/132/16 64/131/16
f 49/132/16 48/142/16 3/133/16
f 59/134/31 26/56/31 28/58/17
f 60/136/31 59/134/31 56/135/19
f 61/138/31 60/136/31 57/137/19
