# Blender v3.1.2 OBJ File: 'Map.blend'
# www.blender.org
mtllib Map017.mtl
o Map.017_Plane.035
v -0.500001 0.000000 -0.500000
v 0.500000 -0.000000 0.500000
v 0.499999 0.000000 -0.500000
v -0.500000 -0.000000 0.500000
v 0.499999 0.109271 -0.500000
v 0.499999 0.089271 -0.500000
v 0.499999 0.106591 -0.500000
v 0.499999 0.099271 -0.500000
v -0.500000 0.109271 0.480001
v -0.499999 0.089271 0.500001
v -0.499999 0.106591 0.490001
v -0.499999 0.099271 0.497322
v -0.351979 0.109271 -0.500000
v -0.331979 0.089271 -0.500000
v -0.341979 0.106591 -0.500000
v -0.334658 0.099271 -0.500000
v -0.500001 0.089271 -0.499999
v -0.500001 0.109271 -0.499999
v -0.500001 0.099271 -0.499999
v -0.500001 0.106591 -0.499999
v 0.351977 0.109271 -0.500000
v 0.331977 0.089271 -0.500000
v 0.341977 0.106591 -0.500000
v 0.334657 0.099271 -0.500000
v 0.499999 0.109271 0.480000
v 0.499999 0.089271 0.500000
v 0.499999 0.106591 0.490000
v 0.499999 0.099271 0.497321
v 0.351978 0.109271 0.480000
v 0.331978 0.089271 0.500000
v 0.341978 0.106591 0.490000
v 0.334657 0.099271 0.497321
v -0.351978 0.109271 0.480001
v -0.331978 0.089271 0.500000
v -0.341978 0.106591 0.490001
v -0.334657 0.099271 0.497321
v -0.331979 0.020000 -0.500000
v -0.311979 0.000000 -0.500000
v -0.329299 0.010000 -0.500000
v -0.321979 0.002680 -0.500000
v -0.311978 -0.000000 0.500000
v -0.331978 0.020000 0.500000
v -0.321978 0.002679 0.500000
v -0.329298 0.010000 0.500000
v 0.311977 0.000000 -0.500000
v 0.331977 0.020000 -0.500000
v 0.321977 0.002680 -0.500000
v 0.329298 0.010000 -0.500000
v 0.331978 0.020000 0.500000
v 0.311978 -0.000000 0.500000
v 0.329298 0.010000 0.500000
v 0.321978 0.002679 0.500000
vt 0.251440 0.889942
vt 0.182415 0.110058
vt 0.251441 0.110058
vt 0.174410 0.889942
vt 0.182415 0.889942
vt 0.333957 0.256693
vt 0.341756 0.123566
vt 0.349555 0.125656
vt 0.417086 0.248894
vt 0.419176 0.141253
vt 0.419176 0.241096
vt 0.411377 0.254604
vt 0.417086 0.133455
vt 0.411377 0.127745
vt 0.403578 0.256693
vt 0.403578 0.125656
vt 0.174410 0.110058
vt 0.333957 0.110058
vt 0.336047 0.117857
vt 0.310363 0.846022
vt 0.263155 0.153978
vt 0.310363 0.153978
vt 0.266099 0.110058
vt 0.319299 0.889942
vt 0.266099 0.889942
vt 0.169081 0.846022
vt 0.080679 0.153978
vt 0.169081 0.153978
vt 0.160362 0.110058
vt 0.060739 0.889942
vt 0.060739 0.110058
vt 0.237360 0.153978
vt 0.244463 0.846022
vt 0.237360 0.846022
vt 0.244463 0.153978
vt 0.250147 0.846022
vt 0.073896 0.153978
vt 0.080679 0.846022
vt 0.073896 0.846022
vt 0.176109 0.153978
vt 0.176109 0.846022
vt 0.250147 0.846022
vt 0.256017 0.153978
vt 0.256017 0.846022
vt 0.263154 0.846022
vt 0.319299 0.110058
vt 0.327343 0.889942
vt 0.327343 0.110058
vt 0.333957 0.889942
vt 0.052819 0.110058
vt 0.052818 0.889942
vt 0.160361 0.889942
vt 0.168005 0.110058
vt 0.168005 0.889942
vt 0.176109 0.846022
vt 0.317500 0.846022
vt 0.317500 0.153978
vt 0.323370 0.846022
vt 0.398990 0.153978
vt 0.406019 0.846022
vt 0.398990 0.846022
vt 0.419176 0.110058
vt 0.427096 0.889942
vt 0.419176 0.889942
vt 0.251441 0.110058
vt 0.258055 0.889942
vt 0.251441 0.889942
vt 0.258055 0.110058
vt 0.752986 0.398341
vt 0.620656 0.703111
vt 0.752986 0.703111
vt 0.330291 0.282243
vt 0.325224 0.174739
vt 0.330291 0.169673
vt 0.325224 0.277177
vt 0.323370 0.181660
vt 0.337211 0.284097
vt 0.392070 0.165964
vt 0.397136 0.160898
vt 0.398990 0.284097
vt 0.250147 0.153978
vt 0.250147 0.153978
vt 0.333957 0.110058
vt 0.176109 0.153978
vt 0.323370 0.153978
vt 0.406019 0.153978
vt 0.427096 0.110058
vt 0.620656 0.398341
vt 0.323370 0.270256
vt 0.337211 0.167819
vt 0.385150 0.167819
vt 0.398990 0.153978
vn -1.0000 -0.0000 0.0000
vn 0.0000 0.0000 1.0000
vn -0.0959 0.9254 0.3667
vn 0.0523 0.9891 0.1374
vn -0.0600 0.9770 0.2047
vn 0.0000 0.6037 0.7972
vn 0.0583 0.7965 0.6018
vn -0.1147 0.7670 0.6313
vn 0.0137 0.2823 0.9592
vn 0.0000 0.2588 0.9659
vn 0.1429 0.9437 0.2983
vn 0.0268 0.7009 0.7127
vn -0.1369 0.2563 0.9569
vn -0.7174 0.1940 0.6691
vn -0.9914 0.1305 0.0000
vn 0.9914 0.1305 -0.0000
vn 0.9929 0.1191 -0.0000
vn 0.0427 0.9942 0.0988
vn 0.7008 0.7051 -0.1085
vn -0.1292 0.9815 -0.1413
vn -0.6959 0.6957 -0.1781
vn 0.1024 0.9862 0.1302
vn 0.1276 0.9881 -0.0859
vn 1.0000 0.0000 -0.0000
vn 0.6661 0.1843 0.7227
vn 0.6789 0.0958 0.7280
vn 0.6656 0.4979 0.5560
vn 0.9891 0.1450 -0.0254
vn 0.6806 0.7298 -0.0650
vn -0.3825 0.9238 0.0185
vn -0.1846 0.9653 0.1846
vn -0.8660 0.5000 0.0000
vn -0.5664 0.5986 0.5664
vn -0.6972 0.1672 0.6972
vn 0.9000 0.4349 0.0291
vn 0.8660 0.5000 -0.0000
vn 0.5167 0.8464 0.1287
vn 0.3539 0.9349 -0.0282
vn -0.8424 0.5331 0.0790
vn -0.9929 0.1176 0.0166
vn -0.9888 0.1343 0.0657
vn -0.9906 0.0684 0.1185
vn 0.7071 0.0000 0.7071
vn 0.0207 0.9779 0.2081
vn 0.5069 0.8365 0.2081
vn -0.5000 0.8660 0.0000
vn -0.1295 0.9767 0.1711
vn 0.1305 0.9914 0.0000
vn 0.5000 0.8660 -0.0000
vn -0.1305 0.9914 0.0000
usemtl Material.017
s off
f 4/1/1 17/2/1 1/3/1
f 12/4/1 17/2/1 10/5/1
f 4/6/2 44/7/2 42/8/2
f 11/9/3 33/10/4 9/11/5
f 12/12/6 35/13/7 11/9/8
f 36/14/9 10/15/10 34/16/10
f 4/1/1 10/5/1 17/2/1
f 12/4/1 19/17/1 17/2/1
f 34/16/2 10/15/2 42/8/2
f 10/15/2 4/6/2 42/8/2
f 4/6/2 41/18/2 43/19/2
f 4/6/2 43/19/2 44/7/2
f 11/9/3 35/13/11 33/10/4
f 12/12/6 36/14/12 35/13/7
f 36/14/9 12/12/13 10/15/10
s 1
f 49/20/14 22/21/15 46/22/15
f 37/23/16 34/24/17 42/25/16
f 29/26/18 5/27/19 21/28/20
f 18/29/21 33/30/22 13/31/23
f 6/32/24 28/33/25 26/34/26
f 8/35/24 27/36/27 28/33/25
f 7/37/28 25/38/29 27/39/27
f 29/26/18 23/40/30 31/41/31
f 31/42/31 24/43/32 32/44/33
f 32/44/33 22/21/15 30/45/34
f 14/46/16 36/47/35 34/24/17
f 16/48/36 35/49/37 36/47/35
f 15/50/38 33/30/22 35/51/37
f 9/52/39 20/53/40 11/54/41
f 11/54/41 19/17/1 12/4/42
f 2/55/43 6/32/24 26/34/26
f 46/22/15 51/56/44 49/20/14
f 48/57/32 52/58/45 51/56/44
f 47/59/46 50/60/47 52/61/45
f 38/62/48 43/63/49 41/64/48
f 40/65/49 44/66/36 43/67/49
f 39/68/36 42/25/16 44/66/36
f 41/69/48 45/70/50 38/71/48
f 28/72/25 31/73/31 32/74/33
f 27/75/27 29/76/18 31/73/31
f 32/74/33 26/77/26 28/72/25
f 51/78/44 52/79/45 2/80/43
f 49/20/14 30/45/34 22/21/15
f 37/23/16 14/46/16 34/24/17
f 29/26/18 25/38/29 5/27/19
f 18/29/21 9/52/39 33/30/22
f 6/32/24 8/35/24 28/33/25
f 8/35/24 7/81/28 27/36/27
f 7/37/28 5/27/19 25/38/29
f 29/26/18 21/28/20 23/40/30
f 31/42/31 23/82/30 24/43/32
f 32/44/33 24/43/32 22/21/15
f 14/46/16 16/48/36 36/47/35
f 16/48/36 15/83/38 35/49/37
f 15/50/38 13/31/23 33/30/22
f 9/52/39 18/29/21 20/53/40
f 11/54/41 20/53/40 19/17/1
f 2/55/43 3/84/24 6/32/24
f 46/22/15 48/57/32 51/56/44
f 48/57/32 47/85/46 52/58/45
f 47/59/46 45/86/50 50/60/47
f 38/62/48 40/87/49 43/63/49
f 40/65/49 39/68/36 44/66/36
f 39/68/36 37/23/16 42/25/16
f 41/69/48 50/88/47 45/70/50
f 28/72/25 27/75/27 31/73/31
f 27/75/27 25/89/29 29/76/18
f 32/74/33 30/90/34 26/77/26
f 2/80/43 26/77/26 49/91/14
f 26/77/26 30/90/34 49/91/14
f 52/79/45 50/92/47 2/80/43
f 2/80/43 49/91/14 51/78/44
