# Blender v3.1.2 OBJ File: ''
# www.blender.org
mtllib stageFlame.mtl
o Plane
v -1.000000 -1.000000 1.000000
v 1.000000 -1.000000 1.000000
v -1.000000 -1.000000 -1.000000
v 1.000000 -1.000000 -1.000000
v -1.000000 -0.890029 1.000000
v 1.000000 -0.890029 1.000000
v -1.000000 -0.890029 -1.000000
v 1.000000 -0.890029 -1.000000
v -1.000000 -1.000000 1.110000
v 1.000000 -1.000000 1.110000
v -1.000000 -0.890029 1.110000
v 1.000000 -0.890029 1.110000
v -1.110000 -1.000000 1.000000
v -1.110000 -1.000000 -1.000000
v -1.110000 -0.890029 1.000000
v -1.110000 -0.890029 -1.000000
v -1.110000 -1.000000 1.110000
v -1.110000 -0.890029 1.110000
v -1.000000 -1.000000 -1.110000
v 1.000000 -1.000000 -1.110000
v -1.000000 -0.890029 -1.110000
v 1.000000 -0.890029 -1.110000
v -1.110000 -1.000000 -1.110000
v -1.110000 -0.890029 -1.110000
v 1.110000 -1.000000 1.000000
v 1.110000 -1.000000 -1.000000
v 1.110000 -0.890029 1.000000
v 1.110000 -0.890029 -1.000000
v 1.110000 -1.000000 1.110000
v 1.110000 -0.890029 1.110000
v 1.110000 -1.000000 -1.110000
v 1.110000 -0.890029 -1.110000
v -1.000000 1.000000 1.000000
v 1.000000 1.000000 1.000000
v -1.000000 1.000000 -1.000000
v 1.000000 1.000000 -1.000000
v -1.000000 1.109971 1.000000
v 1.000000 1.109971 1.000000
v -1.000000 1.109971 -1.000000
v 1.000000 1.109971 -1.000000
v -1.000000 1.000000 1.110000
v 1.000000 1.000000 1.110000
v -1.000000 1.109971 1.110000
v 1.000000 1.109971 1.110000
v -1.110000 1.000000 1.000000
v -1.110000 1.000000 -1.000000
v -1.110000 1.109971 1.000000
v -1.110000 1.109971 -1.000000
v -1.110000 1.000000 1.110000
v -1.110000 1.109971 1.110000
v -1.000000 1.000000 -1.110000
v 1.000000 1.000000 -1.110000
v -1.000000 1.109971 -1.110000
v 1.000000 1.109971 -1.110000
v -1.110000 1.000000 -1.110000
v -1.110000 1.109971 -1.110000
v 1.110000 1.000000 1.000000
v 1.110000 1.000000 -1.000000
v 1.110000 1.109971 1.000000
v 1.110000 1.109971 -1.000000
v 1.110000 1.000000 1.110000
v 1.110000 1.109971 1.110000
v 1.110000 1.000000 -1.110000
v 1.110000 1.109971 -1.110000
vt 0.153722 0.689441
vt 0.153722 1.000000
vt 0.136646 1.000000
vt 0.136646 0.689441
vt 0.170799 0.689441
vt 0.170799 1.000000
vt 0.153722 1.000000
vt 0.153722 0.689441
vt 0.327640 0.361801
vt 0.327640 0.344720
vt 0.344720 0.344720
vt 0.344720 0.361801
vt 0.327640 0.672360
vt 0.344720 0.672360
vt 0.672356 0.361801
vt 0.655280 0.361801
vt 0.655280 0.344720
vt 0.672356 0.344720
vt 0.999991 0.017081
vt 0.982915 0.017081
vt 0.982915 0.000000
vt 0.999991 0.000000
vt 0.672356 0.017081
vt 0.672356 0.327640
vt 0.655280 0.327640
vt 0.655280 0.017081
vt 0.358660 0.689441
vt 0.375741 0.689441
vt 0.375741 0.982924
vt 0.358660 0.982924
vt 0.085404 0.689441
vt 0.085404 1.000000
vt 0.068323 1.000000
vt 0.068323 0.689441
vt 0.017081 0.672360
vt 0.327640 0.689441
vt 0.017081 0.689441
vt 0.999991 0.327640
vt 0.982915 0.327640
vt 0.999991 0.344720
vt 0.982915 0.344720
vt 0.017081 1.000000
vt 0.017081 0.689441
vt 0.034162 0.689441
vt 0.034162 1.000000
vt 0.655280 0.000000
vt 0.672356 0.000000
vt 0.017081 0.361801
vt 0.000000 0.672360
vt 0.000000 0.361801
vt 0.000000 0.689441
vt 0.672356 0.672360
vt 0.655280 0.672360
vt 0.672356 0.689441
vt 0.655280 0.689441
vt 0.689432 0.017081
vt 0.689432 0.000000
vt 0.102485 1.000000
vt 0.102485 0.689441
vt 0.119565 0.689441
vt 0.119565 1.000000
vt 0.017081 0.344720
vt 0.000000 0.344720
vt 0.982915 0.672360
vt 0.999991 0.672360
vt 0.999991 0.689441
vt 0.982915 0.689441
vt 0.999991 0.361801
vt 0.982915 0.361801
vt 0.982915 0.344720
vt 0.999991 0.344720
vt 0.361797 0.689441
vt 0.361797 0.672360
vt 0.672356 0.344720
vt 0.655280 0.344720
vt 0.307418 0.689441
vt 0.307418 0.982924
vt 0.290337 0.982924
vt 0.290337 0.689441
vt 0.344720 0.689441
vt 0.068323 0.689441
vt 0.068323 1.000000
vt 0.051242 1.000000
vt 0.051242 0.689441
vt 0.204951 0.689441
vt 0.204951 1.000000
vt 0.187875 1.000000
vt 0.187875 0.689441
vt 0.187875 0.689441
vt 0.187875 1.000000
vt 0.170799 1.000000
vt 0.170799 0.689441
vt 0.222027 0.689441
vt 0.222027 1.000000
vt 0.204951 1.000000
vt 0.204951 0.689441
vt 0.273256 0.689441
vt 0.273256 1.000000
vt 0.256180 1.000000
vt 0.256180 0.689441
vt 0.392821 0.689441
vt 0.409902 0.689441
vt 0.409902 0.982924
vt 0.392821 0.982924
vt 0.000000 1.000000
vt 0.000000 0.689441
vt 0.017081 0.689441
vt 0.017081 1.000000
vt 0.361797 0.361801
vt 0.344721 0.361801
vt 0.344721 0.344720
vt 0.361797 0.344720
vt 0.672356 0.017081
vt 0.672356 0.000000
vt 0.361797 0.017081
vt 0.361797 0.327640
vt 0.344721 0.327640
vt 0.344721 0.017081
vt 0.327640 0.344720
vt 0.327640 0.327640
vt 0.344720 0.327640
vt 0.344720 0.344720
vt 0.017081 0.327640
vt 0.017081 0.344720
vt 0.102485 0.689441
vt 0.102485 1.000000
vt 0.085404 1.000000
vt 0.085404 0.689441
vt 0.689432 0.327640
vt 0.672356 0.327640
vt 0.689432 0.344720
vt 0.672356 0.344720
vt 0.327640 0.017081
vt 0.344720 0.017081
vt 0.344721 0.000000
vt 0.361797 0.000000
vt 0.051242 0.689441
vt 0.051242 1.000000
vt 0.034162 1.000000
vt 0.034162 0.689441
vt 0.344721 0.672360
vt 0.344721 0.689441
vt 0.327640 0.000000
vt 0.344720 0.000000
vt 0.017081 0.017081
vt 0.017081 0.000000
vt 0.119565 1.000000
vt 0.119565 0.689441
vt 0.136646 0.689441
vt 0.136646 1.000000
vt 0.689432 0.689441
vt 0.689432 0.672360
vt 0.672356 0.672360
vt 0.672356 0.689441
vt 0.689432 0.361801
vt 0.672356 0.361801
vt 0.672356 0.344720
vt 0.689432 0.344720
vt 0.000000 0.344720
vt 0.000000 0.327640
vt 0.361797 0.344720
vt 0.344721 0.344720
vt 0.000000 0.017081
vt 0.000000 0.000000
vt 0.290337 0.689441
vt 0.290337 0.982924
vt 0.273256 0.982924
vt 0.273256 0.689441
vt 0.256180 0.689441
vt 0.256180 1.000000
vt 0.239104 1.000000
vt 0.239104 0.689441
vt 0.239104 0.689441
vt 0.239104 1.000000
vt 0.222027 1.000000
vt 0.222027 0.689441
vt 0.324498 0.689441
vt 0.324498 0.982924
vt 0.307418 0.982924
vt 0.307418 0.689441
vt 0.341579 0.689441
vt 0.358660 0.689441
vt 0.358660 0.982924
vt 0.341579 0.982924
vt 0.324498 0.689441
vt 0.341579 0.689441
vt 0.341579 0.982924
vt 0.324498 0.982924
vt 0.392821 0.689441
vt 0.392821 0.982924
vt 0.375741 0.982924
vt 0.375741 0.689441
vn 0.0000 0.0000 -1.0000
vn 1.0000 0.0000 0.0000
vn 0.0000 -1.0000 0.0000
vn -1.0000 0.0000 0.0000
vn 0.0000 0.0000 1.0000
vn 0.0000 1.0000 0.0000
usemtl Material.001
s off
f 2/1/1 1/2/1 5/3/1 6/4/1
f 1/5/2 3/6/2 7/7/2 5/8/2
f 4/9/3 20/10/3 31/11/3 26/12/3
f 2/13/3 4/9/3 26/12/3 25/14/3
f 20/15/1 22/16/1 32/17/1 31/18/1
f 14/19/4 16/20/4 24/21/4 23/22/4
f 9/23/5 10/24/5 12/25/5 11/26/5
f 16/27/5 7/28/5 35/29/5 46/30/5
f 6/31/6 5/32/6 11/33/6 12/34/6
f 1/35/3 2/13/3 10/36/3 9/37/3
f 14/19/4 13/38/4 15/39/4 16/20/4
f 15/39/4 13/38/4 17/40/4 18/41/4
f 5/42/6 7/43/6 16/44/6 15/45/6
f 9/23/5 11/26/5 18/46/5 17/47/5
f 3/48/3 1/35/3 13/49/3 14/50/3
f 1/35/3 9/37/3 17/51/3 13/49/3
f 20/15/1 19/52/1 21/53/1 22/16/1
f 21/53/1 19/52/1 23/54/1 24/55/1
f 16/20/4 46/56/4 55/57/4 24/21/4
f 7/58/6 8/59/6 22/60/6 21/61/6
f 4/9/3 3/48/3 19/62/3 20/10/3
f 3/48/3 14/50/3 23/63/3 19/62/3
f 28/64/2 26/65/2 31/66/2 32/67/2
f 25/68/2 27/69/2 30/70/2 29/71/2
f 25/68/2 26/65/2 28/64/2 27/69/2
f 24/55/1 55/72/1 51/73/1 21/53/1
f 12/25/5 10/24/5 29/74/5 30/75/5
f 21/76/2 51/77/2 35/78/2 7/79/2
f 10/36/3 2/13/3 25/14/3 29/80/3
f 8/81/6 6/82/6 27/83/6 28/84/6
f 4/85/4 2/86/4 6/87/4 8/88/4
f 3/89/5 4/90/5 8/91/5 7/92/5
f 34/93/1 33/94/1 37/95/1 38/96/1
f 33/97/2 35/98/2 39/99/2 37/100/2
f 22/101/4 8/102/4 36/103/4 52/104/4
f 34/105/3 36/106/3 58/107/3 57/108/3
f 52/109/1 54/110/1 64/111/1 63/112/1
f 46/56/4 48/113/4 56/114/4 55/57/4
f 41/115/5 42/116/5 44/117/5 43/118/5
f 43/119/6 37/120/6 47/121/6 50/122/6
f 38/123/6 37/120/6 43/119/6 44/124/6
f 33/125/3 34/126/3 42/127/3 41/128/3
f 46/56/4 45/129/4 47/130/4 48/113/4
f 47/130/4 45/129/4 49/131/4 50/132/4
f 37/120/6 39/133/6 48/134/6 47/121/6
f 41/115/5 43/118/5 50/135/5 49/136/5
f 35/137/3 33/138/3 45/139/3 46/140/3
f 22/16/1 52/109/1 63/112/1 32/17/1
f 52/109/1 51/73/1 53/141/1 54/110/1
f 53/141/1 51/73/1 55/72/1 56/142/1
f 48/134/6 39/133/6 53/143/6 56/144/6
f 39/133/6 40/145/6 54/146/6 53/143/6
f 36/147/3 35/148/3 51/149/3 52/150/3
f 32/67/2 63/151/2 58/152/2 28/64/2
f 60/153/2 58/152/2 63/151/2 64/154/2
f 57/155/2 59/156/2 62/157/2 61/158/2
f 57/155/2 58/152/2 60/153/2 59/156/2
f 38/123/6 44/124/6 62/159/6 59/160/6
f 44/117/5 42/116/5 61/161/5 62/162/5
f 54/146/6 40/145/6 60/163/6 64/164/6
f 28/165/5 58/166/5 36/167/5 8/168/5
f 40/145/6 38/123/6 59/160/6 60/163/6
f 36/169/4 34/170/4 38/171/4 40/172/4
f 35/173/5 36/174/5 40/175/5 39/176/5
f 18/41/4 49/131/4 45/129/4 15/39/4
f 11/26/5 41/115/5 49/136/5 18/46/5
f 15/177/1 45/178/1 33/179/1 5/180/1
f 11/181/2 5/182/2 33/183/2 41/184/2
f 30/75/5 61/161/5 42/116/5 12/25/5
f 27/69/2 57/155/2 61/158/2 30/70/2
f 6/185/4 12/186/4 42/187/4 34/188/4
f 6/189/1 34/190/1 57/191/1 27/192/1
